%TF.GenerationSoftware,KiCad,Pcbnew,(5.1.10)-1*%
%TF.CreationDate,2021-08-23T16:24:53+02:00*%
%TF.ProjectId,Console,436f6e73-6f6c-4652-9e6b-696361645f70,v01*%
%TF.SameCoordinates,Original*%
%TF.FileFunction,Legend,Bot*%
%TF.FilePolarity,Positive*%
%FSLAX46Y46*%
G04 Gerber Fmt 4.6, Leading zero omitted, Abs format (unit mm)*
G04 Created by KiCad (PCBNEW (5.1.10)-1) date 2021-08-23 16:24:53*
%MOMM*%
%LPD*%
G01*
G04 APERTURE LIST*
%ADD10C,0.150000*%
G04 APERTURE END LIST*
D10*
X209200238Y-67238619D02*
X209152619Y-67191000D01*
X209057380Y-67143380D01*
X208819285Y-67143380D01*
X208724047Y-67191000D01*
X208676428Y-67238619D01*
X208628809Y-67333857D01*
X208628809Y-67429095D01*
X208676428Y-67571952D01*
X209247857Y-68143380D01*
X208628809Y-68143380D01*
X208009761Y-67143380D02*
X207914523Y-67143380D01*
X207819285Y-67191000D01*
X207771666Y-67238619D01*
X207724047Y-67333857D01*
X207676428Y-67524333D01*
X207676428Y-67762428D01*
X207724047Y-67952904D01*
X207771666Y-68048142D01*
X207819285Y-68095761D01*
X207914523Y-68143380D01*
X208009761Y-68143380D01*
X208105000Y-68095761D01*
X208152619Y-68048142D01*
X208200238Y-67952904D01*
X208247857Y-67762428D01*
X208247857Y-67524333D01*
X208200238Y-67333857D01*
X208152619Y-67238619D01*
X208105000Y-67191000D01*
X208009761Y-67143380D01*
X207247857Y-68048142D02*
X207200238Y-68095761D01*
X207247857Y-68143380D01*
X207295476Y-68095761D01*
X207247857Y-68048142D01*
X207247857Y-68143380D01*
X206581190Y-67143380D02*
X206485952Y-67143380D01*
X206390714Y-67191000D01*
X206343095Y-67238619D01*
X206295476Y-67333857D01*
X206247857Y-67524333D01*
X206247857Y-67762428D01*
X206295476Y-67952904D01*
X206343095Y-68048142D01*
X206390714Y-68095761D01*
X206485952Y-68143380D01*
X206581190Y-68143380D01*
X206676428Y-68095761D01*
X206724047Y-68048142D01*
X206771666Y-67952904D01*
X206819285Y-67762428D01*
X206819285Y-67524333D01*
X206771666Y-67333857D01*
X206724047Y-67238619D01*
X206676428Y-67191000D01*
X206581190Y-67143380D01*
X205676428Y-67571952D02*
X205771666Y-67524333D01*
X205819285Y-67476714D01*
X205866904Y-67381476D01*
X205866904Y-67333857D01*
X205819285Y-67238619D01*
X205771666Y-67191000D01*
X205676428Y-67143380D01*
X205485952Y-67143380D01*
X205390714Y-67191000D01*
X205343095Y-67238619D01*
X205295476Y-67333857D01*
X205295476Y-67381476D01*
X205343095Y-67476714D01*
X205390714Y-67524333D01*
X205485952Y-67571952D01*
X205676428Y-67571952D01*
X205771666Y-67619571D01*
X205819285Y-67667190D01*
X205866904Y-67762428D01*
X205866904Y-67952904D01*
X205819285Y-68048142D01*
X205771666Y-68095761D01*
X205676428Y-68143380D01*
X205485952Y-68143380D01*
X205390714Y-68095761D01*
X205343095Y-68048142D01*
X205295476Y-67952904D01*
X205295476Y-67762428D01*
X205343095Y-67667190D01*
X205390714Y-67619571D01*
X205485952Y-67571952D01*
X204866904Y-68048142D02*
X204819285Y-68095761D01*
X204866904Y-68143380D01*
X204914523Y-68095761D01*
X204866904Y-68048142D01*
X204866904Y-68143380D01*
X204438333Y-67238619D02*
X204390714Y-67191000D01*
X204295476Y-67143380D01*
X204057380Y-67143380D01*
X203962142Y-67191000D01*
X203914523Y-67238619D01*
X203866904Y-67333857D01*
X203866904Y-67429095D01*
X203914523Y-67571952D01*
X204485952Y-68143380D01*
X203866904Y-68143380D01*
X203247857Y-67143380D02*
X203152619Y-67143380D01*
X203057380Y-67191000D01*
X203009761Y-67238619D01*
X202962142Y-67333857D01*
X202914523Y-67524333D01*
X202914523Y-67762428D01*
X202962142Y-67952904D01*
X203009761Y-68048142D01*
X203057380Y-68095761D01*
X203152619Y-68143380D01*
X203247857Y-68143380D01*
X203343095Y-68095761D01*
X203390714Y-68048142D01*
X203438333Y-67952904D01*
X203485952Y-67762428D01*
X203485952Y-67524333D01*
X203438333Y-67333857D01*
X203390714Y-67238619D01*
X203343095Y-67191000D01*
X203247857Y-67143380D01*
X202533571Y-67238619D02*
X202485952Y-67191000D01*
X202390714Y-67143380D01*
X202152619Y-67143380D01*
X202057380Y-67191000D01*
X202009761Y-67238619D01*
X201962142Y-67333857D01*
X201962142Y-67429095D01*
X202009761Y-67571952D01*
X202581190Y-68143380D01*
X201962142Y-68143380D01*
X201009761Y-68143380D02*
X201581190Y-68143380D01*
X201295476Y-68143380D02*
X201295476Y-67143380D01*
X201390714Y-67286238D01*
X201485952Y-67381476D01*
X201581190Y-67429095D01*
X209167952Y-66555880D02*
X209167952Y-65555880D01*
X208929857Y-65555880D01*
X208787000Y-65603500D01*
X208691761Y-65698738D01*
X208644142Y-65793976D01*
X208596523Y-65984452D01*
X208596523Y-66127309D01*
X208644142Y-66317785D01*
X208691761Y-66413023D01*
X208787000Y-66508261D01*
X208929857Y-66555880D01*
X209167952Y-66555880D01*
X207787000Y-66508261D02*
X207882238Y-66555880D01*
X208072714Y-66555880D01*
X208167952Y-66508261D01*
X208215571Y-66413023D01*
X208215571Y-66032071D01*
X208167952Y-65936833D01*
X208072714Y-65889214D01*
X207882238Y-65889214D01*
X207787000Y-65936833D01*
X207739380Y-66032071D01*
X207739380Y-66127309D01*
X208215571Y-66222547D01*
X207358428Y-66508261D02*
X207263190Y-66555880D01*
X207072714Y-66555880D01*
X206977476Y-66508261D01*
X206929857Y-66413023D01*
X206929857Y-66365404D01*
X206977476Y-66270166D01*
X207072714Y-66222547D01*
X207215571Y-66222547D01*
X207310809Y-66174928D01*
X207358428Y-66079690D01*
X207358428Y-66032071D01*
X207310809Y-65936833D01*
X207215571Y-65889214D01*
X207072714Y-65889214D01*
X206977476Y-65936833D01*
X206501285Y-66555880D02*
X206501285Y-65889214D01*
X206501285Y-65555880D02*
X206548904Y-65603500D01*
X206501285Y-65651119D01*
X206453666Y-65603500D01*
X206501285Y-65555880D01*
X206501285Y-65651119D01*
X205596523Y-65889214D02*
X205596523Y-66698738D01*
X205644142Y-66793976D01*
X205691761Y-66841595D01*
X205787000Y-66889214D01*
X205929857Y-66889214D01*
X206025095Y-66841595D01*
X205596523Y-66508261D02*
X205691761Y-66555880D01*
X205882238Y-66555880D01*
X205977476Y-66508261D01*
X206025095Y-66460642D01*
X206072714Y-66365404D01*
X206072714Y-66079690D01*
X206025095Y-65984452D01*
X205977476Y-65936833D01*
X205882238Y-65889214D01*
X205691761Y-65889214D01*
X205596523Y-65936833D01*
X205120333Y-65889214D02*
X205120333Y-66555880D01*
X205120333Y-65984452D02*
X205072714Y-65936833D01*
X204977476Y-65889214D01*
X204834619Y-65889214D01*
X204739380Y-65936833D01*
X204691761Y-66032071D01*
X204691761Y-66555880D01*
X203834619Y-66508261D02*
X203929857Y-66555880D01*
X204120333Y-66555880D01*
X204215571Y-66508261D01*
X204263190Y-66413023D01*
X204263190Y-66032071D01*
X204215571Y-65936833D01*
X204120333Y-65889214D01*
X203929857Y-65889214D01*
X203834619Y-65936833D01*
X203787000Y-66032071D01*
X203787000Y-66127309D01*
X204263190Y-66222547D01*
X202929857Y-66555880D02*
X202929857Y-65555880D01*
X202929857Y-66508261D02*
X203025095Y-66555880D01*
X203215571Y-66555880D01*
X203310809Y-66508261D01*
X203358428Y-66460642D01*
X203406047Y-66365404D01*
X203406047Y-66079690D01*
X203358428Y-65984452D01*
X203310809Y-65936833D01*
X203215571Y-65889214D01*
X203025095Y-65889214D01*
X202929857Y-65936833D01*
X201691761Y-66555880D02*
X201691761Y-65555880D01*
X201691761Y-65936833D02*
X201596523Y-65889214D01*
X201406047Y-65889214D01*
X201310809Y-65936833D01*
X201263190Y-65984452D01*
X201215571Y-66079690D01*
X201215571Y-66365404D01*
X201263190Y-66460642D01*
X201310809Y-66508261D01*
X201406047Y-66555880D01*
X201596523Y-66555880D01*
X201691761Y-66508261D01*
X200882238Y-65889214D02*
X200644142Y-66555880D01*
X200406047Y-65889214D02*
X200644142Y-66555880D01*
X200739380Y-66793976D01*
X200787000Y-66841595D01*
X200882238Y-66889214D01*
X200025095Y-66460642D02*
X199977476Y-66508261D01*
X200025095Y-66555880D01*
X200072714Y-66508261D01*
X200025095Y-66460642D01*
X200025095Y-66555880D01*
X200025095Y-65936833D02*
X199977476Y-65984452D01*
X200025095Y-66032071D01*
X200072714Y-65984452D01*
X200025095Y-65936833D01*
X200025095Y-66032071D01*
X198263190Y-65603500D02*
X198358428Y-65555880D01*
X198501285Y-65555880D01*
X198644142Y-65603500D01*
X198739380Y-65698738D01*
X198787000Y-65793976D01*
X198834619Y-65984452D01*
X198834619Y-66127309D01*
X198787000Y-66317785D01*
X198739380Y-66413023D01*
X198644142Y-66508261D01*
X198501285Y-66555880D01*
X198406047Y-66555880D01*
X198263190Y-66508261D01*
X198215571Y-66460642D01*
X198215571Y-66127309D01*
X198406047Y-66127309D01*
X197787000Y-66555880D02*
X197787000Y-65555880D01*
X197787000Y-66032071D02*
X197215571Y-66032071D01*
X197215571Y-66555880D02*
X197215571Y-65555880D01*
X196548904Y-65555880D02*
X196358428Y-65555880D01*
X196263190Y-65603500D01*
X196167952Y-65698738D01*
X196120333Y-65889214D01*
X196120333Y-66222547D01*
X196167952Y-66413023D01*
X196263190Y-66508261D01*
X196358428Y-66555880D01*
X196548904Y-66555880D01*
X196644142Y-66508261D01*
X196739380Y-66413023D01*
X196787000Y-66222547D01*
X196787000Y-65889214D01*
X196739380Y-65698738D01*
X196644142Y-65603500D01*
X196548904Y-65555880D01*
X195739380Y-66508261D02*
X195596523Y-66555880D01*
X195358428Y-66555880D01*
X195263190Y-66508261D01*
X195215571Y-66460642D01*
X195167952Y-66365404D01*
X195167952Y-66270166D01*
X195215571Y-66174928D01*
X195263190Y-66127309D01*
X195358428Y-66079690D01*
X195548904Y-66032071D01*
X195644142Y-65984452D01*
X195691761Y-65936833D01*
X195739380Y-65841595D01*
X195739380Y-65746357D01*
X195691761Y-65651119D01*
X195644142Y-65603500D01*
X195548904Y-65555880D01*
X195310809Y-65555880D01*
X195167952Y-65603500D01*
X194167952Y-66460642D02*
X194215571Y-66508261D01*
X194358428Y-66555880D01*
X194453666Y-66555880D01*
X194596523Y-66508261D01*
X194691761Y-66413023D01*
X194739380Y-66317785D01*
X194787000Y-66127309D01*
X194787000Y-65984452D01*
X194739380Y-65793976D01*
X194691761Y-65698738D01*
X194596523Y-65603500D01*
X194453666Y-65555880D01*
X194358428Y-65555880D01*
X194215571Y-65603500D01*
X194167952Y-65651119D01*
X193739380Y-66555880D02*
X193739380Y-65555880D01*
X193739380Y-66032071D02*
X193167952Y-66032071D01*
X193167952Y-66555880D02*
X193167952Y-65555880D01*
X192834619Y-65555880D02*
X192263190Y-65555880D01*
X192548904Y-66555880D02*
X192548904Y-65555880D01*
X209216476Y-68810214D02*
X208978380Y-69476880D01*
X208740285Y-68810214D01*
X208168857Y-68476880D02*
X208073619Y-68476880D01*
X207978380Y-68524500D01*
X207930761Y-68572119D01*
X207883142Y-68667357D01*
X207835523Y-68857833D01*
X207835523Y-69095928D01*
X207883142Y-69286404D01*
X207930761Y-69381642D01*
X207978380Y-69429261D01*
X208073619Y-69476880D01*
X208168857Y-69476880D01*
X208264095Y-69429261D01*
X208311714Y-69381642D01*
X208359333Y-69286404D01*
X208406952Y-69095928D01*
X208406952Y-68857833D01*
X208359333Y-68667357D01*
X208311714Y-68572119D01*
X208264095Y-68524500D01*
X208168857Y-68476880D01*
X206883142Y-69476880D02*
X207454571Y-69476880D01*
X207168857Y-69476880D02*
X207168857Y-68476880D01*
X207264095Y-68619738D01*
X207359333Y-68714976D01*
X207454571Y-68762595D01*
M02*
