%TF.GenerationSoftware,KiCad,Pcbnew,(5.1.10)-1*%
%TF.CreationDate,2021-08-23T16:24:53+02:00*%
%TF.ProjectId,Console,436f6e73-6f6c-4652-9e6b-696361645f70,v01*%
%TF.SameCoordinates,Original*%
%TF.FileFunction,Soldermask,Bot*%
%TF.FilePolarity,Negative*%
%FSLAX46Y46*%
G04 Gerber Fmt 4.6, Leading zero omitted, Abs format (unit mm)*
G04 Created by KiCad (PCBNEW (5.1.10)-1) date 2021-08-23 16:24:53*
%MOMM*%
%LPD*%
G01*
G04 APERTURE LIST*
%ADD10C,5.400000*%
%ADD11C,1.700000*%
%ADD12R,1.700000X1.700000*%
%ADD13O,1.700000X1.700000*%
%ADD14R,1.550000X1.550000*%
%ADD15C,1.550000*%
%ADD16O,1.050000X2.100000*%
%ADD17C,0.700000*%
G04 APERTURE END LIST*
D10*
%TO.C,PAD4*%
X213131000Y-123634000D03*
%TD*%
%TO.C,PAD3*%
X79350000Y-123698000D03*
%TD*%
%TO.C,PAD2*%
X213131000Y-67881500D03*
%TD*%
%TO.C,PAD1*%
X79350000Y-67881500D03*
%TD*%
D11*
%TO.C,J1*%
X189896000Y-111760000D03*
X189896000Y-114300000D03*
D12*
X184816000Y-114300000D03*
D11*
X184816000Y-111760000D03*
X187356000Y-114300000D03*
X187356000Y-111760000D03*
%TD*%
D13*
%TO.C,J4*%
X171450000Y-123126000D03*
X168910000Y-123126000D03*
X166370000Y-123126000D03*
D12*
X163830000Y-123126000D03*
%TD*%
D13*
%TO.C,J3*%
X128557000Y-123126000D03*
X126017000Y-123126000D03*
X123477000Y-123126000D03*
X120937000Y-123126000D03*
X118397000Y-123126000D03*
X115857000Y-123126000D03*
X113317000Y-123126000D03*
X110777000Y-123126000D03*
X108237000Y-123126000D03*
X105697000Y-123126000D03*
X103157000Y-123126000D03*
X100617000Y-123126000D03*
D12*
X98077000Y-123126000D03*
%TD*%
D13*
%TO.C,J5*%
X196309000Y-123126000D03*
X193769000Y-123126000D03*
X191229000Y-123126000D03*
D12*
X188689000Y-123126000D03*
%TD*%
D14*
%TO.C,SW1*%
X84655000Y-88773800D03*
D15*
X89655000Y-88773800D03*
X84655000Y-103273800D03*
X87155000Y-103273800D03*
X89655000Y-103273800D03*
G36*
G01*
X80355000Y-97073800D02*
X80355000Y-94473800D01*
G75*
G02*
X81555000Y-93273800I1200000J0D01*
G01*
X81555000Y-93273800D01*
G75*
G02*
X82755000Y-94473800I0J-1200000D01*
G01*
X82755000Y-97073800D01*
G75*
G02*
X81555000Y-98273800I-1200000J0D01*
G01*
X81555000Y-98273800D01*
G75*
G02*
X80355000Y-97073800I0J1200000D01*
G01*
G37*
G36*
G01*
X91555000Y-97073800D02*
X91555000Y-94473800D01*
G75*
G02*
X92755000Y-93273800I1200000J0D01*
G01*
X92755000Y-93273800D01*
G75*
G02*
X93955000Y-94473800I0J-1200000D01*
G01*
X93955000Y-97073800D01*
G75*
G02*
X92755000Y-98273800I-1200000J0D01*
G01*
X92755000Y-98273800D01*
G75*
G02*
X91555000Y-97073800I0J1200000D01*
G01*
G37*
%TD*%
D16*
%TO.C,J2*%
X150573000Y-71947200D03*
X141933000Y-71947200D03*
X150573000Y-67767200D03*
X141933000Y-67767200D03*
D17*
X149143000Y-71417200D03*
X143363000Y-71417200D03*
%TD*%
%TO.C,SW2*%
G36*
G01*
X130945000Y-97073800D02*
X130945000Y-94473800D01*
G75*
G02*
X132145000Y-93273800I1200000J0D01*
G01*
X132145000Y-93273800D01*
G75*
G02*
X133345000Y-94473800I0J-1200000D01*
G01*
X133345000Y-97073800D01*
G75*
G02*
X132145000Y-98273800I-1200000J0D01*
G01*
X132145000Y-98273800D01*
G75*
G02*
X130945000Y-97073800I0J1200000D01*
G01*
G37*
G36*
G01*
X119745000Y-97073800D02*
X119745000Y-94473800D01*
G75*
G02*
X120945000Y-93273800I1200000J0D01*
G01*
X120945000Y-93273800D01*
G75*
G02*
X122145000Y-94473800I0J-1200000D01*
G01*
X122145000Y-97073800D01*
G75*
G02*
X120945000Y-98273800I-1200000J0D01*
G01*
X120945000Y-98273800D01*
G75*
G02*
X119745000Y-97073800I0J1200000D01*
G01*
G37*
D15*
X129045000Y-103273800D03*
X126545000Y-103273800D03*
X124045000Y-103273800D03*
X129045000Y-88773800D03*
D14*
X124045000Y-88773800D03*
%TD*%
%TO.C,SW3*%
X163436000Y-88773800D03*
D15*
X168436000Y-88773800D03*
X163436000Y-103273800D03*
X165936000Y-103273800D03*
X168436000Y-103273800D03*
G36*
G01*
X159136000Y-97073800D02*
X159136000Y-94473800D01*
G75*
G02*
X160336000Y-93273800I1200000J0D01*
G01*
X160336000Y-93273800D01*
G75*
G02*
X161536000Y-94473800I0J-1200000D01*
G01*
X161536000Y-97073800D01*
G75*
G02*
X160336000Y-98273800I-1200000J0D01*
G01*
X160336000Y-98273800D01*
G75*
G02*
X159136000Y-97073800I0J1200000D01*
G01*
G37*
G36*
G01*
X170336000Y-97073800D02*
X170336000Y-94473800D01*
G75*
G02*
X171536000Y-93273800I1200000J0D01*
G01*
X171536000Y-93273800D01*
G75*
G02*
X172736000Y-94473800I0J-1200000D01*
G01*
X172736000Y-97073800D01*
G75*
G02*
X171536000Y-98273800I-1200000J0D01*
G01*
X171536000Y-98273800D01*
G75*
G02*
X170336000Y-97073800I0J1200000D01*
G01*
G37*
%TD*%
%TO.C,SW4*%
G36*
G01*
X209726000Y-97073800D02*
X209726000Y-94473800D01*
G75*
G02*
X210926000Y-93273800I1200000J0D01*
G01*
X210926000Y-93273800D01*
G75*
G02*
X212126000Y-94473800I0J-1200000D01*
G01*
X212126000Y-97073800D01*
G75*
G02*
X210926000Y-98273800I-1200000J0D01*
G01*
X210926000Y-98273800D01*
G75*
G02*
X209726000Y-97073800I0J1200000D01*
G01*
G37*
G36*
G01*
X198526000Y-97073800D02*
X198526000Y-94473800D01*
G75*
G02*
X199726000Y-93273800I1200000J0D01*
G01*
X199726000Y-93273800D01*
G75*
G02*
X200926000Y-94473800I0J-1200000D01*
G01*
X200926000Y-97073800D01*
G75*
G02*
X199726000Y-98273800I-1200000J0D01*
G01*
X199726000Y-98273800D01*
G75*
G02*
X198526000Y-97073800I0J1200000D01*
G01*
G37*
X207826000Y-103273800D03*
X205326000Y-103273800D03*
X202826000Y-103273800D03*
X207826000Y-88773800D03*
D14*
X202826000Y-88773800D03*
%TD*%
M02*
