%TF.GenerationSoftware,KiCad,Pcbnew,(5.1.10)-1*%
%TF.CreationDate,2021-08-23T16:24:53+02:00*%
%TF.ProjectId,Console,436f6e73-6f6c-4652-9e6b-696361645f70,v01*%
%TF.SameCoordinates,Original*%
%TF.FileFunction,Copper,L2,Bot*%
%TF.FilePolarity,Positive*%
%FSLAX46Y46*%
G04 Gerber Fmt 4.6, Leading zero omitted, Abs format (unit mm)*
G04 Created by KiCad (PCBNEW (5.1.10)-1) date 2021-08-23 16:24:53*
%MOMM*%
%LPD*%
G01*
G04 APERTURE LIST*
%TA.AperFunction,ComponentPad*%
%ADD10C,5.400000*%
%TD*%
%TA.AperFunction,ComponentPad*%
%ADD11C,1.700000*%
%TD*%
%TA.AperFunction,ComponentPad*%
%ADD12R,1.700000X1.700000*%
%TD*%
%TA.AperFunction,ComponentPad*%
%ADD13O,1.700000X1.700000*%
%TD*%
%TA.AperFunction,ComponentPad*%
%ADD14R,1.550000X1.550000*%
%TD*%
%TA.AperFunction,ComponentPad*%
%ADD15C,1.550000*%
%TD*%
%TA.AperFunction,ComponentPad*%
%ADD16O,1.050000X2.100000*%
%TD*%
%TA.AperFunction,ViaPad*%
%ADD17C,0.800000*%
%TD*%
%TA.AperFunction,Conductor*%
%ADD18C,0.250000*%
%TD*%
%TA.AperFunction,Conductor*%
%ADD19C,0.254000*%
%TD*%
%TA.AperFunction,Conductor*%
%ADD20C,0.100000*%
%TD*%
G04 APERTURE END LIST*
D10*
%TO.P,PAD4,1*%
%TO.N,N/C*%
X213131000Y-123634000D03*
%TD*%
%TO.P,PAD3,1*%
%TO.N,N/C*%
X79350000Y-123698000D03*
%TD*%
%TO.P,PAD2,1*%
%TO.N,N/C*%
X213131000Y-67881500D03*
%TD*%
%TO.P,PAD1,1*%
%TO.N,N/C*%
X79350000Y-67881500D03*
%TD*%
D11*
%TO.P,J1,6*%
%TO.N,GND*%
X189896000Y-111760000D03*
%TO.P,J1,5*%
%TO.N,RST*%
X189896000Y-114300000D03*
D12*
%TO.P,J1,1*%
%TO.N,MISO*%
X184816000Y-114300000D03*
D11*
%TO.P,J1,2*%
%TO.N,VCC*%
X184816000Y-111760000D03*
%TO.P,J1,3*%
%TO.N,SCK*%
X187356000Y-114300000D03*
%TO.P,J1,4*%
%TO.N,MOSI*%
X187356000Y-111760000D03*
%TD*%
D13*
%TO.P,J4,4*%
%TO.N,RST*%
X171450000Y-123126000D03*
%TO.P,J4,3*%
%TO.N,TX*%
X168910000Y-123126000D03*
%TO.P,J4,2*%
%TO.N,RX*%
X166370000Y-123126000D03*
D12*
%TO.P,J4,1*%
%TO.N,GND*%
X163830000Y-123126000D03*
%TD*%
D13*
%TO.P,J3,13*%
%TO.N,BTN4*%
X128557000Y-123126000D03*
%TO.P,J3,12*%
%TO.N,BTN3*%
X126017000Y-123126000D03*
%TO.P,J3,11*%
%TO.N,BTN2*%
X123477000Y-123126000D03*
%TO.P,J3,10*%
%TO.N,BTN1*%
X120937000Y-123126000D03*
%TO.P,J3,9*%
%TO.N,ENC4B*%
X118397000Y-123126000D03*
%TO.P,J3,8*%
%TO.N,ENC4A*%
X115857000Y-123126000D03*
%TO.P,J3,7*%
%TO.N,ENC3B*%
X113317000Y-123126000D03*
%TO.P,J3,6*%
%TO.N,ENC3A*%
X110777000Y-123126000D03*
%TO.P,J3,5*%
%TO.N,ENC2B*%
X108237000Y-123126000D03*
%TO.P,J3,4*%
%TO.N,ENC2A*%
X105697000Y-123126000D03*
%TO.P,J3,3*%
%TO.N,ENC1B*%
X103157000Y-123126000D03*
%TO.P,J3,2*%
%TO.N,ENC1A*%
X100617000Y-123126000D03*
D12*
%TO.P,J3,1*%
%TO.N,GND*%
X98077000Y-123126000D03*
%TD*%
D13*
%TO.P,J5,4*%
%TO.N,VCC*%
X196309000Y-123126000D03*
%TO.P,J5,3*%
%TO.N,SCL*%
X193769000Y-123126000D03*
%TO.P,J5,2*%
%TO.N,SDA*%
X191229000Y-123126000D03*
D12*
%TO.P,J5,1*%
%TO.N,GND*%
X188689000Y-123126000D03*
%TD*%
D14*
%TO.P,SW1,S1*%
%TO.N,GND*%
X84655000Y-88773800D03*
D15*
%TO.P,SW1,S2*%
%TO.N,BTN1*%
X89655000Y-88773800D03*
%TO.P,SW1,A*%
%TO.N,ENC1A*%
X84655000Y-103273800D03*
%TO.P,SW1,C*%
%TO.N,GND*%
X87155000Y-103273800D03*
%TO.P,SW1,B*%
%TO.N,ENC1B*%
X89655000Y-103273800D03*
%TO.P,SW1,3*%
%TO.N,N/C*%
%TA.AperFunction,ComponentPad*%
G36*
G01*
X80355000Y-97073800D02*
X80355000Y-94473800D01*
G75*
G02*
X81555000Y-93273800I1200000J0D01*
G01*
X81555000Y-93273800D01*
G75*
G02*
X82755000Y-94473800I0J-1200000D01*
G01*
X82755000Y-97073800D01*
G75*
G02*
X81555000Y-98273800I-1200000J0D01*
G01*
X81555000Y-98273800D01*
G75*
G02*
X80355000Y-97073800I0J1200000D01*
G01*
G37*
%TD.AperFunction*%
%TO.P,SW1,4*%
%TA.AperFunction,ComponentPad*%
G36*
G01*
X91555000Y-97073800D02*
X91555000Y-94473800D01*
G75*
G02*
X92755000Y-93273800I1200000J0D01*
G01*
X92755000Y-93273800D01*
G75*
G02*
X93955000Y-94473800I0J-1200000D01*
G01*
X93955000Y-97073800D01*
G75*
G02*
X92755000Y-98273800I-1200000J0D01*
G01*
X92755000Y-98273800D01*
G75*
G02*
X91555000Y-97073800I0J1200000D01*
G01*
G37*
%TD.AperFunction*%
%TD*%
D16*
%TO.P,J2,S1*%
%TO.N,GND*%
X150573000Y-71947200D03*
%TO.P,J2,S2*%
X141933000Y-71947200D03*
%TO.P,J2,S3*%
X150573000Y-67767200D03*
%TO.P,J2,S4*%
X141933000Y-67767200D03*
%TD*%
%TO.P,SW2,4*%
%TO.N,N/C*%
%TA.AperFunction,ComponentPad*%
G36*
G01*
X130945000Y-97073800D02*
X130945000Y-94473800D01*
G75*
G02*
X132145000Y-93273800I1200000J0D01*
G01*
X132145000Y-93273800D01*
G75*
G02*
X133345000Y-94473800I0J-1200000D01*
G01*
X133345000Y-97073800D01*
G75*
G02*
X132145000Y-98273800I-1200000J0D01*
G01*
X132145000Y-98273800D01*
G75*
G02*
X130945000Y-97073800I0J1200000D01*
G01*
G37*
%TD.AperFunction*%
%TO.P,SW2,3*%
%TA.AperFunction,ComponentPad*%
G36*
G01*
X119745000Y-97073800D02*
X119745000Y-94473800D01*
G75*
G02*
X120945000Y-93273800I1200000J0D01*
G01*
X120945000Y-93273800D01*
G75*
G02*
X122145000Y-94473800I0J-1200000D01*
G01*
X122145000Y-97073800D01*
G75*
G02*
X120945000Y-98273800I-1200000J0D01*
G01*
X120945000Y-98273800D01*
G75*
G02*
X119745000Y-97073800I0J1200000D01*
G01*
G37*
%TD.AperFunction*%
D15*
%TO.P,SW2,B*%
%TO.N,ENC2B*%
X129045000Y-103273800D03*
%TO.P,SW2,C*%
%TO.N,GND*%
X126545000Y-103273800D03*
%TO.P,SW2,A*%
%TO.N,ENC2A*%
X124045000Y-103273800D03*
%TO.P,SW2,S2*%
%TO.N,BTN2*%
X129045000Y-88773800D03*
D14*
%TO.P,SW2,S1*%
%TO.N,GND*%
X124045000Y-88773800D03*
%TD*%
%TO.P,SW3,S1*%
%TO.N,GND*%
X163436000Y-88773800D03*
D15*
%TO.P,SW3,S2*%
%TO.N,BTN3*%
X168436000Y-88773800D03*
%TO.P,SW3,A*%
%TO.N,ENC3A*%
X163436000Y-103273800D03*
%TO.P,SW3,C*%
%TO.N,GND*%
X165936000Y-103273800D03*
%TO.P,SW3,B*%
%TO.N,ENC3B*%
X168436000Y-103273800D03*
%TO.P,SW3,3*%
%TO.N,N/C*%
%TA.AperFunction,ComponentPad*%
G36*
G01*
X159136000Y-97073800D02*
X159136000Y-94473800D01*
G75*
G02*
X160336000Y-93273800I1200000J0D01*
G01*
X160336000Y-93273800D01*
G75*
G02*
X161536000Y-94473800I0J-1200000D01*
G01*
X161536000Y-97073800D01*
G75*
G02*
X160336000Y-98273800I-1200000J0D01*
G01*
X160336000Y-98273800D01*
G75*
G02*
X159136000Y-97073800I0J1200000D01*
G01*
G37*
%TD.AperFunction*%
%TO.P,SW3,4*%
%TA.AperFunction,ComponentPad*%
G36*
G01*
X170336000Y-97073800D02*
X170336000Y-94473800D01*
G75*
G02*
X171536000Y-93273800I1200000J0D01*
G01*
X171536000Y-93273800D01*
G75*
G02*
X172736000Y-94473800I0J-1200000D01*
G01*
X172736000Y-97073800D01*
G75*
G02*
X171536000Y-98273800I-1200000J0D01*
G01*
X171536000Y-98273800D01*
G75*
G02*
X170336000Y-97073800I0J1200000D01*
G01*
G37*
%TD.AperFunction*%
%TD*%
%TO.P,SW4,4*%
%TO.N,N/C*%
%TA.AperFunction,ComponentPad*%
G36*
G01*
X209726000Y-97073800D02*
X209726000Y-94473800D01*
G75*
G02*
X210926000Y-93273800I1200000J0D01*
G01*
X210926000Y-93273800D01*
G75*
G02*
X212126000Y-94473800I0J-1200000D01*
G01*
X212126000Y-97073800D01*
G75*
G02*
X210926000Y-98273800I-1200000J0D01*
G01*
X210926000Y-98273800D01*
G75*
G02*
X209726000Y-97073800I0J1200000D01*
G01*
G37*
%TD.AperFunction*%
%TO.P,SW4,3*%
%TA.AperFunction,ComponentPad*%
G36*
G01*
X198526000Y-97073800D02*
X198526000Y-94473800D01*
G75*
G02*
X199726000Y-93273800I1200000J0D01*
G01*
X199726000Y-93273800D01*
G75*
G02*
X200926000Y-94473800I0J-1200000D01*
G01*
X200926000Y-97073800D01*
G75*
G02*
X199726000Y-98273800I-1200000J0D01*
G01*
X199726000Y-98273800D01*
G75*
G02*
X198526000Y-97073800I0J1200000D01*
G01*
G37*
%TD.AperFunction*%
%TO.P,SW4,B*%
%TO.N,ENC4B*%
X207826000Y-103273800D03*
%TO.P,SW4,C*%
%TO.N,GND*%
X205326000Y-103273800D03*
%TO.P,SW4,A*%
%TO.N,ENC4A*%
X202826000Y-103273800D03*
%TO.P,SW4,S2*%
%TO.N,BTN4*%
X207826000Y-88773800D03*
D14*
%TO.P,SW4,S1*%
%TO.N,GND*%
X202826000Y-88773800D03*
%TD*%
D17*
%TO.N,VCC*%
X145295300Y-71491300D03*
X148730400Y-74199200D03*
X139065000Y-105410000D03*
%TO.N,RST*%
X140214500Y-73121700D03*
X191029200Y-82166000D03*
X139935200Y-77292200D03*
%TO.N,Net-(J2-PadA6)*%
X153879200Y-71455800D03*
X144180100Y-75176900D03*
%TO.N,Net-(J2-PadB6)*%
X150766500Y-77413600D03*
X145227800Y-74656400D03*
%TO.N,BTN4*%
X143853200Y-107418700D03*
%TO.N,BTN2*%
X146526600Y-106216500D03*
%TO.N,BTN1*%
X145622700Y-110354800D03*
%TO.N,ENC4B*%
X150528700Y-117113000D03*
%TO.N,ENC4A*%
X145580700Y-121897400D03*
%TO.N,ENC3B*%
X148138100Y-114713700D03*
%TO.N,TX*%
X131701000Y-78680200D03*
X146454400Y-113806600D03*
X136495120Y-105045330D03*
%TO.N,RX*%
X143909100Y-112396100D03*
%TO.N,SDA*%
X144410900Y-113309100D03*
%TD*%
D18*
%TO.N,GND*%
X141933000Y-67767200D02*
X141933000Y-71947200D01*
X202826000Y-100773800D02*
X205326000Y-103273800D01*
X202826000Y-88773800D02*
X202826000Y-100773800D01*
X189896000Y-111760000D02*
X200882200Y-100773800D01*
X200882200Y-100773800D02*
X202826000Y-100773800D01*
X141933000Y-71947200D02*
X137342400Y-71947200D01*
X137342400Y-71947200D02*
X124045000Y-85244600D01*
X124045000Y-85244600D02*
X124045000Y-88773800D01*
X84655000Y-88773800D02*
X84655000Y-89874100D01*
X87155000Y-103273800D02*
X87155000Y-92374100D01*
X87155000Y-92374100D02*
X84655000Y-89874100D01*
X150573000Y-67767200D02*
X150471700Y-67868500D01*
X150471700Y-67868500D02*
X150471700Y-70470600D01*
X150471700Y-70470600D02*
X150573000Y-70571900D01*
X124045000Y-88773800D02*
X124045000Y-100773800D01*
X124045000Y-100773800D02*
X126545000Y-103273800D01*
X150573000Y-71947200D02*
X150573000Y-70571900D01*
X150573000Y-71947200D02*
X150573000Y-73322500D01*
X150573000Y-73322500D02*
X163436000Y-86185500D01*
X163436000Y-86185500D02*
X163436000Y-88773800D01*
%TO.N,VCC*%
X148730400Y-74199200D02*
X148003200Y-74199200D01*
X148003200Y-74199200D02*
X145295300Y-71491300D01*
X184816000Y-111760000D02*
X184816000Y-103589300D01*
X184816000Y-103589300D02*
X168882700Y-87656000D01*
X168882700Y-87656000D02*
X167982600Y-87656000D01*
X167982600Y-87656000D02*
X165763000Y-89875600D01*
X165763000Y-89875600D02*
X162521300Y-89875600D01*
X162521300Y-89875600D02*
X152409700Y-79764000D01*
X152409700Y-79764000D02*
X152409700Y-77878500D01*
X152409700Y-77878500D02*
X148730400Y-74199200D01*
X139065000Y-105410000D02*
X152400000Y-92075000D01*
X152400000Y-79773700D02*
X152409700Y-79764000D01*
X152400000Y-92075000D02*
X152400000Y-79773700D01*
%TO.N,RST*%
X171450000Y-123126000D02*
X172625300Y-123126000D01*
X188705400Y-113109400D02*
X189896000Y-114300000D01*
X188705400Y-83087100D02*
X188705400Y-113109400D01*
X172625300Y-123126000D02*
X182641900Y-113109400D01*
X182641900Y-113109400D02*
X188705400Y-113109400D01*
X188705400Y-83087100D02*
X171544400Y-65926100D01*
X171544400Y-65926100D02*
X149196300Y-65926100D01*
X149196300Y-65926100D02*
X144119700Y-71002700D01*
X144119700Y-71002700D02*
X144119700Y-71642900D01*
X144119700Y-71642900D02*
X142420400Y-73342200D01*
X142420400Y-73342200D02*
X140435000Y-73342200D01*
X191029200Y-82166000D02*
X190108100Y-83087100D01*
X190108100Y-83087100D02*
X188705400Y-83087100D01*
X140435000Y-73342200D02*
X139935200Y-73842000D01*
X139935200Y-73842000D02*
X139935200Y-77292200D01*
X140435000Y-73342200D02*
X140214500Y-73121700D01*
%TO.N,Net-(J2-PadA6)*%
X153879200Y-71455800D02*
X153879200Y-69279200D01*
X153879200Y-69279200D02*
X150976400Y-66376400D01*
X150976400Y-66376400D02*
X149384500Y-66376400D01*
X149384500Y-66376400D02*
X144570000Y-71190900D01*
X144570000Y-71190900D02*
X144570000Y-71829500D01*
X144570000Y-71829500D02*
X144180100Y-72219400D01*
X144180100Y-72219400D02*
X144180100Y-75176900D01*
%TO.N,Net-(J2-PadB6)*%
X145227800Y-74656400D02*
X148009300Y-74656400D01*
X148009300Y-74656400D02*
X150766500Y-77413600D01*
%TO.N,BTN4*%
X128557000Y-123126000D02*
X128557000Y-121950700D01*
X143853200Y-107418700D02*
X129321200Y-121950700D01*
X129321200Y-121950700D02*
X128557000Y-121950700D01*
%TO.N,BTN3*%
X127192300Y-123126000D02*
X127192300Y-122611800D01*
X127192300Y-122611800D02*
X143113200Y-106690900D01*
X143113200Y-106690900D02*
X145975300Y-106690900D01*
X145975300Y-106690900D02*
X146226200Y-106941800D01*
X146226200Y-106941800D02*
X146878400Y-106941800D01*
X146878400Y-106941800D02*
X147385500Y-106434700D01*
X147385500Y-106434700D02*
X147385500Y-105222000D01*
X147385500Y-105222000D02*
X160791400Y-91816100D01*
X160791400Y-91816100D02*
X165393700Y-91816100D01*
X165393700Y-91816100D02*
X168436000Y-88773800D01*
X126017000Y-123126000D02*
X127192300Y-123126000D01*
%TO.N,BTN2*%
X132970900Y-106529100D02*
X132970900Y-112456800D01*
X132970900Y-112456800D02*
X123477000Y-121950700D01*
X129045000Y-88773800D02*
X129045000Y-98858200D01*
X129045000Y-98858200D02*
X132970900Y-102784100D01*
X132970900Y-102784100D02*
X132970900Y-106529100D01*
X132970900Y-106529100D02*
X138070600Y-106529100D01*
X138070600Y-106529100D02*
X138383200Y-106216500D01*
X138383200Y-106216500D02*
X146526600Y-106216500D01*
X123477000Y-123126000D02*
X123477000Y-121950700D01*
%TO.N,BTN1*%
X145622700Y-110354800D02*
X143013800Y-110354800D01*
X143013800Y-110354800D02*
X129041900Y-124326700D01*
X129041900Y-124326700D02*
X122725400Y-124326700D01*
X122725400Y-124326700D02*
X121524700Y-123126000D01*
X89655000Y-88773800D02*
X102514100Y-101632900D01*
X102514100Y-101632900D02*
X124009200Y-101632900D01*
X124009200Y-101632900D02*
X125295000Y-102918700D01*
X125295000Y-102918700D02*
X125295000Y-103581700D01*
X125295000Y-103581700D02*
X126087500Y-104374200D01*
X126087500Y-104374200D02*
X127087900Y-104374200D01*
X127087900Y-104374200D02*
X127795000Y-103667100D01*
X127795000Y-103667100D02*
X127795000Y-102965900D01*
X127795000Y-102965900D02*
X128587500Y-102173400D01*
X128587500Y-102173400D02*
X129501100Y-102173400D01*
X129501100Y-102173400D02*
X130161600Y-102833900D01*
X130161600Y-102833900D02*
X130161600Y-114489100D01*
X130161600Y-114489100D02*
X121524700Y-123126000D01*
X120937000Y-123126000D02*
X121524700Y-123126000D01*
%TO.N,ENC4B*%
X207826000Y-103273800D02*
X206718500Y-104381300D01*
X206718500Y-104381300D02*
X204850100Y-104381300D01*
X204850100Y-104381300D02*
X204076000Y-103607200D01*
X204076000Y-103607200D02*
X204076000Y-102897300D01*
X204076000Y-102897300D02*
X203326100Y-102147400D01*
X203326100Y-102147400D02*
X202370700Y-102147400D01*
X202370700Y-102147400D02*
X196548900Y-107969200D01*
X196548900Y-107969200D02*
X196548900Y-109324900D01*
X196548900Y-109324900D02*
X181551300Y-124322500D01*
X181551300Y-124322500D02*
X170982400Y-124322500D01*
X170982400Y-124322500D02*
X170180000Y-123520100D01*
X170180000Y-123520100D02*
X170180000Y-122637300D01*
X170180000Y-122637300D02*
X164655700Y-117113000D01*
X164655700Y-117113000D02*
X150528700Y-117113000D01*
%TO.N,ENC4A*%
X202826000Y-103273800D02*
X202826000Y-103775100D01*
X202826000Y-103775100D02*
X181828200Y-124772900D01*
X181828200Y-124772900D02*
X148456200Y-124772900D01*
X148456200Y-124772900D02*
X145580700Y-121897400D01*
%TO.N,ENC3B*%
X114492300Y-123126000D02*
X114492300Y-123493300D01*
X114492300Y-123493300D02*
X116265600Y-125266600D01*
X116265600Y-125266600D02*
X130012700Y-125266600D01*
X130012700Y-125266600D02*
X143643400Y-111635900D01*
X143643400Y-111635900D02*
X148117400Y-111635900D01*
X148117400Y-111635900D02*
X148204300Y-111722800D01*
X148204300Y-111722800D02*
X148204300Y-114647500D01*
X148204300Y-114647500D02*
X148138100Y-114713700D01*
X148204300Y-111722800D02*
X159987000Y-111722800D01*
X159987000Y-111722800D02*
X168436000Y-103273800D01*
X113317000Y-123126000D02*
X114492300Y-123126000D01*
%TO.N,ENC3A*%
X111952300Y-123126000D02*
X111952300Y-122758600D01*
X111952300Y-122758600D02*
X112760200Y-121950700D01*
X112760200Y-121950700D02*
X116346000Y-121950700D01*
X116346000Y-121950700D02*
X117127000Y-122731700D01*
X117127000Y-122731700D02*
X117127000Y-123571900D01*
X117127000Y-123571900D02*
X118371400Y-124816300D01*
X118371400Y-124816300D02*
X129826000Y-124816300D01*
X129826000Y-124816300D02*
X143562200Y-111080100D01*
X143562200Y-111080100D02*
X155629700Y-111080100D01*
X155629700Y-111080100D02*
X163436000Y-103273800D01*
X110777000Y-123126000D02*
X111952300Y-123126000D01*
%TO.N,ENC2B*%
X108237000Y-123126000D02*
X109412300Y-123126000D01*
X129045000Y-103273800D02*
X128925400Y-103273800D01*
X128925400Y-103273800D02*
X109412300Y-122786900D01*
X109412300Y-122786900D02*
X109412300Y-123126000D01*
%TO.N,ENC2A*%
X124045000Y-103273800D02*
X124045000Y-103602700D01*
X124045000Y-103602700D02*
X105697000Y-121950700D01*
X105697000Y-123126000D02*
X105697000Y-121950700D01*
%TO.N,ENC1B*%
X103157000Y-123126000D02*
X103157000Y-121950700D01*
X89655000Y-103273800D02*
X92095500Y-105714300D01*
X92095500Y-105714300D02*
X92095600Y-105714300D01*
X92095600Y-105714300D02*
X92095600Y-110889300D01*
X92095600Y-110889300D02*
X103157000Y-121950700D01*
%TO.N,ENC1A*%
X100617000Y-123126000D02*
X100617000Y-121950700D01*
X84655000Y-103273800D02*
X84655000Y-105988700D01*
X84655000Y-105988700D02*
X100617000Y-121950700D01*
%TO.N,TX*%
X146454400Y-113806600D02*
X146454400Y-114064400D01*
X146454400Y-114064400D02*
X152880100Y-120490100D01*
X152880100Y-120490100D02*
X165466100Y-120490100D01*
X165466100Y-120490100D02*
X167734700Y-122758700D01*
X167734700Y-122758700D02*
X167734700Y-123126000D01*
X168910000Y-123126000D02*
X167734700Y-123126000D01*
X131701000Y-78680200D02*
X136495120Y-83474320D01*
X136495120Y-83474320D02*
X136495120Y-105045330D01*
%TO.N,RX*%
X165194700Y-123126000D02*
X165194700Y-122318000D01*
X165194700Y-122318000D02*
X164093900Y-121217200D01*
X164093900Y-121217200D02*
X152806500Y-121217200D01*
X152806500Y-121217200D02*
X145136200Y-113546900D01*
X145136200Y-113546900D02*
X145136200Y-113008600D01*
X145136200Y-113008600D02*
X144523700Y-112396100D01*
X144523700Y-112396100D02*
X143909100Y-112396100D01*
X166370000Y-123126000D02*
X165194700Y-123126000D01*
%TO.N,SDA*%
X190053700Y-123126000D02*
X190053700Y-123934000D01*
X190053700Y-123934000D02*
X188762600Y-125225100D01*
X188762600Y-125225100D02*
X147865200Y-125225100D01*
X147865200Y-125225100D02*
X144410900Y-121770800D01*
X144410900Y-121770800D02*
X144410900Y-113309100D01*
X191229000Y-123126000D02*
X190053700Y-123126000D01*
%TD*%
D19*
%TO.N,GND*%
X143608703Y-70438896D02*
X143586263Y-70457312D01*
X143460014Y-70432200D01*
X143265986Y-70432200D01*
X143075686Y-70470053D01*
X142896428Y-70544304D01*
X142777507Y-70623765D01*
X142663441Y-70512153D01*
X142471864Y-70387137D01*
X142238810Y-70303236D01*
X142060000Y-70429037D01*
X142060000Y-71820200D01*
X142080000Y-71820200D01*
X142080000Y-72074200D01*
X142060000Y-72074200D01*
X142060000Y-72094200D01*
X141806000Y-72094200D01*
X141806000Y-72074200D01*
X140773000Y-72074200D01*
X140773000Y-72250094D01*
X140704756Y-72204495D01*
X140516398Y-72126474D01*
X140316439Y-72086700D01*
X140112561Y-72086700D01*
X139912602Y-72126474D01*
X139724244Y-72204495D01*
X139554726Y-72317763D01*
X139410563Y-72461926D01*
X139297295Y-72631444D01*
X139219274Y-72819802D01*
X139179500Y-73019761D01*
X139179500Y-73223639D01*
X139219274Y-73423598D01*
X139253247Y-73505615D01*
X139231673Y-73545976D01*
X139229654Y-73549754D01*
X139186197Y-73693015D01*
X139175200Y-73804668D01*
X139175200Y-73804678D01*
X139171524Y-73842000D01*
X139175200Y-73879323D01*
X139175201Y-76588488D01*
X139131263Y-76632426D01*
X139017995Y-76801944D01*
X138939974Y-76990302D01*
X138900200Y-77190261D01*
X138900200Y-77394139D01*
X138939974Y-77594098D01*
X139017995Y-77782456D01*
X139131263Y-77951974D01*
X139275426Y-78096137D01*
X139444944Y-78209405D01*
X139633302Y-78287426D01*
X139833261Y-78327200D01*
X140037139Y-78327200D01*
X140237098Y-78287426D01*
X140425456Y-78209405D01*
X140594974Y-78096137D01*
X140739137Y-77951974D01*
X140852405Y-77782456D01*
X140930426Y-77594098D01*
X140970200Y-77394139D01*
X140970200Y-77190261D01*
X140930426Y-76990302D01*
X140852405Y-76801944D01*
X140739137Y-76632426D01*
X140695200Y-76588489D01*
X140695200Y-74156801D01*
X140749801Y-74102200D01*
X142383078Y-74102200D01*
X142420400Y-74105876D01*
X142457722Y-74102200D01*
X142457733Y-74102200D01*
X142569386Y-74091203D01*
X142712647Y-74047746D01*
X142844676Y-73977174D01*
X142960401Y-73882201D01*
X142984204Y-73853197D01*
X143420100Y-73417301D01*
X143420101Y-74473188D01*
X143376163Y-74517126D01*
X143262895Y-74686644D01*
X143184874Y-74875002D01*
X143145100Y-75074961D01*
X143145100Y-75278839D01*
X143184874Y-75478798D01*
X143262895Y-75667156D01*
X143376163Y-75836674D01*
X143520326Y-75980837D01*
X143689844Y-76094105D01*
X143878202Y-76172126D01*
X144078161Y-76211900D01*
X144282039Y-76211900D01*
X144481998Y-76172126D01*
X144670356Y-76094105D01*
X144839874Y-75980837D01*
X144984037Y-75836674D01*
X145086356Y-75683542D01*
X145125861Y-75691400D01*
X145329739Y-75691400D01*
X145529698Y-75651626D01*
X145718056Y-75573605D01*
X145887574Y-75460337D01*
X145931511Y-75416400D01*
X147694499Y-75416400D01*
X149731500Y-77453402D01*
X149731500Y-77515539D01*
X149771274Y-77715498D01*
X149849295Y-77903856D01*
X149962563Y-78073374D01*
X150106726Y-78217537D01*
X150276244Y-78330805D01*
X150464602Y-78408826D01*
X150664561Y-78448600D01*
X150868439Y-78448600D01*
X151068398Y-78408826D01*
X151256756Y-78330805D01*
X151426274Y-78217537D01*
X151550105Y-78093706D01*
X151649701Y-78193303D01*
X151649700Y-79637893D01*
X151636324Y-79773700D01*
X151640001Y-79811032D01*
X151640000Y-91760198D01*
X139025199Y-104375000D01*
X138963061Y-104375000D01*
X138763102Y-104414774D01*
X138574744Y-104492795D01*
X138405226Y-104606063D01*
X138261063Y-104750226D01*
X138147795Y-104919744D01*
X138069774Y-105108102D01*
X138030000Y-105308061D01*
X138030000Y-105511939D01*
X138035681Y-105540498D01*
X137958924Y-105581526D01*
X137843199Y-105676499D01*
X137819396Y-105705503D01*
X137755799Y-105769100D01*
X137235061Y-105769100D01*
X137299057Y-105705104D01*
X137412325Y-105535586D01*
X137490346Y-105347228D01*
X137530120Y-105147269D01*
X137530120Y-104943391D01*
X137490346Y-104743432D01*
X137412325Y-104555074D01*
X137299057Y-104385556D01*
X137255120Y-104341619D01*
X137255120Y-83511653D01*
X137258797Y-83474320D01*
X137244123Y-83325334D01*
X137200666Y-83182073D01*
X137130094Y-83050044D01*
X137058919Y-82963317D01*
X137035121Y-82934319D01*
X137006124Y-82910522D01*
X132736000Y-78640399D01*
X132736000Y-78578261D01*
X132696226Y-78378302D01*
X132618205Y-78189944D01*
X132504937Y-78020426D01*
X132360774Y-77876263D01*
X132191256Y-77762995D01*
X132002898Y-77684974D01*
X131802939Y-77645200D01*
X131599061Y-77645200D01*
X131399102Y-77684974D01*
X131210744Y-77762995D01*
X131041226Y-77876263D01*
X130897063Y-78020426D01*
X130783795Y-78189944D01*
X130705774Y-78378302D01*
X130666000Y-78578261D01*
X130666000Y-78782139D01*
X130705774Y-78982098D01*
X130783795Y-79170456D01*
X130897063Y-79339974D01*
X131041226Y-79484137D01*
X131210744Y-79597405D01*
X131399102Y-79675426D01*
X131599061Y-79715200D01*
X131661199Y-79715200D01*
X135735120Y-83789122D01*
X135735121Y-104341618D01*
X135691183Y-104385556D01*
X135577915Y-104555074D01*
X135499894Y-104743432D01*
X135460120Y-104943391D01*
X135460120Y-105147269D01*
X135499894Y-105347228D01*
X135577915Y-105535586D01*
X135691183Y-105705104D01*
X135755179Y-105769100D01*
X133730900Y-105769100D01*
X133730900Y-102821422D01*
X133734576Y-102784099D01*
X133730900Y-102746776D01*
X133730900Y-102746767D01*
X133719903Y-102635114D01*
X133676446Y-102491853D01*
X133666382Y-102473024D01*
X133605874Y-102359823D01*
X133534699Y-102273097D01*
X133510901Y-102244099D01*
X133481904Y-102220302D01*
X129805000Y-98543399D01*
X129805000Y-94473800D01*
X130306927Y-94473800D01*
X130306927Y-97073800D01*
X130342245Y-97432390D01*
X130446842Y-97777200D01*
X130616698Y-98094978D01*
X130845286Y-98373513D01*
X131123821Y-98602101D01*
X131441599Y-98771957D01*
X131786409Y-98876554D01*
X132144999Y-98911872D01*
X132145001Y-98911872D01*
X132503591Y-98876554D01*
X132848401Y-98771957D01*
X133166179Y-98602101D01*
X133444714Y-98373513D01*
X133673302Y-98094978D01*
X133843158Y-97777200D01*
X133947755Y-97432390D01*
X133983073Y-97073800D01*
X133983073Y-94473800D01*
X133947755Y-94115210D01*
X133843158Y-93770400D01*
X133673302Y-93452622D01*
X133444714Y-93174087D01*
X133166179Y-92945499D01*
X132848401Y-92775643D01*
X132503591Y-92671046D01*
X132145001Y-92635728D01*
X132144999Y-92635728D01*
X131786409Y-92671046D01*
X131441599Y-92775643D01*
X131123821Y-92945499D01*
X130845286Y-93174087D01*
X130616698Y-93452622D01*
X130446842Y-93770400D01*
X130342245Y-94115210D01*
X130306927Y-94473800D01*
X129805000Y-94473800D01*
X129805000Y-89961776D01*
X129943822Y-89869018D01*
X130140218Y-89672622D01*
X130294525Y-89441685D01*
X130400814Y-89185082D01*
X130455000Y-88912673D01*
X130455000Y-88634927D01*
X130400814Y-88362518D01*
X130294525Y-88105915D01*
X130140218Y-87874978D01*
X129943822Y-87678582D01*
X129712885Y-87524275D01*
X129456282Y-87417986D01*
X129183873Y-87363800D01*
X128906127Y-87363800D01*
X128633718Y-87417986D01*
X128377115Y-87524275D01*
X128146178Y-87678582D01*
X127949782Y-87874978D01*
X127795475Y-88105915D01*
X127689186Y-88362518D01*
X127635000Y-88634927D01*
X127635000Y-88912673D01*
X127689186Y-89185082D01*
X127795475Y-89441685D01*
X127949782Y-89672622D01*
X128146178Y-89869018D01*
X128285000Y-89961776D01*
X128285001Y-98820868D01*
X128281324Y-98858200D01*
X128295998Y-99007185D01*
X128339454Y-99150446D01*
X128410026Y-99282476D01*
X128481201Y-99369202D01*
X128505000Y-99398201D01*
X128533998Y-99421999D01*
X132210900Y-103098902D01*
X132210901Y-106491757D01*
X132207223Y-106529100D01*
X132210900Y-106566433D01*
X132210901Y-112141997D01*
X130921600Y-113431298D01*
X130921600Y-102871222D01*
X130925276Y-102833899D01*
X130921600Y-102796576D01*
X130921600Y-102796567D01*
X130910603Y-102684914D01*
X130867146Y-102541653D01*
X130841901Y-102494424D01*
X130796574Y-102409623D01*
X130725399Y-102322897D01*
X130701601Y-102293899D01*
X130672604Y-102270102D01*
X130064903Y-101662402D01*
X130041101Y-101633399D01*
X129925376Y-101538426D01*
X129793347Y-101467854D01*
X129650086Y-101424397D01*
X129538433Y-101413400D01*
X129538422Y-101413400D01*
X129501100Y-101409724D01*
X129463778Y-101413400D01*
X128624822Y-101413400D01*
X128587499Y-101409724D01*
X128550176Y-101413400D01*
X128550167Y-101413400D01*
X128438514Y-101424397D01*
X128295253Y-101467854D01*
X128163224Y-101538426D01*
X128047499Y-101633399D01*
X128023701Y-101662398D01*
X127480060Y-102206040D01*
X127456606Y-102182586D01*
X127340243Y-102298949D01*
X127271690Y-102057532D01*
X127020444Y-101939132D01*
X126750929Y-101872022D01*
X126473498Y-101858782D01*
X126198816Y-101899921D01*
X125937438Y-101993857D01*
X125818310Y-102057532D01*
X125749822Y-102298720D01*
X124573004Y-101121903D01*
X124549201Y-101092899D01*
X124433476Y-100997926D01*
X124301447Y-100927354D01*
X124158186Y-100883897D01*
X124046533Y-100872900D01*
X124046522Y-100872900D01*
X124009200Y-100869224D01*
X123971878Y-100872900D01*
X102828902Y-100872900D01*
X96429802Y-94473800D01*
X119106927Y-94473800D01*
X119106927Y-97073800D01*
X119142245Y-97432390D01*
X119246842Y-97777200D01*
X119416698Y-98094978D01*
X119645286Y-98373513D01*
X119923821Y-98602101D01*
X120241599Y-98771957D01*
X120586409Y-98876554D01*
X120944999Y-98911872D01*
X120945001Y-98911872D01*
X121303591Y-98876554D01*
X121648401Y-98771957D01*
X121966179Y-98602101D01*
X122244714Y-98373513D01*
X122473302Y-98094978D01*
X122643158Y-97777200D01*
X122747755Y-97432390D01*
X122783073Y-97073800D01*
X122783073Y-94473800D01*
X122747755Y-94115210D01*
X122643158Y-93770400D01*
X122473302Y-93452622D01*
X122244714Y-93174087D01*
X121966179Y-92945499D01*
X121648401Y-92775643D01*
X121303591Y-92671046D01*
X120945001Y-92635728D01*
X120944999Y-92635728D01*
X120586409Y-92671046D01*
X120241599Y-92775643D01*
X119923821Y-92945499D01*
X119645286Y-93174087D01*
X119416698Y-93452622D01*
X119246842Y-93770400D01*
X119142245Y-94115210D01*
X119106927Y-94473800D01*
X96429802Y-94473800D01*
X91504802Y-89548800D01*
X122631928Y-89548800D01*
X122644188Y-89673282D01*
X122680498Y-89792980D01*
X122739463Y-89903294D01*
X122818815Y-89999985D01*
X122915506Y-90079337D01*
X123025820Y-90138302D01*
X123145518Y-90174612D01*
X123270000Y-90186872D01*
X123759250Y-90183800D01*
X123918000Y-90025050D01*
X123918000Y-88900800D01*
X124172000Y-88900800D01*
X124172000Y-90025050D01*
X124330750Y-90183800D01*
X124820000Y-90186872D01*
X124944482Y-90174612D01*
X125064180Y-90138302D01*
X125174494Y-90079337D01*
X125271185Y-89999985D01*
X125350537Y-89903294D01*
X125409502Y-89792980D01*
X125445812Y-89673282D01*
X125458072Y-89548800D01*
X125455000Y-89059550D01*
X125296250Y-88900800D01*
X124172000Y-88900800D01*
X123918000Y-88900800D01*
X122793750Y-88900800D01*
X122635000Y-89059550D01*
X122631928Y-89548800D01*
X91504802Y-89548800D01*
X91032427Y-89076426D01*
X91065000Y-88912673D01*
X91065000Y-88634927D01*
X91010814Y-88362518D01*
X90904525Y-88105915D01*
X90832954Y-87998800D01*
X122631928Y-87998800D01*
X122635000Y-88488050D01*
X122793750Y-88646800D01*
X123918000Y-88646800D01*
X123918000Y-87522550D01*
X124172000Y-87522550D01*
X124172000Y-88646800D01*
X125296250Y-88646800D01*
X125455000Y-88488050D01*
X125458072Y-87998800D01*
X125445812Y-87874318D01*
X125409502Y-87754620D01*
X125350537Y-87644306D01*
X125271185Y-87547615D01*
X125174494Y-87468263D01*
X125064180Y-87409298D01*
X124944482Y-87372988D01*
X124820000Y-87360728D01*
X124330750Y-87363800D01*
X124172000Y-87522550D01*
X123918000Y-87522550D01*
X123759250Y-87363800D01*
X123270000Y-87360728D01*
X123145518Y-87372988D01*
X123025820Y-87409298D01*
X122915506Y-87468263D01*
X122818815Y-87547615D01*
X122739463Y-87644306D01*
X122680498Y-87754620D01*
X122644188Y-87874318D01*
X122631928Y-87998800D01*
X90832954Y-87998800D01*
X90750218Y-87874978D01*
X90553822Y-87678582D01*
X90322885Y-87524275D01*
X90066282Y-87417986D01*
X89793873Y-87363800D01*
X89516127Y-87363800D01*
X89243718Y-87417986D01*
X88987115Y-87524275D01*
X88756178Y-87678582D01*
X88559782Y-87874978D01*
X88405475Y-88105915D01*
X88299186Y-88362518D01*
X88245000Y-88634927D01*
X88245000Y-88912673D01*
X88299186Y-89185082D01*
X88405475Y-89441685D01*
X88559782Y-89672622D01*
X88756178Y-89869018D01*
X88987115Y-90023325D01*
X89243718Y-90129614D01*
X89516127Y-90183800D01*
X89793873Y-90183800D01*
X89957626Y-90151227D01*
X92470179Y-92663780D01*
X92396409Y-92671046D01*
X92051599Y-92775643D01*
X91733821Y-92945499D01*
X91455286Y-93174087D01*
X91226698Y-93452622D01*
X91056842Y-93770400D01*
X90952245Y-94115210D01*
X90916927Y-94473800D01*
X90916927Y-97073800D01*
X90952245Y-97432390D01*
X91056842Y-97777200D01*
X91226698Y-98094978D01*
X91455286Y-98373513D01*
X91733821Y-98602101D01*
X92051599Y-98771957D01*
X92396409Y-98876554D01*
X92754999Y-98911872D01*
X92755001Y-98911872D01*
X93113591Y-98876554D01*
X93458401Y-98771957D01*
X93776179Y-98602101D01*
X94054714Y-98373513D01*
X94283302Y-98094978D01*
X94453158Y-97777200D01*
X94557755Y-97432390D01*
X94593073Y-97073800D01*
X94593073Y-94786674D01*
X101950300Y-102143902D01*
X101974099Y-102172901D01*
X102089824Y-102267874D01*
X102221853Y-102338446D01*
X102365114Y-102381903D01*
X102409727Y-102386297D01*
X102514100Y-102396577D01*
X102551433Y-102392900D01*
X122937807Y-102392900D01*
X122795475Y-102605915D01*
X122689186Y-102862518D01*
X122635000Y-103134927D01*
X122635000Y-103412673D01*
X122689186Y-103685082D01*
X122747363Y-103825534D01*
X105185998Y-121386901D01*
X105157000Y-121410699D01*
X105133202Y-121439697D01*
X105133201Y-121439698D01*
X105062026Y-121526424D01*
X104991454Y-121658454D01*
X104979438Y-121698068D01*
X104947998Y-121801714D01*
X104943912Y-121843203D01*
X104750368Y-121972525D01*
X104543525Y-122179368D01*
X104427000Y-122353760D01*
X104310475Y-122179368D01*
X104103632Y-121972525D01*
X103910089Y-121843204D01*
X103906003Y-121801714D01*
X103862546Y-121658453D01*
X103858128Y-121650188D01*
X103791974Y-121526423D01*
X103720799Y-121439697D01*
X103697001Y-121410699D01*
X103668003Y-121386901D01*
X92855600Y-110574499D01*
X92855600Y-105751633D01*
X92859277Y-105714300D01*
X92844603Y-105565314D01*
X92801146Y-105422053D01*
X92730574Y-105290024D01*
X92635601Y-105174299D01*
X92606045Y-105150043D01*
X91032427Y-103576426D01*
X91065000Y-103412673D01*
X91065000Y-103134927D01*
X91010814Y-102862518D01*
X90904525Y-102605915D01*
X90750218Y-102374978D01*
X90553822Y-102178582D01*
X90322885Y-102024275D01*
X90066282Y-101917986D01*
X89793873Y-101863800D01*
X89516127Y-101863800D01*
X89243718Y-101917986D01*
X88987115Y-102024275D01*
X88756178Y-102178582D01*
X88559782Y-102374978D01*
X88405475Y-102605915D01*
X88404263Y-102608840D01*
X88371268Y-102547110D01*
X88129849Y-102478556D01*
X87334605Y-103273800D01*
X88129849Y-104069044D01*
X88371268Y-104000490D01*
X88402437Y-103934350D01*
X88405475Y-103941685D01*
X88559782Y-104172622D01*
X88756178Y-104369018D01*
X88987115Y-104523325D01*
X89243718Y-104629614D01*
X89516127Y-104683800D01*
X89793873Y-104683800D01*
X89957626Y-104651227D01*
X91335600Y-106029202D01*
X91335601Y-110851968D01*
X91331924Y-110889300D01*
X91335601Y-110926633D01*
X91346598Y-111038286D01*
X91359282Y-111080100D01*
X91390054Y-111181546D01*
X91460626Y-111313576D01*
X91508858Y-111372346D01*
X91555600Y-111429301D01*
X91584598Y-111453099D01*
X102157196Y-122025697D01*
X102003525Y-122179368D01*
X101887000Y-122353760D01*
X101770475Y-122179368D01*
X101563632Y-121972525D01*
X101370089Y-121843204D01*
X101366003Y-121801714D01*
X101322546Y-121658453D01*
X101318128Y-121650188D01*
X101251974Y-121526423D01*
X101180799Y-121439697D01*
X101157001Y-121410699D01*
X101128003Y-121386901D01*
X85415000Y-105673899D01*
X85415000Y-104461776D01*
X85553822Y-104369018D01*
X85674191Y-104248649D01*
X86359756Y-104248649D01*
X86428310Y-104490068D01*
X86679556Y-104608468D01*
X86949071Y-104675578D01*
X87226502Y-104688818D01*
X87501184Y-104647679D01*
X87762562Y-104553743D01*
X87881690Y-104490068D01*
X87950244Y-104248649D01*
X87155000Y-103453405D01*
X86359756Y-104248649D01*
X85674191Y-104248649D01*
X85750218Y-104172622D01*
X85904525Y-103941685D01*
X85905737Y-103938760D01*
X85938732Y-104000490D01*
X86180151Y-104069044D01*
X86975395Y-103273800D01*
X86180151Y-102478556D01*
X85938732Y-102547110D01*
X85907563Y-102613250D01*
X85904525Y-102605915D01*
X85750218Y-102374978D01*
X85674191Y-102298951D01*
X86359756Y-102298951D01*
X87155000Y-103094195D01*
X87950244Y-102298951D01*
X87881690Y-102057532D01*
X87630444Y-101939132D01*
X87360929Y-101872022D01*
X87083498Y-101858782D01*
X86808816Y-101899921D01*
X86547438Y-101993857D01*
X86428310Y-102057532D01*
X86359756Y-102298951D01*
X85674191Y-102298951D01*
X85553822Y-102178582D01*
X85322885Y-102024275D01*
X85066282Y-101917986D01*
X84793873Y-101863800D01*
X84516127Y-101863800D01*
X84243718Y-101917986D01*
X83987115Y-102024275D01*
X83756178Y-102178582D01*
X83559782Y-102374978D01*
X83405475Y-102605915D01*
X83299186Y-102862518D01*
X83245000Y-103134927D01*
X83245000Y-103412673D01*
X83299186Y-103685082D01*
X83405475Y-103941685D01*
X83559782Y-104172622D01*
X83756178Y-104369018D01*
X83895000Y-104461776D01*
X83895001Y-105951368D01*
X83891324Y-105988700D01*
X83895001Y-106026033D01*
X83905998Y-106137686D01*
X83910006Y-106150899D01*
X83949454Y-106280946D01*
X84020026Y-106412976D01*
X84070354Y-106474300D01*
X84115000Y-106528701D01*
X84143998Y-106552499D01*
X99617196Y-122025697D01*
X99538513Y-122104380D01*
X99516502Y-122031820D01*
X99457537Y-121921506D01*
X99378185Y-121824815D01*
X99281494Y-121745463D01*
X99171180Y-121686498D01*
X99051482Y-121650188D01*
X98927000Y-121637928D01*
X98362750Y-121641000D01*
X98204000Y-121799750D01*
X98204000Y-122999000D01*
X98224000Y-122999000D01*
X98224000Y-123253000D01*
X98204000Y-123253000D01*
X98204000Y-124452250D01*
X98362750Y-124611000D01*
X98927000Y-124614072D01*
X99051482Y-124601812D01*
X99171180Y-124565502D01*
X99281494Y-124506537D01*
X99378185Y-124427185D01*
X99457537Y-124330494D01*
X99516502Y-124220180D01*
X99538513Y-124147620D01*
X99670368Y-124279475D01*
X99913589Y-124441990D01*
X100183842Y-124553932D01*
X100470740Y-124611000D01*
X100763260Y-124611000D01*
X101050158Y-124553932D01*
X101320411Y-124441990D01*
X101563632Y-124279475D01*
X101770475Y-124072632D01*
X101887000Y-123898240D01*
X102003525Y-124072632D01*
X102210368Y-124279475D01*
X102453589Y-124441990D01*
X102723842Y-124553932D01*
X103010740Y-124611000D01*
X103303260Y-124611000D01*
X103590158Y-124553932D01*
X103860411Y-124441990D01*
X104103632Y-124279475D01*
X104310475Y-124072632D01*
X104427000Y-123898240D01*
X104543525Y-124072632D01*
X104750368Y-124279475D01*
X104993589Y-124441990D01*
X105263842Y-124553932D01*
X105550740Y-124611000D01*
X105843260Y-124611000D01*
X106130158Y-124553932D01*
X106400411Y-124441990D01*
X106643632Y-124279475D01*
X106850475Y-124072632D01*
X106967000Y-123898240D01*
X107083525Y-124072632D01*
X107290368Y-124279475D01*
X107533589Y-124441990D01*
X107803842Y-124553932D01*
X108090740Y-124611000D01*
X108383260Y-124611000D01*
X108670158Y-124553932D01*
X108940411Y-124441990D01*
X109183632Y-124279475D01*
X109390475Y-124072632D01*
X109507000Y-123898240D01*
X109623525Y-124072632D01*
X109830368Y-124279475D01*
X110073589Y-124441990D01*
X110343842Y-124553932D01*
X110630740Y-124611000D01*
X110923260Y-124611000D01*
X111210158Y-124553932D01*
X111480411Y-124441990D01*
X111723632Y-124279475D01*
X111930475Y-124072632D01*
X112047000Y-123898240D01*
X112163525Y-124072632D01*
X112370368Y-124279475D01*
X112613589Y-124441990D01*
X112883842Y-124553932D01*
X113170740Y-124611000D01*
X113463260Y-124611000D01*
X113750158Y-124553932D01*
X114020411Y-124441990D01*
X114227690Y-124303491D01*
X115701801Y-125777603D01*
X115725599Y-125806601D01*
X115754597Y-125830399D01*
X115841323Y-125901574D01*
X115895713Y-125930646D01*
X115973353Y-125972146D01*
X116116614Y-126015603D01*
X116228267Y-126026600D01*
X116228277Y-126026600D01*
X116265600Y-126030276D01*
X116302923Y-126026600D01*
X129975378Y-126026600D01*
X130012700Y-126030276D01*
X130050022Y-126026600D01*
X130050033Y-126026600D01*
X130161686Y-126015603D01*
X130304947Y-125972146D01*
X130436976Y-125901574D01*
X130552701Y-125806601D01*
X130576504Y-125777597D01*
X143201695Y-113152406D01*
X143249326Y-113200037D01*
X143375900Y-113284611D01*
X143375900Y-113411039D01*
X143415674Y-113610998D01*
X143493695Y-113799356D01*
X143606963Y-113968874D01*
X143650901Y-114012812D01*
X143650900Y-121733478D01*
X143647224Y-121770800D01*
X143650900Y-121808122D01*
X143650900Y-121808132D01*
X143661897Y-121919785D01*
X143694163Y-122026154D01*
X143705354Y-122063046D01*
X143775926Y-122195076D01*
X143796953Y-122220697D01*
X143870899Y-122310801D01*
X143899903Y-122334604D01*
X147301401Y-125736103D01*
X147325199Y-125765101D01*
X147354197Y-125788899D01*
X147440923Y-125860074D01*
X147572953Y-125930646D01*
X147716214Y-125974103D01*
X147827867Y-125985100D01*
X147827877Y-125985100D01*
X147865200Y-125988776D01*
X147902523Y-125985100D01*
X188725278Y-125985100D01*
X188762600Y-125988776D01*
X188799922Y-125985100D01*
X188799933Y-125985100D01*
X188911586Y-125974103D01*
X189054847Y-125930646D01*
X189186876Y-125860074D01*
X189302601Y-125765101D01*
X189326404Y-125736097D01*
X190564703Y-124497799D01*
X190593701Y-124474001D01*
X190596027Y-124471166D01*
X190795842Y-124553932D01*
X191082740Y-124611000D01*
X191375260Y-124611000D01*
X191662158Y-124553932D01*
X191932411Y-124441990D01*
X192175632Y-124279475D01*
X192382475Y-124072632D01*
X192499000Y-123898240D01*
X192615525Y-124072632D01*
X192822368Y-124279475D01*
X193065589Y-124441990D01*
X193335842Y-124553932D01*
X193622740Y-124611000D01*
X193915260Y-124611000D01*
X194202158Y-124553932D01*
X194472411Y-124441990D01*
X194715632Y-124279475D01*
X194922475Y-124072632D01*
X195039000Y-123898240D01*
X195155525Y-124072632D01*
X195362368Y-124279475D01*
X195605589Y-124441990D01*
X195875842Y-124553932D01*
X196162740Y-124611000D01*
X196455260Y-124611000D01*
X196742158Y-124553932D01*
X197012411Y-124441990D01*
X197255632Y-124279475D01*
X197462475Y-124072632D01*
X197624990Y-123829411D01*
X197736932Y-123559158D01*
X197794000Y-123272260D01*
X197794000Y-122979740D01*
X197736932Y-122692842D01*
X197624990Y-122422589D01*
X197462475Y-122179368D01*
X197255632Y-121972525D01*
X197012411Y-121810010D01*
X196742158Y-121698068D01*
X196455260Y-121641000D01*
X196162740Y-121641000D01*
X195875842Y-121698068D01*
X195605589Y-121810010D01*
X195362368Y-121972525D01*
X195155525Y-122179368D01*
X195039000Y-122353760D01*
X194922475Y-122179368D01*
X194715632Y-121972525D01*
X194472411Y-121810010D01*
X194202158Y-121698068D01*
X193915260Y-121641000D01*
X193622740Y-121641000D01*
X193335842Y-121698068D01*
X193065589Y-121810010D01*
X192822368Y-121972525D01*
X192615525Y-122179368D01*
X192499000Y-122353760D01*
X192382475Y-122179368D01*
X192175632Y-121972525D01*
X191932411Y-121810010D01*
X191662158Y-121698068D01*
X191375260Y-121641000D01*
X191082740Y-121641000D01*
X190795842Y-121698068D01*
X190525589Y-121810010D01*
X190282368Y-121972525D01*
X190150513Y-122104380D01*
X190128502Y-122031820D01*
X190069537Y-121921506D01*
X189990185Y-121824815D01*
X189893494Y-121745463D01*
X189783180Y-121686498D01*
X189663482Y-121650188D01*
X189539000Y-121637928D01*
X188974750Y-121641000D01*
X188816000Y-121799750D01*
X188816000Y-122999000D01*
X188836000Y-122999000D01*
X188836000Y-123253000D01*
X188816000Y-123253000D01*
X188816000Y-123273000D01*
X188562000Y-123273000D01*
X188562000Y-123253000D01*
X187362750Y-123253000D01*
X187204000Y-123411750D01*
X187200928Y-123976000D01*
X187213188Y-124100482D01*
X187249498Y-124220180D01*
X187308463Y-124330494D01*
X187387815Y-124427185D01*
X187434015Y-124465100D01*
X183210801Y-124465100D01*
X185399901Y-122276000D01*
X187200928Y-122276000D01*
X187204000Y-122840250D01*
X187362750Y-122999000D01*
X188562000Y-122999000D01*
X188562000Y-121799750D01*
X188403250Y-121641000D01*
X187839000Y-121637928D01*
X187714518Y-121650188D01*
X187594820Y-121686498D01*
X187484506Y-121745463D01*
X187387815Y-121824815D01*
X187308463Y-121921506D01*
X187249498Y-122031820D01*
X187213188Y-122151518D01*
X187200928Y-122276000D01*
X185399901Y-122276000D01*
X202998863Y-104677039D01*
X203237282Y-104629614D01*
X203493885Y-104523325D01*
X203724822Y-104369018D01*
X203743919Y-104349921D01*
X204286301Y-104892302D01*
X204310099Y-104921301D01*
X204425824Y-105016274D01*
X204557853Y-105086846D01*
X204701114Y-105130303D01*
X204812767Y-105141300D01*
X204812775Y-105141300D01*
X204850100Y-105144976D01*
X204887425Y-105141300D01*
X206681178Y-105141300D01*
X206718500Y-105144976D01*
X206755822Y-105141300D01*
X206755833Y-105141300D01*
X206867486Y-105130303D01*
X207010747Y-105086846D01*
X207142776Y-105016274D01*
X207258501Y-104921301D01*
X207282304Y-104892298D01*
X207523374Y-104651227D01*
X207687127Y-104683800D01*
X207964873Y-104683800D01*
X208237282Y-104629614D01*
X208493885Y-104523325D01*
X208724822Y-104369018D01*
X208921218Y-104172622D01*
X209075525Y-103941685D01*
X209181814Y-103685082D01*
X209236000Y-103412673D01*
X209236000Y-103134927D01*
X209181814Y-102862518D01*
X209075525Y-102605915D01*
X208921218Y-102374978D01*
X208724822Y-102178582D01*
X208493885Y-102024275D01*
X208237282Y-101917986D01*
X207964873Y-101863800D01*
X207687127Y-101863800D01*
X207414718Y-101917986D01*
X207158115Y-102024275D01*
X206927178Y-102178582D01*
X206730782Y-102374978D01*
X206576475Y-102605915D01*
X206575263Y-102608840D01*
X206542268Y-102547110D01*
X206300849Y-102478556D01*
X205505605Y-103273800D01*
X205519748Y-103287943D01*
X205340143Y-103467548D01*
X205326000Y-103453405D01*
X205311858Y-103467548D01*
X205132253Y-103287943D01*
X205146395Y-103273800D01*
X205132253Y-103259658D01*
X205311858Y-103080053D01*
X205326000Y-103094195D01*
X206121244Y-102298951D01*
X206052690Y-102057532D01*
X205801444Y-101939132D01*
X205531929Y-101872022D01*
X205254498Y-101858782D01*
X204979816Y-101899921D01*
X204718438Y-101993857D01*
X204599310Y-102057532D01*
X204535555Y-102282053D01*
X203889903Y-101636402D01*
X203866101Y-101607399D01*
X203750376Y-101512426D01*
X203618347Y-101441854D01*
X203475086Y-101398397D01*
X203363433Y-101387400D01*
X203363422Y-101387400D01*
X203326100Y-101383724D01*
X203288778Y-101387400D01*
X202408033Y-101387400D01*
X202370700Y-101383723D01*
X202333367Y-101387400D01*
X202221714Y-101398397D01*
X202078453Y-101441854D01*
X201946424Y-101512426D01*
X201830699Y-101607399D01*
X201806901Y-101636397D01*
X196037903Y-107405396D01*
X196008899Y-107429199D01*
X195965730Y-107481801D01*
X195913926Y-107544924D01*
X195896902Y-107576774D01*
X195843354Y-107676954D01*
X195799897Y-107820215D01*
X195788900Y-107931868D01*
X195788900Y-107931878D01*
X195785224Y-107969200D01*
X195788900Y-108006523D01*
X195788901Y-109010097D01*
X191208153Y-113590846D01*
X191049475Y-113353368D01*
X190842632Y-113146525D01*
X190669271Y-113030689D01*
X190744792Y-112788397D01*
X189896000Y-111939605D01*
X189881858Y-111953748D01*
X189702253Y-111774143D01*
X189716395Y-111760000D01*
X190075605Y-111760000D01*
X190924397Y-112608792D01*
X191173472Y-112531157D01*
X191299371Y-112267117D01*
X191371339Y-111983589D01*
X191386611Y-111691469D01*
X191344599Y-111401981D01*
X191246919Y-111126253D01*
X191173472Y-110988843D01*
X190924397Y-110911208D01*
X190075605Y-111760000D01*
X189716395Y-111760000D01*
X189702253Y-111745858D01*
X189881858Y-111566253D01*
X189896000Y-111580395D01*
X190744792Y-110731603D01*
X190667157Y-110482528D01*
X190403117Y-110356629D01*
X190119589Y-110284661D01*
X189827469Y-110269389D01*
X189537981Y-110311401D01*
X189465400Y-110337114D01*
X189465400Y-94473800D01*
X197887927Y-94473800D01*
X197887927Y-97073800D01*
X197923245Y-97432390D01*
X198027842Y-97777200D01*
X198197698Y-98094978D01*
X198426286Y-98373513D01*
X198704821Y-98602101D01*
X199022599Y-98771957D01*
X199367409Y-98876554D01*
X199725999Y-98911872D01*
X199726001Y-98911872D01*
X200084591Y-98876554D01*
X200429401Y-98771957D01*
X200747179Y-98602101D01*
X201025714Y-98373513D01*
X201254302Y-98094978D01*
X201424158Y-97777200D01*
X201528755Y-97432390D01*
X201564073Y-97073800D01*
X201564073Y-94473800D01*
X209087927Y-94473800D01*
X209087927Y-97073800D01*
X209123245Y-97432390D01*
X209227842Y-97777200D01*
X209397698Y-98094978D01*
X209626286Y-98373513D01*
X209904821Y-98602101D01*
X210222599Y-98771957D01*
X210567409Y-98876554D01*
X210925999Y-98911872D01*
X210926001Y-98911872D01*
X211284591Y-98876554D01*
X211629401Y-98771957D01*
X211947179Y-98602101D01*
X212225714Y-98373513D01*
X212454302Y-98094978D01*
X212624158Y-97777200D01*
X212728755Y-97432390D01*
X212764073Y-97073800D01*
X212764073Y-94473800D01*
X212728755Y-94115210D01*
X212624158Y-93770400D01*
X212454302Y-93452622D01*
X212225714Y-93174087D01*
X211947179Y-92945499D01*
X211629401Y-92775643D01*
X211284591Y-92671046D01*
X210926001Y-92635728D01*
X210925999Y-92635728D01*
X210567409Y-92671046D01*
X210222599Y-92775643D01*
X209904821Y-92945499D01*
X209626286Y-93174087D01*
X209397698Y-93452622D01*
X209227842Y-93770400D01*
X209123245Y-94115210D01*
X209087927Y-94473800D01*
X201564073Y-94473800D01*
X201528755Y-94115210D01*
X201424158Y-93770400D01*
X201254302Y-93452622D01*
X201025714Y-93174087D01*
X200747179Y-92945499D01*
X200429401Y-92775643D01*
X200084591Y-92671046D01*
X199726001Y-92635728D01*
X199725999Y-92635728D01*
X199367409Y-92671046D01*
X199022599Y-92775643D01*
X198704821Y-92945499D01*
X198426286Y-93174087D01*
X198197698Y-93452622D01*
X198027842Y-93770400D01*
X197923245Y-94115210D01*
X197887927Y-94473800D01*
X189465400Y-94473800D01*
X189465400Y-89548800D01*
X201412928Y-89548800D01*
X201425188Y-89673282D01*
X201461498Y-89792980D01*
X201520463Y-89903294D01*
X201599815Y-89999985D01*
X201696506Y-90079337D01*
X201806820Y-90138302D01*
X201926518Y-90174612D01*
X202051000Y-90186872D01*
X202540250Y-90183800D01*
X202699000Y-90025050D01*
X202699000Y-88900800D01*
X202953000Y-88900800D01*
X202953000Y-90025050D01*
X203111750Y-90183800D01*
X203601000Y-90186872D01*
X203725482Y-90174612D01*
X203845180Y-90138302D01*
X203955494Y-90079337D01*
X204052185Y-89999985D01*
X204131537Y-89903294D01*
X204190502Y-89792980D01*
X204226812Y-89673282D01*
X204239072Y-89548800D01*
X204236000Y-89059550D01*
X204077250Y-88900800D01*
X202953000Y-88900800D01*
X202699000Y-88900800D01*
X201574750Y-88900800D01*
X201416000Y-89059550D01*
X201412928Y-89548800D01*
X189465400Y-89548800D01*
X189465400Y-87998800D01*
X201412928Y-87998800D01*
X201416000Y-88488050D01*
X201574750Y-88646800D01*
X202699000Y-88646800D01*
X202699000Y-87522550D01*
X202953000Y-87522550D01*
X202953000Y-88646800D01*
X204077250Y-88646800D01*
X204089123Y-88634927D01*
X206416000Y-88634927D01*
X206416000Y-88912673D01*
X206470186Y-89185082D01*
X206576475Y-89441685D01*
X206730782Y-89672622D01*
X206927178Y-89869018D01*
X207158115Y-90023325D01*
X207414718Y-90129614D01*
X207687127Y-90183800D01*
X207964873Y-90183800D01*
X208237282Y-90129614D01*
X208493885Y-90023325D01*
X208724822Y-89869018D01*
X208921218Y-89672622D01*
X209075525Y-89441685D01*
X209181814Y-89185082D01*
X209236000Y-88912673D01*
X209236000Y-88634927D01*
X209181814Y-88362518D01*
X209075525Y-88105915D01*
X208921218Y-87874978D01*
X208724822Y-87678582D01*
X208493885Y-87524275D01*
X208237282Y-87417986D01*
X207964873Y-87363800D01*
X207687127Y-87363800D01*
X207414718Y-87417986D01*
X207158115Y-87524275D01*
X206927178Y-87678582D01*
X206730782Y-87874978D01*
X206576475Y-88105915D01*
X206470186Y-88362518D01*
X206416000Y-88634927D01*
X204089123Y-88634927D01*
X204236000Y-88488050D01*
X204239072Y-87998800D01*
X204226812Y-87874318D01*
X204190502Y-87754620D01*
X204131537Y-87644306D01*
X204052185Y-87547615D01*
X203955494Y-87468263D01*
X203845180Y-87409298D01*
X203725482Y-87372988D01*
X203601000Y-87360728D01*
X203111750Y-87363800D01*
X202953000Y-87522550D01*
X202699000Y-87522550D01*
X202540250Y-87363800D01*
X202051000Y-87360728D01*
X201926518Y-87372988D01*
X201806820Y-87409298D01*
X201696506Y-87468263D01*
X201599815Y-87547615D01*
X201520463Y-87644306D01*
X201461498Y-87754620D01*
X201425188Y-87874318D01*
X201412928Y-87998800D01*
X189465400Y-87998800D01*
X189465400Y-83847100D01*
X190070778Y-83847100D01*
X190108100Y-83850776D01*
X190145422Y-83847100D01*
X190145433Y-83847100D01*
X190257086Y-83836103D01*
X190400347Y-83792646D01*
X190532376Y-83722074D01*
X190648101Y-83627101D01*
X190671903Y-83598098D01*
X191069001Y-83201000D01*
X191131139Y-83201000D01*
X191331098Y-83161226D01*
X191519456Y-83083205D01*
X191688974Y-82969937D01*
X191833137Y-82825774D01*
X191946405Y-82656256D01*
X192024426Y-82467898D01*
X192064200Y-82267939D01*
X192064200Y-82064061D01*
X192024426Y-81864102D01*
X191946405Y-81675744D01*
X191833137Y-81506226D01*
X191688974Y-81362063D01*
X191519456Y-81248795D01*
X191331098Y-81170774D01*
X191131139Y-81131000D01*
X190927261Y-81131000D01*
X190727302Y-81170774D01*
X190538944Y-81248795D01*
X190369426Y-81362063D01*
X190225263Y-81506226D01*
X190111995Y-81675744D01*
X190033974Y-81864102D01*
X189994200Y-82064061D01*
X189994200Y-82126199D01*
X189793299Y-82327100D01*
X189020202Y-82327100D01*
X172123101Y-65430000D01*
X210866097Y-65430000D01*
X210540536Y-65755561D01*
X210175561Y-66301785D01*
X209924162Y-66908716D01*
X209796000Y-67553031D01*
X209796000Y-68209969D01*
X209924162Y-68854284D01*
X210175561Y-69461215D01*
X210540536Y-70007439D01*
X211005061Y-70471964D01*
X211551285Y-70836939D01*
X212158216Y-71088338D01*
X212802531Y-71216500D01*
X213459469Y-71216500D01*
X214103784Y-71088338D01*
X214710715Y-70836939D01*
X215256939Y-70471964D01*
X215582500Y-70146403D01*
X215582501Y-121369098D01*
X215256939Y-121043536D01*
X214710715Y-120678561D01*
X214103784Y-120427162D01*
X213459469Y-120299000D01*
X212802531Y-120299000D01*
X212158216Y-120427162D01*
X211551285Y-120678561D01*
X211005061Y-121043536D01*
X210540536Y-121508061D01*
X210175561Y-122054285D01*
X209924162Y-122661216D01*
X209796000Y-123305531D01*
X209796000Y-123962469D01*
X209924162Y-124606784D01*
X210175561Y-125213715D01*
X210540536Y-125759939D01*
X210898097Y-126117500D01*
X81646903Y-126117500D01*
X81940464Y-125823939D01*
X82305439Y-125277715D01*
X82556838Y-124670784D01*
X82685000Y-124026469D01*
X82685000Y-123976000D01*
X96588928Y-123976000D01*
X96601188Y-124100482D01*
X96637498Y-124220180D01*
X96696463Y-124330494D01*
X96775815Y-124427185D01*
X96872506Y-124506537D01*
X96982820Y-124565502D01*
X97102518Y-124601812D01*
X97227000Y-124614072D01*
X97791250Y-124611000D01*
X97950000Y-124452250D01*
X97950000Y-123253000D01*
X96750750Y-123253000D01*
X96592000Y-123411750D01*
X96588928Y-123976000D01*
X82685000Y-123976000D01*
X82685000Y-123369531D01*
X82556838Y-122725216D01*
X82370767Y-122276000D01*
X96588928Y-122276000D01*
X96592000Y-122840250D01*
X96750750Y-122999000D01*
X97950000Y-122999000D01*
X97950000Y-121799750D01*
X97791250Y-121641000D01*
X97227000Y-121637928D01*
X97102518Y-121650188D01*
X96982820Y-121686498D01*
X96872506Y-121745463D01*
X96775815Y-121824815D01*
X96696463Y-121921506D01*
X96637498Y-122031820D01*
X96601188Y-122151518D01*
X96588928Y-122276000D01*
X82370767Y-122276000D01*
X82305439Y-122118285D01*
X81940464Y-121572061D01*
X81475939Y-121107536D01*
X80929715Y-120742561D01*
X80322784Y-120491162D01*
X79678469Y-120363000D01*
X79021531Y-120363000D01*
X78377216Y-120491162D01*
X77770285Y-120742561D01*
X77224061Y-121107536D01*
X76898500Y-121433097D01*
X76898500Y-94473800D01*
X79716927Y-94473800D01*
X79716927Y-97073800D01*
X79752245Y-97432390D01*
X79856842Y-97777200D01*
X80026698Y-98094978D01*
X80255286Y-98373513D01*
X80533821Y-98602101D01*
X80851599Y-98771957D01*
X81196409Y-98876554D01*
X81554999Y-98911872D01*
X81555001Y-98911872D01*
X81913591Y-98876554D01*
X82258401Y-98771957D01*
X82576179Y-98602101D01*
X82854714Y-98373513D01*
X83083302Y-98094978D01*
X83253158Y-97777200D01*
X83357755Y-97432390D01*
X83393073Y-97073800D01*
X83393073Y-94473800D01*
X83357755Y-94115210D01*
X83253158Y-93770400D01*
X83083302Y-93452622D01*
X82854714Y-93174087D01*
X82576179Y-92945499D01*
X82258401Y-92775643D01*
X81913591Y-92671046D01*
X81555001Y-92635728D01*
X81554999Y-92635728D01*
X81196409Y-92671046D01*
X80851599Y-92775643D01*
X80533821Y-92945499D01*
X80255286Y-93174087D01*
X80026698Y-93452622D01*
X79856842Y-93770400D01*
X79752245Y-94115210D01*
X79716927Y-94473800D01*
X76898500Y-94473800D01*
X76898500Y-89548800D01*
X83241928Y-89548800D01*
X83254188Y-89673282D01*
X83290498Y-89792980D01*
X83349463Y-89903294D01*
X83428815Y-89999985D01*
X83525506Y-90079337D01*
X83635820Y-90138302D01*
X83755518Y-90174612D01*
X83880000Y-90186872D01*
X84369250Y-90183800D01*
X84528000Y-90025050D01*
X84528000Y-88900800D01*
X84782000Y-88900800D01*
X84782000Y-90025050D01*
X84940750Y-90183800D01*
X85430000Y-90186872D01*
X85554482Y-90174612D01*
X85674180Y-90138302D01*
X85784494Y-90079337D01*
X85881185Y-89999985D01*
X85960537Y-89903294D01*
X86019502Y-89792980D01*
X86055812Y-89673282D01*
X86068072Y-89548800D01*
X86065000Y-89059550D01*
X85906250Y-88900800D01*
X84782000Y-88900800D01*
X84528000Y-88900800D01*
X83403750Y-88900800D01*
X83245000Y-89059550D01*
X83241928Y-89548800D01*
X76898500Y-89548800D01*
X76898500Y-87998800D01*
X83241928Y-87998800D01*
X83245000Y-88488050D01*
X83403750Y-88646800D01*
X84528000Y-88646800D01*
X84528000Y-87522550D01*
X84782000Y-87522550D01*
X84782000Y-88646800D01*
X85906250Y-88646800D01*
X86065000Y-88488050D01*
X86068072Y-87998800D01*
X86055812Y-87874318D01*
X86019502Y-87754620D01*
X85960537Y-87644306D01*
X85881185Y-87547615D01*
X85784494Y-87468263D01*
X85674180Y-87409298D01*
X85554482Y-87372988D01*
X85430000Y-87360728D01*
X84940750Y-87363800D01*
X84782000Y-87522550D01*
X84528000Y-87522550D01*
X84369250Y-87363800D01*
X83880000Y-87360728D01*
X83755518Y-87372988D01*
X83635820Y-87409298D01*
X83525506Y-87468263D01*
X83428815Y-87547615D01*
X83349463Y-87644306D01*
X83290498Y-87754620D01*
X83254188Y-87874318D01*
X83241928Y-87998800D01*
X76898500Y-87998800D01*
X76898500Y-71295200D01*
X140773000Y-71295200D01*
X140773000Y-71820200D01*
X141806000Y-71820200D01*
X141806000Y-70429037D01*
X141627190Y-70303236D01*
X141394136Y-70387137D01*
X141202559Y-70512153D01*
X141039053Y-70672141D01*
X140909901Y-70860954D01*
X140820066Y-71071335D01*
X140773000Y-71295200D01*
X76898500Y-71295200D01*
X76898500Y-70146403D01*
X77224061Y-70471964D01*
X77770285Y-70836939D01*
X78377216Y-71088338D01*
X79021531Y-71216500D01*
X79678469Y-71216500D01*
X80322784Y-71088338D01*
X80929715Y-70836939D01*
X81475939Y-70471964D01*
X81940464Y-70007439D01*
X82305439Y-69461215D01*
X82556838Y-68854284D01*
X82685000Y-68209969D01*
X82685000Y-67894200D01*
X140773000Y-67894200D01*
X140773000Y-68419200D01*
X140820066Y-68643065D01*
X140909901Y-68853446D01*
X141039053Y-69042259D01*
X141202559Y-69202247D01*
X141394136Y-69327263D01*
X141627190Y-69411164D01*
X141806000Y-69285363D01*
X141806000Y-67894200D01*
X142060000Y-67894200D01*
X142060000Y-69285363D01*
X142238810Y-69411164D01*
X142471864Y-69327263D01*
X142663441Y-69202247D01*
X142826947Y-69042259D01*
X142956099Y-68853446D01*
X143045934Y-68643065D01*
X143093000Y-68419200D01*
X143093000Y-67894200D01*
X142060000Y-67894200D01*
X141806000Y-67894200D01*
X140773000Y-67894200D01*
X82685000Y-67894200D01*
X82685000Y-67553031D01*
X82597911Y-67115200D01*
X140773000Y-67115200D01*
X140773000Y-67640200D01*
X141806000Y-67640200D01*
X141806000Y-66249037D01*
X142060000Y-66249037D01*
X142060000Y-67640200D01*
X143093000Y-67640200D01*
X143093000Y-67115200D01*
X143045934Y-66891335D01*
X142956099Y-66680954D01*
X142826947Y-66492141D01*
X142663441Y-66332153D01*
X142471864Y-66207137D01*
X142238810Y-66123236D01*
X142060000Y-66249037D01*
X141806000Y-66249037D01*
X141627190Y-66123236D01*
X141394136Y-66207137D01*
X141202559Y-66332153D01*
X141039053Y-66492141D01*
X140909901Y-66680954D01*
X140820066Y-66891335D01*
X140773000Y-67115200D01*
X82597911Y-67115200D01*
X82556838Y-66908716D01*
X82305439Y-66301785D01*
X81940464Y-65755561D01*
X81614903Y-65430000D01*
X148617598Y-65430000D01*
X143608703Y-70438896D01*
%TA.AperFunction,Conductor*%
D20*
G36*
X143608703Y-70438896D02*
G01*
X143586263Y-70457312D01*
X143460014Y-70432200D01*
X143265986Y-70432200D01*
X143075686Y-70470053D01*
X142896428Y-70544304D01*
X142777507Y-70623765D01*
X142663441Y-70512153D01*
X142471864Y-70387137D01*
X142238810Y-70303236D01*
X142060000Y-70429037D01*
X142060000Y-71820200D01*
X142080000Y-71820200D01*
X142080000Y-72074200D01*
X142060000Y-72074200D01*
X142060000Y-72094200D01*
X141806000Y-72094200D01*
X141806000Y-72074200D01*
X140773000Y-72074200D01*
X140773000Y-72250094D01*
X140704756Y-72204495D01*
X140516398Y-72126474D01*
X140316439Y-72086700D01*
X140112561Y-72086700D01*
X139912602Y-72126474D01*
X139724244Y-72204495D01*
X139554726Y-72317763D01*
X139410563Y-72461926D01*
X139297295Y-72631444D01*
X139219274Y-72819802D01*
X139179500Y-73019761D01*
X139179500Y-73223639D01*
X139219274Y-73423598D01*
X139253247Y-73505615D01*
X139231673Y-73545976D01*
X139229654Y-73549754D01*
X139186197Y-73693015D01*
X139175200Y-73804668D01*
X139175200Y-73804678D01*
X139171524Y-73842000D01*
X139175200Y-73879323D01*
X139175201Y-76588488D01*
X139131263Y-76632426D01*
X139017995Y-76801944D01*
X138939974Y-76990302D01*
X138900200Y-77190261D01*
X138900200Y-77394139D01*
X138939974Y-77594098D01*
X139017995Y-77782456D01*
X139131263Y-77951974D01*
X139275426Y-78096137D01*
X139444944Y-78209405D01*
X139633302Y-78287426D01*
X139833261Y-78327200D01*
X140037139Y-78327200D01*
X140237098Y-78287426D01*
X140425456Y-78209405D01*
X140594974Y-78096137D01*
X140739137Y-77951974D01*
X140852405Y-77782456D01*
X140930426Y-77594098D01*
X140970200Y-77394139D01*
X140970200Y-77190261D01*
X140930426Y-76990302D01*
X140852405Y-76801944D01*
X140739137Y-76632426D01*
X140695200Y-76588489D01*
X140695200Y-74156801D01*
X140749801Y-74102200D01*
X142383078Y-74102200D01*
X142420400Y-74105876D01*
X142457722Y-74102200D01*
X142457733Y-74102200D01*
X142569386Y-74091203D01*
X142712647Y-74047746D01*
X142844676Y-73977174D01*
X142960401Y-73882201D01*
X142984204Y-73853197D01*
X143420100Y-73417301D01*
X143420101Y-74473188D01*
X143376163Y-74517126D01*
X143262895Y-74686644D01*
X143184874Y-74875002D01*
X143145100Y-75074961D01*
X143145100Y-75278839D01*
X143184874Y-75478798D01*
X143262895Y-75667156D01*
X143376163Y-75836674D01*
X143520326Y-75980837D01*
X143689844Y-76094105D01*
X143878202Y-76172126D01*
X144078161Y-76211900D01*
X144282039Y-76211900D01*
X144481998Y-76172126D01*
X144670356Y-76094105D01*
X144839874Y-75980837D01*
X144984037Y-75836674D01*
X145086356Y-75683542D01*
X145125861Y-75691400D01*
X145329739Y-75691400D01*
X145529698Y-75651626D01*
X145718056Y-75573605D01*
X145887574Y-75460337D01*
X145931511Y-75416400D01*
X147694499Y-75416400D01*
X149731500Y-77453402D01*
X149731500Y-77515539D01*
X149771274Y-77715498D01*
X149849295Y-77903856D01*
X149962563Y-78073374D01*
X150106726Y-78217537D01*
X150276244Y-78330805D01*
X150464602Y-78408826D01*
X150664561Y-78448600D01*
X150868439Y-78448600D01*
X151068398Y-78408826D01*
X151256756Y-78330805D01*
X151426274Y-78217537D01*
X151550105Y-78093706D01*
X151649701Y-78193303D01*
X151649700Y-79637893D01*
X151636324Y-79773700D01*
X151640001Y-79811032D01*
X151640000Y-91760198D01*
X139025199Y-104375000D01*
X138963061Y-104375000D01*
X138763102Y-104414774D01*
X138574744Y-104492795D01*
X138405226Y-104606063D01*
X138261063Y-104750226D01*
X138147795Y-104919744D01*
X138069774Y-105108102D01*
X138030000Y-105308061D01*
X138030000Y-105511939D01*
X138035681Y-105540498D01*
X137958924Y-105581526D01*
X137843199Y-105676499D01*
X137819396Y-105705503D01*
X137755799Y-105769100D01*
X137235061Y-105769100D01*
X137299057Y-105705104D01*
X137412325Y-105535586D01*
X137490346Y-105347228D01*
X137530120Y-105147269D01*
X137530120Y-104943391D01*
X137490346Y-104743432D01*
X137412325Y-104555074D01*
X137299057Y-104385556D01*
X137255120Y-104341619D01*
X137255120Y-83511653D01*
X137258797Y-83474320D01*
X137244123Y-83325334D01*
X137200666Y-83182073D01*
X137130094Y-83050044D01*
X137058919Y-82963317D01*
X137035121Y-82934319D01*
X137006124Y-82910522D01*
X132736000Y-78640399D01*
X132736000Y-78578261D01*
X132696226Y-78378302D01*
X132618205Y-78189944D01*
X132504937Y-78020426D01*
X132360774Y-77876263D01*
X132191256Y-77762995D01*
X132002898Y-77684974D01*
X131802939Y-77645200D01*
X131599061Y-77645200D01*
X131399102Y-77684974D01*
X131210744Y-77762995D01*
X131041226Y-77876263D01*
X130897063Y-78020426D01*
X130783795Y-78189944D01*
X130705774Y-78378302D01*
X130666000Y-78578261D01*
X130666000Y-78782139D01*
X130705774Y-78982098D01*
X130783795Y-79170456D01*
X130897063Y-79339974D01*
X131041226Y-79484137D01*
X131210744Y-79597405D01*
X131399102Y-79675426D01*
X131599061Y-79715200D01*
X131661199Y-79715200D01*
X135735120Y-83789122D01*
X135735121Y-104341618D01*
X135691183Y-104385556D01*
X135577915Y-104555074D01*
X135499894Y-104743432D01*
X135460120Y-104943391D01*
X135460120Y-105147269D01*
X135499894Y-105347228D01*
X135577915Y-105535586D01*
X135691183Y-105705104D01*
X135755179Y-105769100D01*
X133730900Y-105769100D01*
X133730900Y-102821422D01*
X133734576Y-102784099D01*
X133730900Y-102746776D01*
X133730900Y-102746767D01*
X133719903Y-102635114D01*
X133676446Y-102491853D01*
X133666382Y-102473024D01*
X133605874Y-102359823D01*
X133534699Y-102273097D01*
X133510901Y-102244099D01*
X133481904Y-102220302D01*
X129805000Y-98543399D01*
X129805000Y-94473800D01*
X130306927Y-94473800D01*
X130306927Y-97073800D01*
X130342245Y-97432390D01*
X130446842Y-97777200D01*
X130616698Y-98094978D01*
X130845286Y-98373513D01*
X131123821Y-98602101D01*
X131441599Y-98771957D01*
X131786409Y-98876554D01*
X132144999Y-98911872D01*
X132145001Y-98911872D01*
X132503591Y-98876554D01*
X132848401Y-98771957D01*
X133166179Y-98602101D01*
X133444714Y-98373513D01*
X133673302Y-98094978D01*
X133843158Y-97777200D01*
X133947755Y-97432390D01*
X133983073Y-97073800D01*
X133983073Y-94473800D01*
X133947755Y-94115210D01*
X133843158Y-93770400D01*
X133673302Y-93452622D01*
X133444714Y-93174087D01*
X133166179Y-92945499D01*
X132848401Y-92775643D01*
X132503591Y-92671046D01*
X132145001Y-92635728D01*
X132144999Y-92635728D01*
X131786409Y-92671046D01*
X131441599Y-92775643D01*
X131123821Y-92945499D01*
X130845286Y-93174087D01*
X130616698Y-93452622D01*
X130446842Y-93770400D01*
X130342245Y-94115210D01*
X130306927Y-94473800D01*
X129805000Y-94473800D01*
X129805000Y-89961776D01*
X129943822Y-89869018D01*
X130140218Y-89672622D01*
X130294525Y-89441685D01*
X130400814Y-89185082D01*
X130455000Y-88912673D01*
X130455000Y-88634927D01*
X130400814Y-88362518D01*
X130294525Y-88105915D01*
X130140218Y-87874978D01*
X129943822Y-87678582D01*
X129712885Y-87524275D01*
X129456282Y-87417986D01*
X129183873Y-87363800D01*
X128906127Y-87363800D01*
X128633718Y-87417986D01*
X128377115Y-87524275D01*
X128146178Y-87678582D01*
X127949782Y-87874978D01*
X127795475Y-88105915D01*
X127689186Y-88362518D01*
X127635000Y-88634927D01*
X127635000Y-88912673D01*
X127689186Y-89185082D01*
X127795475Y-89441685D01*
X127949782Y-89672622D01*
X128146178Y-89869018D01*
X128285000Y-89961776D01*
X128285001Y-98820868D01*
X128281324Y-98858200D01*
X128295998Y-99007185D01*
X128339454Y-99150446D01*
X128410026Y-99282476D01*
X128481201Y-99369202D01*
X128505000Y-99398201D01*
X128533998Y-99421999D01*
X132210900Y-103098902D01*
X132210901Y-106491757D01*
X132207223Y-106529100D01*
X132210900Y-106566433D01*
X132210901Y-112141997D01*
X130921600Y-113431298D01*
X130921600Y-102871222D01*
X130925276Y-102833899D01*
X130921600Y-102796576D01*
X130921600Y-102796567D01*
X130910603Y-102684914D01*
X130867146Y-102541653D01*
X130841901Y-102494424D01*
X130796574Y-102409623D01*
X130725399Y-102322897D01*
X130701601Y-102293899D01*
X130672604Y-102270102D01*
X130064903Y-101662402D01*
X130041101Y-101633399D01*
X129925376Y-101538426D01*
X129793347Y-101467854D01*
X129650086Y-101424397D01*
X129538433Y-101413400D01*
X129538422Y-101413400D01*
X129501100Y-101409724D01*
X129463778Y-101413400D01*
X128624822Y-101413400D01*
X128587499Y-101409724D01*
X128550176Y-101413400D01*
X128550167Y-101413400D01*
X128438514Y-101424397D01*
X128295253Y-101467854D01*
X128163224Y-101538426D01*
X128047499Y-101633399D01*
X128023701Y-101662398D01*
X127480060Y-102206040D01*
X127456606Y-102182586D01*
X127340243Y-102298949D01*
X127271690Y-102057532D01*
X127020444Y-101939132D01*
X126750929Y-101872022D01*
X126473498Y-101858782D01*
X126198816Y-101899921D01*
X125937438Y-101993857D01*
X125818310Y-102057532D01*
X125749822Y-102298720D01*
X124573004Y-101121903D01*
X124549201Y-101092899D01*
X124433476Y-100997926D01*
X124301447Y-100927354D01*
X124158186Y-100883897D01*
X124046533Y-100872900D01*
X124046522Y-100872900D01*
X124009200Y-100869224D01*
X123971878Y-100872900D01*
X102828902Y-100872900D01*
X96429802Y-94473800D01*
X119106927Y-94473800D01*
X119106927Y-97073800D01*
X119142245Y-97432390D01*
X119246842Y-97777200D01*
X119416698Y-98094978D01*
X119645286Y-98373513D01*
X119923821Y-98602101D01*
X120241599Y-98771957D01*
X120586409Y-98876554D01*
X120944999Y-98911872D01*
X120945001Y-98911872D01*
X121303591Y-98876554D01*
X121648401Y-98771957D01*
X121966179Y-98602101D01*
X122244714Y-98373513D01*
X122473302Y-98094978D01*
X122643158Y-97777200D01*
X122747755Y-97432390D01*
X122783073Y-97073800D01*
X122783073Y-94473800D01*
X122747755Y-94115210D01*
X122643158Y-93770400D01*
X122473302Y-93452622D01*
X122244714Y-93174087D01*
X121966179Y-92945499D01*
X121648401Y-92775643D01*
X121303591Y-92671046D01*
X120945001Y-92635728D01*
X120944999Y-92635728D01*
X120586409Y-92671046D01*
X120241599Y-92775643D01*
X119923821Y-92945499D01*
X119645286Y-93174087D01*
X119416698Y-93452622D01*
X119246842Y-93770400D01*
X119142245Y-94115210D01*
X119106927Y-94473800D01*
X96429802Y-94473800D01*
X91504802Y-89548800D01*
X122631928Y-89548800D01*
X122644188Y-89673282D01*
X122680498Y-89792980D01*
X122739463Y-89903294D01*
X122818815Y-89999985D01*
X122915506Y-90079337D01*
X123025820Y-90138302D01*
X123145518Y-90174612D01*
X123270000Y-90186872D01*
X123759250Y-90183800D01*
X123918000Y-90025050D01*
X123918000Y-88900800D01*
X124172000Y-88900800D01*
X124172000Y-90025050D01*
X124330750Y-90183800D01*
X124820000Y-90186872D01*
X124944482Y-90174612D01*
X125064180Y-90138302D01*
X125174494Y-90079337D01*
X125271185Y-89999985D01*
X125350537Y-89903294D01*
X125409502Y-89792980D01*
X125445812Y-89673282D01*
X125458072Y-89548800D01*
X125455000Y-89059550D01*
X125296250Y-88900800D01*
X124172000Y-88900800D01*
X123918000Y-88900800D01*
X122793750Y-88900800D01*
X122635000Y-89059550D01*
X122631928Y-89548800D01*
X91504802Y-89548800D01*
X91032427Y-89076426D01*
X91065000Y-88912673D01*
X91065000Y-88634927D01*
X91010814Y-88362518D01*
X90904525Y-88105915D01*
X90832954Y-87998800D01*
X122631928Y-87998800D01*
X122635000Y-88488050D01*
X122793750Y-88646800D01*
X123918000Y-88646800D01*
X123918000Y-87522550D01*
X124172000Y-87522550D01*
X124172000Y-88646800D01*
X125296250Y-88646800D01*
X125455000Y-88488050D01*
X125458072Y-87998800D01*
X125445812Y-87874318D01*
X125409502Y-87754620D01*
X125350537Y-87644306D01*
X125271185Y-87547615D01*
X125174494Y-87468263D01*
X125064180Y-87409298D01*
X124944482Y-87372988D01*
X124820000Y-87360728D01*
X124330750Y-87363800D01*
X124172000Y-87522550D01*
X123918000Y-87522550D01*
X123759250Y-87363800D01*
X123270000Y-87360728D01*
X123145518Y-87372988D01*
X123025820Y-87409298D01*
X122915506Y-87468263D01*
X122818815Y-87547615D01*
X122739463Y-87644306D01*
X122680498Y-87754620D01*
X122644188Y-87874318D01*
X122631928Y-87998800D01*
X90832954Y-87998800D01*
X90750218Y-87874978D01*
X90553822Y-87678582D01*
X90322885Y-87524275D01*
X90066282Y-87417986D01*
X89793873Y-87363800D01*
X89516127Y-87363800D01*
X89243718Y-87417986D01*
X88987115Y-87524275D01*
X88756178Y-87678582D01*
X88559782Y-87874978D01*
X88405475Y-88105915D01*
X88299186Y-88362518D01*
X88245000Y-88634927D01*
X88245000Y-88912673D01*
X88299186Y-89185082D01*
X88405475Y-89441685D01*
X88559782Y-89672622D01*
X88756178Y-89869018D01*
X88987115Y-90023325D01*
X89243718Y-90129614D01*
X89516127Y-90183800D01*
X89793873Y-90183800D01*
X89957626Y-90151227D01*
X92470179Y-92663780D01*
X92396409Y-92671046D01*
X92051599Y-92775643D01*
X91733821Y-92945499D01*
X91455286Y-93174087D01*
X91226698Y-93452622D01*
X91056842Y-93770400D01*
X90952245Y-94115210D01*
X90916927Y-94473800D01*
X90916927Y-97073800D01*
X90952245Y-97432390D01*
X91056842Y-97777200D01*
X91226698Y-98094978D01*
X91455286Y-98373513D01*
X91733821Y-98602101D01*
X92051599Y-98771957D01*
X92396409Y-98876554D01*
X92754999Y-98911872D01*
X92755001Y-98911872D01*
X93113591Y-98876554D01*
X93458401Y-98771957D01*
X93776179Y-98602101D01*
X94054714Y-98373513D01*
X94283302Y-98094978D01*
X94453158Y-97777200D01*
X94557755Y-97432390D01*
X94593073Y-97073800D01*
X94593073Y-94786674D01*
X101950300Y-102143902D01*
X101974099Y-102172901D01*
X102089824Y-102267874D01*
X102221853Y-102338446D01*
X102365114Y-102381903D01*
X102409727Y-102386297D01*
X102514100Y-102396577D01*
X102551433Y-102392900D01*
X122937807Y-102392900D01*
X122795475Y-102605915D01*
X122689186Y-102862518D01*
X122635000Y-103134927D01*
X122635000Y-103412673D01*
X122689186Y-103685082D01*
X122747363Y-103825534D01*
X105185998Y-121386901D01*
X105157000Y-121410699D01*
X105133202Y-121439697D01*
X105133201Y-121439698D01*
X105062026Y-121526424D01*
X104991454Y-121658454D01*
X104979438Y-121698068D01*
X104947998Y-121801714D01*
X104943912Y-121843203D01*
X104750368Y-121972525D01*
X104543525Y-122179368D01*
X104427000Y-122353760D01*
X104310475Y-122179368D01*
X104103632Y-121972525D01*
X103910089Y-121843204D01*
X103906003Y-121801714D01*
X103862546Y-121658453D01*
X103858128Y-121650188D01*
X103791974Y-121526423D01*
X103720799Y-121439697D01*
X103697001Y-121410699D01*
X103668003Y-121386901D01*
X92855600Y-110574499D01*
X92855600Y-105751633D01*
X92859277Y-105714300D01*
X92844603Y-105565314D01*
X92801146Y-105422053D01*
X92730574Y-105290024D01*
X92635601Y-105174299D01*
X92606045Y-105150043D01*
X91032427Y-103576426D01*
X91065000Y-103412673D01*
X91065000Y-103134927D01*
X91010814Y-102862518D01*
X90904525Y-102605915D01*
X90750218Y-102374978D01*
X90553822Y-102178582D01*
X90322885Y-102024275D01*
X90066282Y-101917986D01*
X89793873Y-101863800D01*
X89516127Y-101863800D01*
X89243718Y-101917986D01*
X88987115Y-102024275D01*
X88756178Y-102178582D01*
X88559782Y-102374978D01*
X88405475Y-102605915D01*
X88404263Y-102608840D01*
X88371268Y-102547110D01*
X88129849Y-102478556D01*
X87334605Y-103273800D01*
X88129849Y-104069044D01*
X88371268Y-104000490D01*
X88402437Y-103934350D01*
X88405475Y-103941685D01*
X88559782Y-104172622D01*
X88756178Y-104369018D01*
X88987115Y-104523325D01*
X89243718Y-104629614D01*
X89516127Y-104683800D01*
X89793873Y-104683800D01*
X89957626Y-104651227D01*
X91335600Y-106029202D01*
X91335601Y-110851968D01*
X91331924Y-110889300D01*
X91335601Y-110926633D01*
X91346598Y-111038286D01*
X91359282Y-111080100D01*
X91390054Y-111181546D01*
X91460626Y-111313576D01*
X91508858Y-111372346D01*
X91555600Y-111429301D01*
X91584598Y-111453099D01*
X102157196Y-122025697D01*
X102003525Y-122179368D01*
X101887000Y-122353760D01*
X101770475Y-122179368D01*
X101563632Y-121972525D01*
X101370089Y-121843204D01*
X101366003Y-121801714D01*
X101322546Y-121658453D01*
X101318128Y-121650188D01*
X101251974Y-121526423D01*
X101180799Y-121439697D01*
X101157001Y-121410699D01*
X101128003Y-121386901D01*
X85415000Y-105673899D01*
X85415000Y-104461776D01*
X85553822Y-104369018D01*
X85674191Y-104248649D01*
X86359756Y-104248649D01*
X86428310Y-104490068D01*
X86679556Y-104608468D01*
X86949071Y-104675578D01*
X87226502Y-104688818D01*
X87501184Y-104647679D01*
X87762562Y-104553743D01*
X87881690Y-104490068D01*
X87950244Y-104248649D01*
X87155000Y-103453405D01*
X86359756Y-104248649D01*
X85674191Y-104248649D01*
X85750218Y-104172622D01*
X85904525Y-103941685D01*
X85905737Y-103938760D01*
X85938732Y-104000490D01*
X86180151Y-104069044D01*
X86975395Y-103273800D01*
X86180151Y-102478556D01*
X85938732Y-102547110D01*
X85907563Y-102613250D01*
X85904525Y-102605915D01*
X85750218Y-102374978D01*
X85674191Y-102298951D01*
X86359756Y-102298951D01*
X87155000Y-103094195D01*
X87950244Y-102298951D01*
X87881690Y-102057532D01*
X87630444Y-101939132D01*
X87360929Y-101872022D01*
X87083498Y-101858782D01*
X86808816Y-101899921D01*
X86547438Y-101993857D01*
X86428310Y-102057532D01*
X86359756Y-102298951D01*
X85674191Y-102298951D01*
X85553822Y-102178582D01*
X85322885Y-102024275D01*
X85066282Y-101917986D01*
X84793873Y-101863800D01*
X84516127Y-101863800D01*
X84243718Y-101917986D01*
X83987115Y-102024275D01*
X83756178Y-102178582D01*
X83559782Y-102374978D01*
X83405475Y-102605915D01*
X83299186Y-102862518D01*
X83245000Y-103134927D01*
X83245000Y-103412673D01*
X83299186Y-103685082D01*
X83405475Y-103941685D01*
X83559782Y-104172622D01*
X83756178Y-104369018D01*
X83895000Y-104461776D01*
X83895001Y-105951368D01*
X83891324Y-105988700D01*
X83895001Y-106026033D01*
X83905998Y-106137686D01*
X83910006Y-106150899D01*
X83949454Y-106280946D01*
X84020026Y-106412976D01*
X84070354Y-106474300D01*
X84115000Y-106528701D01*
X84143998Y-106552499D01*
X99617196Y-122025697D01*
X99538513Y-122104380D01*
X99516502Y-122031820D01*
X99457537Y-121921506D01*
X99378185Y-121824815D01*
X99281494Y-121745463D01*
X99171180Y-121686498D01*
X99051482Y-121650188D01*
X98927000Y-121637928D01*
X98362750Y-121641000D01*
X98204000Y-121799750D01*
X98204000Y-122999000D01*
X98224000Y-122999000D01*
X98224000Y-123253000D01*
X98204000Y-123253000D01*
X98204000Y-124452250D01*
X98362750Y-124611000D01*
X98927000Y-124614072D01*
X99051482Y-124601812D01*
X99171180Y-124565502D01*
X99281494Y-124506537D01*
X99378185Y-124427185D01*
X99457537Y-124330494D01*
X99516502Y-124220180D01*
X99538513Y-124147620D01*
X99670368Y-124279475D01*
X99913589Y-124441990D01*
X100183842Y-124553932D01*
X100470740Y-124611000D01*
X100763260Y-124611000D01*
X101050158Y-124553932D01*
X101320411Y-124441990D01*
X101563632Y-124279475D01*
X101770475Y-124072632D01*
X101887000Y-123898240D01*
X102003525Y-124072632D01*
X102210368Y-124279475D01*
X102453589Y-124441990D01*
X102723842Y-124553932D01*
X103010740Y-124611000D01*
X103303260Y-124611000D01*
X103590158Y-124553932D01*
X103860411Y-124441990D01*
X104103632Y-124279475D01*
X104310475Y-124072632D01*
X104427000Y-123898240D01*
X104543525Y-124072632D01*
X104750368Y-124279475D01*
X104993589Y-124441990D01*
X105263842Y-124553932D01*
X105550740Y-124611000D01*
X105843260Y-124611000D01*
X106130158Y-124553932D01*
X106400411Y-124441990D01*
X106643632Y-124279475D01*
X106850475Y-124072632D01*
X106967000Y-123898240D01*
X107083525Y-124072632D01*
X107290368Y-124279475D01*
X107533589Y-124441990D01*
X107803842Y-124553932D01*
X108090740Y-124611000D01*
X108383260Y-124611000D01*
X108670158Y-124553932D01*
X108940411Y-124441990D01*
X109183632Y-124279475D01*
X109390475Y-124072632D01*
X109507000Y-123898240D01*
X109623525Y-124072632D01*
X109830368Y-124279475D01*
X110073589Y-124441990D01*
X110343842Y-124553932D01*
X110630740Y-124611000D01*
X110923260Y-124611000D01*
X111210158Y-124553932D01*
X111480411Y-124441990D01*
X111723632Y-124279475D01*
X111930475Y-124072632D01*
X112047000Y-123898240D01*
X112163525Y-124072632D01*
X112370368Y-124279475D01*
X112613589Y-124441990D01*
X112883842Y-124553932D01*
X113170740Y-124611000D01*
X113463260Y-124611000D01*
X113750158Y-124553932D01*
X114020411Y-124441990D01*
X114227690Y-124303491D01*
X115701801Y-125777603D01*
X115725599Y-125806601D01*
X115754597Y-125830399D01*
X115841323Y-125901574D01*
X115895713Y-125930646D01*
X115973353Y-125972146D01*
X116116614Y-126015603D01*
X116228267Y-126026600D01*
X116228277Y-126026600D01*
X116265600Y-126030276D01*
X116302923Y-126026600D01*
X129975378Y-126026600D01*
X130012700Y-126030276D01*
X130050022Y-126026600D01*
X130050033Y-126026600D01*
X130161686Y-126015603D01*
X130304947Y-125972146D01*
X130436976Y-125901574D01*
X130552701Y-125806601D01*
X130576504Y-125777597D01*
X143201695Y-113152406D01*
X143249326Y-113200037D01*
X143375900Y-113284611D01*
X143375900Y-113411039D01*
X143415674Y-113610998D01*
X143493695Y-113799356D01*
X143606963Y-113968874D01*
X143650901Y-114012812D01*
X143650900Y-121733478D01*
X143647224Y-121770800D01*
X143650900Y-121808122D01*
X143650900Y-121808132D01*
X143661897Y-121919785D01*
X143694163Y-122026154D01*
X143705354Y-122063046D01*
X143775926Y-122195076D01*
X143796953Y-122220697D01*
X143870899Y-122310801D01*
X143899903Y-122334604D01*
X147301401Y-125736103D01*
X147325199Y-125765101D01*
X147354197Y-125788899D01*
X147440923Y-125860074D01*
X147572953Y-125930646D01*
X147716214Y-125974103D01*
X147827867Y-125985100D01*
X147827877Y-125985100D01*
X147865200Y-125988776D01*
X147902523Y-125985100D01*
X188725278Y-125985100D01*
X188762600Y-125988776D01*
X188799922Y-125985100D01*
X188799933Y-125985100D01*
X188911586Y-125974103D01*
X189054847Y-125930646D01*
X189186876Y-125860074D01*
X189302601Y-125765101D01*
X189326404Y-125736097D01*
X190564703Y-124497799D01*
X190593701Y-124474001D01*
X190596027Y-124471166D01*
X190795842Y-124553932D01*
X191082740Y-124611000D01*
X191375260Y-124611000D01*
X191662158Y-124553932D01*
X191932411Y-124441990D01*
X192175632Y-124279475D01*
X192382475Y-124072632D01*
X192499000Y-123898240D01*
X192615525Y-124072632D01*
X192822368Y-124279475D01*
X193065589Y-124441990D01*
X193335842Y-124553932D01*
X193622740Y-124611000D01*
X193915260Y-124611000D01*
X194202158Y-124553932D01*
X194472411Y-124441990D01*
X194715632Y-124279475D01*
X194922475Y-124072632D01*
X195039000Y-123898240D01*
X195155525Y-124072632D01*
X195362368Y-124279475D01*
X195605589Y-124441990D01*
X195875842Y-124553932D01*
X196162740Y-124611000D01*
X196455260Y-124611000D01*
X196742158Y-124553932D01*
X197012411Y-124441990D01*
X197255632Y-124279475D01*
X197462475Y-124072632D01*
X197624990Y-123829411D01*
X197736932Y-123559158D01*
X197794000Y-123272260D01*
X197794000Y-122979740D01*
X197736932Y-122692842D01*
X197624990Y-122422589D01*
X197462475Y-122179368D01*
X197255632Y-121972525D01*
X197012411Y-121810010D01*
X196742158Y-121698068D01*
X196455260Y-121641000D01*
X196162740Y-121641000D01*
X195875842Y-121698068D01*
X195605589Y-121810010D01*
X195362368Y-121972525D01*
X195155525Y-122179368D01*
X195039000Y-122353760D01*
X194922475Y-122179368D01*
X194715632Y-121972525D01*
X194472411Y-121810010D01*
X194202158Y-121698068D01*
X193915260Y-121641000D01*
X193622740Y-121641000D01*
X193335842Y-121698068D01*
X193065589Y-121810010D01*
X192822368Y-121972525D01*
X192615525Y-122179368D01*
X192499000Y-122353760D01*
X192382475Y-122179368D01*
X192175632Y-121972525D01*
X191932411Y-121810010D01*
X191662158Y-121698068D01*
X191375260Y-121641000D01*
X191082740Y-121641000D01*
X190795842Y-121698068D01*
X190525589Y-121810010D01*
X190282368Y-121972525D01*
X190150513Y-122104380D01*
X190128502Y-122031820D01*
X190069537Y-121921506D01*
X189990185Y-121824815D01*
X189893494Y-121745463D01*
X189783180Y-121686498D01*
X189663482Y-121650188D01*
X189539000Y-121637928D01*
X188974750Y-121641000D01*
X188816000Y-121799750D01*
X188816000Y-122999000D01*
X188836000Y-122999000D01*
X188836000Y-123253000D01*
X188816000Y-123253000D01*
X188816000Y-123273000D01*
X188562000Y-123273000D01*
X188562000Y-123253000D01*
X187362750Y-123253000D01*
X187204000Y-123411750D01*
X187200928Y-123976000D01*
X187213188Y-124100482D01*
X187249498Y-124220180D01*
X187308463Y-124330494D01*
X187387815Y-124427185D01*
X187434015Y-124465100D01*
X183210801Y-124465100D01*
X185399901Y-122276000D01*
X187200928Y-122276000D01*
X187204000Y-122840250D01*
X187362750Y-122999000D01*
X188562000Y-122999000D01*
X188562000Y-121799750D01*
X188403250Y-121641000D01*
X187839000Y-121637928D01*
X187714518Y-121650188D01*
X187594820Y-121686498D01*
X187484506Y-121745463D01*
X187387815Y-121824815D01*
X187308463Y-121921506D01*
X187249498Y-122031820D01*
X187213188Y-122151518D01*
X187200928Y-122276000D01*
X185399901Y-122276000D01*
X202998863Y-104677039D01*
X203237282Y-104629614D01*
X203493885Y-104523325D01*
X203724822Y-104369018D01*
X203743919Y-104349921D01*
X204286301Y-104892302D01*
X204310099Y-104921301D01*
X204425824Y-105016274D01*
X204557853Y-105086846D01*
X204701114Y-105130303D01*
X204812767Y-105141300D01*
X204812775Y-105141300D01*
X204850100Y-105144976D01*
X204887425Y-105141300D01*
X206681178Y-105141300D01*
X206718500Y-105144976D01*
X206755822Y-105141300D01*
X206755833Y-105141300D01*
X206867486Y-105130303D01*
X207010747Y-105086846D01*
X207142776Y-105016274D01*
X207258501Y-104921301D01*
X207282304Y-104892298D01*
X207523374Y-104651227D01*
X207687127Y-104683800D01*
X207964873Y-104683800D01*
X208237282Y-104629614D01*
X208493885Y-104523325D01*
X208724822Y-104369018D01*
X208921218Y-104172622D01*
X209075525Y-103941685D01*
X209181814Y-103685082D01*
X209236000Y-103412673D01*
X209236000Y-103134927D01*
X209181814Y-102862518D01*
X209075525Y-102605915D01*
X208921218Y-102374978D01*
X208724822Y-102178582D01*
X208493885Y-102024275D01*
X208237282Y-101917986D01*
X207964873Y-101863800D01*
X207687127Y-101863800D01*
X207414718Y-101917986D01*
X207158115Y-102024275D01*
X206927178Y-102178582D01*
X206730782Y-102374978D01*
X206576475Y-102605915D01*
X206575263Y-102608840D01*
X206542268Y-102547110D01*
X206300849Y-102478556D01*
X205505605Y-103273800D01*
X205519748Y-103287943D01*
X205340143Y-103467548D01*
X205326000Y-103453405D01*
X205311858Y-103467548D01*
X205132253Y-103287943D01*
X205146395Y-103273800D01*
X205132253Y-103259658D01*
X205311858Y-103080053D01*
X205326000Y-103094195D01*
X206121244Y-102298951D01*
X206052690Y-102057532D01*
X205801444Y-101939132D01*
X205531929Y-101872022D01*
X205254498Y-101858782D01*
X204979816Y-101899921D01*
X204718438Y-101993857D01*
X204599310Y-102057532D01*
X204535555Y-102282053D01*
X203889903Y-101636402D01*
X203866101Y-101607399D01*
X203750376Y-101512426D01*
X203618347Y-101441854D01*
X203475086Y-101398397D01*
X203363433Y-101387400D01*
X203363422Y-101387400D01*
X203326100Y-101383724D01*
X203288778Y-101387400D01*
X202408033Y-101387400D01*
X202370700Y-101383723D01*
X202333367Y-101387400D01*
X202221714Y-101398397D01*
X202078453Y-101441854D01*
X201946424Y-101512426D01*
X201830699Y-101607399D01*
X201806901Y-101636397D01*
X196037903Y-107405396D01*
X196008899Y-107429199D01*
X195965730Y-107481801D01*
X195913926Y-107544924D01*
X195896902Y-107576774D01*
X195843354Y-107676954D01*
X195799897Y-107820215D01*
X195788900Y-107931868D01*
X195788900Y-107931878D01*
X195785224Y-107969200D01*
X195788900Y-108006523D01*
X195788901Y-109010097D01*
X191208153Y-113590846D01*
X191049475Y-113353368D01*
X190842632Y-113146525D01*
X190669271Y-113030689D01*
X190744792Y-112788397D01*
X189896000Y-111939605D01*
X189881858Y-111953748D01*
X189702253Y-111774143D01*
X189716395Y-111760000D01*
X190075605Y-111760000D01*
X190924397Y-112608792D01*
X191173472Y-112531157D01*
X191299371Y-112267117D01*
X191371339Y-111983589D01*
X191386611Y-111691469D01*
X191344599Y-111401981D01*
X191246919Y-111126253D01*
X191173472Y-110988843D01*
X190924397Y-110911208D01*
X190075605Y-111760000D01*
X189716395Y-111760000D01*
X189702253Y-111745858D01*
X189881858Y-111566253D01*
X189896000Y-111580395D01*
X190744792Y-110731603D01*
X190667157Y-110482528D01*
X190403117Y-110356629D01*
X190119589Y-110284661D01*
X189827469Y-110269389D01*
X189537981Y-110311401D01*
X189465400Y-110337114D01*
X189465400Y-94473800D01*
X197887927Y-94473800D01*
X197887927Y-97073800D01*
X197923245Y-97432390D01*
X198027842Y-97777200D01*
X198197698Y-98094978D01*
X198426286Y-98373513D01*
X198704821Y-98602101D01*
X199022599Y-98771957D01*
X199367409Y-98876554D01*
X199725999Y-98911872D01*
X199726001Y-98911872D01*
X200084591Y-98876554D01*
X200429401Y-98771957D01*
X200747179Y-98602101D01*
X201025714Y-98373513D01*
X201254302Y-98094978D01*
X201424158Y-97777200D01*
X201528755Y-97432390D01*
X201564073Y-97073800D01*
X201564073Y-94473800D01*
X209087927Y-94473800D01*
X209087927Y-97073800D01*
X209123245Y-97432390D01*
X209227842Y-97777200D01*
X209397698Y-98094978D01*
X209626286Y-98373513D01*
X209904821Y-98602101D01*
X210222599Y-98771957D01*
X210567409Y-98876554D01*
X210925999Y-98911872D01*
X210926001Y-98911872D01*
X211284591Y-98876554D01*
X211629401Y-98771957D01*
X211947179Y-98602101D01*
X212225714Y-98373513D01*
X212454302Y-98094978D01*
X212624158Y-97777200D01*
X212728755Y-97432390D01*
X212764073Y-97073800D01*
X212764073Y-94473800D01*
X212728755Y-94115210D01*
X212624158Y-93770400D01*
X212454302Y-93452622D01*
X212225714Y-93174087D01*
X211947179Y-92945499D01*
X211629401Y-92775643D01*
X211284591Y-92671046D01*
X210926001Y-92635728D01*
X210925999Y-92635728D01*
X210567409Y-92671046D01*
X210222599Y-92775643D01*
X209904821Y-92945499D01*
X209626286Y-93174087D01*
X209397698Y-93452622D01*
X209227842Y-93770400D01*
X209123245Y-94115210D01*
X209087927Y-94473800D01*
X201564073Y-94473800D01*
X201528755Y-94115210D01*
X201424158Y-93770400D01*
X201254302Y-93452622D01*
X201025714Y-93174087D01*
X200747179Y-92945499D01*
X200429401Y-92775643D01*
X200084591Y-92671046D01*
X199726001Y-92635728D01*
X199725999Y-92635728D01*
X199367409Y-92671046D01*
X199022599Y-92775643D01*
X198704821Y-92945499D01*
X198426286Y-93174087D01*
X198197698Y-93452622D01*
X198027842Y-93770400D01*
X197923245Y-94115210D01*
X197887927Y-94473800D01*
X189465400Y-94473800D01*
X189465400Y-89548800D01*
X201412928Y-89548800D01*
X201425188Y-89673282D01*
X201461498Y-89792980D01*
X201520463Y-89903294D01*
X201599815Y-89999985D01*
X201696506Y-90079337D01*
X201806820Y-90138302D01*
X201926518Y-90174612D01*
X202051000Y-90186872D01*
X202540250Y-90183800D01*
X202699000Y-90025050D01*
X202699000Y-88900800D01*
X202953000Y-88900800D01*
X202953000Y-90025050D01*
X203111750Y-90183800D01*
X203601000Y-90186872D01*
X203725482Y-90174612D01*
X203845180Y-90138302D01*
X203955494Y-90079337D01*
X204052185Y-89999985D01*
X204131537Y-89903294D01*
X204190502Y-89792980D01*
X204226812Y-89673282D01*
X204239072Y-89548800D01*
X204236000Y-89059550D01*
X204077250Y-88900800D01*
X202953000Y-88900800D01*
X202699000Y-88900800D01*
X201574750Y-88900800D01*
X201416000Y-89059550D01*
X201412928Y-89548800D01*
X189465400Y-89548800D01*
X189465400Y-87998800D01*
X201412928Y-87998800D01*
X201416000Y-88488050D01*
X201574750Y-88646800D01*
X202699000Y-88646800D01*
X202699000Y-87522550D01*
X202953000Y-87522550D01*
X202953000Y-88646800D01*
X204077250Y-88646800D01*
X204089123Y-88634927D01*
X206416000Y-88634927D01*
X206416000Y-88912673D01*
X206470186Y-89185082D01*
X206576475Y-89441685D01*
X206730782Y-89672622D01*
X206927178Y-89869018D01*
X207158115Y-90023325D01*
X207414718Y-90129614D01*
X207687127Y-90183800D01*
X207964873Y-90183800D01*
X208237282Y-90129614D01*
X208493885Y-90023325D01*
X208724822Y-89869018D01*
X208921218Y-89672622D01*
X209075525Y-89441685D01*
X209181814Y-89185082D01*
X209236000Y-88912673D01*
X209236000Y-88634927D01*
X209181814Y-88362518D01*
X209075525Y-88105915D01*
X208921218Y-87874978D01*
X208724822Y-87678582D01*
X208493885Y-87524275D01*
X208237282Y-87417986D01*
X207964873Y-87363800D01*
X207687127Y-87363800D01*
X207414718Y-87417986D01*
X207158115Y-87524275D01*
X206927178Y-87678582D01*
X206730782Y-87874978D01*
X206576475Y-88105915D01*
X206470186Y-88362518D01*
X206416000Y-88634927D01*
X204089123Y-88634927D01*
X204236000Y-88488050D01*
X204239072Y-87998800D01*
X204226812Y-87874318D01*
X204190502Y-87754620D01*
X204131537Y-87644306D01*
X204052185Y-87547615D01*
X203955494Y-87468263D01*
X203845180Y-87409298D01*
X203725482Y-87372988D01*
X203601000Y-87360728D01*
X203111750Y-87363800D01*
X202953000Y-87522550D01*
X202699000Y-87522550D01*
X202540250Y-87363800D01*
X202051000Y-87360728D01*
X201926518Y-87372988D01*
X201806820Y-87409298D01*
X201696506Y-87468263D01*
X201599815Y-87547615D01*
X201520463Y-87644306D01*
X201461498Y-87754620D01*
X201425188Y-87874318D01*
X201412928Y-87998800D01*
X189465400Y-87998800D01*
X189465400Y-83847100D01*
X190070778Y-83847100D01*
X190108100Y-83850776D01*
X190145422Y-83847100D01*
X190145433Y-83847100D01*
X190257086Y-83836103D01*
X190400347Y-83792646D01*
X190532376Y-83722074D01*
X190648101Y-83627101D01*
X190671903Y-83598098D01*
X191069001Y-83201000D01*
X191131139Y-83201000D01*
X191331098Y-83161226D01*
X191519456Y-83083205D01*
X191688974Y-82969937D01*
X191833137Y-82825774D01*
X191946405Y-82656256D01*
X192024426Y-82467898D01*
X192064200Y-82267939D01*
X192064200Y-82064061D01*
X192024426Y-81864102D01*
X191946405Y-81675744D01*
X191833137Y-81506226D01*
X191688974Y-81362063D01*
X191519456Y-81248795D01*
X191331098Y-81170774D01*
X191131139Y-81131000D01*
X190927261Y-81131000D01*
X190727302Y-81170774D01*
X190538944Y-81248795D01*
X190369426Y-81362063D01*
X190225263Y-81506226D01*
X190111995Y-81675744D01*
X190033974Y-81864102D01*
X189994200Y-82064061D01*
X189994200Y-82126199D01*
X189793299Y-82327100D01*
X189020202Y-82327100D01*
X172123101Y-65430000D01*
X210866097Y-65430000D01*
X210540536Y-65755561D01*
X210175561Y-66301785D01*
X209924162Y-66908716D01*
X209796000Y-67553031D01*
X209796000Y-68209969D01*
X209924162Y-68854284D01*
X210175561Y-69461215D01*
X210540536Y-70007439D01*
X211005061Y-70471964D01*
X211551285Y-70836939D01*
X212158216Y-71088338D01*
X212802531Y-71216500D01*
X213459469Y-71216500D01*
X214103784Y-71088338D01*
X214710715Y-70836939D01*
X215256939Y-70471964D01*
X215582500Y-70146403D01*
X215582501Y-121369098D01*
X215256939Y-121043536D01*
X214710715Y-120678561D01*
X214103784Y-120427162D01*
X213459469Y-120299000D01*
X212802531Y-120299000D01*
X212158216Y-120427162D01*
X211551285Y-120678561D01*
X211005061Y-121043536D01*
X210540536Y-121508061D01*
X210175561Y-122054285D01*
X209924162Y-122661216D01*
X209796000Y-123305531D01*
X209796000Y-123962469D01*
X209924162Y-124606784D01*
X210175561Y-125213715D01*
X210540536Y-125759939D01*
X210898097Y-126117500D01*
X81646903Y-126117500D01*
X81940464Y-125823939D01*
X82305439Y-125277715D01*
X82556838Y-124670784D01*
X82685000Y-124026469D01*
X82685000Y-123976000D01*
X96588928Y-123976000D01*
X96601188Y-124100482D01*
X96637498Y-124220180D01*
X96696463Y-124330494D01*
X96775815Y-124427185D01*
X96872506Y-124506537D01*
X96982820Y-124565502D01*
X97102518Y-124601812D01*
X97227000Y-124614072D01*
X97791250Y-124611000D01*
X97950000Y-124452250D01*
X97950000Y-123253000D01*
X96750750Y-123253000D01*
X96592000Y-123411750D01*
X96588928Y-123976000D01*
X82685000Y-123976000D01*
X82685000Y-123369531D01*
X82556838Y-122725216D01*
X82370767Y-122276000D01*
X96588928Y-122276000D01*
X96592000Y-122840250D01*
X96750750Y-122999000D01*
X97950000Y-122999000D01*
X97950000Y-121799750D01*
X97791250Y-121641000D01*
X97227000Y-121637928D01*
X97102518Y-121650188D01*
X96982820Y-121686498D01*
X96872506Y-121745463D01*
X96775815Y-121824815D01*
X96696463Y-121921506D01*
X96637498Y-122031820D01*
X96601188Y-122151518D01*
X96588928Y-122276000D01*
X82370767Y-122276000D01*
X82305439Y-122118285D01*
X81940464Y-121572061D01*
X81475939Y-121107536D01*
X80929715Y-120742561D01*
X80322784Y-120491162D01*
X79678469Y-120363000D01*
X79021531Y-120363000D01*
X78377216Y-120491162D01*
X77770285Y-120742561D01*
X77224061Y-121107536D01*
X76898500Y-121433097D01*
X76898500Y-94473800D01*
X79716927Y-94473800D01*
X79716927Y-97073800D01*
X79752245Y-97432390D01*
X79856842Y-97777200D01*
X80026698Y-98094978D01*
X80255286Y-98373513D01*
X80533821Y-98602101D01*
X80851599Y-98771957D01*
X81196409Y-98876554D01*
X81554999Y-98911872D01*
X81555001Y-98911872D01*
X81913591Y-98876554D01*
X82258401Y-98771957D01*
X82576179Y-98602101D01*
X82854714Y-98373513D01*
X83083302Y-98094978D01*
X83253158Y-97777200D01*
X83357755Y-97432390D01*
X83393073Y-97073800D01*
X83393073Y-94473800D01*
X83357755Y-94115210D01*
X83253158Y-93770400D01*
X83083302Y-93452622D01*
X82854714Y-93174087D01*
X82576179Y-92945499D01*
X82258401Y-92775643D01*
X81913591Y-92671046D01*
X81555001Y-92635728D01*
X81554999Y-92635728D01*
X81196409Y-92671046D01*
X80851599Y-92775643D01*
X80533821Y-92945499D01*
X80255286Y-93174087D01*
X80026698Y-93452622D01*
X79856842Y-93770400D01*
X79752245Y-94115210D01*
X79716927Y-94473800D01*
X76898500Y-94473800D01*
X76898500Y-89548800D01*
X83241928Y-89548800D01*
X83254188Y-89673282D01*
X83290498Y-89792980D01*
X83349463Y-89903294D01*
X83428815Y-89999985D01*
X83525506Y-90079337D01*
X83635820Y-90138302D01*
X83755518Y-90174612D01*
X83880000Y-90186872D01*
X84369250Y-90183800D01*
X84528000Y-90025050D01*
X84528000Y-88900800D01*
X84782000Y-88900800D01*
X84782000Y-90025050D01*
X84940750Y-90183800D01*
X85430000Y-90186872D01*
X85554482Y-90174612D01*
X85674180Y-90138302D01*
X85784494Y-90079337D01*
X85881185Y-89999985D01*
X85960537Y-89903294D01*
X86019502Y-89792980D01*
X86055812Y-89673282D01*
X86068072Y-89548800D01*
X86065000Y-89059550D01*
X85906250Y-88900800D01*
X84782000Y-88900800D01*
X84528000Y-88900800D01*
X83403750Y-88900800D01*
X83245000Y-89059550D01*
X83241928Y-89548800D01*
X76898500Y-89548800D01*
X76898500Y-87998800D01*
X83241928Y-87998800D01*
X83245000Y-88488050D01*
X83403750Y-88646800D01*
X84528000Y-88646800D01*
X84528000Y-87522550D01*
X84782000Y-87522550D01*
X84782000Y-88646800D01*
X85906250Y-88646800D01*
X86065000Y-88488050D01*
X86068072Y-87998800D01*
X86055812Y-87874318D01*
X86019502Y-87754620D01*
X85960537Y-87644306D01*
X85881185Y-87547615D01*
X85784494Y-87468263D01*
X85674180Y-87409298D01*
X85554482Y-87372988D01*
X85430000Y-87360728D01*
X84940750Y-87363800D01*
X84782000Y-87522550D01*
X84528000Y-87522550D01*
X84369250Y-87363800D01*
X83880000Y-87360728D01*
X83755518Y-87372988D01*
X83635820Y-87409298D01*
X83525506Y-87468263D01*
X83428815Y-87547615D01*
X83349463Y-87644306D01*
X83290498Y-87754620D01*
X83254188Y-87874318D01*
X83241928Y-87998800D01*
X76898500Y-87998800D01*
X76898500Y-71295200D01*
X140773000Y-71295200D01*
X140773000Y-71820200D01*
X141806000Y-71820200D01*
X141806000Y-70429037D01*
X141627190Y-70303236D01*
X141394136Y-70387137D01*
X141202559Y-70512153D01*
X141039053Y-70672141D01*
X140909901Y-70860954D01*
X140820066Y-71071335D01*
X140773000Y-71295200D01*
X76898500Y-71295200D01*
X76898500Y-70146403D01*
X77224061Y-70471964D01*
X77770285Y-70836939D01*
X78377216Y-71088338D01*
X79021531Y-71216500D01*
X79678469Y-71216500D01*
X80322784Y-71088338D01*
X80929715Y-70836939D01*
X81475939Y-70471964D01*
X81940464Y-70007439D01*
X82305439Y-69461215D01*
X82556838Y-68854284D01*
X82685000Y-68209969D01*
X82685000Y-67894200D01*
X140773000Y-67894200D01*
X140773000Y-68419200D01*
X140820066Y-68643065D01*
X140909901Y-68853446D01*
X141039053Y-69042259D01*
X141202559Y-69202247D01*
X141394136Y-69327263D01*
X141627190Y-69411164D01*
X141806000Y-69285363D01*
X141806000Y-67894200D01*
X142060000Y-67894200D01*
X142060000Y-69285363D01*
X142238810Y-69411164D01*
X142471864Y-69327263D01*
X142663441Y-69202247D01*
X142826947Y-69042259D01*
X142956099Y-68853446D01*
X143045934Y-68643065D01*
X143093000Y-68419200D01*
X143093000Y-67894200D01*
X142060000Y-67894200D01*
X141806000Y-67894200D01*
X140773000Y-67894200D01*
X82685000Y-67894200D01*
X82685000Y-67553031D01*
X82597911Y-67115200D01*
X140773000Y-67115200D01*
X140773000Y-67640200D01*
X141806000Y-67640200D01*
X141806000Y-66249037D01*
X142060000Y-66249037D01*
X142060000Y-67640200D01*
X143093000Y-67640200D01*
X143093000Y-67115200D01*
X143045934Y-66891335D01*
X142956099Y-66680954D01*
X142826947Y-66492141D01*
X142663441Y-66332153D01*
X142471864Y-66207137D01*
X142238810Y-66123236D01*
X142060000Y-66249037D01*
X141806000Y-66249037D01*
X141627190Y-66123236D01*
X141394136Y-66207137D01*
X141202559Y-66332153D01*
X141039053Y-66492141D01*
X140909901Y-66680954D01*
X140820066Y-66891335D01*
X140773000Y-67115200D01*
X82597911Y-67115200D01*
X82556838Y-66908716D01*
X82305439Y-66301785D01*
X81940464Y-65755561D01*
X81614903Y-65430000D01*
X148617598Y-65430000D01*
X143608703Y-70438896D01*
G37*
%TD.AperFunction*%
D19*
X152242700Y-121728202D02*
X152266499Y-121757201D01*
X152382224Y-121852174D01*
X152514253Y-121922746D01*
X152657514Y-121966203D01*
X152769167Y-121977200D01*
X152769176Y-121977200D01*
X152806499Y-121980876D01*
X152843822Y-121977200D01*
X162419693Y-121977200D01*
X162390498Y-122031820D01*
X162354188Y-122151518D01*
X162341928Y-122276000D01*
X162345000Y-122840250D01*
X162503750Y-122999000D01*
X163703000Y-122999000D01*
X163703000Y-122979000D01*
X163957000Y-122979000D01*
X163957000Y-122999000D01*
X163977000Y-122999000D01*
X163977000Y-123253000D01*
X163957000Y-123253000D01*
X163957000Y-123273000D01*
X163703000Y-123273000D01*
X163703000Y-123253000D01*
X162503750Y-123253000D01*
X162345000Y-123411750D01*
X162341928Y-123976000D01*
X162345562Y-124012900D01*
X148771002Y-124012900D01*
X146615700Y-121857599D01*
X146615700Y-121795461D01*
X146575926Y-121595502D01*
X146497905Y-121407144D01*
X146384637Y-121237626D01*
X146240474Y-121093463D01*
X146070956Y-120980195D01*
X145882598Y-120902174D01*
X145682639Y-120862400D01*
X145478761Y-120862400D01*
X145278802Y-120902174D01*
X145170900Y-120946869D01*
X145170900Y-114656401D01*
X152242700Y-121728202D01*
%TA.AperFunction,Conductor*%
D20*
G36*
X152242700Y-121728202D02*
G01*
X152266499Y-121757201D01*
X152382224Y-121852174D01*
X152514253Y-121922746D01*
X152657514Y-121966203D01*
X152769167Y-121977200D01*
X152769176Y-121977200D01*
X152806499Y-121980876D01*
X152843822Y-121977200D01*
X162419693Y-121977200D01*
X162390498Y-122031820D01*
X162354188Y-122151518D01*
X162341928Y-122276000D01*
X162345000Y-122840250D01*
X162503750Y-122999000D01*
X163703000Y-122999000D01*
X163703000Y-122979000D01*
X163957000Y-122979000D01*
X163957000Y-122999000D01*
X163977000Y-122999000D01*
X163977000Y-123253000D01*
X163957000Y-123253000D01*
X163957000Y-123273000D01*
X163703000Y-123273000D01*
X163703000Y-123253000D01*
X162503750Y-123253000D01*
X162345000Y-123411750D01*
X162341928Y-123976000D01*
X162345562Y-124012900D01*
X148771002Y-124012900D01*
X146615700Y-121857599D01*
X146615700Y-121795461D01*
X146575926Y-121595502D01*
X146497905Y-121407144D01*
X146384637Y-121237626D01*
X146240474Y-121093463D01*
X146070956Y-120980195D01*
X145882598Y-120902174D01*
X145682639Y-120862400D01*
X145478761Y-120862400D01*
X145278802Y-120902174D01*
X145170900Y-120946869D01*
X145170900Y-114656401D01*
X152242700Y-121728202D01*
G37*
%TD.AperFunction*%
D19*
X184056001Y-103904103D02*
X184056000Y-110481821D01*
X183869368Y-110606525D01*
X183662525Y-110813368D01*
X183500010Y-111056589D01*
X183388068Y-111326842D01*
X183331000Y-111613740D01*
X183331000Y-111906260D01*
X183388068Y-112193158D01*
X183452785Y-112349400D01*
X182679233Y-112349400D01*
X182641900Y-112345723D01*
X182604567Y-112349400D01*
X182492914Y-112360397D01*
X182349653Y-112403854D01*
X182217624Y-112474426D01*
X182101899Y-112569399D01*
X182078101Y-112598397D01*
X172550303Y-122126196D01*
X172396632Y-121972525D01*
X172153411Y-121810010D01*
X171883158Y-121698068D01*
X171596260Y-121641000D01*
X171303740Y-121641000D01*
X171016842Y-121698068D01*
X170746589Y-121810010D01*
X170555316Y-121937814D01*
X165219504Y-116602003D01*
X165195701Y-116572999D01*
X165079976Y-116478026D01*
X164947947Y-116407454D01*
X164804686Y-116363997D01*
X164693033Y-116353000D01*
X164693022Y-116353000D01*
X164655700Y-116349324D01*
X164618378Y-116353000D01*
X151232411Y-116353000D01*
X151188474Y-116309063D01*
X151018956Y-116195795D01*
X150830598Y-116117774D01*
X150630639Y-116078000D01*
X150426761Y-116078000D01*
X150226802Y-116117774D01*
X150038444Y-116195795D01*
X149868926Y-116309063D01*
X149821395Y-116356594D01*
X148890156Y-115425355D01*
X148942037Y-115373474D01*
X149055305Y-115203956D01*
X149133326Y-115015598D01*
X149173100Y-114815639D01*
X149173100Y-114611761D01*
X149133326Y-114411802D01*
X149055305Y-114223444D01*
X148964300Y-114087245D01*
X148964300Y-112482800D01*
X159949678Y-112482800D01*
X159987000Y-112486476D01*
X160024322Y-112482800D01*
X160024333Y-112482800D01*
X160135986Y-112471803D01*
X160279247Y-112428346D01*
X160411276Y-112357774D01*
X160527001Y-112262801D01*
X160550804Y-112233797D01*
X168133375Y-104651227D01*
X168297127Y-104683800D01*
X168574873Y-104683800D01*
X168847282Y-104629614D01*
X169103885Y-104523325D01*
X169334822Y-104369018D01*
X169531218Y-104172622D01*
X169685525Y-103941685D01*
X169791814Y-103685082D01*
X169846000Y-103412673D01*
X169846000Y-103134927D01*
X169791814Y-102862518D01*
X169685525Y-102605915D01*
X169531218Y-102374978D01*
X169334822Y-102178582D01*
X169103885Y-102024275D01*
X168847282Y-101917986D01*
X168574873Y-101863800D01*
X168297127Y-101863800D01*
X168024718Y-101917986D01*
X167768115Y-102024275D01*
X167537178Y-102178582D01*
X167340782Y-102374978D01*
X167186475Y-102605915D01*
X167185263Y-102608840D01*
X167152268Y-102547110D01*
X166910849Y-102478556D01*
X166115605Y-103273800D01*
X166129748Y-103287943D01*
X165950143Y-103467548D01*
X165936000Y-103453405D01*
X165140756Y-104248649D01*
X165209310Y-104490068D01*
X165460556Y-104608468D01*
X165730071Y-104675578D01*
X165948973Y-104686025D01*
X159672199Y-110962800D01*
X156821801Y-110962800D01*
X163133375Y-104651227D01*
X163297127Y-104683800D01*
X163574873Y-104683800D01*
X163847282Y-104629614D01*
X164103885Y-104523325D01*
X164334822Y-104369018D01*
X164531218Y-104172622D01*
X164685525Y-103941685D01*
X164686737Y-103938760D01*
X164719732Y-104000490D01*
X164961151Y-104069044D01*
X165756395Y-103273800D01*
X164961151Y-102478556D01*
X164719732Y-102547110D01*
X164688563Y-102613250D01*
X164685525Y-102605915D01*
X164531218Y-102374978D01*
X164455191Y-102298951D01*
X165140756Y-102298951D01*
X165936000Y-103094195D01*
X166731244Y-102298951D01*
X166662690Y-102057532D01*
X166411444Y-101939132D01*
X166141929Y-101872022D01*
X165864498Y-101858782D01*
X165589816Y-101899921D01*
X165328438Y-101993857D01*
X165209310Y-102057532D01*
X165140756Y-102298951D01*
X164455191Y-102298951D01*
X164334822Y-102178582D01*
X164103885Y-102024275D01*
X163847282Y-101917986D01*
X163574873Y-101863800D01*
X163297127Y-101863800D01*
X163024718Y-101917986D01*
X162768115Y-102024275D01*
X162537178Y-102178582D01*
X162340782Y-102374978D01*
X162186475Y-102605915D01*
X162080186Y-102862518D01*
X162026000Y-103134927D01*
X162026000Y-103412673D01*
X162058573Y-103576425D01*
X155314899Y-110320100D01*
X146657700Y-110320100D01*
X146657700Y-110252861D01*
X146617926Y-110052902D01*
X146539905Y-109864544D01*
X146426637Y-109695026D01*
X146282474Y-109550863D01*
X146112956Y-109437595D01*
X145924598Y-109359574D01*
X145724639Y-109319800D01*
X145520761Y-109319800D01*
X145320802Y-109359574D01*
X145132444Y-109437595D01*
X144962926Y-109550863D01*
X144918989Y-109594800D01*
X143051122Y-109594800D01*
X143013799Y-109591124D01*
X142976476Y-109594800D01*
X142976467Y-109594800D01*
X142864814Y-109605797D01*
X142721553Y-109649254D01*
X142669769Y-109676933D01*
X143893003Y-108453700D01*
X143955139Y-108453700D01*
X144155098Y-108413926D01*
X144343456Y-108335905D01*
X144512974Y-108222637D01*
X144657137Y-108078474D01*
X144770405Y-107908956D01*
X144848426Y-107720598D01*
X144888200Y-107520639D01*
X144888200Y-107450900D01*
X145660499Y-107450900D01*
X145662396Y-107452797D01*
X145686199Y-107481801D01*
X145801924Y-107576774D01*
X145933953Y-107647346D01*
X146077214Y-107690803D01*
X146188867Y-107701800D01*
X146188876Y-107701800D01*
X146226199Y-107705476D01*
X146263522Y-107701800D01*
X146841078Y-107701800D01*
X146878400Y-107705476D01*
X146915722Y-107701800D01*
X146915733Y-107701800D01*
X147027386Y-107690803D01*
X147170647Y-107647346D01*
X147302676Y-107576774D01*
X147418401Y-107481801D01*
X147442204Y-107452797D01*
X147896498Y-106998503D01*
X147925501Y-106974701D01*
X148020474Y-106858976D01*
X148091046Y-106726947D01*
X148134503Y-106583686D01*
X148145500Y-106472033D01*
X148145500Y-106472025D01*
X148149176Y-106434700D01*
X148145500Y-106397375D01*
X148145500Y-105536801D01*
X158497927Y-95184375D01*
X158497927Y-97073800D01*
X158533245Y-97432390D01*
X158637842Y-97777200D01*
X158807698Y-98094978D01*
X159036286Y-98373513D01*
X159314821Y-98602101D01*
X159632599Y-98771957D01*
X159977409Y-98876554D01*
X160335999Y-98911872D01*
X160336001Y-98911872D01*
X160694591Y-98876554D01*
X161039401Y-98771957D01*
X161357179Y-98602101D01*
X161635714Y-98373513D01*
X161864302Y-98094978D01*
X162034158Y-97777200D01*
X162138755Y-97432390D01*
X162174073Y-97073800D01*
X162174073Y-94473800D01*
X169697927Y-94473800D01*
X169697927Y-97073800D01*
X169733245Y-97432390D01*
X169837842Y-97777200D01*
X170007698Y-98094978D01*
X170236286Y-98373513D01*
X170514821Y-98602101D01*
X170832599Y-98771957D01*
X171177409Y-98876554D01*
X171535999Y-98911872D01*
X171536001Y-98911872D01*
X171894591Y-98876554D01*
X172239401Y-98771957D01*
X172557179Y-98602101D01*
X172835714Y-98373513D01*
X173064302Y-98094978D01*
X173234158Y-97777200D01*
X173338755Y-97432390D01*
X173374073Y-97073800D01*
X173374073Y-94473800D01*
X173338755Y-94115210D01*
X173234158Y-93770400D01*
X173064302Y-93452622D01*
X172835714Y-93174087D01*
X172557179Y-92945499D01*
X172239401Y-92775643D01*
X171894591Y-92671046D01*
X171536001Y-92635728D01*
X171535999Y-92635728D01*
X171177409Y-92671046D01*
X170832599Y-92775643D01*
X170514821Y-92945499D01*
X170236286Y-93174087D01*
X170007698Y-93452622D01*
X169837842Y-93770400D01*
X169733245Y-94115210D01*
X169697927Y-94473800D01*
X162174073Y-94473800D01*
X162138755Y-94115210D01*
X162034158Y-93770400D01*
X161864302Y-93452622D01*
X161635714Y-93174087D01*
X161357179Y-92945499D01*
X161039401Y-92775643D01*
X160937554Y-92744748D01*
X161106202Y-92576100D01*
X165356378Y-92576100D01*
X165393700Y-92579776D01*
X165431022Y-92576100D01*
X165431033Y-92576100D01*
X165542686Y-92565103D01*
X165685947Y-92521646D01*
X165817976Y-92451074D01*
X165933701Y-92356101D01*
X165957504Y-92327097D01*
X168133374Y-90151227D01*
X168297127Y-90183800D01*
X168574873Y-90183800D01*
X168847282Y-90129614D01*
X169103885Y-90023325D01*
X169334822Y-89869018D01*
X169531218Y-89672622D01*
X169648699Y-89496800D01*
X184056001Y-103904103D01*
%TA.AperFunction,Conductor*%
D20*
G36*
X184056001Y-103904103D02*
G01*
X184056000Y-110481821D01*
X183869368Y-110606525D01*
X183662525Y-110813368D01*
X183500010Y-111056589D01*
X183388068Y-111326842D01*
X183331000Y-111613740D01*
X183331000Y-111906260D01*
X183388068Y-112193158D01*
X183452785Y-112349400D01*
X182679233Y-112349400D01*
X182641900Y-112345723D01*
X182604567Y-112349400D01*
X182492914Y-112360397D01*
X182349653Y-112403854D01*
X182217624Y-112474426D01*
X182101899Y-112569399D01*
X182078101Y-112598397D01*
X172550303Y-122126196D01*
X172396632Y-121972525D01*
X172153411Y-121810010D01*
X171883158Y-121698068D01*
X171596260Y-121641000D01*
X171303740Y-121641000D01*
X171016842Y-121698068D01*
X170746589Y-121810010D01*
X170555316Y-121937814D01*
X165219504Y-116602003D01*
X165195701Y-116572999D01*
X165079976Y-116478026D01*
X164947947Y-116407454D01*
X164804686Y-116363997D01*
X164693033Y-116353000D01*
X164693022Y-116353000D01*
X164655700Y-116349324D01*
X164618378Y-116353000D01*
X151232411Y-116353000D01*
X151188474Y-116309063D01*
X151018956Y-116195795D01*
X150830598Y-116117774D01*
X150630639Y-116078000D01*
X150426761Y-116078000D01*
X150226802Y-116117774D01*
X150038444Y-116195795D01*
X149868926Y-116309063D01*
X149821395Y-116356594D01*
X148890156Y-115425355D01*
X148942037Y-115373474D01*
X149055305Y-115203956D01*
X149133326Y-115015598D01*
X149173100Y-114815639D01*
X149173100Y-114611761D01*
X149133326Y-114411802D01*
X149055305Y-114223444D01*
X148964300Y-114087245D01*
X148964300Y-112482800D01*
X159949678Y-112482800D01*
X159987000Y-112486476D01*
X160024322Y-112482800D01*
X160024333Y-112482800D01*
X160135986Y-112471803D01*
X160279247Y-112428346D01*
X160411276Y-112357774D01*
X160527001Y-112262801D01*
X160550804Y-112233797D01*
X168133375Y-104651227D01*
X168297127Y-104683800D01*
X168574873Y-104683800D01*
X168847282Y-104629614D01*
X169103885Y-104523325D01*
X169334822Y-104369018D01*
X169531218Y-104172622D01*
X169685525Y-103941685D01*
X169791814Y-103685082D01*
X169846000Y-103412673D01*
X169846000Y-103134927D01*
X169791814Y-102862518D01*
X169685525Y-102605915D01*
X169531218Y-102374978D01*
X169334822Y-102178582D01*
X169103885Y-102024275D01*
X168847282Y-101917986D01*
X168574873Y-101863800D01*
X168297127Y-101863800D01*
X168024718Y-101917986D01*
X167768115Y-102024275D01*
X167537178Y-102178582D01*
X167340782Y-102374978D01*
X167186475Y-102605915D01*
X167185263Y-102608840D01*
X167152268Y-102547110D01*
X166910849Y-102478556D01*
X166115605Y-103273800D01*
X166129748Y-103287943D01*
X165950143Y-103467548D01*
X165936000Y-103453405D01*
X165140756Y-104248649D01*
X165209310Y-104490068D01*
X165460556Y-104608468D01*
X165730071Y-104675578D01*
X165948973Y-104686025D01*
X159672199Y-110962800D01*
X156821801Y-110962800D01*
X163133375Y-104651227D01*
X163297127Y-104683800D01*
X163574873Y-104683800D01*
X163847282Y-104629614D01*
X164103885Y-104523325D01*
X164334822Y-104369018D01*
X164531218Y-104172622D01*
X164685525Y-103941685D01*
X164686737Y-103938760D01*
X164719732Y-104000490D01*
X164961151Y-104069044D01*
X165756395Y-103273800D01*
X164961151Y-102478556D01*
X164719732Y-102547110D01*
X164688563Y-102613250D01*
X164685525Y-102605915D01*
X164531218Y-102374978D01*
X164455191Y-102298951D01*
X165140756Y-102298951D01*
X165936000Y-103094195D01*
X166731244Y-102298951D01*
X166662690Y-102057532D01*
X166411444Y-101939132D01*
X166141929Y-101872022D01*
X165864498Y-101858782D01*
X165589816Y-101899921D01*
X165328438Y-101993857D01*
X165209310Y-102057532D01*
X165140756Y-102298951D01*
X164455191Y-102298951D01*
X164334822Y-102178582D01*
X164103885Y-102024275D01*
X163847282Y-101917986D01*
X163574873Y-101863800D01*
X163297127Y-101863800D01*
X163024718Y-101917986D01*
X162768115Y-102024275D01*
X162537178Y-102178582D01*
X162340782Y-102374978D01*
X162186475Y-102605915D01*
X162080186Y-102862518D01*
X162026000Y-103134927D01*
X162026000Y-103412673D01*
X162058573Y-103576425D01*
X155314899Y-110320100D01*
X146657700Y-110320100D01*
X146657700Y-110252861D01*
X146617926Y-110052902D01*
X146539905Y-109864544D01*
X146426637Y-109695026D01*
X146282474Y-109550863D01*
X146112956Y-109437595D01*
X145924598Y-109359574D01*
X145724639Y-109319800D01*
X145520761Y-109319800D01*
X145320802Y-109359574D01*
X145132444Y-109437595D01*
X144962926Y-109550863D01*
X144918989Y-109594800D01*
X143051122Y-109594800D01*
X143013799Y-109591124D01*
X142976476Y-109594800D01*
X142976467Y-109594800D01*
X142864814Y-109605797D01*
X142721553Y-109649254D01*
X142669769Y-109676933D01*
X143893003Y-108453700D01*
X143955139Y-108453700D01*
X144155098Y-108413926D01*
X144343456Y-108335905D01*
X144512974Y-108222637D01*
X144657137Y-108078474D01*
X144770405Y-107908956D01*
X144848426Y-107720598D01*
X144888200Y-107520639D01*
X144888200Y-107450900D01*
X145660499Y-107450900D01*
X145662396Y-107452797D01*
X145686199Y-107481801D01*
X145801924Y-107576774D01*
X145933953Y-107647346D01*
X146077214Y-107690803D01*
X146188867Y-107701800D01*
X146188876Y-107701800D01*
X146226199Y-107705476D01*
X146263522Y-107701800D01*
X146841078Y-107701800D01*
X146878400Y-107705476D01*
X146915722Y-107701800D01*
X146915733Y-107701800D01*
X147027386Y-107690803D01*
X147170647Y-107647346D01*
X147302676Y-107576774D01*
X147418401Y-107481801D01*
X147442204Y-107452797D01*
X147896498Y-106998503D01*
X147925501Y-106974701D01*
X148020474Y-106858976D01*
X148091046Y-106726947D01*
X148134503Y-106583686D01*
X148145500Y-106472033D01*
X148145500Y-106472025D01*
X148149176Y-106434700D01*
X148145500Y-106397375D01*
X148145500Y-105536801D01*
X158497927Y-95184375D01*
X158497927Y-97073800D01*
X158533245Y-97432390D01*
X158637842Y-97777200D01*
X158807698Y-98094978D01*
X159036286Y-98373513D01*
X159314821Y-98602101D01*
X159632599Y-98771957D01*
X159977409Y-98876554D01*
X160335999Y-98911872D01*
X160336001Y-98911872D01*
X160694591Y-98876554D01*
X161039401Y-98771957D01*
X161357179Y-98602101D01*
X161635714Y-98373513D01*
X161864302Y-98094978D01*
X162034158Y-97777200D01*
X162138755Y-97432390D01*
X162174073Y-97073800D01*
X162174073Y-94473800D01*
X169697927Y-94473800D01*
X169697927Y-97073800D01*
X169733245Y-97432390D01*
X169837842Y-97777200D01*
X170007698Y-98094978D01*
X170236286Y-98373513D01*
X170514821Y-98602101D01*
X170832599Y-98771957D01*
X171177409Y-98876554D01*
X171535999Y-98911872D01*
X171536001Y-98911872D01*
X171894591Y-98876554D01*
X172239401Y-98771957D01*
X172557179Y-98602101D01*
X172835714Y-98373513D01*
X173064302Y-98094978D01*
X173234158Y-97777200D01*
X173338755Y-97432390D01*
X173374073Y-97073800D01*
X173374073Y-94473800D01*
X173338755Y-94115210D01*
X173234158Y-93770400D01*
X173064302Y-93452622D01*
X172835714Y-93174087D01*
X172557179Y-92945499D01*
X172239401Y-92775643D01*
X171894591Y-92671046D01*
X171536001Y-92635728D01*
X171535999Y-92635728D01*
X171177409Y-92671046D01*
X170832599Y-92775643D01*
X170514821Y-92945499D01*
X170236286Y-93174087D01*
X170007698Y-93452622D01*
X169837842Y-93770400D01*
X169733245Y-94115210D01*
X169697927Y-94473800D01*
X162174073Y-94473800D01*
X162138755Y-94115210D01*
X162034158Y-93770400D01*
X161864302Y-93452622D01*
X161635714Y-93174087D01*
X161357179Y-92945499D01*
X161039401Y-92775643D01*
X160937554Y-92744748D01*
X161106202Y-92576100D01*
X165356378Y-92576100D01*
X165393700Y-92579776D01*
X165431022Y-92576100D01*
X165431033Y-92576100D01*
X165542686Y-92565103D01*
X165685947Y-92521646D01*
X165817976Y-92451074D01*
X165933701Y-92356101D01*
X165957504Y-92327097D01*
X168133374Y-90151227D01*
X168297127Y-90183800D01*
X168574873Y-90183800D01*
X168847282Y-90129614D01*
X169103885Y-90023325D01*
X169334822Y-89869018D01*
X169531218Y-89672622D01*
X169648699Y-89496800D01*
X184056001Y-103904103D01*
G37*
%TD.AperFunction*%
D19*
X187945400Y-83401902D02*
X187945401Y-110396786D01*
X187789158Y-110332068D01*
X187502260Y-110275000D01*
X187209740Y-110275000D01*
X186922842Y-110332068D01*
X186652589Y-110444010D01*
X186409368Y-110606525D01*
X186202525Y-110813368D01*
X186086000Y-110987760D01*
X185969475Y-110813368D01*
X185762632Y-110606525D01*
X185576000Y-110481822D01*
X185576000Y-103626623D01*
X185579676Y-103589300D01*
X185576000Y-103551977D01*
X185576000Y-103551967D01*
X185565003Y-103440314D01*
X185521546Y-103297053D01*
X185500766Y-103258176D01*
X185450974Y-103165023D01*
X185379799Y-103078297D01*
X185356001Y-103049299D01*
X185327003Y-103025501D01*
X169446504Y-87145003D01*
X169422701Y-87115999D01*
X169306976Y-87021026D01*
X169174947Y-86950454D01*
X169031686Y-86906997D01*
X168920033Y-86896000D01*
X168920022Y-86896000D01*
X168882700Y-86892324D01*
X168845378Y-86896000D01*
X168019922Y-86896000D01*
X167982599Y-86892324D01*
X167945276Y-86896000D01*
X167945267Y-86896000D01*
X167833614Y-86906997D01*
X167690353Y-86950454D01*
X167558324Y-87021026D01*
X167558322Y-87021027D01*
X167558323Y-87021027D01*
X167471596Y-87092201D01*
X167471592Y-87092205D01*
X167442599Y-87115999D01*
X167418805Y-87144992D01*
X165448199Y-89115600D01*
X164846352Y-89115600D01*
X164846000Y-89059550D01*
X164687250Y-88900800D01*
X163563000Y-88900800D01*
X163563000Y-88920800D01*
X163309000Y-88920800D01*
X163309000Y-88900800D01*
X163289000Y-88900800D01*
X163289000Y-88646800D01*
X163309000Y-88646800D01*
X163309000Y-87522550D01*
X163563000Y-87522550D01*
X163563000Y-88646800D01*
X164687250Y-88646800D01*
X164846000Y-88488050D01*
X164849072Y-87998800D01*
X164836812Y-87874318D01*
X164800502Y-87754620D01*
X164741537Y-87644306D01*
X164662185Y-87547615D01*
X164565494Y-87468263D01*
X164455180Y-87409298D01*
X164335482Y-87372988D01*
X164211000Y-87360728D01*
X163721750Y-87363800D01*
X163563000Y-87522550D01*
X163309000Y-87522550D01*
X163150250Y-87363800D01*
X162661000Y-87360728D01*
X162536518Y-87372988D01*
X162416820Y-87409298D01*
X162306506Y-87468263D01*
X162209815Y-87547615D01*
X162130463Y-87644306D01*
X162071498Y-87754620D01*
X162035188Y-87874318D01*
X162022928Y-87998800D01*
X162024847Y-88304345D01*
X153169700Y-79449199D01*
X153169700Y-77915823D01*
X153173376Y-77878500D01*
X153169700Y-77841177D01*
X153169700Y-77841167D01*
X153158703Y-77729514D01*
X153115246Y-77586253D01*
X153077448Y-77515539D01*
X153044674Y-77454223D01*
X152973499Y-77367497D01*
X152949701Y-77338499D01*
X152920703Y-77314701D01*
X149765400Y-74159399D01*
X149765400Y-74097261D01*
X149725626Y-73897302D01*
X149647605Y-73708944D01*
X149534337Y-73539426D01*
X149390174Y-73395263D01*
X149220656Y-73281995D01*
X149032298Y-73203974D01*
X148832339Y-73164200D01*
X148628461Y-73164200D01*
X148428502Y-73203974D01*
X148240144Y-73281995D01*
X148192579Y-73313777D01*
X146330300Y-71451499D01*
X146330300Y-71389361D01*
X146316541Y-71320186D01*
X148158000Y-71320186D01*
X148158000Y-71514214D01*
X148195853Y-71704514D01*
X148270104Y-71883772D01*
X148377901Y-72045101D01*
X148515099Y-72182299D01*
X148676428Y-72290096D01*
X148855686Y-72364347D01*
X149045986Y-72402200D01*
X149240014Y-72402200D01*
X149413000Y-72367791D01*
X149413000Y-72599200D01*
X149460066Y-72823065D01*
X149549901Y-73033446D01*
X149679053Y-73222259D01*
X149842559Y-73382247D01*
X150034136Y-73507263D01*
X150267190Y-73591164D01*
X150446000Y-73465363D01*
X150446000Y-72074200D01*
X150700000Y-72074200D01*
X150700000Y-73465363D01*
X150878810Y-73591164D01*
X151111864Y-73507263D01*
X151303441Y-73382247D01*
X151466947Y-73222259D01*
X151596099Y-73033446D01*
X151685934Y-72823065D01*
X151733000Y-72599200D01*
X151733000Y-72074200D01*
X150700000Y-72074200D01*
X150446000Y-72074200D01*
X150426000Y-72074200D01*
X150426000Y-71820200D01*
X150446000Y-71820200D01*
X150446000Y-70429037D01*
X150700000Y-70429037D01*
X150700000Y-71820200D01*
X151733000Y-71820200D01*
X151733000Y-71295200D01*
X151685934Y-71071335D01*
X151596099Y-70860954D01*
X151466947Y-70672141D01*
X151303441Y-70512153D01*
X151111864Y-70387137D01*
X150878810Y-70303236D01*
X150700000Y-70429037D01*
X150446000Y-70429037D01*
X150267190Y-70303236D01*
X150034136Y-70387137D01*
X149842559Y-70512153D01*
X149728493Y-70623765D01*
X149609572Y-70544304D01*
X149430314Y-70470053D01*
X149240014Y-70432200D01*
X149045986Y-70432200D01*
X148855686Y-70470053D01*
X148676428Y-70544304D01*
X148515099Y-70652101D01*
X148377901Y-70789299D01*
X148270104Y-70950628D01*
X148195853Y-71129886D01*
X148158000Y-71320186D01*
X146316541Y-71320186D01*
X146290526Y-71189402D01*
X146212505Y-71001044D01*
X146099237Y-70831526D01*
X146051706Y-70783995D01*
X148941501Y-67894200D01*
X149413000Y-67894200D01*
X149413000Y-68419200D01*
X149460066Y-68643065D01*
X149549901Y-68853446D01*
X149679053Y-69042259D01*
X149842559Y-69202247D01*
X150034136Y-69327263D01*
X150267190Y-69411164D01*
X150446000Y-69285363D01*
X150446000Y-67894200D01*
X149413000Y-67894200D01*
X148941501Y-67894200D01*
X149413000Y-67422702D01*
X149413000Y-67640200D01*
X150446000Y-67640200D01*
X150446000Y-67620200D01*
X150700000Y-67620200D01*
X150700000Y-67640200D01*
X150720000Y-67640200D01*
X150720000Y-67894200D01*
X150700000Y-67894200D01*
X150700000Y-69285363D01*
X150878810Y-69411164D01*
X151111864Y-69327263D01*
X151303441Y-69202247D01*
X151466947Y-69042259D01*
X151596099Y-68853446D01*
X151685934Y-68643065D01*
X151733000Y-68419200D01*
X151733000Y-68207801D01*
X153119201Y-69594003D01*
X153119200Y-70752089D01*
X153075263Y-70796026D01*
X152961995Y-70965544D01*
X152883974Y-71153902D01*
X152844200Y-71353861D01*
X152844200Y-71557739D01*
X152883974Y-71757698D01*
X152961995Y-71946056D01*
X153075263Y-72115574D01*
X153219426Y-72259737D01*
X153388944Y-72373005D01*
X153577302Y-72451026D01*
X153777261Y-72490800D01*
X153981139Y-72490800D01*
X154181098Y-72451026D01*
X154369456Y-72373005D01*
X154538974Y-72259737D01*
X154683137Y-72115574D01*
X154796405Y-71946056D01*
X154874426Y-71757698D01*
X154914200Y-71557739D01*
X154914200Y-71353861D01*
X154874426Y-71153902D01*
X154796405Y-70965544D01*
X154683137Y-70796026D01*
X154639200Y-70752089D01*
X154639200Y-69316522D01*
X154642876Y-69279199D01*
X154639200Y-69241876D01*
X154639200Y-69241867D01*
X154628203Y-69130214D01*
X154584746Y-68986953D01*
X154514174Y-68854923D01*
X154442999Y-68768197D01*
X154419201Y-68739199D01*
X154390203Y-68715401D01*
X152360901Y-66686100D01*
X171229599Y-66686100D01*
X187945400Y-83401902D01*
%TA.AperFunction,Conductor*%
D20*
G36*
X187945400Y-83401902D02*
G01*
X187945401Y-110396786D01*
X187789158Y-110332068D01*
X187502260Y-110275000D01*
X187209740Y-110275000D01*
X186922842Y-110332068D01*
X186652589Y-110444010D01*
X186409368Y-110606525D01*
X186202525Y-110813368D01*
X186086000Y-110987760D01*
X185969475Y-110813368D01*
X185762632Y-110606525D01*
X185576000Y-110481822D01*
X185576000Y-103626623D01*
X185579676Y-103589300D01*
X185576000Y-103551977D01*
X185576000Y-103551967D01*
X185565003Y-103440314D01*
X185521546Y-103297053D01*
X185500766Y-103258176D01*
X185450974Y-103165023D01*
X185379799Y-103078297D01*
X185356001Y-103049299D01*
X185327003Y-103025501D01*
X169446504Y-87145003D01*
X169422701Y-87115999D01*
X169306976Y-87021026D01*
X169174947Y-86950454D01*
X169031686Y-86906997D01*
X168920033Y-86896000D01*
X168920022Y-86896000D01*
X168882700Y-86892324D01*
X168845378Y-86896000D01*
X168019922Y-86896000D01*
X167982599Y-86892324D01*
X167945276Y-86896000D01*
X167945267Y-86896000D01*
X167833614Y-86906997D01*
X167690353Y-86950454D01*
X167558324Y-87021026D01*
X167558322Y-87021027D01*
X167558323Y-87021027D01*
X167471596Y-87092201D01*
X167471592Y-87092205D01*
X167442599Y-87115999D01*
X167418805Y-87144992D01*
X165448199Y-89115600D01*
X164846352Y-89115600D01*
X164846000Y-89059550D01*
X164687250Y-88900800D01*
X163563000Y-88900800D01*
X163563000Y-88920800D01*
X163309000Y-88920800D01*
X163309000Y-88900800D01*
X163289000Y-88900800D01*
X163289000Y-88646800D01*
X163309000Y-88646800D01*
X163309000Y-87522550D01*
X163563000Y-87522550D01*
X163563000Y-88646800D01*
X164687250Y-88646800D01*
X164846000Y-88488050D01*
X164849072Y-87998800D01*
X164836812Y-87874318D01*
X164800502Y-87754620D01*
X164741537Y-87644306D01*
X164662185Y-87547615D01*
X164565494Y-87468263D01*
X164455180Y-87409298D01*
X164335482Y-87372988D01*
X164211000Y-87360728D01*
X163721750Y-87363800D01*
X163563000Y-87522550D01*
X163309000Y-87522550D01*
X163150250Y-87363800D01*
X162661000Y-87360728D01*
X162536518Y-87372988D01*
X162416820Y-87409298D01*
X162306506Y-87468263D01*
X162209815Y-87547615D01*
X162130463Y-87644306D01*
X162071498Y-87754620D01*
X162035188Y-87874318D01*
X162022928Y-87998800D01*
X162024847Y-88304345D01*
X153169700Y-79449199D01*
X153169700Y-77915823D01*
X153173376Y-77878500D01*
X153169700Y-77841177D01*
X153169700Y-77841167D01*
X153158703Y-77729514D01*
X153115246Y-77586253D01*
X153077448Y-77515539D01*
X153044674Y-77454223D01*
X152973499Y-77367497D01*
X152949701Y-77338499D01*
X152920703Y-77314701D01*
X149765400Y-74159399D01*
X149765400Y-74097261D01*
X149725626Y-73897302D01*
X149647605Y-73708944D01*
X149534337Y-73539426D01*
X149390174Y-73395263D01*
X149220656Y-73281995D01*
X149032298Y-73203974D01*
X148832339Y-73164200D01*
X148628461Y-73164200D01*
X148428502Y-73203974D01*
X148240144Y-73281995D01*
X148192579Y-73313777D01*
X146330300Y-71451499D01*
X146330300Y-71389361D01*
X146316541Y-71320186D01*
X148158000Y-71320186D01*
X148158000Y-71514214D01*
X148195853Y-71704514D01*
X148270104Y-71883772D01*
X148377901Y-72045101D01*
X148515099Y-72182299D01*
X148676428Y-72290096D01*
X148855686Y-72364347D01*
X149045986Y-72402200D01*
X149240014Y-72402200D01*
X149413000Y-72367791D01*
X149413000Y-72599200D01*
X149460066Y-72823065D01*
X149549901Y-73033446D01*
X149679053Y-73222259D01*
X149842559Y-73382247D01*
X150034136Y-73507263D01*
X150267190Y-73591164D01*
X150446000Y-73465363D01*
X150446000Y-72074200D01*
X150700000Y-72074200D01*
X150700000Y-73465363D01*
X150878810Y-73591164D01*
X151111864Y-73507263D01*
X151303441Y-73382247D01*
X151466947Y-73222259D01*
X151596099Y-73033446D01*
X151685934Y-72823065D01*
X151733000Y-72599200D01*
X151733000Y-72074200D01*
X150700000Y-72074200D01*
X150446000Y-72074200D01*
X150426000Y-72074200D01*
X150426000Y-71820200D01*
X150446000Y-71820200D01*
X150446000Y-70429037D01*
X150700000Y-70429037D01*
X150700000Y-71820200D01*
X151733000Y-71820200D01*
X151733000Y-71295200D01*
X151685934Y-71071335D01*
X151596099Y-70860954D01*
X151466947Y-70672141D01*
X151303441Y-70512153D01*
X151111864Y-70387137D01*
X150878810Y-70303236D01*
X150700000Y-70429037D01*
X150446000Y-70429037D01*
X150267190Y-70303236D01*
X150034136Y-70387137D01*
X149842559Y-70512153D01*
X149728493Y-70623765D01*
X149609572Y-70544304D01*
X149430314Y-70470053D01*
X149240014Y-70432200D01*
X149045986Y-70432200D01*
X148855686Y-70470053D01*
X148676428Y-70544304D01*
X148515099Y-70652101D01*
X148377901Y-70789299D01*
X148270104Y-70950628D01*
X148195853Y-71129886D01*
X148158000Y-71320186D01*
X146316541Y-71320186D01*
X146290526Y-71189402D01*
X146212505Y-71001044D01*
X146099237Y-70831526D01*
X146051706Y-70783995D01*
X148941501Y-67894200D01*
X149413000Y-67894200D01*
X149413000Y-68419200D01*
X149460066Y-68643065D01*
X149549901Y-68853446D01*
X149679053Y-69042259D01*
X149842559Y-69202247D01*
X150034136Y-69327263D01*
X150267190Y-69411164D01*
X150446000Y-69285363D01*
X150446000Y-67894200D01*
X149413000Y-67894200D01*
X148941501Y-67894200D01*
X149413000Y-67422702D01*
X149413000Y-67640200D01*
X150446000Y-67640200D01*
X150446000Y-67620200D01*
X150700000Y-67620200D01*
X150700000Y-67640200D01*
X150720000Y-67640200D01*
X150720000Y-67894200D01*
X150700000Y-67894200D01*
X150700000Y-69285363D01*
X150878810Y-69411164D01*
X151111864Y-69327263D01*
X151303441Y-69202247D01*
X151466947Y-69042259D01*
X151596099Y-68853446D01*
X151685934Y-68643065D01*
X151733000Y-68419200D01*
X151733000Y-68207801D01*
X153119201Y-69594003D01*
X153119200Y-70752089D01*
X153075263Y-70796026D01*
X152961995Y-70965544D01*
X152883974Y-71153902D01*
X152844200Y-71353861D01*
X152844200Y-71557739D01*
X152883974Y-71757698D01*
X152961995Y-71946056D01*
X153075263Y-72115574D01*
X153219426Y-72259737D01*
X153388944Y-72373005D01*
X153577302Y-72451026D01*
X153777261Y-72490800D01*
X153981139Y-72490800D01*
X154181098Y-72451026D01*
X154369456Y-72373005D01*
X154538974Y-72259737D01*
X154683137Y-72115574D01*
X154796405Y-71946056D01*
X154874426Y-71757698D01*
X154914200Y-71557739D01*
X154914200Y-71353861D01*
X154874426Y-71153902D01*
X154796405Y-70965544D01*
X154683137Y-70796026D01*
X154639200Y-70752089D01*
X154639200Y-69316522D01*
X154642876Y-69279199D01*
X154639200Y-69241876D01*
X154639200Y-69241867D01*
X154628203Y-69130214D01*
X154584746Y-68986953D01*
X154514174Y-68854923D01*
X154442999Y-68768197D01*
X154419201Y-68739199D01*
X154390203Y-68715401D01*
X152360901Y-66686100D01*
X171229599Y-66686100D01*
X187945400Y-83401902D01*
G37*
%TD.AperFunction*%
D19*
X126738748Y-103259658D02*
X126724605Y-103273800D01*
X126738748Y-103287943D01*
X126559143Y-103467548D01*
X126545000Y-103453405D01*
X126530858Y-103467548D01*
X126351253Y-103287943D01*
X126365395Y-103273800D01*
X126351253Y-103259658D01*
X126530858Y-103080053D01*
X126545000Y-103094195D01*
X126559143Y-103080053D01*
X126738748Y-103259658D01*
%TA.AperFunction,Conductor*%
D20*
G36*
X126738748Y-103259658D02*
G01*
X126724605Y-103273800D01*
X126738748Y-103287943D01*
X126559143Y-103467548D01*
X126545000Y-103453405D01*
X126530858Y-103467548D01*
X126351253Y-103287943D01*
X126365395Y-103273800D01*
X126351253Y-103259658D01*
X126530858Y-103080053D01*
X126545000Y-103094195D01*
X126559143Y-103080053D01*
X126738748Y-103259658D01*
G37*
%TD.AperFunction*%
%TD*%
M02*
