%TF.GenerationSoftware,KiCad,Pcbnew,(5.1.10)-1*%
%TF.CreationDate,2021-08-25T15:30:51+02:00*%
%TF.ProjectId,Console,436f6e73-6f6c-4652-9e6b-696361645f70,v01*%
%TF.SameCoordinates,Original*%
%TF.FileFunction,Soldermask,Top*%
%TF.FilePolarity,Negative*%
%FSLAX46Y46*%
G04 Gerber Fmt 4.6, Leading zero omitted, Abs format (unit mm)*
G04 Created by KiCad (PCBNEW (5.1.10)-1) date 2021-08-25 15:30:51*
%MOMM*%
%LPD*%
G01*
G04 APERTURE LIST*
%ADD10C,5.400000*%
%ADD11R,1.000000X1.500000*%
%ADD12C,1.700000*%
%ADD13R,1.700000X1.700000*%
%ADD14R,0.800000X2.000000*%
%ADD15O,1.700000X1.700000*%
%ADD16R,1.550000X1.550000*%
%ADD17C,1.550000*%
%ADD18R,7.875000X2.000000*%
%ADD19R,0.600000X1.450000*%
%ADD20R,0.300000X1.450000*%
%ADD21O,1.050000X2.100000*%
%ADD22C,0.700000*%
%ADD23C,0.100000*%
G04 APERTURE END LIST*
D10*
%TO.C,PAD4*%
X194131000Y-123634000D03*
%TD*%
%TO.C,PAD3*%
X98350000Y-123698000D03*
%TD*%
%TO.C,PAD2*%
X194131000Y-67881500D03*
%TD*%
%TO.C,PAD1*%
X98350000Y-67881500D03*
%TD*%
%TO.C,C1*%
G36*
G01*
X131789000Y-107663000D02*
X131789000Y-106713000D01*
G75*
G02*
X132039000Y-106463000I250000J0D01*
G01*
X132714000Y-106463000D01*
G75*
G02*
X132964000Y-106713000I0J-250000D01*
G01*
X132964000Y-107663000D01*
G75*
G02*
X132714000Y-107913000I-250000J0D01*
G01*
X132039000Y-107913000D01*
G75*
G02*
X131789000Y-107663000I0J250000D01*
G01*
G37*
G36*
G01*
X133864000Y-107663000D02*
X133864000Y-106713000D01*
G75*
G02*
X134114000Y-106463000I250000J0D01*
G01*
X134789000Y-106463000D01*
G75*
G02*
X135039000Y-106713000I0J-250000D01*
G01*
X135039000Y-107663000D01*
G75*
G02*
X134789000Y-107913000I-250000J0D01*
G01*
X134114000Y-107913000D01*
G75*
G02*
X133864000Y-107663000I0J250000D01*
G01*
G37*
%TD*%
D11*
%TO.C,JP8*%
X161635000Y-77292200D03*
X160335000Y-77292200D03*
%TD*%
D12*
%TO.C,J1*%
X179896000Y-111760000D03*
X179896000Y-114300000D03*
D13*
X174816000Y-114300000D03*
D12*
X174816000Y-111760000D03*
X177356000Y-114300000D03*
X177356000Y-111760000D03*
%TD*%
%TO.C,C2*%
G36*
G01*
X133864000Y-113379000D02*
X133864000Y-112429000D01*
G75*
G02*
X134114000Y-112179000I250000J0D01*
G01*
X134789000Y-112179000D01*
G75*
G02*
X135039000Y-112429000I0J-250000D01*
G01*
X135039000Y-113379000D01*
G75*
G02*
X134789000Y-113629000I-250000J0D01*
G01*
X134114000Y-113629000D01*
G75*
G02*
X133864000Y-113379000I0J250000D01*
G01*
G37*
G36*
G01*
X131789000Y-113379000D02*
X131789000Y-112429000D01*
G75*
G02*
X132039000Y-112179000I250000J0D01*
G01*
X132714000Y-112179000D01*
G75*
G02*
X132964000Y-112429000I0J-250000D01*
G01*
X132964000Y-113379000D01*
G75*
G02*
X132714000Y-113629000I-250000J0D01*
G01*
X132039000Y-113629000D01*
G75*
G02*
X131789000Y-113379000I0J250000D01*
G01*
G37*
%TD*%
D14*
%TO.C,SW5*%
X183494000Y-71564500D03*
X187694000Y-71564500D03*
%TD*%
%TO.C,R2*%
G36*
G01*
X157277000Y-115132001D02*
X157277000Y-114231999D01*
G75*
G02*
X157526999Y-113982000I249999J0D01*
G01*
X158227001Y-113982000D01*
G75*
G02*
X158477000Y-114231999I0J-249999D01*
G01*
X158477000Y-115132001D01*
G75*
G02*
X158227001Y-115382000I-249999J0D01*
G01*
X157526999Y-115382000D01*
G75*
G02*
X157277000Y-115132001I0J249999D01*
G01*
G37*
G36*
G01*
X159277000Y-115132001D02*
X159277000Y-114231999D01*
G75*
G02*
X159526999Y-113982000I249999J0D01*
G01*
X160227001Y-113982000D01*
G75*
G02*
X160477000Y-114231999I0J-249999D01*
G01*
X160477000Y-115132001D01*
G75*
G02*
X160227001Y-115382000I-249999J0D01*
G01*
X159526999Y-115382000D01*
G75*
G02*
X159277000Y-115132001I0J249999D01*
G01*
G37*
%TD*%
D15*
%TO.C,J4*%
X161450000Y-123126000D03*
X158910000Y-123126000D03*
X156370000Y-123126000D03*
D13*
X153830000Y-123126000D03*
%TD*%
D11*
%TO.C,JP1*%
X155285000Y-72847200D03*
X153985000Y-72847200D03*
%TD*%
%TO.C,JP3*%
X160335000Y-72847200D03*
X161635000Y-72847200D03*
%TD*%
%TO.C,JP10*%
X155285000Y-77292200D03*
X153985000Y-77292200D03*
%TD*%
%TO.C,JP2*%
X132806000Y-77292200D03*
X131506000Y-77292200D03*
%TD*%
%TO.C,JP9*%
X131491000Y-72847200D03*
X132791000Y-72847200D03*
%TD*%
%TO.C,D1*%
G36*
G01*
X157315000Y-111842001D02*
X157315000Y-111041999D01*
G75*
G02*
X157564999Y-110792000I249999J0D01*
G01*
X158390001Y-110792000D01*
G75*
G02*
X158640000Y-111041999I0J-249999D01*
G01*
X158640000Y-111842001D01*
G75*
G02*
X158390001Y-112092000I-249999J0D01*
G01*
X157564999Y-112092000D01*
G75*
G02*
X157315000Y-111842001I0J249999D01*
G01*
G37*
G36*
G01*
X159240000Y-111842001D02*
X159240000Y-111041999D01*
G75*
G02*
X159489999Y-110792000I249999J0D01*
G01*
X160315001Y-110792000D01*
G75*
G02*
X160565000Y-111041999I0J-249999D01*
G01*
X160565000Y-111842001D01*
G75*
G02*
X160315001Y-112092000I-249999J0D01*
G01*
X159489999Y-112092000D01*
G75*
G02*
X159240000Y-111842001I0J249999D01*
G01*
G37*
%TD*%
D15*
%TO.C,J3*%
X138557000Y-123126000D03*
X136017000Y-123126000D03*
X133477000Y-123126000D03*
X130937000Y-123126000D03*
X128397000Y-123126000D03*
X125857000Y-123126000D03*
X123317000Y-123126000D03*
X120777000Y-123126000D03*
X118237000Y-123126000D03*
X115697000Y-123126000D03*
X113157000Y-123126000D03*
X110617000Y-123126000D03*
D13*
X108077000Y-123126000D03*
%TD*%
D15*
%TO.C,J5*%
X186309000Y-123126000D03*
X183769000Y-123126000D03*
X181229000Y-123126000D03*
D13*
X178689000Y-123126000D03*
%TD*%
D16*
%TO.C,SW1*%
X100624000Y-88773800D03*
D17*
X105624000Y-88773800D03*
X100624000Y-103273800D03*
X103124000Y-103273800D03*
X105624000Y-103273800D03*
G36*
G01*
X96324000Y-97073800D02*
X96324000Y-94473800D01*
G75*
G02*
X97524000Y-93273800I1200000J0D01*
G01*
X97524000Y-93273800D01*
G75*
G02*
X98724000Y-94473800I0J-1200000D01*
G01*
X98724000Y-97073800D01*
G75*
G02*
X97524000Y-98273800I-1200000J0D01*
G01*
X97524000Y-98273800D01*
G75*
G02*
X96324000Y-97073800I0J1200000D01*
G01*
G37*
G36*
G01*
X107524000Y-97073800D02*
X107524000Y-94473800D01*
G75*
G02*
X108724000Y-93273800I1200000J0D01*
G01*
X108724000Y-93273800D01*
G75*
G02*
X109924000Y-94473800I0J-1200000D01*
G01*
X109924000Y-97073800D01*
G75*
G02*
X108724000Y-98273800I-1200000J0D01*
G01*
X108724000Y-98273800D01*
G75*
G02*
X107524000Y-97073800I0J1200000D01*
G01*
G37*
%TD*%
D18*
%TO.C,Y1*%
X122396500Y-112966000D03*
X110521500Y-112966000D03*
%TD*%
D19*
%TO.C,J2*%
X149503000Y-72862200D03*
X148703000Y-72862200D03*
D20*
X146503000Y-72862200D03*
X147003000Y-72862200D03*
X147503000Y-72862200D03*
X148003000Y-72862200D03*
X146003000Y-72862200D03*
X145503000Y-72862200D03*
X145003000Y-72862200D03*
X144503000Y-72862200D03*
D19*
X143803000Y-72862200D03*
X143003000Y-72862200D03*
D21*
X150573000Y-71947200D03*
X141933000Y-71947200D03*
X150573000Y-67767200D03*
X141933000Y-67767200D03*
D22*
X149143000Y-71417200D03*
X143363000Y-71417200D03*
%TD*%
%TO.C,C3*%
G36*
G01*
X131915000Y-119601000D02*
X131915000Y-118651000D01*
G75*
G02*
X132165000Y-118401000I250000J0D01*
G01*
X132840000Y-118401000D01*
G75*
G02*
X133090000Y-118651000I0J-250000D01*
G01*
X133090000Y-119601000D01*
G75*
G02*
X132840000Y-119851000I-250000J0D01*
G01*
X132165000Y-119851000D01*
G75*
G02*
X131915000Y-119601000I0J250000D01*
G01*
G37*
G36*
G01*
X133990000Y-119601000D02*
X133990000Y-118651000D01*
G75*
G02*
X134240000Y-118401000I250000J0D01*
G01*
X134915000Y-118401000D01*
G75*
G02*
X135165000Y-118651000I0J-250000D01*
G01*
X135165000Y-119601000D01*
G75*
G02*
X134915000Y-119851000I-250000J0D01*
G01*
X134240000Y-119851000D01*
G75*
G02*
X133990000Y-119601000I0J250000D01*
G01*
G37*
%TD*%
D11*
%TO.C,JP4*%
X125791000Y-72847200D03*
X127091000Y-72847200D03*
%TD*%
%TO.C,R1*%
G36*
G01*
X157277000Y-119640001D02*
X157277000Y-118739999D01*
G75*
G02*
X157526999Y-118490000I249999J0D01*
G01*
X158227001Y-118490000D01*
G75*
G02*
X158477000Y-118739999I0J-249999D01*
G01*
X158477000Y-119640001D01*
G75*
G02*
X158227001Y-119890000I-249999J0D01*
G01*
X157526999Y-119890000D01*
G75*
G02*
X157277000Y-119640001I0J249999D01*
G01*
G37*
G36*
G01*
X159277000Y-119640001D02*
X159277000Y-118739999D01*
G75*
G02*
X159526999Y-118490000I249999J0D01*
G01*
X160227001Y-118490000D01*
G75*
G02*
X160477000Y-118739999I0J-249999D01*
G01*
X160477000Y-119640001D01*
G75*
G02*
X160227001Y-119890000I-249999J0D01*
G01*
X159526999Y-119890000D01*
G75*
G02*
X159277000Y-119640001I0J249999D01*
G01*
G37*
%TD*%
%TO.C,JP5*%
X137221000Y-72847200D03*
X138521000Y-72847200D03*
%TD*%
%TO.C,JP6*%
X137221000Y-77292200D03*
X138521000Y-77292200D03*
%TD*%
%TO.C,JP7*%
X127091000Y-77292200D03*
X125791000Y-77292200D03*
%TD*%
D23*
%TO.C,U1*%
G36*
X140883666Y-114815445D02*
G01*
X140494757Y-114426536D01*
X141626128Y-113295165D01*
X142015037Y-113684074D01*
X140883666Y-114815445D01*
G37*
G36*
X141449352Y-115381130D02*
G01*
X141060443Y-114992221D01*
X142191814Y-113860850D01*
X142580723Y-114249759D01*
X141449352Y-115381130D01*
G37*
G36*
X142015037Y-115946816D02*
G01*
X141626128Y-115557907D01*
X142757499Y-114426536D01*
X143146408Y-114815445D01*
X142015037Y-115946816D01*
G37*
G36*
X142580722Y-116512501D02*
G01*
X142191813Y-116123592D01*
X143323184Y-114992221D01*
X143712093Y-115381130D01*
X142580722Y-116512501D01*
G37*
G36*
X143146408Y-117078187D02*
G01*
X142757499Y-116689278D01*
X143888870Y-115557907D01*
X144277779Y-115946816D01*
X143146408Y-117078187D01*
G37*
G36*
X143712093Y-117643872D02*
G01*
X143323184Y-117254963D01*
X144454555Y-116123592D01*
X144843464Y-116512501D01*
X143712093Y-117643872D01*
G37*
G36*
X144277779Y-118209557D02*
G01*
X143888870Y-117820648D01*
X145020241Y-116689277D01*
X145409150Y-117078186D01*
X144277779Y-118209557D01*
G37*
G36*
X144843464Y-118775243D02*
G01*
X144454555Y-118386334D01*
X145585926Y-117254963D01*
X145974835Y-117643872D01*
X144843464Y-118775243D01*
G37*
G36*
X148025445Y-118386334D02*
G01*
X147636536Y-118775243D01*
X146505165Y-117643872D01*
X146894074Y-117254963D01*
X148025445Y-118386334D01*
G37*
G36*
X148591130Y-117820648D02*
G01*
X148202221Y-118209557D01*
X147070850Y-117078186D01*
X147459759Y-116689277D01*
X148591130Y-117820648D01*
G37*
G36*
X149156816Y-117254963D02*
G01*
X148767907Y-117643872D01*
X147636536Y-116512501D01*
X148025445Y-116123592D01*
X149156816Y-117254963D01*
G37*
G36*
X149722501Y-116689278D02*
G01*
X149333592Y-117078187D01*
X148202221Y-115946816D01*
X148591130Y-115557907D01*
X149722501Y-116689278D01*
G37*
G36*
X150288187Y-116123592D02*
G01*
X149899278Y-116512501D01*
X148767907Y-115381130D01*
X149156816Y-114992221D01*
X150288187Y-116123592D01*
G37*
G36*
X150853872Y-115557907D02*
G01*
X150464963Y-115946816D01*
X149333592Y-114815445D01*
X149722501Y-114426536D01*
X150853872Y-115557907D01*
G37*
G36*
X151419557Y-114992221D02*
G01*
X151030648Y-115381130D01*
X149899277Y-114249759D01*
X150288186Y-113860850D01*
X151419557Y-114992221D01*
G37*
G36*
X151985243Y-114426536D02*
G01*
X151596334Y-114815445D01*
X150464963Y-113684074D01*
X150853872Y-113295165D01*
X151985243Y-114426536D01*
G37*
G36*
X150853872Y-112764835D02*
G01*
X150464963Y-112375926D01*
X151596334Y-111244555D01*
X151985243Y-111633464D01*
X150853872Y-112764835D01*
G37*
G36*
X150288186Y-112199150D02*
G01*
X149899277Y-111810241D01*
X151030648Y-110678870D01*
X151419557Y-111067779D01*
X150288186Y-112199150D01*
G37*
G36*
X149722501Y-111633464D02*
G01*
X149333592Y-111244555D01*
X150464963Y-110113184D01*
X150853872Y-110502093D01*
X149722501Y-111633464D01*
G37*
G36*
X149156816Y-111067779D02*
G01*
X148767907Y-110678870D01*
X149899278Y-109547499D01*
X150288187Y-109936408D01*
X149156816Y-111067779D01*
G37*
G36*
X148591130Y-110502093D02*
G01*
X148202221Y-110113184D01*
X149333592Y-108981813D01*
X149722501Y-109370722D01*
X148591130Y-110502093D01*
G37*
G36*
X148025445Y-109936408D02*
G01*
X147636536Y-109547499D01*
X148767907Y-108416128D01*
X149156816Y-108805037D01*
X148025445Y-109936408D01*
G37*
G36*
X147459759Y-109370723D02*
G01*
X147070850Y-108981814D01*
X148202221Y-107850443D01*
X148591130Y-108239352D01*
X147459759Y-109370723D01*
G37*
G36*
X146894074Y-108805037D02*
G01*
X146505165Y-108416128D01*
X147636536Y-107284757D01*
X148025445Y-107673666D01*
X146894074Y-108805037D01*
G37*
G36*
X145974835Y-108416128D02*
G01*
X145585926Y-108805037D01*
X144454555Y-107673666D01*
X144843464Y-107284757D01*
X145974835Y-108416128D01*
G37*
G36*
X145409150Y-108981814D02*
G01*
X145020241Y-109370723D01*
X143888870Y-108239352D01*
X144277779Y-107850443D01*
X145409150Y-108981814D01*
G37*
G36*
X144843464Y-109547499D02*
G01*
X144454555Y-109936408D01*
X143323184Y-108805037D01*
X143712093Y-108416128D01*
X144843464Y-109547499D01*
G37*
G36*
X144277779Y-110113184D02*
G01*
X143888870Y-110502093D01*
X142757499Y-109370722D01*
X143146408Y-108981813D01*
X144277779Y-110113184D01*
G37*
G36*
X143712093Y-110678870D02*
G01*
X143323184Y-111067779D01*
X142191813Y-109936408D01*
X142580722Y-109547499D01*
X143712093Y-110678870D01*
G37*
G36*
X143146408Y-111244555D02*
G01*
X142757499Y-111633464D01*
X141626128Y-110502093D01*
X142015037Y-110113184D01*
X143146408Y-111244555D01*
G37*
G36*
X142580723Y-111810241D02*
G01*
X142191814Y-112199150D01*
X141060443Y-111067779D01*
X141449352Y-110678870D01*
X142580723Y-111810241D01*
G37*
G36*
X142015037Y-112375926D02*
G01*
X141626128Y-112764835D01*
X140494757Y-111633464D01*
X140883666Y-111244555D01*
X142015037Y-112375926D01*
G37*
%TD*%
%TO.C,SW2*%
G36*
G01*
X136268000Y-97073800D02*
X136268000Y-94473800D01*
G75*
G02*
X137468000Y-93273800I1200000J0D01*
G01*
X137468000Y-93273800D01*
G75*
G02*
X138668000Y-94473800I0J-1200000D01*
G01*
X138668000Y-97073800D01*
G75*
G02*
X137468000Y-98273800I-1200000J0D01*
G01*
X137468000Y-98273800D01*
G75*
G02*
X136268000Y-97073800I0J1200000D01*
G01*
G37*
G36*
G01*
X125068000Y-97073800D02*
X125068000Y-94473800D01*
G75*
G02*
X126268000Y-93273800I1200000J0D01*
G01*
X126268000Y-93273800D01*
G75*
G02*
X127468000Y-94473800I0J-1200000D01*
G01*
X127468000Y-97073800D01*
G75*
G02*
X126268000Y-98273800I-1200000J0D01*
G01*
X126268000Y-98273800D01*
G75*
G02*
X125068000Y-97073800I0J1200000D01*
G01*
G37*
D17*
X134368000Y-103273800D03*
X131868000Y-103273800D03*
X129368000Y-103273800D03*
X134368000Y-88773800D03*
D16*
X129368000Y-88773800D03*
%TD*%
%TO.C,D2*%
G36*
G01*
X103939000Y-72053499D02*
X103939000Y-72853501D01*
G75*
G02*
X103689001Y-73103500I-249999J0D01*
G01*
X102863999Y-73103500D01*
G75*
G02*
X102614000Y-72853501I0J249999D01*
G01*
X102614000Y-72053499D01*
G75*
G02*
X102863999Y-71803500I249999J0D01*
G01*
X103689001Y-71803500D01*
G75*
G02*
X103939000Y-72053499I0J-249999D01*
G01*
G37*
G36*
G01*
X102014000Y-72053499D02*
X102014000Y-72853501D01*
G75*
G02*
X101764001Y-73103500I-249999J0D01*
G01*
X100938999Y-73103500D01*
G75*
G02*
X100689000Y-72853501I0J249999D01*
G01*
X100689000Y-72053499D01*
G75*
G02*
X100938999Y-71803500I249999J0D01*
G01*
X101764001Y-71803500D01*
G75*
G02*
X102014000Y-72053499I0J-249999D01*
G01*
G37*
%TD*%
%TO.C,R3*%
G36*
G01*
X103914000Y-75305499D02*
X103914000Y-76205501D01*
G75*
G02*
X103664001Y-76455500I-249999J0D01*
G01*
X102963999Y-76455500D01*
G75*
G02*
X102714000Y-76205501I0J249999D01*
G01*
X102714000Y-75305499D01*
G75*
G02*
X102963999Y-75055500I249999J0D01*
G01*
X103664001Y-75055500D01*
G75*
G02*
X103914000Y-75305499I0J-249999D01*
G01*
G37*
G36*
G01*
X101914000Y-75305499D02*
X101914000Y-76205501D01*
G75*
G02*
X101664001Y-76455500I-249999J0D01*
G01*
X100963999Y-76455500D01*
G75*
G02*
X100714000Y-76205501I0J249999D01*
G01*
X100714000Y-75305499D01*
G75*
G02*
X100963999Y-75055500I249999J0D01*
G01*
X101664001Y-75055500D01*
G75*
G02*
X101914000Y-75305499I0J-249999D01*
G01*
G37*
%TD*%
%TO.C,SW3*%
X158113000Y-88773800D03*
D17*
X163113000Y-88773800D03*
X158113000Y-103273800D03*
X160613000Y-103273800D03*
X163113000Y-103273800D03*
G36*
G01*
X153813000Y-97073800D02*
X153813000Y-94473800D01*
G75*
G02*
X155013000Y-93273800I1200000J0D01*
G01*
X155013000Y-93273800D01*
G75*
G02*
X156213000Y-94473800I0J-1200000D01*
G01*
X156213000Y-97073800D01*
G75*
G02*
X155013000Y-98273800I-1200000J0D01*
G01*
X155013000Y-98273800D01*
G75*
G02*
X153813000Y-97073800I0J1200000D01*
G01*
G37*
G36*
G01*
X165013000Y-97073800D02*
X165013000Y-94473800D01*
G75*
G02*
X166213000Y-93273800I1200000J0D01*
G01*
X166213000Y-93273800D01*
G75*
G02*
X167413000Y-94473800I0J-1200000D01*
G01*
X167413000Y-97073800D01*
G75*
G02*
X166213000Y-98273800I-1200000J0D01*
G01*
X166213000Y-98273800D01*
G75*
G02*
X165013000Y-97073800I0J1200000D01*
G01*
G37*
%TD*%
%TO.C,SW4*%
G36*
G01*
X193757000Y-97073800D02*
X193757000Y-94473800D01*
G75*
G02*
X194957000Y-93273800I1200000J0D01*
G01*
X194957000Y-93273800D01*
G75*
G02*
X196157000Y-94473800I0J-1200000D01*
G01*
X196157000Y-97073800D01*
G75*
G02*
X194957000Y-98273800I-1200000J0D01*
G01*
X194957000Y-98273800D01*
G75*
G02*
X193757000Y-97073800I0J1200000D01*
G01*
G37*
G36*
G01*
X182557000Y-97073800D02*
X182557000Y-94473800D01*
G75*
G02*
X183757000Y-93273800I1200000J0D01*
G01*
X183757000Y-93273800D01*
G75*
G02*
X184957000Y-94473800I0J-1200000D01*
G01*
X184957000Y-97073800D01*
G75*
G02*
X183757000Y-98273800I-1200000J0D01*
G01*
X183757000Y-98273800D01*
G75*
G02*
X182557000Y-97073800I0J1200000D01*
G01*
G37*
X191857000Y-103273800D03*
X189357000Y-103273800D03*
X186857000Y-103273800D03*
X191857000Y-88773800D03*
D16*
X186857000Y-88773800D03*
%TD*%
%TO.C,C4*%
G36*
G01*
X157294000Y-107663000D02*
X157294000Y-106713000D01*
G75*
G02*
X157544000Y-106463000I250000J0D01*
G01*
X158219000Y-106463000D01*
G75*
G02*
X158469000Y-106713000I0J-250000D01*
G01*
X158469000Y-107663000D01*
G75*
G02*
X158219000Y-107913000I-250000J0D01*
G01*
X157544000Y-107913000D01*
G75*
G02*
X157294000Y-107663000I0J250000D01*
G01*
G37*
G36*
G01*
X159369000Y-107663000D02*
X159369000Y-106713000D01*
G75*
G02*
X159619000Y-106463000I250000J0D01*
G01*
X160294000Y-106463000D01*
G75*
G02*
X160544000Y-106713000I0J-250000D01*
G01*
X160544000Y-107663000D01*
G75*
G02*
X160294000Y-107913000I-250000J0D01*
G01*
X159619000Y-107913000D01*
G75*
G02*
X159369000Y-107663000I0J250000D01*
G01*
G37*
%TD*%
M02*
