%TF.GenerationSoftware,KiCad,Pcbnew,(5.1.10)-1*%
%TF.CreationDate,2021-08-25T15:30:51+02:00*%
%TF.ProjectId,Console,436f6e73-6f6c-4652-9e6b-696361645f70,v01*%
%TF.SameCoordinates,Original*%
%TF.FileFunction,Legend,Top*%
%TF.FilePolarity,Positive*%
%FSLAX46Y46*%
G04 Gerber Fmt 4.6, Leading zero omitted, Abs format (unit mm)*
G04 Created by KiCad (PCBNEW (5.1.10)-1) date 2021-08-25 15:30:51*
%MOMM*%
%LPD*%
G01*
G04 APERTURE LIST*
%ADD10C,0.150000*%
%ADD11C,0.120000*%
%ADD12C,0.127000*%
%ADD13C,0.200000*%
%ADD14C,0.100000*%
%ADD15C,0.250000*%
%ADD16C,0.254000*%
%ADD17C,5.400000*%
%ADD18R,1.000000X1.500000*%
%ADD19C,1.700000*%
%ADD20R,1.700000X1.700000*%
%ADD21R,0.800000X2.000000*%
%ADD22O,1.700000X1.700000*%
%ADD23R,1.550000X1.550000*%
%ADD24C,1.550000*%
%ADD25R,7.875000X2.000000*%
%ADD26R,0.600000X1.450000*%
%ADD27R,0.300000X1.450000*%
%ADD28O,1.050000X2.100000*%
%ADD29C,0.700000*%
G04 APERTURE END LIST*
D10*
X109315642Y-120832571D02*
X109648976Y-120832571D01*
X109791833Y-121356380D02*
X109315642Y-121356380D01*
X109315642Y-120356380D01*
X109791833Y-120356380D01*
X110220404Y-120689714D02*
X110220404Y-121356380D01*
X110220404Y-120784952D02*
X110268023Y-120737333D01*
X110363261Y-120689714D01*
X110506119Y-120689714D01*
X110601357Y-120737333D01*
X110648976Y-120832571D01*
X110648976Y-121356380D01*
X111553738Y-121308761D02*
X111458500Y-121356380D01*
X111268023Y-121356380D01*
X111172785Y-121308761D01*
X111125166Y-121261142D01*
X111077547Y-121165904D01*
X111077547Y-120880190D01*
X111125166Y-120784952D01*
X111172785Y-120737333D01*
X111268023Y-120689714D01*
X111458500Y-120689714D01*
X111553738Y-120737333D01*
X112125166Y-121356380D02*
X112029928Y-121308761D01*
X111982309Y-121261142D01*
X111934690Y-121165904D01*
X111934690Y-120880190D01*
X111982309Y-120784952D01*
X112029928Y-120737333D01*
X112125166Y-120689714D01*
X112268023Y-120689714D01*
X112363261Y-120737333D01*
X112410880Y-120784952D01*
X112458499Y-120880190D01*
X112458499Y-121165904D01*
X112410880Y-121261142D01*
X112363261Y-121308761D01*
X112268023Y-121356380D01*
X112125166Y-121356380D01*
X113315642Y-121356380D02*
X113315642Y-120356380D01*
X113315642Y-121308761D02*
X113220404Y-121356380D01*
X113029928Y-121356380D01*
X112934690Y-121308761D01*
X112887071Y-121261142D01*
X112839452Y-121165904D01*
X112839452Y-120880190D01*
X112887071Y-120784952D01*
X112934690Y-120737333D01*
X113029928Y-120689714D01*
X113220404Y-120689714D01*
X113315642Y-120737333D01*
X114172785Y-121308761D02*
X114077547Y-121356380D01*
X113887071Y-121356380D01*
X113791833Y-121308761D01*
X113744214Y-121213523D01*
X113744214Y-120832571D01*
X113791833Y-120737333D01*
X113887071Y-120689714D01*
X114077547Y-120689714D01*
X114172785Y-120737333D01*
X114220404Y-120832571D01*
X114220404Y-120927809D01*
X113744214Y-121023047D01*
X114648976Y-121356380D02*
X114648976Y-120689714D01*
X114648976Y-120880190D02*
X114696595Y-120784952D01*
X114744214Y-120737333D01*
X114839452Y-120689714D01*
X114934690Y-120689714D01*
X115220404Y-121308761D02*
X115315642Y-121356380D01*
X115506119Y-121356380D01*
X115601357Y-121308761D01*
X115648976Y-121213523D01*
X115648976Y-121165904D01*
X115601357Y-121070666D01*
X115506119Y-121023047D01*
X115363261Y-121023047D01*
X115268023Y-120975428D01*
X115220404Y-120880190D01*
X115220404Y-120832571D01*
X115268023Y-120737333D01*
X115363261Y-120689714D01*
X115506119Y-120689714D01*
X115601357Y-120737333D01*
X155694261Y-120419880D02*
X155694261Y-121229404D01*
X155741880Y-121324642D01*
X155789500Y-121372261D01*
X155884738Y-121419880D01*
X156075214Y-121419880D01*
X156170452Y-121372261D01*
X156218071Y-121324642D01*
X156265690Y-121229404D01*
X156265690Y-120419880D01*
X156694261Y-121134166D02*
X157170452Y-121134166D01*
X156599023Y-121419880D02*
X156932357Y-120419880D01*
X157265690Y-121419880D01*
X158170452Y-121419880D02*
X157837119Y-120943690D01*
X157599023Y-121419880D02*
X157599023Y-120419880D01*
X157979976Y-120419880D01*
X158075214Y-120467500D01*
X158122833Y-120515119D01*
X158170452Y-120610357D01*
X158170452Y-120753214D01*
X158122833Y-120848452D01*
X158075214Y-120896071D01*
X157979976Y-120943690D01*
X157599023Y-120943690D01*
X158456166Y-120419880D02*
X159027595Y-120419880D01*
X158741880Y-121419880D02*
X158741880Y-120419880D01*
X179967047Y-121483380D02*
X179967047Y-120483380D01*
X180395619Y-120245285D02*
X180490857Y-120197666D01*
X180633714Y-120197666D01*
X180728952Y-120245285D01*
X180776571Y-120340523D01*
X180776571Y-120435761D01*
X180728952Y-120531000D01*
X180395619Y-120864333D01*
X180776571Y-120864333D01*
X181776571Y-121388142D02*
X181728952Y-121435761D01*
X181586095Y-121483380D01*
X181490857Y-121483380D01*
X181348000Y-121435761D01*
X181252761Y-121340523D01*
X181205142Y-121245285D01*
X181157523Y-121054809D01*
X181157523Y-120911952D01*
X181205142Y-120721476D01*
X181252761Y-120626238D01*
X181348000Y-120531000D01*
X181490857Y-120483380D01*
X181586095Y-120483380D01*
X181728952Y-120531000D01*
X181776571Y-120578619D01*
X137069580Y-71013580D02*
X136736247Y-70537390D01*
X136498152Y-71013580D02*
X136498152Y-70013580D01*
X136879104Y-70013580D01*
X136974342Y-70061200D01*
X137021961Y-70108819D01*
X137069580Y-70204057D01*
X137069580Y-70346914D01*
X137021961Y-70442152D01*
X136974342Y-70489771D01*
X136879104Y-70537390D01*
X136498152Y-70537390D01*
X137450533Y-70965961D02*
X137593390Y-71013580D01*
X137831485Y-71013580D01*
X137926723Y-70965961D01*
X137974342Y-70918342D01*
X138021961Y-70823104D01*
X138021961Y-70727866D01*
X137974342Y-70632628D01*
X137926723Y-70585009D01*
X137831485Y-70537390D01*
X137641009Y-70489771D01*
X137545771Y-70442152D01*
X137498152Y-70394533D01*
X137450533Y-70299295D01*
X137450533Y-70204057D01*
X137498152Y-70108819D01*
X137545771Y-70061200D01*
X137641009Y-70013580D01*
X137879104Y-70013580D01*
X138021961Y-70061200D01*
X138307676Y-70013580D02*
X138879104Y-70013580D01*
X138593390Y-71013580D02*
X138593390Y-70013580D01*
X130505295Y-70013580D02*
X131076723Y-70013580D01*
X130791009Y-71013580D02*
X130791009Y-70013580D01*
X131314819Y-70013580D02*
X131981485Y-71013580D01*
X131981485Y-70013580D02*
X131314819Y-71013580D01*
X125639533Y-71013580D02*
X125306200Y-70537390D01*
X125068104Y-71013580D02*
X125068104Y-70013580D01*
X125449057Y-70013580D01*
X125544295Y-70061200D01*
X125591914Y-70108819D01*
X125639533Y-70204057D01*
X125639533Y-70346914D01*
X125591914Y-70442152D01*
X125544295Y-70489771D01*
X125449057Y-70537390D01*
X125068104Y-70537390D01*
X125972866Y-70013580D02*
X126639533Y-71013580D01*
X126639533Y-70013580D02*
X125972866Y-71013580D01*
X159667723Y-70965961D02*
X159810580Y-71013580D01*
X160048676Y-71013580D01*
X160143914Y-70965961D01*
X160191533Y-70918342D01*
X160239152Y-70823104D01*
X160239152Y-70727866D01*
X160191533Y-70632628D01*
X160143914Y-70585009D01*
X160048676Y-70537390D01*
X159858200Y-70489771D01*
X159762961Y-70442152D01*
X159715342Y-70394533D01*
X159667723Y-70299295D01*
X159667723Y-70204057D01*
X159715342Y-70108819D01*
X159762961Y-70061200D01*
X159858200Y-70013580D01*
X160096295Y-70013580D01*
X160239152Y-70061200D01*
X161239152Y-70918342D02*
X161191533Y-70965961D01*
X161048676Y-71013580D01*
X160953438Y-71013580D01*
X160810580Y-70965961D01*
X160715342Y-70870723D01*
X160667723Y-70775485D01*
X160620104Y-70585009D01*
X160620104Y-70442152D01*
X160667723Y-70251676D01*
X160715342Y-70156438D01*
X160810580Y-70061200D01*
X160953438Y-70013580D01*
X161048676Y-70013580D01*
X161191533Y-70061200D01*
X161239152Y-70108819D01*
X162143914Y-71013580D02*
X161667723Y-71013580D01*
X161667723Y-70013580D01*
X153293914Y-70965961D02*
X153436771Y-71013580D01*
X153674866Y-71013580D01*
X153770104Y-70965961D01*
X153817723Y-70918342D01*
X153865342Y-70823104D01*
X153865342Y-70727866D01*
X153817723Y-70632628D01*
X153770104Y-70585009D01*
X153674866Y-70537390D01*
X153484390Y-70489771D01*
X153389152Y-70442152D01*
X153341533Y-70394533D01*
X153293914Y-70299295D01*
X153293914Y-70204057D01*
X153341533Y-70108819D01*
X153389152Y-70061200D01*
X153484390Y-70013580D01*
X153722485Y-70013580D01*
X153865342Y-70061200D01*
X154293914Y-71013580D02*
X154293914Y-70013580D01*
X154532009Y-70013580D01*
X154674866Y-70061200D01*
X154770104Y-70156438D01*
X154817723Y-70251676D01*
X154865342Y-70442152D01*
X154865342Y-70585009D01*
X154817723Y-70775485D01*
X154770104Y-70870723D01*
X154674866Y-70965961D01*
X154532009Y-71013580D01*
X154293914Y-71013580D01*
X155246295Y-70727866D02*
X155722485Y-70727866D01*
X155151057Y-71013580D02*
X155484390Y-70013580D01*
X155817723Y-71013580D01*
D11*
%TO.C,C1*%
X133152748Y-107923000D02*
X133675252Y-107923000D01*
X133152748Y-106453000D02*
X133675252Y-106453000D01*
%TO.C,JP8*%
X159585000Y-76292200D02*
X162385000Y-76292200D01*
X162385000Y-76292200D02*
X162385000Y-78292200D01*
X162385000Y-78292200D02*
X159585000Y-78292200D01*
X159585000Y-78292200D02*
X159585000Y-76292200D01*
D12*
%TO.C,J1*%
X173546000Y-110490000D02*
X181166000Y-110490000D01*
X181166000Y-110490000D02*
X181166000Y-115570000D01*
X181166000Y-115570000D02*
X173546000Y-115570000D01*
X173546000Y-115570000D02*
X173546000Y-110490000D01*
D13*
X173392000Y-115824000D02*
G75*
G03*
X173392000Y-115824000I-100000J0D01*
G01*
D11*
%TO.C,C2*%
X133152748Y-112169000D02*
X133675252Y-112169000D01*
X133152748Y-113639000D02*
X133675252Y-113639000D01*
D14*
%TO.C,SW5*%
X183644000Y-70114500D02*
X187544000Y-70114500D01*
X183644000Y-73014500D02*
X187544000Y-73014500D01*
D11*
%TO.C,R2*%
X158649936Y-115417000D02*
X159104064Y-115417000D01*
X158649936Y-113947000D02*
X159104064Y-113947000D01*
%TO.C,J4*%
X162780000Y-124456000D02*
X162780000Y-121796000D01*
X155100000Y-124456000D02*
X162780000Y-124456000D01*
X155100000Y-121796000D02*
X162780000Y-121796000D01*
X155100000Y-124456000D02*
X155100000Y-121796000D01*
X153830000Y-124456000D02*
X152500000Y-124456000D01*
X152500000Y-124456000D02*
X152500000Y-123126000D01*
%TO.C,JP1*%
X156035000Y-71847200D02*
X156035000Y-73847200D01*
X153235000Y-71847200D02*
X156035000Y-71847200D01*
X153235000Y-73847200D02*
X153235000Y-71847200D01*
X156035000Y-73847200D02*
X153235000Y-73847200D01*
%TO.C,JP3*%
X162385000Y-73847200D02*
X159585000Y-73847200D01*
X159585000Y-73847200D02*
X159585000Y-71847200D01*
X159585000Y-71847200D02*
X162385000Y-71847200D01*
X162385000Y-71847200D02*
X162385000Y-73847200D01*
%TO.C,JP10*%
X153235000Y-76292200D02*
X156035000Y-76292200D01*
X156035000Y-76292200D02*
X156035000Y-78292200D01*
X156035000Y-78292200D02*
X153235000Y-78292200D01*
X153235000Y-78292200D02*
X153235000Y-76292200D01*
%TO.C,JP2*%
X130756000Y-78292200D02*
X130756000Y-76292200D01*
X133556000Y-78292200D02*
X130756000Y-78292200D01*
X133556000Y-76292200D02*
X133556000Y-78292200D01*
X130756000Y-76292200D02*
X133556000Y-76292200D01*
%TO.C,JP9*%
X133541000Y-71847200D02*
X133541000Y-73847200D01*
X130741000Y-71847200D02*
X133541000Y-71847200D01*
X130741000Y-73847200D02*
X130741000Y-71847200D01*
X133541000Y-73847200D02*
X130741000Y-73847200D01*
%TO.C,D1*%
X157055000Y-112352000D02*
X159940000Y-112352000D01*
X157055000Y-110532000D02*
X157055000Y-112352000D01*
X159940000Y-110532000D02*
X157055000Y-110532000D01*
%TO.C,J3*%
X139887000Y-124456000D02*
X139887000Y-121796000D01*
X109347000Y-124456000D02*
X139887000Y-124456000D01*
X109347000Y-121796000D02*
X139887000Y-121796000D01*
X109347000Y-124456000D02*
X109347000Y-121796000D01*
X108077000Y-124456000D02*
X106747000Y-124456000D01*
X106747000Y-124456000D02*
X106747000Y-123126000D01*
%TO.C,J5*%
X187639000Y-124456000D02*
X187639000Y-121796000D01*
X179959000Y-124456000D02*
X187639000Y-124456000D01*
X179959000Y-121796000D02*
X187639000Y-121796000D01*
X179959000Y-124456000D02*
X179959000Y-121796000D01*
X178689000Y-124456000D02*
X177359000Y-124456000D01*
X177359000Y-124456000D02*
X177359000Y-123126000D01*
D10*
%TO.C,SW1*%
X96624000Y-88823800D02*
X99474000Y-88823800D01*
X101774000Y-88823800D02*
X104474000Y-88823800D01*
X106774000Y-88823800D02*
X109624000Y-88823800D01*
X109624000Y-102723800D02*
X109624000Y-98648800D01*
X109624000Y-92898800D02*
X109624000Y-88823800D01*
X96624000Y-102723800D02*
X99474000Y-102723800D01*
X101774000Y-102723800D02*
X101974000Y-102723800D01*
X104274000Y-102723800D02*
X104474000Y-102723800D01*
X106774000Y-102723800D02*
X109624000Y-102723800D01*
X96624000Y-102723800D02*
X96624000Y-98648800D01*
X96624000Y-92898800D02*
X96624000Y-88823800D01*
D15*
X100749000Y-87448800D02*
G75*
G03*
X100749000Y-87448800I-125000J0D01*
G01*
D11*
%TO.C,Y1*%
X122359000Y-110416000D02*
X106384000Y-110416000D01*
X106384000Y-110416000D02*
X106384000Y-115516000D01*
X106384000Y-115516000D02*
X122359000Y-115516000D01*
D12*
%TO.C,J2*%
X150723000Y-70577200D02*
X150723000Y-69137200D01*
X141783000Y-70577200D02*
X141783000Y-69137200D01*
X141783000Y-66397200D02*
X141783000Y-65167200D01*
X141783000Y-65167200D02*
X150723000Y-65167200D01*
X150723000Y-65167200D02*
X150723000Y-66397200D01*
D13*
X149753000Y-74167200D02*
G75*
G03*
X149753000Y-74167200I-100000J0D01*
G01*
D11*
%TO.C,C3*%
X133278748Y-119861000D02*
X133801252Y-119861000D01*
X133278748Y-118391000D02*
X133801252Y-118391000D01*
%TO.C,JP4*%
X125041000Y-71847200D02*
X127841000Y-71847200D01*
X127841000Y-71847200D02*
X127841000Y-73847200D01*
X127841000Y-73847200D02*
X125041000Y-73847200D01*
X125041000Y-73847200D02*
X125041000Y-71847200D01*
%TO.C,R1*%
X158649936Y-119925000D02*
X159104064Y-119925000D01*
X158649936Y-118455000D02*
X159104064Y-118455000D01*
%TO.C,JP5*%
X139271000Y-71847200D02*
X139271000Y-73847200D01*
X136471000Y-71847200D02*
X139271000Y-71847200D01*
X136471000Y-73847200D02*
X136471000Y-71847200D01*
X139271000Y-73847200D02*
X136471000Y-73847200D01*
%TO.C,JP6*%
X136471000Y-76292200D02*
X139271000Y-76292200D01*
X139271000Y-76292200D02*
X139271000Y-78292200D01*
X139271000Y-78292200D02*
X136471000Y-78292200D01*
X136471000Y-78292200D02*
X136471000Y-76292200D01*
%TO.C,JP7*%
X127841000Y-78292200D02*
X125041000Y-78292200D01*
X125041000Y-78292200D02*
X125041000Y-76292200D01*
X125041000Y-76292200D02*
X127841000Y-76292200D01*
X127841000Y-76292200D02*
X127841000Y-78292200D01*
D10*
%TO.C,U1*%
X141113476Y-113030000D02*
X141272575Y-113189099D01*
X146240000Y-107903476D02*
X146469810Y-108133286D01*
X151366524Y-113030000D02*
X151136714Y-112800190D01*
X146240000Y-118156524D02*
X146010190Y-117926714D01*
X141113476Y-113030000D02*
X141343286Y-112800190D01*
X146240000Y-118156524D02*
X146469810Y-117926714D01*
X151366524Y-113030000D02*
X151136714Y-113259810D01*
X146240000Y-107903476D02*
X146010190Y-108133286D01*
X141272575Y-113189099D02*
X140264948Y-114196726D01*
D15*
%TO.C,SW2*%
X129493000Y-87448800D02*
G75*
G03*
X129493000Y-87448800I-125000J0D01*
G01*
D10*
X125368000Y-92898800D02*
X125368000Y-88823800D01*
X125368000Y-102723800D02*
X125368000Y-98648800D01*
X135518000Y-102723800D02*
X138368000Y-102723800D01*
X133018000Y-102723800D02*
X133218000Y-102723800D01*
X130518000Y-102723800D02*
X130718000Y-102723800D01*
X125368000Y-102723800D02*
X128218000Y-102723800D01*
X138368000Y-92898800D02*
X138368000Y-88823800D01*
X138368000Y-102723800D02*
X138368000Y-98648800D01*
X135518000Y-88823800D02*
X138368000Y-88823800D01*
X130518000Y-88823800D02*
X133218000Y-88823800D01*
X125368000Y-88823800D02*
X128218000Y-88823800D01*
D11*
%TO.C,D2*%
X101314000Y-73363500D02*
X104199000Y-73363500D01*
X104199000Y-73363500D02*
X104199000Y-71543500D01*
X104199000Y-71543500D02*
X101314000Y-71543500D01*
%TO.C,R3*%
X102541064Y-76490500D02*
X102086936Y-76490500D01*
X102541064Y-75020500D02*
X102086936Y-75020500D01*
D10*
%TO.C,SW3*%
X154113000Y-88823800D02*
X156963000Y-88823800D01*
X159263000Y-88823800D02*
X161963000Y-88823800D01*
X164263000Y-88823800D02*
X167113000Y-88823800D01*
X167113000Y-102723800D02*
X167113000Y-98648800D01*
X167113000Y-92898800D02*
X167113000Y-88823800D01*
X154113000Y-102723800D02*
X156963000Y-102723800D01*
X159263000Y-102723800D02*
X159463000Y-102723800D01*
X161763000Y-102723800D02*
X161963000Y-102723800D01*
X164263000Y-102723800D02*
X167113000Y-102723800D01*
X154113000Y-102723800D02*
X154113000Y-98648800D01*
X154113000Y-92898800D02*
X154113000Y-88823800D01*
D15*
X158238000Y-87448800D02*
G75*
G03*
X158238000Y-87448800I-125000J0D01*
G01*
%TO.C,SW4*%
X186982000Y-87448800D02*
G75*
G03*
X186982000Y-87448800I-125000J0D01*
G01*
D10*
X182857000Y-92898800D02*
X182857000Y-88823800D01*
X182857000Y-102723800D02*
X182857000Y-98648800D01*
X193007000Y-102723800D02*
X195857000Y-102723800D01*
X190507000Y-102723800D02*
X190707000Y-102723800D01*
X188007000Y-102723800D02*
X188207000Y-102723800D01*
X182857000Y-102723800D02*
X185707000Y-102723800D01*
X195857000Y-92898800D02*
X195857000Y-88823800D01*
X195857000Y-102723800D02*
X195857000Y-98648800D01*
X193007000Y-88823800D02*
X195857000Y-88823800D01*
X188007000Y-88823800D02*
X190707000Y-88823800D01*
X182857000Y-88823800D02*
X185707000Y-88823800D01*
D11*
%TO.C,C4*%
X158657748Y-106453000D02*
X159180252Y-106453000D01*
X158657748Y-107923000D02*
X159180252Y-107923000D01*
%TO.C,C1*%
D10*
X133247333Y-105865142D02*
X133199714Y-105912761D01*
X133056857Y-105960380D01*
X132961619Y-105960380D01*
X132818761Y-105912761D01*
X132723523Y-105817523D01*
X132675904Y-105722285D01*
X132628285Y-105531809D01*
X132628285Y-105388952D01*
X132675904Y-105198476D01*
X132723523Y-105103238D01*
X132818761Y-105008000D01*
X132961619Y-104960380D01*
X133056857Y-104960380D01*
X133199714Y-105008000D01*
X133247333Y-105055619D01*
X134199714Y-105960380D02*
X133628285Y-105960380D01*
X133914000Y-105960380D02*
X133914000Y-104960380D01*
X133818761Y-105103238D01*
X133723523Y-105198476D01*
X133628285Y-105246095D01*
%TO.C,JP8*%
X160151666Y-78649580D02*
X160151666Y-79363866D01*
X160104047Y-79506723D01*
X160008809Y-79601961D01*
X159865952Y-79649580D01*
X159770714Y-79649580D01*
X160627857Y-79649580D02*
X160627857Y-78649580D01*
X161008809Y-78649580D01*
X161104047Y-78697200D01*
X161151666Y-78744819D01*
X161199285Y-78840057D01*
X161199285Y-78982914D01*
X161151666Y-79078152D01*
X161104047Y-79125771D01*
X161008809Y-79173390D01*
X160627857Y-79173390D01*
X161770714Y-79078152D02*
X161675476Y-79030533D01*
X161627857Y-78982914D01*
X161580238Y-78887676D01*
X161580238Y-78840057D01*
X161627857Y-78744819D01*
X161675476Y-78697200D01*
X161770714Y-78649580D01*
X161961190Y-78649580D01*
X162056428Y-78697200D01*
X162104047Y-78744819D01*
X162151666Y-78840057D01*
X162151666Y-78887676D01*
X162104047Y-78982914D01*
X162056428Y-79030533D01*
X161961190Y-79078152D01*
X161770714Y-79078152D01*
X161675476Y-79125771D01*
X161627857Y-79173390D01*
X161580238Y-79268628D01*
X161580238Y-79459104D01*
X161627857Y-79554342D01*
X161675476Y-79601961D01*
X161770714Y-79649580D01*
X161961190Y-79649580D01*
X162056428Y-79601961D01*
X162104047Y-79554342D01*
X162151666Y-79459104D01*
X162151666Y-79268628D01*
X162104047Y-79173390D01*
X162056428Y-79125771D01*
X161961190Y-79078152D01*
%TO.C,J1*%
X177093532Y-112598803D02*
X177093532Y-113161233D01*
X177056037Y-113273719D01*
X176981046Y-113348710D01*
X176868560Y-113386205D01*
X176793570Y-113386205D01*
X177880934Y-113386205D02*
X177430990Y-113386205D01*
X177655962Y-113386205D02*
X177655962Y-112598803D01*
X177580972Y-112711289D01*
X177505981Y-112786280D01*
X177430990Y-112823775D01*
X175879809Y-110180380D02*
X175879809Y-109180380D01*
X176927428Y-110085142D02*
X176879809Y-110132761D01*
X176736952Y-110180380D01*
X176641714Y-110180380D01*
X176498857Y-110132761D01*
X176403619Y-110037523D01*
X176356000Y-109942285D01*
X176308380Y-109751809D01*
X176308380Y-109608952D01*
X176356000Y-109418476D01*
X176403619Y-109323238D01*
X176498857Y-109228000D01*
X176641714Y-109180380D01*
X176736952Y-109180380D01*
X176879809Y-109228000D01*
X176927428Y-109275619D01*
X177308380Y-110132761D02*
X177451238Y-110180380D01*
X177689333Y-110180380D01*
X177784571Y-110132761D01*
X177832190Y-110085142D01*
X177879809Y-109989904D01*
X177879809Y-109894666D01*
X177832190Y-109799428D01*
X177784571Y-109751809D01*
X177689333Y-109704190D01*
X177498857Y-109656571D01*
X177403619Y-109608952D01*
X177356000Y-109561333D01*
X177308380Y-109466095D01*
X177308380Y-109370857D01*
X177356000Y-109275619D01*
X177403619Y-109228000D01*
X177498857Y-109180380D01*
X177736952Y-109180380D01*
X177879809Y-109228000D01*
X178308380Y-110180380D02*
X178308380Y-109180380D01*
X178689333Y-109180380D01*
X178784571Y-109228000D01*
X178832190Y-109275619D01*
X178879809Y-109370857D01*
X178879809Y-109513714D01*
X178832190Y-109608952D01*
X178784571Y-109656571D01*
X178689333Y-109704190D01*
X178308380Y-109704190D01*
%TO.C,C2*%
X133247333Y-111581142D02*
X133199714Y-111628761D01*
X133056857Y-111676380D01*
X132961619Y-111676380D01*
X132818761Y-111628761D01*
X132723523Y-111533523D01*
X132675904Y-111438285D01*
X132628285Y-111247809D01*
X132628285Y-111104952D01*
X132675904Y-110914476D01*
X132723523Y-110819238D01*
X132818761Y-110724000D01*
X132961619Y-110676380D01*
X133056857Y-110676380D01*
X133199714Y-110724000D01*
X133247333Y-110771619D01*
X133628285Y-110771619D02*
X133675904Y-110724000D01*
X133771142Y-110676380D01*
X134009238Y-110676380D01*
X134104476Y-110724000D01*
X134152095Y-110771619D01*
X134199714Y-110866857D01*
X134199714Y-110962095D01*
X134152095Y-111104952D01*
X133580666Y-111676380D01*
X134199714Y-111676380D01*
%TO.C,SW5*%
D16*
X183900666Y-72078547D02*
X184082095Y-72139023D01*
X184384476Y-72139023D01*
X184505428Y-72078547D01*
X184565904Y-72018071D01*
X184626380Y-71897119D01*
X184626380Y-71776166D01*
X184565904Y-71655214D01*
X184505428Y-71594738D01*
X184384476Y-71534261D01*
X184142571Y-71473785D01*
X184021619Y-71413309D01*
X183961142Y-71352833D01*
X183900666Y-71231880D01*
X183900666Y-71110928D01*
X183961142Y-70989976D01*
X184021619Y-70929500D01*
X184142571Y-70869023D01*
X184444952Y-70869023D01*
X184626380Y-70929500D01*
X185049714Y-70869023D02*
X185352095Y-72139023D01*
X185594000Y-71231880D01*
X185835904Y-72139023D01*
X186138285Y-70869023D01*
X187226857Y-70869023D02*
X186622095Y-70869023D01*
X186561619Y-71473785D01*
X186622095Y-71413309D01*
X186743047Y-71352833D01*
X187045428Y-71352833D01*
X187166380Y-71413309D01*
X187226857Y-71473785D01*
X187287333Y-71594738D01*
X187287333Y-71897119D01*
X187226857Y-72018071D01*
X187166380Y-72078547D01*
X187045428Y-72139023D01*
X186743047Y-72139023D01*
X186622095Y-72078547D01*
X186561619Y-72018071D01*
%TO.C,R2*%
D10*
X158710333Y-113484380D02*
X158377000Y-113008190D01*
X158138904Y-113484380D02*
X158138904Y-112484380D01*
X158519857Y-112484380D01*
X158615095Y-112532000D01*
X158662714Y-112579619D01*
X158710333Y-112674857D01*
X158710333Y-112817714D01*
X158662714Y-112912952D01*
X158615095Y-112960571D01*
X158519857Y-113008190D01*
X158138904Y-113008190D01*
X159091285Y-112579619D02*
X159138904Y-112532000D01*
X159234142Y-112484380D01*
X159472238Y-112484380D01*
X159567476Y-112532000D01*
X159615095Y-112579619D01*
X159662714Y-112674857D01*
X159662714Y-112770095D01*
X159615095Y-112912952D01*
X159043666Y-113484380D01*
X159662714Y-113484380D01*
%TO.C,J4*%
X150952380Y-123459333D02*
X151666666Y-123459333D01*
X151809523Y-123506952D01*
X151904761Y-123602190D01*
X151952380Y-123745047D01*
X151952380Y-123840285D01*
X151285714Y-122554571D02*
X151952380Y-122554571D01*
X150904761Y-122792666D02*
X151619047Y-123030761D01*
X151619047Y-122411714D01*
%TO.C,JP1*%
X153801666Y-74204580D02*
X153801666Y-74918866D01*
X153754047Y-75061723D01*
X153658809Y-75156961D01*
X153515952Y-75204580D01*
X153420714Y-75204580D01*
X154277857Y-75204580D02*
X154277857Y-74204580D01*
X154658809Y-74204580D01*
X154754047Y-74252200D01*
X154801666Y-74299819D01*
X154849285Y-74395057D01*
X154849285Y-74537914D01*
X154801666Y-74633152D01*
X154754047Y-74680771D01*
X154658809Y-74728390D01*
X154277857Y-74728390D01*
X155801666Y-75204580D02*
X155230238Y-75204580D01*
X155515952Y-75204580D02*
X155515952Y-74204580D01*
X155420714Y-74347438D01*
X155325476Y-74442676D01*
X155230238Y-74490295D01*
%TO.C,JP3*%
X160151666Y-74204580D02*
X160151666Y-74918866D01*
X160104047Y-75061723D01*
X160008809Y-75156961D01*
X159865952Y-75204580D01*
X159770714Y-75204580D01*
X160627857Y-75204580D02*
X160627857Y-74204580D01*
X161008809Y-74204580D01*
X161104047Y-74252200D01*
X161151666Y-74299819D01*
X161199285Y-74395057D01*
X161199285Y-74537914D01*
X161151666Y-74633152D01*
X161104047Y-74680771D01*
X161008809Y-74728390D01*
X160627857Y-74728390D01*
X161532619Y-74204580D02*
X162151666Y-74204580D01*
X161818333Y-74585533D01*
X161961190Y-74585533D01*
X162056428Y-74633152D01*
X162104047Y-74680771D01*
X162151666Y-74776009D01*
X162151666Y-75014104D01*
X162104047Y-75109342D01*
X162056428Y-75156961D01*
X161961190Y-75204580D01*
X161675476Y-75204580D01*
X161580238Y-75156961D01*
X161532619Y-75109342D01*
%TO.C,JP10*%
X153325476Y-78649580D02*
X153325476Y-79363866D01*
X153277857Y-79506723D01*
X153182619Y-79601961D01*
X153039761Y-79649580D01*
X152944523Y-79649580D01*
X153801666Y-79649580D02*
X153801666Y-78649580D01*
X154182619Y-78649580D01*
X154277857Y-78697200D01*
X154325476Y-78744819D01*
X154373095Y-78840057D01*
X154373095Y-78982914D01*
X154325476Y-79078152D01*
X154277857Y-79125771D01*
X154182619Y-79173390D01*
X153801666Y-79173390D01*
X155325476Y-79649580D02*
X154754047Y-79649580D01*
X155039761Y-79649580D02*
X155039761Y-78649580D01*
X154944523Y-78792438D01*
X154849285Y-78887676D01*
X154754047Y-78935295D01*
X155944523Y-78649580D02*
X156039761Y-78649580D01*
X156135000Y-78697200D01*
X156182619Y-78744819D01*
X156230238Y-78840057D01*
X156277857Y-79030533D01*
X156277857Y-79268628D01*
X156230238Y-79459104D01*
X156182619Y-79554342D01*
X156135000Y-79601961D01*
X156039761Y-79649580D01*
X155944523Y-79649580D01*
X155849285Y-79601961D01*
X155801666Y-79554342D01*
X155754047Y-79459104D01*
X155706428Y-79268628D01*
X155706428Y-79030533D01*
X155754047Y-78840057D01*
X155801666Y-78744819D01*
X155849285Y-78697200D01*
X155944523Y-78649580D01*
%TO.C,JP2*%
X131322666Y-78649580D02*
X131322666Y-79363866D01*
X131275047Y-79506723D01*
X131179809Y-79601961D01*
X131036952Y-79649580D01*
X130941714Y-79649580D01*
X131798857Y-79649580D02*
X131798857Y-78649580D01*
X132179809Y-78649580D01*
X132275047Y-78697200D01*
X132322666Y-78744819D01*
X132370285Y-78840057D01*
X132370285Y-78982914D01*
X132322666Y-79078152D01*
X132275047Y-79125771D01*
X132179809Y-79173390D01*
X131798857Y-79173390D01*
X132751238Y-78744819D02*
X132798857Y-78697200D01*
X132894095Y-78649580D01*
X133132190Y-78649580D01*
X133227428Y-78697200D01*
X133275047Y-78744819D01*
X133322666Y-78840057D01*
X133322666Y-78935295D01*
X133275047Y-79078152D01*
X132703619Y-79649580D01*
X133322666Y-79649580D01*
%TO.C,JP9*%
X131307666Y-74204580D02*
X131307666Y-74918866D01*
X131260047Y-75061723D01*
X131164809Y-75156961D01*
X131021952Y-75204580D01*
X130926714Y-75204580D01*
X131783857Y-75204580D02*
X131783857Y-74204580D01*
X132164809Y-74204580D01*
X132260047Y-74252200D01*
X132307666Y-74299819D01*
X132355285Y-74395057D01*
X132355285Y-74537914D01*
X132307666Y-74633152D01*
X132260047Y-74680771D01*
X132164809Y-74728390D01*
X131783857Y-74728390D01*
X132831476Y-75204580D02*
X133021952Y-75204580D01*
X133117190Y-75156961D01*
X133164809Y-75109342D01*
X133260047Y-74966485D01*
X133307666Y-74776009D01*
X133307666Y-74395057D01*
X133260047Y-74299819D01*
X133212428Y-74252200D01*
X133117190Y-74204580D01*
X132926714Y-74204580D01*
X132831476Y-74252200D01*
X132783857Y-74299819D01*
X132736238Y-74395057D01*
X132736238Y-74633152D01*
X132783857Y-74728390D01*
X132831476Y-74776009D01*
X132926714Y-74823628D01*
X133117190Y-74823628D01*
X133212428Y-74776009D01*
X133260047Y-74728390D01*
X133307666Y-74633152D01*
%TO.C,D1*%
X158201904Y-110294380D02*
X158201904Y-109294380D01*
X158440000Y-109294380D01*
X158582857Y-109342000D01*
X158678095Y-109437238D01*
X158725714Y-109532476D01*
X158773333Y-109722952D01*
X158773333Y-109865809D01*
X158725714Y-110056285D01*
X158678095Y-110151523D01*
X158582857Y-110246761D01*
X158440000Y-110294380D01*
X158201904Y-110294380D01*
X159725714Y-110294380D02*
X159154285Y-110294380D01*
X159440000Y-110294380D02*
X159440000Y-109294380D01*
X159344761Y-109437238D01*
X159249523Y-109532476D01*
X159154285Y-109580095D01*
%TO.C,J3*%
X105199380Y-123459333D02*
X105913666Y-123459333D01*
X106056523Y-123506952D01*
X106151761Y-123602190D01*
X106199380Y-123745047D01*
X106199380Y-123840285D01*
X105199380Y-123078380D02*
X105199380Y-122459333D01*
X105580333Y-122792666D01*
X105580333Y-122649809D01*
X105627952Y-122554571D01*
X105675571Y-122506952D01*
X105770809Y-122459333D01*
X106008904Y-122459333D01*
X106104142Y-122506952D01*
X106151761Y-122554571D01*
X106199380Y-122649809D01*
X106199380Y-122935523D01*
X106151761Y-123030761D01*
X106104142Y-123078380D01*
%TO.C,J5*%
X175811380Y-123459333D02*
X176525666Y-123459333D01*
X176668523Y-123506952D01*
X176763761Y-123602190D01*
X176811380Y-123745047D01*
X176811380Y-123840285D01*
X175811380Y-122506952D02*
X175811380Y-122983142D01*
X176287571Y-123030761D01*
X176239952Y-122983142D01*
X176192333Y-122887904D01*
X176192333Y-122649809D01*
X176239952Y-122554571D01*
X176287571Y-122506952D01*
X176382809Y-122459333D01*
X176620904Y-122459333D01*
X176716142Y-122506952D01*
X176763761Y-122554571D01*
X176811380Y-122649809D01*
X176811380Y-122887904D01*
X176763761Y-122983142D01*
X176716142Y-123030761D01*
%TO.C,SW1*%
X96911976Y-87528561D02*
X97054833Y-87576180D01*
X97292928Y-87576180D01*
X97388166Y-87528561D01*
X97435785Y-87480942D01*
X97483404Y-87385704D01*
X97483404Y-87290466D01*
X97435785Y-87195228D01*
X97388166Y-87147609D01*
X97292928Y-87099990D01*
X97102452Y-87052371D01*
X97007214Y-87004752D01*
X96959595Y-86957133D01*
X96911976Y-86861895D01*
X96911976Y-86766657D01*
X96959595Y-86671419D01*
X97007214Y-86623800D01*
X97102452Y-86576180D01*
X97340547Y-86576180D01*
X97483404Y-86623800D01*
X97816738Y-86576180D02*
X98054833Y-87576180D01*
X98245309Y-86861895D01*
X98435785Y-87576180D01*
X98673880Y-86576180D01*
X99578642Y-87576180D02*
X99007214Y-87576180D01*
X99292928Y-87576180D02*
X99292928Y-86576180D01*
X99197690Y-86719038D01*
X99102452Y-86814276D01*
X99007214Y-86861895D01*
%TO.C,Y1*%
X115982809Y-109392190D02*
X115982809Y-109868380D01*
X115649476Y-108868380D02*
X115982809Y-109392190D01*
X116316142Y-108868380D01*
X117173285Y-109868380D02*
X116601857Y-109868380D01*
X116887571Y-109868380D02*
X116887571Y-108868380D01*
X116792333Y-109011238D01*
X116697095Y-109106476D01*
X116601857Y-109154095D01*
%TO.C,J2*%
X147744666Y-74654580D02*
X147744666Y-75368866D01*
X147697047Y-75511723D01*
X147601809Y-75606961D01*
X147458952Y-75654580D01*
X147363714Y-75654580D01*
X148173238Y-74749819D02*
X148220857Y-74702200D01*
X148316095Y-74654580D01*
X148554190Y-74654580D01*
X148649428Y-74702200D01*
X148697047Y-74749819D01*
X148744666Y-74845057D01*
X148744666Y-74940295D01*
X148697047Y-75083152D01*
X148125619Y-75654580D01*
X148744666Y-75654580D01*
%TO.C,C3*%
X133373333Y-117803142D02*
X133325714Y-117850761D01*
X133182857Y-117898380D01*
X133087619Y-117898380D01*
X132944761Y-117850761D01*
X132849523Y-117755523D01*
X132801904Y-117660285D01*
X132754285Y-117469809D01*
X132754285Y-117326952D01*
X132801904Y-117136476D01*
X132849523Y-117041238D01*
X132944761Y-116946000D01*
X133087619Y-116898380D01*
X133182857Y-116898380D01*
X133325714Y-116946000D01*
X133373333Y-116993619D01*
X133706666Y-116898380D02*
X134325714Y-116898380D01*
X133992380Y-117279333D01*
X134135238Y-117279333D01*
X134230476Y-117326952D01*
X134278095Y-117374571D01*
X134325714Y-117469809D01*
X134325714Y-117707904D01*
X134278095Y-117803142D01*
X134230476Y-117850761D01*
X134135238Y-117898380D01*
X133849523Y-117898380D01*
X133754285Y-117850761D01*
X133706666Y-117803142D01*
%TO.C,JP4*%
X125607666Y-74204580D02*
X125607666Y-74918866D01*
X125560047Y-75061723D01*
X125464809Y-75156961D01*
X125321952Y-75204580D01*
X125226714Y-75204580D01*
X126083857Y-75204580D02*
X126083857Y-74204580D01*
X126464809Y-74204580D01*
X126560047Y-74252200D01*
X126607666Y-74299819D01*
X126655285Y-74395057D01*
X126655285Y-74537914D01*
X126607666Y-74633152D01*
X126560047Y-74680771D01*
X126464809Y-74728390D01*
X126083857Y-74728390D01*
X127512428Y-74537914D02*
X127512428Y-75204580D01*
X127274333Y-74156961D02*
X127036238Y-74871247D01*
X127655285Y-74871247D01*
%TO.C,R1*%
X158710333Y-117992380D02*
X158377000Y-117516190D01*
X158138904Y-117992380D02*
X158138904Y-116992380D01*
X158519857Y-116992380D01*
X158615095Y-117040000D01*
X158662714Y-117087619D01*
X158710333Y-117182857D01*
X158710333Y-117325714D01*
X158662714Y-117420952D01*
X158615095Y-117468571D01*
X158519857Y-117516190D01*
X158138904Y-117516190D01*
X159662714Y-117992380D02*
X159091285Y-117992380D01*
X159377000Y-117992380D02*
X159377000Y-116992380D01*
X159281761Y-117135238D01*
X159186523Y-117230476D01*
X159091285Y-117278095D01*
%TO.C,JP5*%
X137037666Y-74204580D02*
X137037666Y-74918866D01*
X136990047Y-75061723D01*
X136894809Y-75156961D01*
X136751952Y-75204580D01*
X136656714Y-75204580D01*
X137513857Y-75204580D02*
X137513857Y-74204580D01*
X137894809Y-74204580D01*
X137990047Y-74252200D01*
X138037666Y-74299819D01*
X138085285Y-74395057D01*
X138085285Y-74537914D01*
X138037666Y-74633152D01*
X137990047Y-74680771D01*
X137894809Y-74728390D01*
X137513857Y-74728390D01*
X138990047Y-74204580D02*
X138513857Y-74204580D01*
X138466238Y-74680771D01*
X138513857Y-74633152D01*
X138609095Y-74585533D01*
X138847190Y-74585533D01*
X138942428Y-74633152D01*
X138990047Y-74680771D01*
X139037666Y-74776009D01*
X139037666Y-75014104D01*
X138990047Y-75109342D01*
X138942428Y-75156961D01*
X138847190Y-75204580D01*
X138609095Y-75204580D01*
X138513857Y-75156961D01*
X138466238Y-75109342D01*
%TO.C,JP6*%
X137037666Y-78649580D02*
X137037666Y-79363866D01*
X136990047Y-79506723D01*
X136894809Y-79601961D01*
X136751952Y-79649580D01*
X136656714Y-79649580D01*
X137513857Y-79649580D02*
X137513857Y-78649580D01*
X137894809Y-78649580D01*
X137990047Y-78697200D01*
X138037666Y-78744819D01*
X138085285Y-78840057D01*
X138085285Y-78982914D01*
X138037666Y-79078152D01*
X137990047Y-79125771D01*
X137894809Y-79173390D01*
X137513857Y-79173390D01*
X138942428Y-78649580D02*
X138751952Y-78649580D01*
X138656714Y-78697200D01*
X138609095Y-78744819D01*
X138513857Y-78887676D01*
X138466238Y-79078152D01*
X138466238Y-79459104D01*
X138513857Y-79554342D01*
X138561476Y-79601961D01*
X138656714Y-79649580D01*
X138847190Y-79649580D01*
X138942428Y-79601961D01*
X138990047Y-79554342D01*
X139037666Y-79459104D01*
X139037666Y-79221009D01*
X138990047Y-79125771D01*
X138942428Y-79078152D01*
X138847190Y-79030533D01*
X138656714Y-79030533D01*
X138561476Y-79078152D01*
X138513857Y-79125771D01*
X138466238Y-79221009D01*
%TO.C,JP7*%
X125607666Y-78649580D02*
X125607666Y-79363866D01*
X125560047Y-79506723D01*
X125464809Y-79601961D01*
X125321952Y-79649580D01*
X125226714Y-79649580D01*
X126083857Y-79649580D02*
X126083857Y-78649580D01*
X126464809Y-78649580D01*
X126560047Y-78697200D01*
X126607666Y-78744819D01*
X126655285Y-78840057D01*
X126655285Y-78982914D01*
X126607666Y-79078152D01*
X126560047Y-79125771D01*
X126464809Y-79173390D01*
X126083857Y-79173390D01*
X126988619Y-78649580D02*
X127655285Y-78649580D01*
X127226714Y-79649580D01*
%TO.C,U1*%
X145478095Y-104354380D02*
X145478095Y-105163904D01*
X145525714Y-105259142D01*
X145573333Y-105306761D01*
X145668571Y-105354380D01*
X145859047Y-105354380D01*
X145954285Y-105306761D01*
X146001904Y-105259142D01*
X146049523Y-105163904D01*
X146049523Y-104354380D01*
X147049523Y-105354380D02*
X146478095Y-105354380D01*
X146763809Y-105354380D02*
X146763809Y-104354380D01*
X146668571Y-104497238D01*
X146573333Y-104592476D01*
X146478095Y-104640095D01*
%TO.C,SW2*%
X125655976Y-87528561D02*
X125798833Y-87576180D01*
X126036928Y-87576180D01*
X126132166Y-87528561D01*
X126179785Y-87480942D01*
X126227404Y-87385704D01*
X126227404Y-87290466D01*
X126179785Y-87195228D01*
X126132166Y-87147609D01*
X126036928Y-87099990D01*
X125846452Y-87052371D01*
X125751214Y-87004752D01*
X125703595Y-86957133D01*
X125655976Y-86861895D01*
X125655976Y-86766657D01*
X125703595Y-86671419D01*
X125751214Y-86623800D01*
X125846452Y-86576180D01*
X126084547Y-86576180D01*
X126227404Y-86623800D01*
X126560738Y-86576180D02*
X126798833Y-87576180D01*
X126989309Y-86861895D01*
X127179785Y-87576180D01*
X127417880Y-86576180D01*
X127751214Y-86671419D02*
X127798833Y-86623800D01*
X127894071Y-86576180D01*
X128132166Y-86576180D01*
X128227404Y-86623800D01*
X128275023Y-86671419D01*
X128322642Y-86766657D01*
X128322642Y-86861895D01*
X128275023Y-87004752D01*
X127703595Y-87576180D01*
X128322642Y-87576180D01*
%TO.C,D2*%
X101575904Y-71254880D02*
X101575904Y-70254880D01*
X101814000Y-70254880D01*
X101956857Y-70302500D01*
X102052095Y-70397738D01*
X102099714Y-70492976D01*
X102147333Y-70683452D01*
X102147333Y-70826309D01*
X102099714Y-71016785D01*
X102052095Y-71112023D01*
X101956857Y-71207261D01*
X101814000Y-71254880D01*
X101575904Y-71254880D01*
X102528285Y-70350119D02*
X102575904Y-70302500D01*
X102671142Y-70254880D01*
X102909238Y-70254880D01*
X103004476Y-70302500D01*
X103052095Y-70350119D01*
X103099714Y-70445357D01*
X103099714Y-70540595D01*
X103052095Y-70683452D01*
X102480666Y-71254880D01*
X103099714Y-71254880D01*
%TO.C,R3*%
X102147333Y-74556880D02*
X101814000Y-74080690D01*
X101575904Y-74556880D02*
X101575904Y-73556880D01*
X101956857Y-73556880D01*
X102052095Y-73604500D01*
X102099714Y-73652119D01*
X102147333Y-73747357D01*
X102147333Y-73890214D01*
X102099714Y-73985452D01*
X102052095Y-74033071D01*
X101956857Y-74080690D01*
X101575904Y-74080690D01*
X102480666Y-73556880D02*
X103099714Y-73556880D01*
X102766380Y-73937833D01*
X102909238Y-73937833D01*
X103004476Y-73985452D01*
X103052095Y-74033071D01*
X103099714Y-74128309D01*
X103099714Y-74366404D01*
X103052095Y-74461642D01*
X103004476Y-74509261D01*
X102909238Y-74556880D01*
X102623523Y-74556880D01*
X102528285Y-74509261D01*
X102480666Y-74461642D01*
%TO.C,SW3*%
X154400976Y-87528561D02*
X154543833Y-87576180D01*
X154781928Y-87576180D01*
X154877166Y-87528561D01*
X154924785Y-87480942D01*
X154972404Y-87385704D01*
X154972404Y-87290466D01*
X154924785Y-87195228D01*
X154877166Y-87147609D01*
X154781928Y-87099990D01*
X154591452Y-87052371D01*
X154496214Y-87004752D01*
X154448595Y-86957133D01*
X154400976Y-86861895D01*
X154400976Y-86766657D01*
X154448595Y-86671419D01*
X154496214Y-86623800D01*
X154591452Y-86576180D01*
X154829547Y-86576180D01*
X154972404Y-86623800D01*
X155305738Y-86576180D02*
X155543833Y-87576180D01*
X155734309Y-86861895D01*
X155924785Y-87576180D01*
X156162880Y-86576180D01*
X156448595Y-86576180D02*
X157067642Y-86576180D01*
X156734309Y-86957133D01*
X156877166Y-86957133D01*
X156972404Y-87004752D01*
X157020023Y-87052371D01*
X157067642Y-87147609D01*
X157067642Y-87385704D01*
X157020023Y-87480942D01*
X156972404Y-87528561D01*
X156877166Y-87576180D01*
X156591452Y-87576180D01*
X156496214Y-87528561D01*
X156448595Y-87480942D01*
%TO.C,SW4*%
X183144976Y-87528561D02*
X183287833Y-87576180D01*
X183525928Y-87576180D01*
X183621166Y-87528561D01*
X183668785Y-87480942D01*
X183716404Y-87385704D01*
X183716404Y-87290466D01*
X183668785Y-87195228D01*
X183621166Y-87147609D01*
X183525928Y-87099990D01*
X183335452Y-87052371D01*
X183240214Y-87004752D01*
X183192595Y-86957133D01*
X183144976Y-86861895D01*
X183144976Y-86766657D01*
X183192595Y-86671419D01*
X183240214Y-86623800D01*
X183335452Y-86576180D01*
X183573547Y-86576180D01*
X183716404Y-86623800D01*
X184049738Y-86576180D02*
X184287833Y-87576180D01*
X184478309Y-86861895D01*
X184668785Y-87576180D01*
X184906880Y-86576180D01*
X185716404Y-86909514D02*
X185716404Y-87576180D01*
X185478309Y-86528561D02*
X185240214Y-87242847D01*
X185859261Y-87242847D01*
%TO.C,C4*%
X158752333Y-105865142D02*
X158704714Y-105912761D01*
X158561857Y-105960380D01*
X158466619Y-105960380D01*
X158323761Y-105912761D01*
X158228523Y-105817523D01*
X158180904Y-105722285D01*
X158133285Y-105531809D01*
X158133285Y-105388952D01*
X158180904Y-105198476D01*
X158228523Y-105103238D01*
X158323761Y-105008000D01*
X158466619Y-104960380D01*
X158561857Y-104960380D01*
X158704714Y-105008000D01*
X158752333Y-105055619D01*
X159609476Y-105293714D02*
X159609476Y-105960380D01*
X159371380Y-104912761D02*
X159133285Y-105627047D01*
X159752333Y-105627047D01*
%TD*%
%LPC*%
D17*
%TO.C,PAD4*%
X194131000Y-123634000D03*
%TD*%
%TO.C,PAD3*%
X98350000Y-123698000D03*
%TD*%
%TO.C,PAD2*%
X194131000Y-67881500D03*
%TD*%
%TO.C,PAD1*%
X98350000Y-67881500D03*
%TD*%
%TO.C,C1*%
G36*
G01*
X131789000Y-107663000D02*
X131789000Y-106713000D01*
G75*
G02*
X132039000Y-106463000I250000J0D01*
G01*
X132714000Y-106463000D01*
G75*
G02*
X132964000Y-106713000I0J-250000D01*
G01*
X132964000Y-107663000D01*
G75*
G02*
X132714000Y-107913000I-250000J0D01*
G01*
X132039000Y-107913000D01*
G75*
G02*
X131789000Y-107663000I0J250000D01*
G01*
G37*
G36*
G01*
X133864000Y-107663000D02*
X133864000Y-106713000D01*
G75*
G02*
X134114000Y-106463000I250000J0D01*
G01*
X134789000Y-106463000D01*
G75*
G02*
X135039000Y-106713000I0J-250000D01*
G01*
X135039000Y-107663000D01*
G75*
G02*
X134789000Y-107913000I-250000J0D01*
G01*
X134114000Y-107913000D01*
G75*
G02*
X133864000Y-107663000I0J250000D01*
G01*
G37*
%TD*%
D18*
%TO.C,JP8*%
X161635000Y-77292200D03*
X160335000Y-77292200D03*
%TD*%
D19*
%TO.C,J1*%
X179896000Y-111760000D03*
X179896000Y-114300000D03*
D20*
X174816000Y-114300000D03*
D19*
X174816000Y-111760000D03*
X177356000Y-114300000D03*
X177356000Y-111760000D03*
%TD*%
%TO.C,C2*%
G36*
G01*
X133864000Y-113379000D02*
X133864000Y-112429000D01*
G75*
G02*
X134114000Y-112179000I250000J0D01*
G01*
X134789000Y-112179000D01*
G75*
G02*
X135039000Y-112429000I0J-250000D01*
G01*
X135039000Y-113379000D01*
G75*
G02*
X134789000Y-113629000I-250000J0D01*
G01*
X134114000Y-113629000D01*
G75*
G02*
X133864000Y-113379000I0J250000D01*
G01*
G37*
G36*
G01*
X131789000Y-113379000D02*
X131789000Y-112429000D01*
G75*
G02*
X132039000Y-112179000I250000J0D01*
G01*
X132714000Y-112179000D01*
G75*
G02*
X132964000Y-112429000I0J-250000D01*
G01*
X132964000Y-113379000D01*
G75*
G02*
X132714000Y-113629000I-250000J0D01*
G01*
X132039000Y-113629000D01*
G75*
G02*
X131789000Y-113379000I0J250000D01*
G01*
G37*
%TD*%
D21*
%TO.C,SW5*%
X183494000Y-71564500D03*
X187694000Y-71564500D03*
%TD*%
%TO.C,R2*%
G36*
G01*
X157277000Y-115132001D02*
X157277000Y-114231999D01*
G75*
G02*
X157526999Y-113982000I249999J0D01*
G01*
X158227001Y-113982000D01*
G75*
G02*
X158477000Y-114231999I0J-249999D01*
G01*
X158477000Y-115132001D01*
G75*
G02*
X158227001Y-115382000I-249999J0D01*
G01*
X157526999Y-115382000D01*
G75*
G02*
X157277000Y-115132001I0J249999D01*
G01*
G37*
G36*
G01*
X159277000Y-115132001D02*
X159277000Y-114231999D01*
G75*
G02*
X159526999Y-113982000I249999J0D01*
G01*
X160227001Y-113982000D01*
G75*
G02*
X160477000Y-114231999I0J-249999D01*
G01*
X160477000Y-115132001D01*
G75*
G02*
X160227001Y-115382000I-249999J0D01*
G01*
X159526999Y-115382000D01*
G75*
G02*
X159277000Y-115132001I0J249999D01*
G01*
G37*
%TD*%
D22*
%TO.C,J4*%
X161450000Y-123126000D03*
X158910000Y-123126000D03*
X156370000Y-123126000D03*
D20*
X153830000Y-123126000D03*
%TD*%
D18*
%TO.C,JP1*%
X155285000Y-72847200D03*
X153985000Y-72847200D03*
%TD*%
%TO.C,JP3*%
X160335000Y-72847200D03*
X161635000Y-72847200D03*
%TD*%
%TO.C,JP10*%
X155285000Y-77292200D03*
X153985000Y-77292200D03*
%TD*%
%TO.C,JP2*%
X132806000Y-77292200D03*
X131506000Y-77292200D03*
%TD*%
%TO.C,JP9*%
X131491000Y-72847200D03*
X132791000Y-72847200D03*
%TD*%
%TO.C,D1*%
G36*
G01*
X157315000Y-111842001D02*
X157315000Y-111041999D01*
G75*
G02*
X157564999Y-110792000I249999J0D01*
G01*
X158390001Y-110792000D01*
G75*
G02*
X158640000Y-111041999I0J-249999D01*
G01*
X158640000Y-111842001D01*
G75*
G02*
X158390001Y-112092000I-249999J0D01*
G01*
X157564999Y-112092000D01*
G75*
G02*
X157315000Y-111842001I0J249999D01*
G01*
G37*
G36*
G01*
X159240000Y-111842001D02*
X159240000Y-111041999D01*
G75*
G02*
X159489999Y-110792000I249999J0D01*
G01*
X160315001Y-110792000D01*
G75*
G02*
X160565000Y-111041999I0J-249999D01*
G01*
X160565000Y-111842001D01*
G75*
G02*
X160315001Y-112092000I-249999J0D01*
G01*
X159489999Y-112092000D01*
G75*
G02*
X159240000Y-111842001I0J249999D01*
G01*
G37*
%TD*%
D22*
%TO.C,J3*%
X138557000Y-123126000D03*
X136017000Y-123126000D03*
X133477000Y-123126000D03*
X130937000Y-123126000D03*
X128397000Y-123126000D03*
X125857000Y-123126000D03*
X123317000Y-123126000D03*
X120777000Y-123126000D03*
X118237000Y-123126000D03*
X115697000Y-123126000D03*
X113157000Y-123126000D03*
X110617000Y-123126000D03*
D20*
X108077000Y-123126000D03*
%TD*%
D22*
%TO.C,J5*%
X186309000Y-123126000D03*
X183769000Y-123126000D03*
X181229000Y-123126000D03*
D20*
X178689000Y-123126000D03*
%TD*%
D23*
%TO.C,SW1*%
X100624000Y-88773800D03*
D24*
X105624000Y-88773800D03*
X100624000Y-103273800D03*
X103124000Y-103273800D03*
X105624000Y-103273800D03*
G36*
G01*
X96324000Y-97073800D02*
X96324000Y-94473800D01*
G75*
G02*
X97524000Y-93273800I1200000J0D01*
G01*
X97524000Y-93273800D01*
G75*
G02*
X98724000Y-94473800I0J-1200000D01*
G01*
X98724000Y-97073800D01*
G75*
G02*
X97524000Y-98273800I-1200000J0D01*
G01*
X97524000Y-98273800D01*
G75*
G02*
X96324000Y-97073800I0J1200000D01*
G01*
G37*
G36*
G01*
X107524000Y-97073800D02*
X107524000Y-94473800D01*
G75*
G02*
X108724000Y-93273800I1200000J0D01*
G01*
X108724000Y-93273800D01*
G75*
G02*
X109924000Y-94473800I0J-1200000D01*
G01*
X109924000Y-97073800D01*
G75*
G02*
X108724000Y-98273800I-1200000J0D01*
G01*
X108724000Y-98273800D01*
G75*
G02*
X107524000Y-97073800I0J1200000D01*
G01*
G37*
%TD*%
D25*
%TO.C,Y1*%
X122396500Y-112966000D03*
X110521500Y-112966000D03*
%TD*%
D26*
%TO.C,J2*%
X149503000Y-72862200D03*
X148703000Y-72862200D03*
D27*
X146503000Y-72862200D03*
X147003000Y-72862200D03*
X147503000Y-72862200D03*
X148003000Y-72862200D03*
X146003000Y-72862200D03*
X145503000Y-72862200D03*
X145003000Y-72862200D03*
X144503000Y-72862200D03*
D26*
X143803000Y-72862200D03*
X143003000Y-72862200D03*
D28*
X150573000Y-71947200D03*
X141933000Y-71947200D03*
X150573000Y-67767200D03*
X141933000Y-67767200D03*
D29*
X149143000Y-71417200D03*
X143363000Y-71417200D03*
%TD*%
%TO.C,C3*%
G36*
G01*
X131915000Y-119601000D02*
X131915000Y-118651000D01*
G75*
G02*
X132165000Y-118401000I250000J0D01*
G01*
X132840000Y-118401000D01*
G75*
G02*
X133090000Y-118651000I0J-250000D01*
G01*
X133090000Y-119601000D01*
G75*
G02*
X132840000Y-119851000I-250000J0D01*
G01*
X132165000Y-119851000D01*
G75*
G02*
X131915000Y-119601000I0J250000D01*
G01*
G37*
G36*
G01*
X133990000Y-119601000D02*
X133990000Y-118651000D01*
G75*
G02*
X134240000Y-118401000I250000J0D01*
G01*
X134915000Y-118401000D01*
G75*
G02*
X135165000Y-118651000I0J-250000D01*
G01*
X135165000Y-119601000D01*
G75*
G02*
X134915000Y-119851000I-250000J0D01*
G01*
X134240000Y-119851000D01*
G75*
G02*
X133990000Y-119601000I0J250000D01*
G01*
G37*
%TD*%
D18*
%TO.C,JP4*%
X125791000Y-72847200D03*
X127091000Y-72847200D03*
%TD*%
%TO.C,R1*%
G36*
G01*
X157277000Y-119640001D02*
X157277000Y-118739999D01*
G75*
G02*
X157526999Y-118490000I249999J0D01*
G01*
X158227001Y-118490000D01*
G75*
G02*
X158477000Y-118739999I0J-249999D01*
G01*
X158477000Y-119640001D01*
G75*
G02*
X158227001Y-119890000I-249999J0D01*
G01*
X157526999Y-119890000D01*
G75*
G02*
X157277000Y-119640001I0J249999D01*
G01*
G37*
G36*
G01*
X159277000Y-119640001D02*
X159277000Y-118739999D01*
G75*
G02*
X159526999Y-118490000I249999J0D01*
G01*
X160227001Y-118490000D01*
G75*
G02*
X160477000Y-118739999I0J-249999D01*
G01*
X160477000Y-119640001D01*
G75*
G02*
X160227001Y-119890000I-249999J0D01*
G01*
X159526999Y-119890000D01*
G75*
G02*
X159277000Y-119640001I0J249999D01*
G01*
G37*
%TD*%
%TO.C,JP5*%
X137221000Y-72847200D03*
X138521000Y-72847200D03*
%TD*%
%TO.C,JP6*%
X137221000Y-77292200D03*
X138521000Y-77292200D03*
%TD*%
%TO.C,JP7*%
X127091000Y-77292200D03*
X125791000Y-77292200D03*
%TD*%
D14*
%TO.C,U1*%
G36*
X140883666Y-114815445D02*
G01*
X140494757Y-114426536D01*
X141626128Y-113295165D01*
X142015037Y-113684074D01*
X140883666Y-114815445D01*
G37*
G36*
X141449352Y-115381130D02*
G01*
X141060443Y-114992221D01*
X142191814Y-113860850D01*
X142580723Y-114249759D01*
X141449352Y-115381130D01*
G37*
G36*
X142015037Y-115946816D02*
G01*
X141626128Y-115557907D01*
X142757499Y-114426536D01*
X143146408Y-114815445D01*
X142015037Y-115946816D01*
G37*
G36*
X142580722Y-116512501D02*
G01*
X142191813Y-116123592D01*
X143323184Y-114992221D01*
X143712093Y-115381130D01*
X142580722Y-116512501D01*
G37*
G36*
X143146408Y-117078187D02*
G01*
X142757499Y-116689278D01*
X143888870Y-115557907D01*
X144277779Y-115946816D01*
X143146408Y-117078187D01*
G37*
G36*
X143712093Y-117643872D02*
G01*
X143323184Y-117254963D01*
X144454555Y-116123592D01*
X144843464Y-116512501D01*
X143712093Y-117643872D01*
G37*
G36*
X144277779Y-118209557D02*
G01*
X143888870Y-117820648D01*
X145020241Y-116689277D01*
X145409150Y-117078186D01*
X144277779Y-118209557D01*
G37*
G36*
X144843464Y-118775243D02*
G01*
X144454555Y-118386334D01*
X145585926Y-117254963D01*
X145974835Y-117643872D01*
X144843464Y-118775243D01*
G37*
G36*
X148025445Y-118386334D02*
G01*
X147636536Y-118775243D01*
X146505165Y-117643872D01*
X146894074Y-117254963D01*
X148025445Y-118386334D01*
G37*
G36*
X148591130Y-117820648D02*
G01*
X148202221Y-118209557D01*
X147070850Y-117078186D01*
X147459759Y-116689277D01*
X148591130Y-117820648D01*
G37*
G36*
X149156816Y-117254963D02*
G01*
X148767907Y-117643872D01*
X147636536Y-116512501D01*
X148025445Y-116123592D01*
X149156816Y-117254963D01*
G37*
G36*
X149722501Y-116689278D02*
G01*
X149333592Y-117078187D01*
X148202221Y-115946816D01*
X148591130Y-115557907D01*
X149722501Y-116689278D01*
G37*
G36*
X150288187Y-116123592D02*
G01*
X149899278Y-116512501D01*
X148767907Y-115381130D01*
X149156816Y-114992221D01*
X150288187Y-116123592D01*
G37*
G36*
X150853872Y-115557907D02*
G01*
X150464963Y-115946816D01*
X149333592Y-114815445D01*
X149722501Y-114426536D01*
X150853872Y-115557907D01*
G37*
G36*
X151419557Y-114992221D02*
G01*
X151030648Y-115381130D01*
X149899277Y-114249759D01*
X150288186Y-113860850D01*
X151419557Y-114992221D01*
G37*
G36*
X151985243Y-114426536D02*
G01*
X151596334Y-114815445D01*
X150464963Y-113684074D01*
X150853872Y-113295165D01*
X151985243Y-114426536D01*
G37*
G36*
X150853872Y-112764835D02*
G01*
X150464963Y-112375926D01*
X151596334Y-111244555D01*
X151985243Y-111633464D01*
X150853872Y-112764835D01*
G37*
G36*
X150288186Y-112199150D02*
G01*
X149899277Y-111810241D01*
X151030648Y-110678870D01*
X151419557Y-111067779D01*
X150288186Y-112199150D01*
G37*
G36*
X149722501Y-111633464D02*
G01*
X149333592Y-111244555D01*
X150464963Y-110113184D01*
X150853872Y-110502093D01*
X149722501Y-111633464D01*
G37*
G36*
X149156816Y-111067779D02*
G01*
X148767907Y-110678870D01*
X149899278Y-109547499D01*
X150288187Y-109936408D01*
X149156816Y-111067779D01*
G37*
G36*
X148591130Y-110502093D02*
G01*
X148202221Y-110113184D01*
X149333592Y-108981813D01*
X149722501Y-109370722D01*
X148591130Y-110502093D01*
G37*
G36*
X148025445Y-109936408D02*
G01*
X147636536Y-109547499D01*
X148767907Y-108416128D01*
X149156816Y-108805037D01*
X148025445Y-109936408D01*
G37*
G36*
X147459759Y-109370723D02*
G01*
X147070850Y-108981814D01*
X148202221Y-107850443D01*
X148591130Y-108239352D01*
X147459759Y-109370723D01*
G37*
G36*
X146894074Y-108805037D02*
G01*
X146505165Y-108416128D01*
X147636536Y-107284757D01*
X148025445Y-107673666D01*
X146894074Y-108805037D01*
G37*
G36*
X145974835Y-108416128D02*
G01*
X145585926Y-108805037D01*
X144454555Y-107673666D01*
X144843464Y-107284757D01*
X145974835Y-108416128D01*
G37*
G36*
X145409150Y-108981814D02*
G01*
X145020241Y-109370723D01*
X143888870Y-108239352D01*
X144277779Y-107850443D01*
X145409150Y-108981814D01*
G37*
G36*
X144843464Y-109547499D02*
G01*
X144454555Y-109936408D01*
X143323184Y-108805037D01*
X143712093Y-108416128D01*
X144843464Y-109547499D01*
G37*
G36*
X144277779Y-110113184D02*
G01*
X143888870Y-110502093D01*
X142757499Y-109370722D01*
X143146408Y-108981813D01*
X144277779Y-110113184D01*
G37*
G36*
X143712093Y-110678870D02*
G01*
X143323184Y-111067779D01*
X142191813Y-109936408D01*
X142580722Y-109547499D01*
X143712093Y-110678870D01*
G37*
G36*
X143146408Y-111244555D02*
G01*
X142757499Y-111633464D01*
X141626128Y-110502093D01*
X142015037Y-110113184D01*
X143146408Y-111244555D01*
G37*
G36*
X142580723Y-111810241D02*
G01*
X142191814Y-112199150D01*
X141060443Y-111067779D01*
X141449352Y-110678870D01*
X142580723Y-111810241D01*
G37*
G36*
X142015037Y-112375926D02*
G01*
X141626128Y-112764835D01*
X140494757Y-111633464D01*
X140883666Y-111244555D01*
X142015037Y-112375926D01*
G37*
%TD*%
%TO.C,SW2*%
G36*
G01*
X136268000Y-97073800D02*
X136268000Y-94473800D01*
G75*
G02*
X137468000Y-93273800I1200000J0D01*
G01*
X137468000Y-93273800D01*
G75*
G02*
X138668000Y-94473800I0J-1200000D01*
G01*
X138668000Y-97073800D01*
G75*
G02*
X137468000Y-98273800I-1200000J0D01*
G01*
X137468000Y-98273800D01*
G75*
G02*
X136268000Y-97073800I0J1200000D01*
G01*
G37*
G36*
G01*
X125068000Y-97073800D02*
X125068000Y-94473800D01*
G75*
G02*
X126268000Y-93273800I1200000J0D01*
G01*
X126268000Y-93273800D01*
G75*
G02*
X127468000Y-94473800I0J-1200000D01*
G01*
X127468000Y-97073800D01*
G75*
G02*
X126268000Y-98273800I-1200000J0D01*
G01*
X126268000Y-98273800D01*
G75*
G02*
X125068000Y-97073800I0J1200000D01*
G01*
G37*
D24*
X134368000Y-103273800D03*
X131868000Y-103273800D03*
X129368000Y-103273800D03*
X134368000Y-88773800D03*
D23*
X129368000Y-88773800D03*
%TD*%
%TO.C,D2*%
G36*
G01*
X103939000Y-72053499D02*
X103939000Y-72853501D01*
G75*
G02*
X103689001Y-73103500I-249999J0D01*
G01*
X102863999Y-73103500D01*
G75*
G02*
X102614000Y-72853501I0J249999D01*
G01*
X102614000Y-72053499D01*
G75*
G02*
X102863999Y-71803500I249999J0D01*
G01*
X103689001Y-71803500D01*
G75*
G02*
X103939000Y-72053499I0J-249999D01*
G01*
G37*
G36*
G01*
X102014000Y-72053499D02*
X102014000Y-72853501D01*
G75*
G02*
X101764001Y-73103500I-249999J0D01*
G01*
X100938999Y-73103500D01*
G75*
G02*
X100689000Y-72853501I0J249999D01*
G01*
X100689000Y-72053499D01*
G75*
G02*
X100938999Y-71803500I249999J0D01*
G01*
X101764001Y-71803500D01*
G75*
G02*
X102014000Y-72053499I0J-249999D01*
G01*
G37*
%TD*%
%TO.C,R3*%
G36*
G01*
X103914000Y-75305499D02*
X103914000Y-76205501D01*
G75*
G02*
X103664001Y-76455500I-249999J0D01*
G01*
X102963999Y-76455500D01*
G75*
G02*
X102714000Y-76205501I0J249999D01*
G01*
X102714000Y-75305499D01*
G75*
G02*
X102963999Y-75055500I249999J0D01*
G01*
X103664001Y-75055500D01*
G75*
G02*
X103914000Y-75305499I0J-249999D01*
G01*
G37*
G36*
G01*
X101914000Y-75305499D02*
X101914000Y-76205501D01*
G75*
G02*
X101664001Y-76455500I-249999J0D01*
G01*
X100963999Y-76455500D01*
G75*
G02*
X100714000Y-76205501I0J249999D01*
G01*
X100714000Y-75305499D01*
G75*
G02*
X100963999Y-75055500I249999J0D01*
G01*
X101664001Y-75055500D01*
G75*
G02*
X101914000Y-75305499I0J-249999D01*
G01*
G37*
%TD*%
%TO.C,SW3*%
X158113000Y-88773800D03*
D24*
X163113000Y-88773800D03*
X158113000Y-103273800D03*
X160613000Y-103273800D03*
X163113000Y-103273800D03*
G36*
G01*
X153813000Y-97073800D02*
X153813000Y-94473800D01*
G75*
G02*
X155013000Y-93273800I1200000J0D01*
G01*
X155013000Y-93273800D01*
G75*
G02*
X156213000Y-94473800I0J-1200000D01*
G01*
X156213000Y-97073800D01*
G75*
G02*
X155013000Y-98273800I-1200000J0D01*
G01*
X155013000Y-98273800D01*
G75*
G02*
X153813000Y-97073800I0J1200000D01*
G01*
G37*
G36*
G01*
X165013000Y-97073800D02*
X165013000Y-94473800D01*
G75*
G02*
X166213000Y-93273800I1200000J0D01*
G01*
X166213000Y-93273800D01*
G75*
G02*
X167413000Y-94473800I0J-1200000D01*
G01*
X167413000Y-97073800D01*
G75*
G02*
X166213000Y-98273800I-1200000J0D01*
G01*
X166213000Y-98273800D01*
G75*
G02*
X165013000Y-97073800I0J1200000D01*
G01*
G37*
%TD*%
%TO.C,SW4*%
G36*
G01*
X193757000Y-97073800D02*
X193757000Y-94473800D01*
G75*
G02*
X194957000Y-93273800I1200000J0D01*
G01*
X194957000Y-93273800D01*
G75*
G02*
X196157000Y-94473800I0J-1200000D01*
G01*
X196157000Y-97073800D01*
G75*
G02*
X194957000Y-98273800I-1200000J0D01*
G01*
X194957000Y-98273800D01*
G75*
G02*
X193757000Y-97073800I0J1200000D01*
G01*
G37*
G36*
G01*
X182557000Y-97073800D02*
X182557000Y-94473800D01*
G75*
G02*
X183757000Y-93273800I1200000J0D01*
G01*
X183757000Y-93273800D01*
G75*
G02*
X184957000Y-94473800I0J-1200000D01*
G01*
X184957000Y-97073800D01*
G75*
G02*
X183757000Y-98273800I-1200000J0D01*
G01*
X183757000Y-98273800D01*
G75*
G02*
X182557000Y-97073800I0J1200000D01*
G01*
G37*
X191857000Y-103273800D03*
X189357000Y-103273800D03*
X186857000Y-103273800D03*
X191857000Y-88773800D03*
D23*
X186857000Y-88773800D03*
%TD*%
%TO.C,C4*%
G36*
G01*
X157294000Y-107663000D02*
X157294000Y-106713000D01*
G75*
G02*
X157544000Y-106463000I250000J0D01*
G01*
X158219000Y-106463000D01*
G75*
G02*
X158469000Y-106713000I0J-250000D01*
G01*
X158469000Y-107663000D01*
G75*
G02*
X158219000Y-107913000I-250000J0D01*
G01*
X157544000Y-107913000D01*
G75*
G02*
X157294000Y-107663000I0J250000D01*
G01*
G37*
G36*
G01*
X159369000Y-107663000D02*
X159369000Y-106713000D01*
G75*
G02*
X159619000Y-106463000I250000J0D01*
G01*
X160294000Y-106463000D01*
G75*
G02*
X160544000Y-106713000I0J-250000D01*
G01*
X160544000Y-107663000D01*
G75*
G02*
X160294000Y-107913000I-250000J0D01*
G01*
X159619000Y-107913000D01*
G75*
G02*
X159369000Y-107663000I0J250000D01*
G01*
G37*
%TD*%
M02*
