%TF.GenerationSoftware,KiCad,Pcbnew,(5.1.10)-1*%
%TF.CreationDate,2021-08-23T16:24:53+02:00*%
%TF.ProjectId,Console,436f6e73-6f6c-4652-9e6b-696361645f70,v01*%
%TF.SameCoordinates,Original*%
%TF.FileFunction,Copper,L1,Top*%
%TF.FilePolarity,Positive*%
%FSLAX46Y46*%
G04 Gerber Fmt 4.6, Leading zero omitted, Abs format (unit mm)*
G04 Created by KiCad (PCBNEW (5.1.10)-1) date 2021-08-23 16:24:53*
%MOMM*%
%LPD*%
G01*
G04 APERTURE LIST*
%TA.AperFunction,EtchedComponent*%
%ADD10C,0.100000*%
%TD*%
%TA.AperFunction,ComponentPad*%
%ADD11C,5.400000*%
%TD*%
%TA.AperFunction,SMDPad,CuDef*%
%ADD12R,1.000000X1.500000*%
%TD*%
%TA.AperFunction,ComponentPad*%
%ADD13C,1.700000*%
%TD*%
%TA.AperFunction,ComponentPad*%
%ADD14R,1.700000X1.700000*%
%TD*%
%TA.AperFunction,SMDPad,CuDef*%
%ADD15R,0.800000X2.000000*%
%TD*%
%TA.AperFunction,ComponentPad*%
%ADD16O,1.700000X1.700000*%
%TD*%
%TA.AperFunction,ComponentPad*%
%ADD17R,1.550000X1.550000*%
%TD*%
%TA.AperFunction,ComponentPad*%
%ADD18C,1.550000*%
%TD*%
%TA.AperFunction,SMDPad,CuDef*%
%ADD19R,7.875000X2.000000*%
%TD*%
%TA.AperFunction,SMDPad,CuDef*%
%ADD20R,0.600000X1.450000*%
%TD*%
%TA.AperFunction,SMDPad,CuDef*%
%ADD21R,0.300000X1.450000*%
%TD*%
%TA.AperFunction,ComponentPad*%
%ADD22O,1.050000X2.100000*%
%TD*%
%TA.AperFunction,SMDPad,CuDef*%
%ADD23C,0.100000*%
%TD*%
%TA.AperFunction,ViaPad*%
%ADD24C,0.800000*%
%TD*%
%TA.AperFunction,Conductor*%
%ADD25C,0.250000*%
%TD*%
%TA.AperFunction,Conductor*%
%ADD26C,0.254000*%
%TD*%
%TA.AperFunction,Conductor*%
%ADD27C,0.100000*%
%TD*%
G04 APERTURE END LIST*
D10*
%TO.C,JP2*%
G36*
X131906000Y-77492200D02*
G01*
X132406000Y-77492200D01*
X132406000Y-77892200D01*
X131906000Y-77892200D01*
X131906000Y-77492200D01*
G37*
G36*
X131906000Y-76692200D02*
G01*
X132406000Y-76692200D01*
X132406000Y-77092200D01*
X131906000Y-77092200D01*
X131906000Y-76692200D01*
G37*
%TO.C,JP9*%
G36*
X132391000Y-72647200D02*
G01*
X131891000Y-72647200D01*
X131891000Y-72247200D01*
X132391000Y-72247200D01*
X132391000Y-72647200D01*
G37*
G36*
X132391000Y-73447200D02*
G01*
X131891000Y-73447200D01*
X131891000Y-73047200D01*
X132391000Y-73047200D01*
X132391000Y-73447200D01*
G37*
%TO.C,JP4*%
G36*
X126191000Y-72247200D02*
G01*
X126691000Y-72247200D01*
X126691000Y-72647200D01*
X126191000Y-72647200D01*
X126191000Y-72247200D01*
G37*
G36*
X126191000Y-73047200D02*
G01*
X126691000Y-73047200D01*
X126691000Y-73447200D01*
X126191000Y-73447200D01*
X126191000Y-73047200D01*
G37*
%TO.C,JP5*%
G36*
X138121000Y-72647200D02*
G01*
X137621000Y-72647200D01*
X137621000Y-72247200D01*
X138121000Y-72247200D01*
X138121000Y-72647200D01*
G37*
G36*
X138121000Y-73447200D02*
G01*
X137621000Y-73447200D01*
X137621000Y-73047200D01*
X138121000Y-73047200D01*
X138121000Y-73447200D01*
G37*
%TO.C,JP6*%
G36*
X137621000Y-76692200D02*
G01*
X138121000Y-76692200D01*
X138121000Y-77092200D01*
X137621000Y-77092200D01*
X137621000Y-76692200D01*
G37*
G36*
X137621000Y-77492200D02*
G01*
X138121000Y-77492200D01*
X138121000Y-77892200D01*
X137621000Y-77892200D01*
X137621000Y-77492200D01*
G37*
%TO.C,JP7*%
G36*
X126691000Y-77892200D02*
G01*
X126191000Y-77892200D01*
X126191000Y-77492200D01*
X126691000Y-77492200D01*
X126691000Y-77892200D01*
G37*
G36*
X126691000Y-77092200D02*
G01*
X126191000Y-77092200D01*
X126191000Y-76692200D01*
X126691000Y-76692200D01*
X126691000Y-77092200D01*
G37*
%TD*%
D11*
%TO.P,PAD4,1*%
%TO.N,N/C*%
X213131000Y-123634000D03*
%TD*%
%TO.P,PAD3,1*%
%TO.N,N/C*%
X79350000Y-123698000D03*
%TD*%
%TO.P,PAD2,1*%
%TO.N,N/C*%
X213131000Y-67881500D03*
%TD*%
%TO.P,PAD1,1*%
%TO.N,N/C*%
X79350000Y-67881500D03*
%TD*%
%TO.P,C1,1*%
%TO.N,XTAL1*%
%TA.AperFunction,SMDPad,CuDef*%
G36*
G01*
X131789000Y-107663000D02*
X131789000Y-106713000D01*
G75*
G02*
X132039000Y-106463000I250000J0D01*
G01*
X132714000Y-106463000D01*
G75*
G02*
X132964000Y-106713000I0J-250000D01*
G01*
X132964000Y-107663000D01*
G75*
G02*
X132714000Y-107913000I-250000J0D01*
G01*
X132039000Y-107913000D01*
G75*
G02*
X131789000Y-107663000I0J250000D01*
G01*
G37*
%TD.AperFunction*%
%TO.P,C1,2*%
%TO.N,GND*%
%TA.AperFunction,SMDPad,CuDef*%
G36*
G01*
X133864000Y-107663000D02*
X133864000Y-106713000D01*
G75*
G02*
X134114000Y-106463000I250000J0D01*
G01*
X134789000Y-106463000D01*
G75*
G02*
X135039000Y-106713000I0J-250000D01*
G01*
X135039000Y-107663000D01*
G75*
G02*
X134789000Y-107913000I-250000J0D01*
G01*
X134114000Y-107913000D01*
G75*
G02*
X133864000Y-107663000I0J250000D01*
G01*
G37*
%TD.AperFunction*%
%TD*%
D12*
%TO.P,JP8,2*%
%TO.N,SCL*%
X161635000Y-77292200D03*
%TO.P,JP8,1*%
%TO.N,Net-(J2-PadB7)*%
X160335000Y-77292200D03*
%TD*%
D13*
%TO.P,J1,6*%
%TO.N,GND*%
X189896000Y-111760000D03*
%TO.P,J1,5*%
%TO.N,RST*%
X189896000Y-114300000D03*
D14*
%TO.P,J1,1*%
%TO.N,MISO*%
X184816000Y-114300000D03*
D13*
%TO.P,J1,2*%
%TO.N,VCC*%
X184816000Y-111760000D03*
%TO.P,J1,3*%
%TO.N,SCK*%
X187356000Y-114300000D03*
%TO.P,J1,4*%
%TO.N,MOSI*%
X187356000Y-111760000D03*
%TD*%
%TO.P,C2,2*%
%TO.N,GND*%
%TA.AperFunction,SMDPad,CuDef*%
G36*
G01*
X133864000Y-113379000D02*
X133864000Y-112429000D01*
G75*
G02*
X134114000Y-112179000I250000J0D01*
G01*
X134789000Y-112179000D01*
G75*
G02*
X135039000Y-112429000I0J-250000D01*
G01*
X135039000Y-113379000D01*
G75*
G02*
X134789000Y-113629000I-250000J0D01*
G01*
X134114000Y-113629000D01*
G75*
G02*
X133864000Y-113379000I0J250000D01*
G01*
G37*
%TD.AperFunction*%
%TO.P,C2,1*%
%TO.N,XTAL2*%
%TA.AperFunction,SMDPad,CuDef*%
G36*
G01*
X131789000Y-113379000D02*
X131789000Y-112429000D01*
G75*
G02*
X132039000Y-112179000I250000J0D01*
G01*
X132714000Y-112179000D01*
G75*
G02*
X132964000Y-112429000I0J-250000D01*
G01*
X132964000Y-113379000D01*
G75*
G02*
X132714000Y-113629000I-250000J0D01*
G01*
X132039000Y-113629000D01*
G75*
G02*
X131789000Y-113379000I0J250000D01*
G01*
G37*
%TD.AperFunction*%
%TD*%
D15*
%TO.P,SW5,1*%
%TO.N,RST*%
X202494000Y-71564500D03*
%TO.P,SW5,2*%
%TO.N,GND*%
X206694000Y-71564500D03*
%TD*%
%TO.P,R2,1*%
%TO.N,Net-(D1-Pad2)*%
%TA.AperFunction,SMDPad,CuDef*%
G36*
G01*
X157277000Y-115132001D02*
X157277000Y-114231999D01*
G75*
G02*
X157526999Y-113982000I249999J0D01*
G01*
X158227001Y-113982000D01*
G75*
G02*
X158477000Y-114231999I0J-249999D01*
G01*
X158477000Y-115132001D01*
G75*
G02*
X158227001Y-115382000I-249999J0D01*
G01*
X157526999Y-115382000D01*
G75*
G02*
X157277000Y-115132001I0J249999D01*
G01*
G37*
%TD.AperFunction*%
%TO.P,R2,2*%
%TO.N,VCC*%
%TA.AperFunction,SMDPad,CuDef*%
G36*
G01*
X159277000Y-115132001D02*
X159277000Y-114231999D01*
G75*
G02*
X159526999Y-113982000I249999J0D01*
G01*
X160227001Y-113982000D01*
G75*
G02*
X160477000Y-114231999I0J-249999D01*
G01*
X160477000Y-115132001D01*
G75*
G02*
X160227001Y-115382000I-249999J0D01*
G01*
X159526999Y-115382000D01*
G75*
G02*
X159277000Y-115132001I0J249999D01*
G01*
G37*
%TD.AperFunction*%
%TD*%
D16*
%TO.P,J4,4*%
%TO.N,RST*%
X171450000Y-123126000D03*
%TO.P,J4,3*%
%TO.N,TX*%
X168910000Y-123126000D03*
%TO.P,J4,2*%
%TO.N,RX*%
X166370000Y-123126000D03*
D14*
%TO.P,J4,1*%
%TO.N,GND*%
X163830000Y-123126000D03*
%TD*%
D12*
%TO.P,JP1,1*%
%TO.N,SDA*%
X155285000Y-72847200D03*
%TO.P,JP1,2*%
%TO.N,Net-(J2-PadA6)*%
X153985000Y-72847200D03*
%TD*%
%TO.P,JP3,2*%
%TO.N,Net-(J2-PadA7)*%
X160335000Y-72847200D03*
%TO.P,JP3,1*%
%TO.N,SCL*%
X161635000Y-72847200D03*
%TD*%
%TO.P,JP10,2*%
%TO.N,SDA*%
X155285000Y-77292200D03*
%TO.P,JP10,1*%
%TO.N,Net-(J2-PadB6)*%
X153985000Y-77292200D03*
%TD*%
%TO.P,JP2,2*%
%TO.N,Net-(J2-PadA6)*%
X132806000Y-77292200D03*
%TO.P,JP2,1*%
%TO.N,TX*%
X131506000Y-77292200D03*
%TD*%
%TO.P,JP9,2*%
%TO.N,TX*%
X131491000Y-72847200D03*
%TO.P,JP9,1*%
%TO.N,Net-(J2-PadB6)*%
X132791000Y-72847200D03*
%TD*%
%TO.P,D1,1*%
%TO.N,GND*%
%TA.AperFunction,SMDPad,CuDef*%
G36*
G01*
X157315000Y-111842000D02*
X157315000Y-111042000D01*
G75*
G02*
X157565000Y-110792000I250000J0D01*
G01*
X158390000Y-110792000D01*
G75*
G02*
X158640000Y-111042000I0J-250000D01*
G01*
X158640000Y-111842000D01*
G75*
G02*
X158390000Y-112092000I-250000J0D01*
G01*
X157565000Y-112092000D01*
G75*
G02*
X157315000Y-111842000I0J250000D01*
G01*
G37*
%TD.AperFunction*%
%TO.P,D1,2*%
%TO.N,Net-(D1-Pad2)*%
%TA.AperFunction,SMDPad,CuDef*%
G36*
G01*
X159240000Y-111842000D02*
X159240000Y-111042000D01*
G75*
G02*
X159490000Y-110792000I250000J0D01*
G01*
X160315000Y-110792000D01*
G75*
G02*
X160565000Y-111042000I0J-250000D01*
G01*
X160565000Y-111842000D01*
G75*
G02*
X160315000Y-112092000I-250000J0D01*
G01*
X159490000Y-112092000D01*
G75*
G02*
X159240000Y-111842000I0J250000D01*
G01*
G37*
%TD.AperFunction*%
%TD*%
D16*
%TO.P,J3,13*%
%TO.N,BTN4*%
X128557000Y-123126000D03*
%TO.P,J3,12*%
%TO.N,BTN3*%
X126017000Y-123126000D03*
%TO.P,J3,11*%
%TO.N,BTN2*%
X123477000Y-123126000D03*
%TO.P,J3,10*%
%TO.N,BTN1*%
X120937000Y-123126000D03*
%TO.P,J3,9*%
%TO.N,ENC4B*%
X118397000Y-123126000D03*
%TO.P,J3,8*%
%TO.N,ENC4A*%
X115857000Y-123126000D03*
%TO.P,J3,7*%
%TO.N,ENC3B*%
X113317000Y-123126000D03*
%TO.P,J3,6*%
%TO.N,ENC3A*%
X110777000Y-123126000D03*
%TO.P,J3,5*%
%TO.N,ENC2B*%
X108237000Y-123126000D03*
%TO.P,J3,4*%
%TO.N,ENC2A*%
X105697000Y-123126000D03*
%TO.P,J3,3*%
%TO.N,ENC1B*%
X103157000Y-123126000D03*
%TO.P,J3,2*%
%TO.N,ENC1A*%
X100617000Y-123126000D03*
D14*
%TO.P,J3,1*%
%TO.N,GND*%
X98077000Y-123126000D03*
%TD*%
D16*
%TO.P,J5,4*%
%TO.N,VCC*%
X196309000Y-123126000D03*
%TO.P,J5,3*%
%TO.N,SCL*%
X193769000Y-123126000D03*
%TO.P,J5,2*%
%TO.N,SDA*%
X191229000Y-123126000D03*
D14*
%TO.P,J5,1*%
%TO.N,GND*%
X188689000Y-123126000D03*
%TD*%
D17*
%TO.P,SW1,S1*%
%TO.N,GND*%
X84655000Y-88773800D03*
D18*
%TO.P,SW1,S2*%
%TO.N,BTN1*%
X89655000Y-88773800D03*
%TO.P,SW1,A*%
%TO.N,ENC1A*%
X84655000Y-103273800D03*
%TO.P,SW1,C*%
%TO.N,GND*%
X87155000Y-103273800D03*
%TO.P,SW1,B*%
%TO.N,ENC1B*%
X89655000Y-103273800D03*
%TO.P,SW1,3*%
%TO.N,N/C*%
%TA.AperFunction,ComponentPad*%
G36*
G01*
X80355000Y-97073800D02*
X80355000Y-94473800D01*
G75*
G02*
X81555000Y-93273800I1200000J0D01*
G01*
X81555000Y-93273800D01*
G75*
G02*
X82755000Y-94473800I0J-1200000D01*
G01*
X82755000Y-97073800D01*
G75*
G02*
X81555000Y-98273800I-1200000J0D01*
G01*
X81555000Y-98273800D01*
G75*
G02*
X80355000Y-97073800I0J1200000D01*
G01*
G37*
%TD.AperFunction*%
%TO.P,SW1,4*%
%TA.AperFunction,ComponentPad*%
G36*
G01*
X91555000Y-97073800D02*
X91555000Y-94473800D01*
G75*
G02*
X92755000Y-93273800I1200000J0D01*
G01*
X92755000Y-93273800D01*
G75*
G02*
X93955000Y-94473800I0J-1200000D01*
G01*
X93955000Y-97073800D01*
G75*
G02*
X92755000Y-98273800I-1200000J0D01*
G01*
X92755000Y-98273800D01*
G75*
G02*
X91555000Y-97073800I0J1200000D01*
G01*
G37*
%TD.AperFunction*%
%TD*%
D19*
%TO.P,Y1,2*%
%TO.N,XTAL2*%
X112396500Y-112966000D03*
%TO.P,Y1,1*%
%TO.N,XTAL1*%
X100521500Y-112966000D03*
%TD*%
D20*
%TO.P,J2,A1B12*%
%TO.N,GND*%
X149503000Y-72862200D03*
%TO.P,J2,A4B9*%
%TO.N,VCC*%
X148703000Y-72862200D03*
D21*
%TO.P,J2,A6*%
%TO.N,Net-(J2-PadA6)*%
X146503000Y-72862200D03*
%TO.P,J2,B7*%
%TO.N,Net-(J2-PadB7)*%
X147003000Y-72862200D03*
%TO.P,J2,A5*%
%TO.N,Net-(J2-PadA5)*%
X147503000Y-72862200D03*
%TO.P,J2,B8*%
%TO.N,Net-(J2-PadB8)*%
X148003000Y-72862200D03*
%TO.P,J2,A7*%
%TO.N,Net-(J2-PadA7)*%
X146003000Y-72862200D03*
%TO.P,J2,B6*%
%TO.N,Net-(J2-PadB6)*%
X145503000Y-72862200D03*
%TO.P,J2,A8*%
%TO.N,Net-(J2-PadA8)*%
X145003000Y-72862200D03*
%TO.P,J2,B5*%
%TO.N,Net-(J2-PadB5)*%
X144503000Y-72862200D03*
D20*
%TO.P,J2,B4A9*%
%TO.N,VCC*%
X143803000Y-72862200D03*
%TO.P,J2,B1A12*%
%TO.N,GND*%
X143003000Y-72862200D03*
D22*
%TO.P,J2,S1*%
X150573000Y-71947200D03*
%TO.P,J2,S2*%
X141933000Y-71947200D03*
%TO.P,J2,S3*%
X150573000Y-67767200D03*
%TO.P,J2,S4*%
X141933000Y-67767200D03*
%TD*%
%TO.P,C3,1*%
%TO.N,VCC*%
%TA.AperFunction,SMDPad,CuDef*%
G36*
G01*
X131915000Y-119601000D02*
X131915000Y-118651000D01*
G75*
G02*
X132165000Y-118401000I250000J0D01*
G01*
X132840000Y-118401000D01*
G75*
G02*
X133090000Y-118651000I0J-250000D01*
G01*
X133090000Y-119601000D01*
G75*
G02*
X132840000Y-119851000I-250000J0D01*
G01*
X132165000Y-119851000D01*
G75*
G02*
X131915000Y-119601000I0J250000D01*
G01*
G37*
%TD.AperFunction*%
%TO.P,C3,2*%
%TO.N,GND*%
%TA.AperFunction,SMDPad,CuDef*%
G36*
G01*
X133990000Y-119601000D02*
X133990000Y-118651000D01*
G75*
G02*
X134240000Y-118401000I250000J0D01*
G01*
X134915000Y-118401000D01*
G75*
G02*
X135165000Y-118651000I0J-250000D01*
G01*
X135165000Y-119601000D01*
G75*
G02*
X134915000Y-119851000I-250000J0D01*
G01*
X134240000Y-119851000D01*
G75*
G02*
X133990000Y-119601000I0J250000D01*
G01*
G37*
%TD.AperFunction*%
%TD*%
D12*
%TO.P,JP4,1*%
%TO.N,RX*%
X125791000Y-72847200D03*
%TO.P,JP4,2*%
%TO.N,Net-(J2-PadA7)*%
X127091000Y-72847200D03*
%TD*%
%TO.P,R1,1*%
%TO.N,RST*%
%TA.AperFunction,SMDPad,CuDef*%
G36*
G01*
X157277000Y-119640001D02*
X157277000Y-118739999D01*
G75*
G02*
X157526999Y-118490000I249999J0D01*
G01*
X158227001Y-118490000D01*
G75*
G02*
X158477000Y-118739999I0J-249999D01*
G01*
X158477000Y-119640001D01*
G75*
G02*
X158227001Y-119890000I-249999J0D01*
G01*
X157526999Y-119890000D01*
G75*
G02*
X157277000Y-119640001I0J249999D01*
G01*
G37*
%TD.AperFunction*%
%TO.P,R1,2*%
%TO.N,VCC*%
%TA.AperFunction,SMDPad,CuDef*%
G36*
G01*
X159277000Y-119640001D02*
X159277000Y-118739999D01*
G75*
G02*
X159526999Y-118490000I249999J0D01*
G01*
X160227001Y-118490000D01*
G75*
G02*
X160477000Y-118739999I0J-249999D01*
G01*
X160477000Y-119640001D01*
G75*
G02*
X160227001Y-119890000I-249999J0D01*
G01*
X159526999Y-119890000D01*
G75*
G02*
X159277000Y-119640001I0J249999D01*
G01*
G37*
%TD.AperFunction*%
%TD*%
%TO.P,JP5,2*%
%TO.N,Net-(J2-PadA8)*%
X137221000Y-72847200D03*
%TO.P,JP5,1*%
%TO.N,RST*%
X138521000Y-72847200D03*
%TD*%
%TO.P,JP6,1*%
%TO.N,Net-(J2-PadB8)*%
X137221000Y-77292200D03*
%TO.P,JP6,2*%
%TO.N,RST*%
X138521000Y-77292200D03*
%TD*%
%TO.P,JP7,1*%
%TO.N,Net-(J2-PadB7)*%
X127091000Y-77292200D03*
%TO.P,JP7,2*%
%TO.N,RX*%
X125791000Y-77292200D03*
%TD*%
%TA.AperFunction,SMDPad,CuDef*%
D23*
%TO.P,U1,1*%
%TO.N,ENC1B*%
G36*
X140883666Y-114815445D02*
G01*
X140494757Y-114426536D01*
X141626128Y-113295165D01*
X142015037Y-113684074D01*
X140883666Y-114815445D01*
G37*
%TD.AperFunction*%
%TA.AperFunction,SMDPad,CuDef*%
%TO.P,U1,2*%
%TO.N,ENC2A*%
G36*
X141449352Y-115381130D02*
G01*
X141060443Y-114992221D01*
X142191814Y-113860850D01*
X142580723Y-114249759D01*
X141449352Y-115381130D01*
G37*
%TD.AperFunction*%
%TA.AperFunction,SMDPad,CuDef*%
%TO.P,U1,3*%
%TO.N,Net-(U1-Pad3)*%
G36*
X142015037Y-115946816D02*
G01*
X141626128Y-115557907D01*
X142757499Y-114426536D01*
X143146408Y-114815445D01*
X142015037Y-115946816D01*
G37*
%TD.AperFunction*%
%TA.AperFunction,SMDPad,CuDef*%
%TO.P,U1,4*%
%TO.N,VCC*%
G36*
X142580722Y-116512501D02*
G01*
X142191813Y-116123592D01*
X143323184Y-114992221D01*
X143712093Y-115381130D01*
X142580722Y-116512501D01*
G37*
%TD.AperFunction*%
%TA.AperFunction,SMDPad,CuDef*%
%TO.P,U1,5*%
%TO.N,GND*%
G36*
X143146408Y-117078187D02*
G01*
X142757499Y-116689278D01*
X143888870Y-115557907D01*
X144277779Y-115946816D01*
X143146408Y-117078187D01*
G37*
%TD.AperFunction*%
%TA.AperFunction,SMDPad,CuDef*%
%TO.P,U1,6*%
%TO.N,Net-(U1-Pad6)*%
G36*
X143712093Y-117643872D02*
G01*
X143323184Y-117254963D01*
X144454555Y-116123592D01*
X144843464Y-116512501D01*
X143712093Y-117643872D01*
G37*
%TD.AperFunction*%
%TA.AperFunction,SMDPad,CuDef*%
%TO.P,U1,7*%
%TO.N,XTAL1*%
G36*
X144277779Y-118209557D02*
G01*
X143888870Y-117820648D01*
X145020241Y-116689277D01*
X145409150Y-117078186D01*
X144277779Y-118209557D01*
G37*
%TD.AperFunction*%
%TA.AperFunction,SMDPad,CuDef*%
%TO.P,U1,8*%
%TO.N,XTAL2*%
G36*
X144843464Y-118775243D02*
G01*
X144454555Y-118386334D01*
X145585926Y-117254963D01*
X145974835Y-117643872D01*
X144843464Y-118775243D01*
G37*
%TD.AperFunction*%
%TA.AperFunction,SMDPad,CuDef*%
%TO.P,U1,9*%
%TO.N,ENC2B*%
G36*
X148025445Y-118386334D02*
G01*
X147636536Y-118775243D01*
X146505165Y-117643872D01*
X146894074Y-117254963D01*
X148025445Y-118386334D01*
G37*
%TD.AperFunction*%
%TA.AperFunction,SMDPad,CuDef*%
%TO.P,U1,10*%
%TO.N,ENC3A*%
G36*
X148591130Y-117820648D02*
G01*
X148202221Y-118209557D01*
X147070850Y-117078186D01*
X147459759Y-116689277D01*
X148591130Y-117820648D01*
G37*
%TD.AperFunction*%
%TA.AperFunction,SMDPad,CuDef*%
%TO.P,U1,11*%
%TO.N,ENC3B*%
G36*
X149156816Y-117254963D02*
G01*
X148767907Y-117643872D01*
X147636536Y-116512501D01*
X148025445Y-116123592D01*
X149156816Y-117254963D01*
G37*
%TD.AperFunction*%
%TA.AperFunction,SMDPad,CuDef*%
%TO.P,U1,12*%
%TO.N,ENC4A*%
G36*
X149722501Y-116689278D02*
G01*
X149333592Y-117078187D01*
X148202221Y-115946816D01*
X148591130Y-115557907D01*
X149722501Y-116689278D01*
G37*
%TD.AperFunction*%
%TA.AperFunction,SMDPad,CuDef*%
%TO.P,U1,13*%
%TO.N,ENC4B*%
G36*
X150288187Y-116123592D02*
G01*
X149899278Y-116512501D01*
X148767907Y-115381130D01*
X149156816Y-114992221D01*
X150288187Y-116123592D01*
G37*
%TD.AperFunction*%
%TA.AperFunction,SMDPad,CuDef*%
%TO.P,U1,14*%
%TO.N,LED*%
G36*
X150853872Y-115557907D02*
G01*
X150464963Y-115946816D01*
X149333592Y-114815445D01*
X149722501Y-114426536D01*
X150853872Y-115557907D01*
G37*
%TD.AperFunction*%
%TA.AperFunction,SMDPad,CuDef*%
%TO.P,U1,15*%
%TO.N,MOSI*%
G36*
X151419557Y-114992221D02*
G01*
X151030648Y-115381130D01*
X149899277Y-114249759D01*
X150288186Y-113860850D01*
X151419557Y-114992221D01*
G37*
%TD.AperFunction*%
%TA.AperFunction,SMDPad,CuDef*%
%TO.P,U1,16*%
%TO.N,MISO*%
G36*
X151985243Y-114426536D02*
G01*
X151596334Y-114815445D01*
X150464963Y-113684074D01*
X150853872Y-113295165D01*
X151985243Y-114426536D01*
G37*
%TD.AperFunction*%
%TA.AperFunction,SMDPad,CuDef*%
%TO.P,U1,17*%
%TO.N,SCK*%
G36*
X150853872Y-112764835D02*
G01*
X150464963Y-112375926D01*
X151596334Y-111244555D01*
X151985243Y-111633464D01*
X150853872Y-112764835D01*
G37*
%TD.AperFunction*%
%TA.AperFunction,SMDPad,CuDef*%
%TO.P,U1,18*%
%TO.N,VCC*%
G36*
X150288186Y-112199150D02*
G01*
X149899277Y-111810241D01*
X151030648Y-110678870D01*
X151419557Y-111067779D01*
X150288186Y-112199150D01*
G37*
%TD.AperFunction*%
%TA.AperFunction,SMDPad,CuDef*%
%TO.P,U1,19*%
%TO.N,Net-(U1-Pad19)*%
G36*
X149722501Y-111633464D02*
G01*
X149333592Y-111244555D01*
X150464963Y-110113184D01*
X150853872Y-110502093D01*
X149722501Y-111633464D01*
G37*
%TD.AperFunction*%
%TA.AperFunction,SMDPad,CuDef*%
%TO.P,U1,20*%
%TO.N,Net-(U1-Pad20)*%
G36*
X149156816Y-111067779D02*
G01*
X148767907Y-110678870D01*
X149899278Y-109547499D01*
X150288187Y-109936408D01*
X149156816Y-111067779D01*
G37*
%TD.AperFunction*%
%TA.AperFunction,SMDPad,CuDef*%
%TO.P,U1,21*%
%TO.N,GND*%
G36*
X148591130Y-110502093D02*
G01*
X148202221Y-110113184D01*
X149333592Y-108981813D01*
X149722501Y-109370722D01*
X148591130Y-110502093D01*
G37*
%TD.AperFunction*%
%TA.AperFunction,SMDPad,CuDef*%
%TO.P,U1,22*%
%TO.N,Net-(U1-Pad22)*%
G36*
X148025445Y-109936408D02*
G01*
X147636536Y-109547499D01*
X148767907Y-108416128D01*
X149156816Y-108805037D01*
X148025445Y-109936408D01*
G37*
%TD.AperFunction*%
%TA.AperFunction,SMDPad,CuDef*%
%TO.P,U1,23*%
%TO.N,BTN1*%
G36*
X147459759Y-109370723D02*
G01*
X147070850Y-108981814D01*
X148202221Y-107850443D01*
X148591130Y-108239352D01*
X147459759Y-109370723D01*
G37*
%TD.AperFunction*%
%TA.AperFunction,SMDPad,CuDef*%
%TO.P,U1,24*%
%TO.N,BTN2*%
G36*
X146894074Y-108805037D02*
G01*
X146505165Y-108416128D01*
X147636536Y-107284757D01*
X148025445Y-107673666D01*
X146894074Y-108805037D01*
G37*
%TD.AperFunction*%
%TA.AperFunction,SMDPad,CuDef*%
%TO.P,U1,25*%
%TO.N,BTN3*%
G36*
X145974835Y-108416128D02*
G01*
X145585926Y-108805037D01*
X144454555Y-107673666D01*
X144843464Y-107284757D01*
X145974835Y-108416128D01*
G37*
%TD.AperFunction*%
%TA.AperFunction,SMDPad,CuDef*%
%TO.P,U1,26*%
%TO.N,BTN4*%
G36*
X145409150Y-108981814D02*
G01*
X145020241Y-109370723D01*
X143888870Y-108239352D01*
X144277779Y-107850443D01*
X145409150Y-108981814D01*
G37*
%TD.AperFunction*%
%TA.AperFunction,SMDPad,CuDef*%
%TO.P,U1,27*%
%TO.N,SDA*%
G36*
X144843464Y-109547499D02*
G01*
X144454555Y-109936408D01*
X143323184Y-108805037D01*
X143712093Y-108416128D01*
X144843464Y-109547499D01*
G37*
%TD.AperFunction*%
%TA.AperFunction,SMDPad,CuDef*%
%TO.P,U1,28*%
%TO.N,SCL*%
G36*
X144277779Y-110113184D02*
G01*
X143888870Y-110502093D01*
X142757499Y-109370722D01*
X143146408Y-108981813D01*
X144277779Y-110113184D01*
G37*
%TD.AperFunction*%
%TA.AperFunction,SMDPad,CuDef*%
%TO.P,U1,29*%
%TO.N,RST*%
G36*
X143712093Y-110678870D02*
G01*
X143323184Y-111067779D01*
X142191813Y-109936408D01*
X142580722Y-109547499D01*
X143712093Y-110678870D01*
G37*
%TD.AperFunction*%
%TA.AperFunction,SMDPad,CuDef*%
%TO.P,U1,30*%
%TO.N,RX*%
G36*
X143146408Y-111244555D02*
G01*
X142757499Y-111633464D01*
X141626128Y-110502093D01*
X142015037Y-110113184D01*
X143146408Y-111244555D01*
G37*
%TD.AperFunction*%
%TA.AperFunction,SMDPad,CuDef*%
%TO.P,U1,31*%
%TO.N,TX*%
G36*
X142580723Y-111810241D02*
G01*
X142191814Y-112199150D01*
X141060443Y-111067779D01*
X141449352Y-110678870D01*
X142580723Y-111810241D01*
G37*
%TD.AperFunction*%
%TA.AperFunction,SMDPad,CuDef*%
%TO.P,U1,32*%
%TO.N,ENC1A*%
G36*
X142015037Y-112375926D02*
G01*
X141626128Y-112764835D01*
X140494757Y-111633464D01*
X140883666Y-111244555D01*
X142015037Y-112375926D01*
G37*
%TD.AperFunction*%
%TD*%
%TO.P,SW2,4*%
%TO.N,N/C*%
%TA.AperFunction,ComponentPad*%
G36*
G01*
X130945000Y-97073800D02*
X130945000Y-94473800D01*
G75*
G02*
X132145000Y-93273800I1200000J0D01*
G01*
X132145000Y-93273800D01*
G75*
G02*
X133345000Y-94473800I0J-1200000D01*
G01*
X133345000Y-97073800D01*
G75*
G02*
X132145000Y-98273800I-1200000J0D01*
G01*
X132145000Y-98273800D01*
G75*
G02*
X130945000Y-97073800I0J1200000D01*
G01*
G37*
%TD.AperFunction*%
%TO.P,SW2,3*%
%TA.AperFunction,ComponentPad*%
G36*
G01*
X119745000Y-97073800D02*
X119745000Y-94473800D01*
G75*
G02*
X120945000Y-93273800I1200000J0D01*
G01*
X120945000Y-93273800D01*
G75*
G02*
X122145000Y-94473800I0J-1200000D01*
G01*
X122145000Y-97073800D01*
G75*
G02*
X120945000Y-98273800I-1200000J0D01*
G01*
X120945000Y-98273800D01*
G75*
G02*
X119745000Y-97073800I0J1200000D01*
G01*
G37*
%TD.AperFunction*%
D18*
%TO.P,SW2,B*%
%TO.N,ENC2B*%
X129045000Y-103273800D03*
%TO.P,SW2,C*%
%TO.N,GND*%
X126545000Y-103273800D03*
%TO.P,SW2,A*%
%TO.N,ENC2A*%
X124045000Y-103273800D03*
%TO.P,SW2,S2*%
%TO.N,BTN2*%
X129045000Y-88773800D03*
D17*
%TO.P,SW2,S1*%
%TO.N,GND*%
X124045000Y-88773800D03*
%TD*%
%TO.P,D2,1*%
%TO.N,GND*%
%TA.AperFunction,SMDPad,CuDef*%
G36*
G01*
X84939000Y-72053500D02*
X84939000Y-72853500D01*
G75*
G02*
X84689000Y-73103500I-250000J0D01*
G01*
X83864000Y-73103500D01*
G75*
G02*
X83614000Y-72853500I0J250000D01*
G01*
X83614000Y-72053500D01*
G75*
G02*
X83864000Y-71803500I250000J0D01*
G01*
X84689000Y-71803500D01*
G75*
G02*
X84939000Y-72053500I0J-250000D01*
G01*
G37*
%TD.AperFunction*%
%TO.P,D2,2*%
%TO.N,Net-(D2-Pad2)*%
%TA.AperFunction,SMDPad,CuDef*%
G36*
G01*
X83014000Y-72053500D02*
X83014000Y-72853500D01*
G75*
G02*
X82764000Y-73103500I-250000J0D01*
G01*
X81939000Y-73103500D01*
G75*
G02*
X81689000Y-72853500I0J250000D01*
G01*
X81689000Y-72053500D01*
G75*
G02*
X81939000Y-71803500I250000J0D01*
G01*
X82764000Y-71803500D01*
G75*
G02*
X83014000Y-72053500I0J-250000D01*
G01*
G37*
%TD.AperFunction*%
%TD*%
%TO.P,R3,1*%
%TO.N,Net-(D2-Pad2)*%
%TA.AperFunction,SMDPad,CuDef*%
G36*
G01*
X84914000Y-75305499D02*
X84914000Y-76205501D01*
G75*
G02*
X84664001Y-76455500I-249999J0D01*
G01*
X83963999Y-76455500D01*
G75*
G02*
X83714000Y-76205501I0J249999D01*
G01*
X83714000Y-75305499D01*
G75*
G02*
X83963999Y-75055500I249999J0D01*
G01*
X84664001Y-75055500D01*
G75*
G02*
X84914000Y-75305499I0J-249999D01*
G01*
G37*
%TD.AperFunction*%
%TO.P,R3,2*%
%TO.N,LED*%
%TA.AperFunction,SMDPad,CuDef*%
G36*
G01*
X82914000Y-75305499D02*
X82914000Y-76205501D01*
G75*
G02*
X82664001Y-76455500I-249999J0D01*
G01*
X81963999Y-76455500D01*
G75*
G02*
X81714000Y-76205501I0J249999D01*
G01*
X81714000Y-75305499D01*
G75*
G02*
X81963999Y-75055500I249999J0D01*
G01*
X82664001Y-75055500D01*
G75*
G02*
X82914000Y-75305499I0J-249999D01*
G01*
G37*
%TD.AperFunction*%
%TD*%
%TO.P,SW3,S1*%
%TO.N,GND*%
X163436000Y-88773800D03*
D18*
%TO.P,SW3,S2*%
%TO.N,BTN3*%
X168436000Y-88773800D03*
%TO.P,SW3,A*%
%TO.N,ENC3A*%
X163436000Y-103273800D03*
%TO.P,SW3,C*%
%TO.N,GND*%
X165936000Y-103273800D03*
%TO.P,SW3,B*%
%TO.N,ENC3B*%
X168436000Y-103273800D03*
%TO.P,SW3,3*%
%TO.N,N/C*%
%TA.AperFunction,ComponentPad*%
G36*
G01*
X159136000Y-97073800D02*
X159136000Y-94473800D01*
G75*
G02*
X160336000Y-93273800I1200000J0D01*
G01*
X160336000Y-93273800D01*
G75*
G02*
X161536000Y-94473800I0J-1200000D01*
G01*
X161536000Y-97073800D01*
G75*
G02*
X160336000Y-98273800I-1200000J0D01*
G01*
X160336000Y-98273800D01*
G75*
G02*
X159136000Y-97073800I0J1200000D01*
G01*
G37*
%TD.AperFunction*%
%TO.P,SW3,4*%
%TA.AperFunction,ComponentPad*%
G36*
G01*
X170336000Y-97073800D02*
X170336000Y-94473800D01*
G75*
G02*
X171536000Y-93273800I1200000J0D01*
G01*
X171536000Y-93273800D01*
G75*
G02*
X172736000Y-94473800I0J-1200000D01*
G01*
X172736000Y-97073800D01*
G75*
G02*
X171536000Y-98273800I-1200000J0D01*
G01*
X171536000Y-98273800D01*
G75*
G02*
X170336000Y-97073800I0J1200000D01*
G01*
G37*
%TD.AperFunction*%
%TD*%
%TO.P,SW4,4*%
%TO.N,N/C*%
%TA.AperFunction,ComponentPad*%
G36*
G01*
X209726000Y-97073800D02*
X209726000Y-94473800D01*
G75*
G02*
X210926000Y-93273800I1200000J0D01*
G01*
X210926000Y-93273800D01*
G75*
G02*
X212126000Y-94473800I0J-1200000D01*
G01*
X212126000Y-97073800D01*
G75*
G02*
X210926000Y-98273800I-1200000J0D01*
G01*
X210926000Y-98273800D01*
G75*
G02*
X209726000Y-97073800I0J1200000D01*
G01*
G37*
%TD.AperFunction*%
%TO.P,SW4,3*%
%TA.AperFunction,ComponentPad*%
G36*
G01*
X198526000Y-97073800D02*
X198526000Y-94473800D01*
G75*
G02*
X199726000Y-93273800I1200000J0D01*
G01*
X199726000Y-93273800D01*
G75*
G02*
X200926000Y-94473800I0J-1200000D01*
G01*
X200926000Y-97073800D01*
G75*
G02*
X199726000Y-98273800I-1200000J0D01*
G01*
X199726000Y-98273800D01*
G75*
G02*
X198526000Y-97073800I0J1200000D01*
G01*
G37*
%TD.AperFunction*%
%TO.P,SW4,B*%
%TO.N,ENC4B*%
X207826000Y-103273800D03*
%TO.P,SW4,C*%
%TO.N,GND*%
X205326000Y-103273800D03*
%TO.P,SW4,A*%
%TO.N,ENC4A*%
X202826000Y-103273800D03*
%TO.P,SW4,S2*%
%TO.N,BTN4*%
X207826000Y-88773800D03*
D17*
%TO.P,SW4,S1*%
%TO.N,GND*%
X202826000Y-88773800D03*
%TD*%
%TO.P,C4,1*%
%TO.N,VCC*%
%TA.AperFunction,SMDPad,CuDef*%
G36*
G01*
X157294000Y-107663000D02*
X157294000Y-106713000D01*
G75*
G02*
X157544000Y-106463000I250000J0D01*
G01*
X158219000Y-106463000D01*
G75*
G02*
X158469000Y-106713000I0J-250000D01*
G01*
X158469000Y-107663000D01*
G75*
G02*
X158219000Y-107913000I-250000J0D01*
G01*
X157544000Y-107913000D01*
G75*
G02*
X157294000Y-107663000I0J250000D01*
G01*
G37*
%TD.AperFunction*%
%TO.P,C4,2*%
%TO.N,GND*%
%TA.AperFunction,SMDPad,CuDef*%
G36*
G01*
X159369000Y-107663000D02*
X159369000Y-106713000D01*
G75*
G02*
X159619000Y-106463000I250000J0D01*
G01*
X160294000Y-106463000D01*
G75*
G02*
X160544000Y-106713000I0J-250000D01*
G01*
X160544000Y-107663000D01*
G75*
G02*
X160294000Y-107913000I-250000J0D01*
G01*
X159619000Y-107913000D01*
G75*
G02*
X159369000Y-107663000I0J250000D01*
G01*
G37*
%TD.AperFunction*%
%TD*%
D24*
%TO.N,VCC*%
X145295300Y-71491300D03*
X148730400Y-74199200D03*
X139065000Y-105410000D03*
%TO.N,RST*%
X140214500Y-73121700D03*
X191029200Y-82166000D03*
X139935200Y-77292200D03*
%TO.N,Net-(J2-PadA6)*%
X153879200Y-71455800D03*
X144180100Y-75176900D03*
%TO.N,Net-(J2-PadB6)*%
X150766500Y-77413600D03*
X145227800Y-74656400D03*
%TO.N,BTN4*%
X143853200Y-107418700D03*
%TO.N,BTN2*%
X146526600Y-106216500D03*
%TO.N,BTN1*%
X145622700Y-110354800D03*
%TO.N,ENC4B*%
X150528700Y-117113000D03*
%TO.N,ENC4A*%
X145580700Y-121897400D03*
%TO.N,ENC3B*%
X148138100Y-114713700D03*
%TO.N,TX*%
X131701000Y-78680200D03*
X146454400Y-113806600D03*
X136495120Y-105045330D03*
%TO.N,RX*%
X143909100Y-112396100D03*
%TO.N,SDA*%
X144410900Y-113309100D03*
%TD*%
D25*
%TO.N,GND*%
X134451500Y-112904000D02*
X134451500Y-114810800D01*
X134451500Y-114810800D02*
X131582000Y-117680300D01*
X131582000Y-117680300D02*
X131582000Y-119863800D01*
X131582000Y-119863800D02*
X131919700Y-120201500D01*
X131919700Y-120201500D02*
X133502000Y-120201500D01*
X133502000Y-120201500D02*
X134577500Y-119126000D01*
X134451500Y-107188000D02*
X134451500Y-112904000D01*
X96223100Y-107782200D02*
X122036600Y-107782200D01*
X122036600Y-107782200D02*
X126545000Y-103273800D01*
X87155000Y-103273800D02*
X91663400Y-107782200D01*
X96223100Y-120096800D02*
X98077000Y-121950700D01*
X126545000Y-103273800D02*
X128799800Y-105528600D01*
X128799800Y-105528600D02*
X132792100Y-105528600D01*
X132792100Y-105528600D02*
X134451500Y-107188000D01*
X98077000Y-123126000D02*
X98077000Y-121950700D01*
X141933000Y-71947200D02*
X142848000Y-72862200D01*
X142848000Y-72862200D02*
X143003000Y-72862200D01*
X189864300Y-123126000D02*
X189864300Y-123493400D01*
X189864300Y-123493400D02*
X191129600Y-124758700D01*
X191129600Y-124758700D02*
X196354000Y-124758700D01*
X196354000Y-124758700D02*
X205326000Y-115786700D01*
X205326000Y-115786700D02*
X205326000Y-103273800D01*
X169576200Y-102124600D02*
X180260600Y-102124600D01*
X180260600Y-102124600D02*
X189896000Y-111760000D01*
X189276700Y-123126000D02*
X189864300Y-123126000D01*
X84655000Y-88773800D02*
X84655000Y-87673500D01*
X84655000Y-87673500D02*
X85251100Y-87077400D01*
X85251100Y-87077400D02*
X85251100Y-73428100D01*
X85251100Y-73428100D02*
X84276500Y-72453500D01*
X163830000Y-123126000D02*
X165005300Y-123126000D01*
X188689000Y-123126000D02*
X187513700Y-123126000D01*
X187513700Y-123126000D02*
X186338400Y-124301300D01*
X186338400Y-124301300D02*
X165813200Y-124301300D01*
X165813200Y-124301300D02*
X165005300Y-123493400D01*
X165005300Y-123493400D02*
X165005300Y-123126000D01*
X189276700Y-123126000D02*
X188689000Y-123126000D01*
X150573000Y-71947200D02*
X149658000Y-72862200D01*
X149658000Y-72862200D02*
X149503000Y-72862200D01*
X163436000Y-88773800D02*
X164536300Y-88773800D01*
X159956500Y-107188000D02*
X158894000Y-106125500D01*
X158894000Y-106125500D02*
X152578900Y-106125500D01*
X152578900Y-106125500D02*
X148962400Y-109742000D01*
X143517600Y-116318000D02*
X140709600Y-119126000D01*
X140709600Y-119126000D02*
X134577500Y-119126000D01*
X206694000Y-71564500D02*
X205968700Y-71564500D01*
X202826000Y-88773800D02*
X202826000Y-74707200D01*
X202826000Y-74707200D02*
X205968700Y-71564500D01*
X165936000Y-103273800D02*
X167085200Y-102124600D01*
X167085200Y-102124600D02*
X169576200Y-102124600D01*
X169576200Y-102124600D02*
X169576200Y-88314500D01*
X169576200Y-88314500D02*
X168935200Y-87673500D01*
X168935200Y-87673500D02*
X165636600Y-87673500D01*
X165636600Y-87673500D02*
X164536300Y-88773800D01*
X159956500Y-107188000D02*
X162021800Y-107188000D01*
X162021800Y-107188000D02*
X165936000Y-103273800D01*
X159956500Y-107188000D02*
X159956500Y-109463000D01*
X159956500Y-109463000D02*
X157977500Y-111442000D01*
X150573000Y-67767200D02*
X141933000Y-67767200D01*
X96223100Y-111127500D02*
X92877800Y-107782200D01*
X96223100Y-120096800D02*
X96223100Y-111127500D01*
X92877800Y-107782200D02*
X96223100Y-107782200D01*
X91663400Y-107782200D02*
X92877800Y-107782200D01*
%TO.N,VCC*%
X145295300Y-71491300D02*
X144523800Y-71491300D01*
X144523800Y-71491300D02*
X143803000Y-72212100D01*
X143803000Y-72212100D02*
X143803000Y-72862200D01*
X187822400Y-118046900D02*
X186679300Y-119190000D01*
X186679300Y-119190000D02*
X159877000Y-119190000D01*
X184816000Y-111760000D02*
X186018300Y-110557700D01*
X186018300Y-110557700D02*
X187923000Y-110557700D01*
X187923000Y-110557700D02*
X188669100Y-111303800D01*
X188669100Y-111303800D02*
X188669100Y-112305400D01*
X188669100Y-112305400D02*
X189304700Y-112941000D01*
X189304700Y-112941000D02*
X190214500Y-112941000D01*
X190214500Y-112941000D02*
X191084600Y-113811100D01*
X191084600Y-113811100D02*
X191084600Y-114784700D01*
X191084600Y-114784700D02*
X187822400Y-118046900D01*
X187822400Y-118046900D02*
X192499000Y-122723500D01*
X192499000Y-122723500D02*
X192499000Y-123519200D01*
X192499000Y-123519200D02*
X193288200Y-124308400D01*
X193288200Y-124308400D02*
X194256500Y-124308400D01*
X194256500Y-124308400D02*
X195133700Y-123431200D01*
X195133700Y-123431200D02*
X195133700Y-123126000D01*
X196309000Y-123126000D02*
X195133700Y-123126000D01*
X154956600Y-110643200D02*
X154956600Y-113398600D01*
X154956600Y-113398600D02*
X157277400Y-115719400D01*
X157277400Y-115719400D02*
X158839600Y-115719400D01*
X158839600Y-115719400D02*
X159877000Y-114682000D01*
X157881500Y-107188000D02*
X154956700Y-110112800D01*
X154956700Y-110112800D02*
X154956600Y-110112800D01*
X154956600Y-110112800D02*
X154956600Y-110643200D01*
X148703000Y-72862200D02*
X148703000Y-74171800D01*
X148703000Y-74171800D02*
X148730400Y-74199200D01*
X142952000Y-115752400D02*
X141743500Y-116960900D01*
X141743500Y-116960900D02*
X134667600Y-116960900D01*
X134667600Y-116960900D02*
X132502500Y-119126000D01*
X159877000Y-114682000D02*
X162799000Y-111760000D01*
X162799000Y-111760000D02*
X184816000Y-111760000D01*
X150659417Y-111439010D02*
X151178882Y-110919545D01*
X151178882Y-110919545D02*
X151970455Y-110919545D01*
X155702000Y-107188000D02*
X157881500Y-107188000D01*
X151970455Y-110919545D02*
X155702000Y-107188000D01*
X135364010Y-109110990D02*
X139065000Y-105410000D01*
X135364010Y-114534700D02*
X135364010Y-109110990D01*
X132502500Y-119126000D02*
X132502500Y-117396210D01*
X132502500Y-117396210D02*
X135364010Y-114534700D01*
%TO.N,XTAL1*%
X132376500Y-111640600D02*
X132741400Y-111640600D01*
X132741400Y-111640600D02*
X133292900Y-112192100D01*
X133292900Y-112192100D02*
X133292900Y-114984300D01*
X133292900Y-114984300D02*
X131125000Y-117152200D01*
X131125000Y-117152200D02*
X131125000Y-120043700D01*
X131125000Y-120043700D02*
X131757300Y-120676000D01*
X131757300Y-120676000D02*
X141422400Y-120676000D01*
X141422400Y-120676000D02*
X144649000Y-117449400D01*
X100521500Y-112966000D02*
X104784300Y-112966000D01*
X104784300Y-112966000D02*
X106109700Y-111640600D01*
X106109700Y-111640600D02*
X132376500Y-111640600D01*
X132376500Y-111640600D02*
X132376500Y-107188000D01*
%TO.N,XTAL2*%
X130674600Y-114493300D02*
X118186600Y-114493300D01*
X118186600Y-114493300D02*
X116659300Y-112966000D01*
X132376500Y-112904000D02*
X130787200Y-114493300D01*
X130787200Y-114493300D02*
X130674600Y-114493300D01*
X130674600Y-114493300D02*
X130674600Y-120230200D01*
X130674600Y-120230200D02*
X131570800Y-121126400D01*
X131570800Y-121126400D02*
X142103400Y-121126400D01*
X142103400Y-121126400D02*
X145214700Y-118015100D01*
X112396500Y-112966000D02*
X116659300Y-112966000D01*
%TO.N,Net-(D1-Pad2)*%
X159902500Y-111442000D02*
X159902500Y-112656500D01*
X159902500Y-112656500D02*
X157877000Y-114682000D01*
%TO.N,MOSI*%
X187356000Y-111760000D02*
X188537100Y-112941100D01*
X188537100Y-112941100D02*
X188537100Y-114793100D01*
X188537100Y-114793100D02*
X186259600Y-117070600D01*
X186259600Y-117070600D02*
X153109000Y-117070600D01*
X153109000Y-117070600D02*
X150659400Y-114621000D01*
%TO.N,SCK*%
X186180600Y-113124600D02*
X187356000Y-114300000D01*
X152816400Y-112004700D02*
X156981500Y-116169800D01*
X151225100Y-112004700D02*
X152816400Y-112004700D01*
X156981500Y-116169800D02*
X178406600Y-116169800D01*
X181451800Y-113124600D02*
X186180600Y-113124600D01*
X178406600Y-116169800D02*
X181451800Y-113124600D01*
%TO.N,MISO*%
X184816000Y-114300000D02*
X183640700Y-114300000D01*
X151225100Y-114055300D02*
X153790000Y-116620200D01*
X153790000Y-116620200D02*
X181320500Y-116620200D01*
X181320500Y-116620200D02*
X183640700Y-114300000D01*
%TO.N,RST*%
X171450000Y-123126000D02*
X170274700Y-123126000D01*
X170274700Y-123126000D02*
X170274700Y-122758600D01*
X170274700Y-122758600D02*
X169466800Y-121950700D01*
X169466800Y-121950700D02*
X160637700Y-121950700D01*
X160637700Y-121950700D02*
X157877000Y-119190000D01*
X139346300Y-77292200D02*
X139935200Y-77292200D01*
X138521000Y-72847200D02*
X139346300Y-72847200D01*
X140214500Y-73121700D02*
X139620800Y-73121700D01*
X139620800Y-73121700D02*
X139346300Y-72847200D01*
X202494000Y-71564500D02*
X201768700Y-71564500D01*
X191029200Y-82166000D02*
X191167200Y-82166000D01*
X191167200Y-82166000D02*
X201768700Y-71564500D01*
X138521000Y-77292200D02*
X139346300Y-77292200D01*
X142040057Y-104129998D02*
X142040057Y-109395657D01*
X142040057Y-109395657D02*
X142952000Y-110307600D01*
X139346300Y-77292200D02*
X139346300Y-101436241D01*
X139346300Y-101436241D02*
X142040057Y-104129998D01*
%TO.N,Net-(J2-PadA6)*%
X153985000Y-72847200D02*
X153985000Y-71561600D01*
X153985000Y-71561600D02*
X153879200Y-71455800D01*
X146503000Y-72862200D02*
X146503000Y-74412500D01*
X146503000Y-74412500D02*
X145529000Y-75386500D01*
X145529000Y-75386500D02*
X144389700Y-75386500D01*
X144389700Y-75386500D02*
X144180100Y-75176900D01*
X133631300Y-77292200D02*
X135746600Y-75176900D01*
X135746600Y-75176900D02*
X144180100Y-75176900D01*
X132806000Y-77292200D02*
X133631300Y-77292200D01*
%TO.N,Net-(J2-PadB7)*%
X127916300Y-77292200D02*
X130029600Y-79405500D01*
X130029600Y-79405500D02*
X132418600Y-79405500D01*
X132418600Y-79405500D02*
X136094100Y-75730000D01*
X136094100Y-75730000D02*
X143631300Y-75730000D01*
X143631300Y-75730000D02*
X143808100Y-75906800D01*
X143808100Y-75906800D02*
X145645600Y-75906800D01*
X145645600Y-75906800D02*
X147003000Y-74549400D01*
X147003000Y-74549400D02*
X147003000Y-73912500D01*
X147003000Y-72862200D02*
X147003000Y-71811900D01*
X147003000Y-71811900D02*
X148546100Y-70268800D01*
X148546100Y-70268800D02*
X155107100Y-70268800D01*
X155107100Y-70268800D02*
X160335000Y-75496700D01*
X160335000Y-75496700D02*
X160335000Y-77292200D01*
X147003000Y-73387300D02*
X147003000Y-72862200D01*
X147003000Y-73387300D02*
X147003000Y-73912500D01*
X127091000Y-77292200D02*
X127916300Y-77292200D01*
%TO.N,Net-(J2-PadB8)*%
X137221000Y-76216900D02*
X142911800Y-76216900D01*
X142911800Y-76216900D02*
X143059400Y-76364500D01*
X143059400Y-76364500D02*
X145824800Y-76364500D01*
X145824800Y-76364500D02*
X148003000Y-74186300D01*
X148003000Y-74186300D02*
X148003000Y-73912500D01*
X148003000Y-72862200D02*
X148003000Y-73912500D01*
X137221000Y-77292200D02*
X137221000Y-76216900D01*
%TO.N,Net-(J2-PadA7)*%
X146027600Y-71163400D02*
X146027600Y-71787300D01*
X146027600Y-71787300D02*
X146003000Y-71811900D01*
X127916300Y-72847200D02*
X130228700Y-70534800D01*
X130228700Y-70534800D02*
X145399000Y-70534800D01*
X145399000Y-70534800D02*
X146027600Y-71163400D01*
X146027600Y-71163400D02*
X147372600Y-69818400D01*
X147372600Y-69818400D02*
X156480900Y-69818400D01*
X156480900Y-69818400D02*
X159509700Y-72847200D01*
X160335000Y-72847200D02*
X159509700Y-72847200D01*
X146003000Y-72862200D02*
X146003000Y-71811900D01*
X127091000Y-72847200D02*
X127916300Y-72847200D01*
%TO.N,Net-(J2-PadB6)*%
X145166900Y-74415700D02*
X135184800Y-74415700D01*
X135184800Y-74415700D02*
X133616300Y-72847200D01*
X145503000Y-72862200D02*
X145503000Y-74079600D01*
X145503000Y-74079600D02*
X145166900Y-74415700D01*
X145166900Y-74415700D02*
X145166900Y-74595500D01*
X145166900Y-74595500D02*
X145227800Y-74656400D01*
X153985000Y-77292200D02*
X153159700Y-77292200D01*
X150766500Y-77413600D02*
X153038300Y-77413600D01*
X153038300Y-77413600D02*
X153159700Y-77292200D01*
X132791000Y-72847200D02*
X133616300Y-72847200D01*
%TO.N,Net-(J2-PadA8)*%
X137221000Y-72847200D02*
X137221000Y-73922500D01*
X145003000Y-72862200D02*
X145003000Y-73912500D01*
X145003000Y-73912500D02*
X144993000Y-73922500D01*
X144993000Y-73922500D02*
X137221000Y-73922500D01*
%TO.N,BTN4*%
X143853200Y-107814800D02*
X143853200Y-107418700D01*
X207826000Y-88773800D02*
X206725600Y-89874200D01*
X206725600Y-89874200D02*
X171772800Y-89874200D01*
X171772800Y-89874200D02*
X169113700Y-87215100D01*
X169113700Y-87215100D02*
X162947100Y-87215100D01*
X162947100Y-87215100D02*
X143853200Y-106309000D01*
X143853200Y-106309000D02*
X143853200Y-107418700D01*
X144649000Y-108610600D02*
X143853200Y-107814800D01*
%TO.N,BTN3*%
X168436000Y-88773800D02*
X165089700Y-92120100D01*
X165089700Y-92120100D02*
X159597300Y-92120100D01*
X159597300Y-92120100D02*
X145214700Y-106502700D01*
X145214700Y-106502700D02*
X145214700Y-108044900D01*
%TO.N,BTN2*%
X147265300Y-108044900D02*
X148061000Y-107249200D01*
X146526600Y-106216500D02*
X147265200Y-106955100D01*
X147265200Y-106955100D02*
X147265300Y-106955100D01*
X147265300Y-106955100D02*
X147269700Y-106959500D01*
X147269700Y-106959500D02*
X147771200Y-106959500D01*
X147771200Y-106959500D02*
X148061000Y-107249200D01*
%TO.N,BTN1*%
X147831000Y-108610600D02*
X146086800Y-110354800D01*
X146086800Y-110354800D02*
X145622700Y-110354800D01*
%TO.N,ENC4B*%
X150323700Y-117113000D02*
X150323700Y-118180200D01*
X150323700Y-118180200D02*
X144202600Y-124301300D01*
X144202600Y-124301300D02*
X120380200Y-124301300D01*
X120380200Y-124301300D02*
X119572300Y-123493400D01*
X119572300Y-123493400D02*
X119572300Y-123126000D01*
X150323700Y-116548100D02*
X150323700Y-117113000D01*
X150528700Y-117113000D02*
X150323700Y-117113000D01*
X118397000Y-123126000D02*
X119572300Y-123126000D01*
X149528000Y-115752400D02*
X150323700Y-116548100D01*
%TO.N,ENC4A*%
X117032300Y-123126000D02*
X117032300Y-122758500D01*
X117032300Y-122758500D02*
X117893400Y-121897400D01*
X117893400Y-121897400D02*
X130431100Y-121897400D01*
X130431100Y-121897400D02*
X131011000Y-122477300D01*
X131011000Y-122477300D02*
X145000800Y-122477300D01*
X145000800Y-122477300D02*
X145580700Y-121897400D01*
X149758100Y-117113700D02*
X149758100Y-117777200D01*
X149758100Y-117777200D02*
X145637900Y-121897400D01*
X145637900Y-121897400D02*
X145580700Y-121897400D01*
X148962400Y-116318000D02*
X149758100Y-117113700D01*
X115857000Y-123126000D02*
X117032300Y-123126000D01*
%TO.N,ENC3B*%
X147601000Y-116088000D02*
X147601000Y-115250800D01*
X147601000Y-115250800D02*
X148138100Y-114713700D01*
X148396700Y-116883700D02*
X147601000Y-116088000D01*
%TO.N,ENC3A*%
X111952300Y-123126000D02*
X111952300Y-122758600D01*
X111952300Y-122758600D02*
X113296300Y-121414600D01*
X113296300Y-121414600D02*
X130585200Y-121414600D01*
X130585200Y-121414600D02*
X131197600Y-122027000D01*
X131197600Y-122027000D02*
X144425400Y-122027000D01*
X144425400Y-122027000D02*
X145280300Y-121172100D01*
X145280300Y-121172100D02*
X145699900Y-121172100D01*
X145699900Y-121172100D02*
X148626800Y-118245200D01*
X110777000Y-123126000D02*
X111952300Y-123126000D01*
X147831000Y-117449400D02*
X148626800Y-118245200D01*
%TO.N,ENC2B*%
X109412300Y-123126000D02*
X109412300Y-122758700D01*
X109412300Y-122758700D02*
X111239300Y-120931700D01*
X111239300Y-120931700D02*
X130739200Y-120931700D01*
X130739200Y-120931700D02*
X131384200Y-121576700D01*
X131384200Y-121576700D02*
X143703700Y-121576700D01*
X143703700Y-121576700D02*
X147265300Y-118015100D01*
X108237000Y-123126000D02*
X109412300Y-123126000D01*
%TO.N,ENC2A*%
X124045000Y-103273800D02*
X125171200Y-102147600D01*
X141024800Y-115416800D02*
X141820600Y-114621000D01*
X135944500Y-110336500D02*
X141024800Y-115416800D01*
X139790002Y-106490998D02*
X135944500Y-110336500D01*
X139790002Y-105061998D02*
X139790002Y-106490998D01*
X139413002Y-104684998D02*
X139790002Y-105061998D01*
X138716998Y-104684998D02*
X139413002Y-104684998D01*
X138339998Y-105061998D02*
X138716998Y-104684998D01*
X138339998Y-105498592D02*
X138339998Y-105061998D01*
X135944500Y-107894090D02*
X138339998Y-105498592D01*
X135944500Y-107049400D02*
X135944500Y-107894090D01*
X125171200Y-102147600D02*
X131042700Y-102147600D01*
X131042700Y-102147600D02*
X135944500Y-107049400D01*
%TO.N,ENC1B*%
X138221500Y-111021900D02*
X141254900Y-114055300D01*
X140240013Y-109003387D02*
X138221500Y-111021900D01*
X140240013Y-104875598D02*
X140240013Y-109003387D01*
X131229200Y-101697200D02*
X136367090Y-106835090D01*
X139599402Y-104234987D02*
X140240013Y-104875598D01*
X138530598Y-104234987D02*
X139599402Y-104234987D01*
X137889987Y-104875598D02*
X138530598Y-104234987D01*
X137889987Y-105312193D02*
X137889987Y-104875598D01*
X136367090Y-106835090D02*
X137889987Y-105312193D01*
X91231600Y-101697200D02*
X131229200Y-101697200D01*
X89655000Y-103273800D02*
X91231600Y-101697200D01*
%TO.N,ENC1A*%
X139785802Y-103784976D02*
X138344198Y-103784976D01*
X137439976Y-104689198D02*
X137439976Y-105125794D01*
X131400300Y-101231400D02*
X86697400Y-101231400D01*
X141254900Y-112004700D02*
X140690024Y-111439824D01*
X138344198Y-103784976D02*
X137439976Y-104689198D01*
X86697400Y-101231400D02*
X84655000Y-103273800D01*
X137439976Y-105125794D02*
X136367335Y-106198435D01*
X136367335Y-106198435D02*
X131400300Y-101231400D01*
X140690024Y-111439824D02*
X140690024Y-104689198D01*
X140690024Y-104689198D02*
X139785802Y-103784976D01*
%TO.N,TX*%
X131701000Y-78680200D02*
X131506000Y-78485200D01*
X131506000Y-78485200D02*
X131506000Y-77292200D01*
X131491000Y-72847200D02*
X131491000Y-73922500D01*
X131506000Y-77292200D02*
X131506000Y-73937500D01*
X131506000Y-73937500D02*
X131491000Y-73922500D01*
X146054401Y-114206599D02*
X144282699Y-114206599D01*
X144282699Y-114206599D02*
X143525700Y-113449600D01*
X143525700Y-113449600D02*
X143525700Y-113144100D01*
X143525700Y-113144100D02*
X141140035Y-110758435D01*
X141140035Y-110758435D02*
X141140035Y-104502798D01*
X141140035Y-104502798D02*
X139972202Y-103334965D01*
X146454400Y-113806600D02*
X146054401Y-114206599D01*
X136495120Y-104479645D02*
X136495120Y-105045330D01*
X137639800Y-103334965D02*
X136495120Y-104479645D01*
X139972202Y-103334965D02*
X137639800Y-103334965D01*
%TO.N,RX*%
X125791000Y-77292200D02*
X125791000Y-72847200D01*
X140158602Y-102884954D02*
X135727954Y-102884954D01*
X141590046Y-104316398D02*
X140158602Y-102884954D01*
X135727954Y-102884954D02*
X125791000Y-92948000D01*
X141590046Y-110077046D02*
X141590046Y-104316398D01*
X143909100Y-112396100D02*
X141590046Y-110077046D01*
X125791000Y-92948000D02*
X125791000Y-77292200D01*
%TO.N,SDA*%
X144879000Y-109972000D02*
X144879000Y-112841000D01*
X144879000Y-112841000D02*
X144410900Y-113309100D01*
X144083300Y-109176300D02*
X144879000Y-109972000D01*
X155285000Y-78254900D02*
X143072300Y-90467600D01*
X143072300Y-90467600D02*
X143072300Y-108165300D01*
X143072300Y-108165300D02*
X144083300Y-109176300D01*
X155285000Y-77292200D02*
X155285000Y-78254900D01*
X155285000Y-72847200D02*
X155285000Y-73922500D01*
X155285000Y-73922500D02*
X155285000Y-76216900D01*
X155285000Y-77292200D02*
X155285000Y-76216900D01*
%TO.N,SCL*%
X142721900Y-108946300D02*
X142550300Y-108774700D01*
X142550300Y-108774700D02*
X142550300Y-81716000D01*
X142550300Y-81716000D02*
X153547100Y-70719200D01*
X153547100Y-70719200D02*
X154920600Y-70719200D01*
X154920600Y-70719200D02*
X156573500Y-72372100D01*
X156573500Y-72372100D02*
X156573500Y-75240800D01*
X156573500Y-75240800D02*
X159700200Y-78367500D01*
X159700200Y-78367500D02*
X161635000Y-78367500D01*
X143517600Y-109742000D02*
X142721900Y-108946300D01*
X161635000Y-77292200D02*
X161635000Y-78367500D01*
X161635000Y-73922500D02*
X161635000Y-77292200D01*
X162460300Y-72847200D02*
X165068400Y-70239100D01*
X165068400Y-70239100D02*
X207231400Y-70239100D01*
X207231400Y-70239100D02*
X208935100Y-71942800D01*
X208935100Y-71942800D02*
X208935100Y-90046800D01*
X208935100Y-90046800D02*
X193769000Y-105212900D01*
X193769000Y-105212900D02*
X193769000Y-121950700D01*
X161635000Y-72847200D02*
X161635000Y-73922500D01*
X161635000Y-72847200D02*
X162460300Y-72847200D01*
X193769000Y-123126000D02*
X193769000Y-121950700D01*
%TO.N,Net-(D2-Pad2)*%
X84314000Y-75755500D02*
X82351500Y-73793000D01*
X82351500Y-73793000D02*
X82351500Y-72453500D01*
%TO.N,LED*%
X82314000Y-75755500D02*
X83387600Y-76829100D01*
X83387600Y-76829100D02*
X83387600Y-110652400D01*
X83387600Y-110652400D02*
X97499400Y-124764200D01*
X97499400Y-124764200D02*
X144376600Y-124764200D01*
X144376600Y-124764200D02*
X151254000Y-117886800D01*
X151254000Y-117886800D02*
X151254000Y-116347000D01*
X151254000Y-116347000D02*
X150889400Y-115982400D01*
X150093700Y-115186700D02*
X150889400Y-115982400D01*
%TD*%
D26*
%TO.N,GND*%
X210540536Y-65755561D02*
X210175561Y-66301785D01*
X209924162Y-66908716D01*
X209796000Y-67553031D01*
X209796000Y-68209969D01*
X209924162Y-68854284D01*
X210175561Y-69461215D01*
X210540536Y-70007439D01*
X211005061Y-70471964D01*
X211551285Y-70836939D01*
X212158216Y-71088338D01*
X212802531Y-71216500D01*
X213459469Y-71216500D01*
X214103784Y-71088338D01*
X214710715Y-70836939D01*
X215256939Y-70471964D01*
X215582500Y-70146403D01*
X215582501Y-121369098D01*
X215256939Y-121043536D01*
X214710715Y-120678561D01*
X214103784Y-120427162D01*
X213459469Y-120299000D01*
X212802531Y-120299000D01*
X212158216Y-120427162D01*
X211551285Y-120678561D01*
X211005061Y-121043536D01*
X210540536Y-121508061D01*
X210175561Y-122054285D01*
X209924162Y-122661216D01*
X209796000Y-123305531D01*
X209796000Y-123962469D01*
X209924162Y-124606784D01*
X210175561Y-125213715D01*
X210540536Y-125759939D01*
X210898097Y-126117500D01*
X81646903Y-126117500D01*
X81940464Y-125823939D01*
X82305439Y-125277715D01*
X82556838Y-124670784D01*
X82685000Y-124026469D01*
X82685000Y-123369531D01*
X82556838Y-122725216D01*
X82305439Y-122118285D01*
X81940464Y-121572061D01*
X81475939Y-121107536D01*
X80929715Y-120742561D01*
X80322784Y-120491162D01*
X79678469Y-120363000D01*
X79021531Y-120363000D01*
X78377216Y-120491162D01*
X77770285Y-120742561D01*
X77224061Y-121107536D01*
X76898500Y-121433097D01*
X76898500Y-94473800D01*
X79716927Y-94473800D01*
X79716927Y-97073800D01*
X79752245Y-97432390D01*
X79856842Y-97777200D01*
X80026698Y-98094978D01*
X80255286Y-98373513D01*
X80533821Y-98602101D01*
X80851599Y-98771957D01*
X81196409Y-98876554D01*
X81554999Y-98911872D01*
X81555001Y-98911872D01*
X81913591Y-98876554D01*
X82258401Y-98771957D01*
X82576179Y-98602101D01*
X82627601Y-98559900D01*
X82627601Y-110615067D01*
X82623924Y-110652400D01*
X82627601Y-110689733D01*
X82638598Y-110801386D01*
X82639649Y-110804850D01*
X82682054Y-110944646D01*
X82752626Y-111076676D01*
X82823801Y-111163402D01*
X82847600Y-111192401D01*
X82876598Y-111216199D01*
X96935601Y-125275203D01*
X96959399Y-125304201D01*
X96988397Y-125327999D01*
X97075123Y-125399174D01*
X97207153Y-125469746D01*
X97350414Y-125513203D01*
X97462067Y-125524200D01*
X97462077Y-125524200D01*
X97499400Y-125527876D01*
X97536723Y-125524200D01*
X144339278Y-125524200D01*
X144376600Y-125527876D01*
X144413922Y-125524200D01*
X144413933Y-125524200D01*
X144525586Y-125513203D01*
X144668847Y-125469746D01*
X144800876Y-125399174D01*
X144916601Y-125304201D01*
X144940404Y-125275197D01*
X146239601Y-123976000D01*
X162341928Y-123976000D01*
X162354188Y-124100482D01*
X162390498Y-124220180D01*
X162449463Y-124330494D01*
X162528815Y-124427185D01*
X162625506Y-124506537D01*
X162735820Y-124565502D01*
X162855518Y-124601812D01*
X162980000Y-124614072D01*
X163544250Y-124611000D01*
X163703000Y-124452250D01*
X163703000Y-123253000D01*
X162503750Y-123253000D01*
X162345000Y-123411750D01*
X162341928Y-123976000D01*
X146239601Y-123976000D01*
X151765004Y-118450598D01*
X151794001Y-118426801D01*
X151888974Y-118311076D01*
X151959546Y-118179047D01*
X152003003Y-118035786D01*
X152014000Y-117924133D01*
X152014000Y-117924124D01*
X152017676Y-117886801D01*
X152014000Y-117849478D01*
X152014000Y-117050402D01*
X152545201Y-117581603D01*
X152568999Y-117610601D01*
X152655269Y-117681401D01*
X152684724Y-117705574D01*
X152816753Y-117776146D01*
X152960014Y-117819603D01*
X153109000Y-117834277D01*
X153146333Y-117830600D01*
X186222278Y-117830600D01*
X186259600Y-117834276D01*
X186296922Y-117830600D01*
X186296933Y-117830600D01*
X186408586Y-117819603D01*
X186551847Y-117776146D01*
X186683876Y-117705574D01*
X186799601Y-117610601D01*
X186823404Y-117581598D01*
X188950663Y-115454340D01*
X189184148Y-115610350D01*
X187311403Y-117483096D01*
X187282399Y-117506899D01*
X187258601Y-117535897D01*
X186364499Y-118430000D01*
X161056527Y-118430000D01*
X161047472Y-118400149D01*
X160965405Y-118246613D01*
X160854962Y-118112038D01*
X160720387Y-118001595D01*
X160566851Y-117919528D01*
X160400255Y-117868992D01*
X160227001Y-117851928D01*
X159526999Y-117851928D01*
X159353745Y-117868992D01*
X159187149Y-117919528D01*
X159033613Y-118001595D01*
X158899038Y-118112038D01*
X158877000Y-118138891D01*
X158854962Y-118112038D01*
X158720387Y-118001595D01*
X158566851Y-117919528D01*
X158400255Y-117868992D01*
X158227001Y-117851928D01*
X157526999Y-117851928D01*
X157353745Y-117868992D01*
X157187149Y-117919528D01*
X157033613Y-118001595D01*
X156899038Y-118112038D01*
X156788595Y-118246613D01*
X156706528Y-118400149D01*
X156655992Y-118566745D01*
X156638928Y-118739999D01*
X156638928Y-119640001D01*
X156655992Y-119813255D01*
X156706528Y-119979851D01*
X156788595Y-120133387D01*
X156899038Y-120267962D01*
X157033613Y-120378405D01*
X157187149Y-120460472D01*
X157353745Y-120511008D01*
X157526999Y-120528072D01*
X158140270Y-120528072D01*
X160073905Y-122461708D01*
X160097699Y-122490701D01*
X160126692Y-122514495D01*
X160126696Y-122514499D01*
X160190670Y-122567000D01*
X160213424Y-122585674D01*
X160345453Y-122656246D01*
X160488714Y-122699703D01*
X160600367Y-122710700D01*
X160600376Y-122710700D01*
X160637699Y-122714376D01*
X160675022Y-122710700D01*
X162344295Y-122710700D01*
X162345000Y-122840250D01*
X162503750Y-122999000D01*
X163703000Y-122999000D01*
X163703000Y-122979000D01*
X163957000Y-122979000D01*
X163957000Y-122999000D01*
X163977000Y-122999000D01*
X163977000Y-123253000D01*
X163957000Y-123253000D01*
X163957000Y-124452250D01*
X164115750Y-124611000D01*
X164680000Y-124614072D01*
X164804482Y-124601812D01*
X164924180Y-124565502D01*
X165034494Y-124506537D01*
X165131185Y-124427185D01*
X165210537Y-124330494D01*
X165269502Y-124220180D01*
X165291513Y-124147620D01*
X165423368Y-124279475D01*
X165666589Y-124441990D01*
X165936842Y-124553932D01*
X166223740Y-124611000D01*
X166516260Y-124611000D01*
X166803158Y-124553932D01*
X167073411Y-124441990D01*
X167316632Y-124279475D01*
X167523475Y-124072632D01*
X167640000Y-123898240D01*
X167756525Y-124072632D01*
X167963368Y-124279475D01*
X168206589Y-124441990D01*
X168476842Y-124553932D01*
X168763740Y-124611000D01*
X169056260Y-124611000D01*
X169343158Y-124553932D01*
X169613411Y-124441990D01*
X169856632Y-124279475D01*
X170063475Y-124072632D01*
X170180000Y-123898240D01*
X170296525Y-124072632D01*
X170503368Y-124279475D01*
X170746589Y-124441990D01*
X171016842Y-124553932D01*
X171303740Y-124611000D01*
X171596260Y-124611000D01*
X171883158Y-124553932D01*
X172153411Y-124441990D01*
X172396632Y-124279475D01*
X172603475Y-124072632D01*
X172668042Y-123976000D01*
X187200928Y-123976000D01*
X187213188Y-124100482D01*
X187249498Y-124220180D01*
X187308463Y-124330494D01*
X187387815Y-124427185D01*
X187484506Y-124506537D01*
X187594820Y-124565502D01*
X187714518Y-124601812D01*
X187839000Y-124614072D01*
X188403250Y-124611000D01*
X188562000Y-124452250D01*
X188562000Y-123253000D01*
X187362750Y-123253000D01*
X187204000Y-123411750D01*
X187200928Y-123976000D01*
X172668042Y-123976000D01*
X172765990Y-123829411D01*
X172877932Y-123559158D01*
X172935000Y-123272260D01*
X172935000Y-122979740D01*
X172877932Y-122692842D01*
X172765990Y-122422589D01*
X172668043Y-122276000D01*
X187200928Y-122276000D01*
X187204000Y-122840250D01*
X187362750Y-122999000D01*
X188562000Y-122999000D01*
X188562000Y-121799750D01*
X188403250Y-121641000D01*
X187839000Y-121637928D01*
X187714518Y-121650188D01*
X187594820Y-121686498D01*
X187484506Y-121745463D01*
X187387815Y-121824815D01*
X187308463Y-121921506D01*
X187249498Y-122031820D01*
X187213188Y-122151518D01*
X187200928Y-122276000D01*
X172668043Y-122276000D01*
X172603475Y-122179368D01*
X172396632Y-121972525D01*
X172153411Y-121810010D01*
X171883158Y-121698068D01*
X171596260Y-121641000D01*
X171303740Y-121641000D01*
X171016842Y-121698068D01*
X170746589Y-121810010D01*
X170539371Y-121948469D01*
X170030603Y-121439702D01*
X170006801Y-121410699D01*
X169891076Y-121315726D01*
X169759047Y-121245154D01*
X169615786Y-121201697D01*
X169504133Y-121190700D01*
X169504122Y-121190700D01*
X169466800Y-121187024D01*
X169429478Y-121190700D01*
X160952503Y-121190700D01*
X160284237Y-120522435D01*
X160400255Y-120511008D01*
X160566851Y-120460472D01*
X160720387Y-120378405D01*
X160854962Y-120267962D01*
X160965405Y-120133387D01*
X161047472Y-119979851D01*
X161056527Y-119950000D01*
X186641978Y-119950000D01*
X186679300Y-119953676D01*
X186716622Y-119950000D01*
X186716633Y-119950000D01*
X186828286Y-119939003D01*
X186971547Y-119895546D01*
X187103576Y-119824974D01*
X187219301Y-119730001D01*
X187243104Y-119700998D01*
X187822400Y-119121701D01*
X190516669Y-121815970D01*
X190282368Y-121972525D01*
X190150513Y-122104380D01*
X190128502Y-122031820D01*
X190069537Y-121921506D01*
X189990185Y-121824815D01*
X189893494Y-121745463D01*
X189783180Y-121686498D01*
X189663482Y-121650188D01*
X189539000Y-121637928D01*
X188974750Y-121641000D01*
X188816000Y-121799750D01*
X188816000Y-122999000D01*
X188836000Y-122999000D01*
X188836000Y-123253000D01*
X188816000Y-123253000D01*
X188816000Y-124452250D01*
X188974750Y-124611000D01*
X189539000Y-124614072D01*
X189663482Y-124601812D01*
X189783180Y-124565502D01*
X189893494Y-124506537D01*
X189990185Y-124427185D01*
X190069537Y-124330494D01*
X190128502Y-124220180D01*
X190150513Y-124147620D01*
X190282368Y-124279475D01*
X190525589Y-124441990D01*
X190795842Y-124553932D01*
X191082740Y-124611000D01*
X191375260Y-124611000D01*
X191662158Y-124553932D01*
X191932411Y-124441990D01*
X192175632Y-124279475D01*
X192180053Y-124275054D01*
X192724401Y-124819402D01*
X192748199Y-124848401D01*
X192863924Y-124943374D01*
X192995953Y-125013946D01*
X193139214Y-125057403D01*
X193250867Y-125068400D01*
X193250876Y-125068400D01*
X193288199Y-125072076D01*
X193325522Y-125068400D01*
X194219178Y-125068400D01*
X194256500Y-125072076D01*
X194293822Y-125068400D01*
X194293833Y-125068400D01*
X194405486Y-125057403D01*
X194548747Y-125013946D01*
X194680776Y-124943374D01*
X194796501Y-124848401D01*
X194820303Y-124819398D01*
X195361297Y-124278404D01*
X195362368Y-124279475D01*
X195605589Y-124441990D01*
X195875842Y-124553932D01*
X196162740Y-124611000D01*
X196455260Y-124611000D01*
X196742158Y-124553932D01*
X197012411Y-124441990D01*
X197255632Y-124279475D01*
X197462475Y-124072632D01*
X197624990Y-123829411D01*
X197736932Y-123559158D01*
X197794000Y-123272260D01*
X197794000Y-122979740D01*
X197736932Y-122692842D01*
X197624990Y-122422589D01*
X197462475Y-122179368D01*
X197255632Y-121972525D01*
X197012411Y-121810010D01*
X196742158Y-121698068D01*
X196455260Y-121641000D01*
X196162740Y-121641000D01*
X195875842Y-121698068D01*
X195605589Y-121810010D01*
X195362368Y-121972525D01*
X195155525Y-122179368D01*
X195039000Y-122353760D01*
X194922475Y-122179368D01*
X194715632Y-121972525D01*
X194529000Y-121847822D01*
X194529000Y-105527701D01*
X196921774Y-103134927D01*
X201416000Y-103134927D01*
X201416000Y-103412673D01*
X201470186Y-103685082D01*
X201576475Y-103941685D01*
X201730782Y-104172622D01*
X201927178Y-104369018D01*
X202158115Y-104523325D01*
X202414718Y-104629614D01*
X202687127Y-104683800D01*
X202964873Y-104683800D01*
X203237282Y-104629614D01*
X203493885Y-104523325D01*
X203724822Y-104369018D01*
X203845191Y-104248649D01*
X204530756Y-104248649D01*
X204599310Y-104490068D01*
X204850556Y-104608468D01*
X205120071Y-104675578D01*
X205397502Y-104688818D01*
X205672184Y-104647679D01*
X205933562Y-104553743D01*
X206052690Y-104490068D01*
X206121244Y-104248649D01*
X205326000Y-103453405D01*
X204530756Y-104248649D01*
X203845191Y-104248649D01*
X203921218Y-104172622D01*
X204075525Y-103941685D01*
X204076737Y-103938760D01*
X204109732Y-104000490D01*
X204351151Y-104069044D01*
X205146395Y-103273800D01*
X205505605Y-103273800D01*
X206300849Y-104069044D01*
X206542268Y-104000490D01*
X206573437Y-103934350D01*
X206576475Y-103941685D01*
X206730782Y-104172622D01*
X206927178Y-104369018D01*
X207158115Y-104523325D01*
X207414718Y-104629614D01*
X207687127Y-104683800D01*
X207964873Y-104683800D01*
X208237282Y-104629614D01*
X208493885Y-104523325D01*
X208724822Y-104369018D01*
X208921218Y-104172622D01*
X209075525Y-103941685D01*
X209181814Y-103685082D01*
X209236000Y-103412673D01*
X209236000Y-103134927D01*
X209181814Y-102862518D01*
X209075525Y-102605915D01*
X208921218Y-102374978D01*
X208724822Y-102178582D01*
X208493885Y-102024275D01*
X208237282Y-101917986D01*
X207964873Y-101863800D01*
X207687127Y-101863800D01*
X207414718Y-101917986D01*
X207158115Y-102024275D01*
X206927178Y-102178582D01*
X206730782Y-102374978D01*
X206576475Y-102605915D01*
X206575263Y-102608840D01*
X206542268Y-102547110D01*
X206300849Y-102478556D01*
X205505605Y-103273800D01*
X205146395Y-103273800D01*
X204351151Y-102478556D01*
X204109732Y-102547110D01*
X204078563Y-102613250D01*
X204075525Y-102605915D01*
X203921218Y-102374978D01*
X203845191Y-102298951D01*
X204530756Y-102298951D01*
X205326000Y-103094195D01*
X206121244Y-102298951D01*
X206052690Y-102057532D01*
X205801444Y-101939132D01*
X205531929Y-101872022D01*
X205254498Y-101858782D01*
X204979816Y-101899921D01*
X204718438Y-101993857D01*
X204599310Y-102057532D01*
X204530756Y-102298951D01*
X203845191Y-102298951D01*
X203724822Y-102178582D01*
X203493885Y-102024275D01*
X203237282Y-101917986D01*
X202964873Y-101863800D01*
X202687127Y-101863800D01*
X202414718Y-101917986D01*
X202158115Y-102024275D01*
X201927178Y-102178582D01*
X201730782Y-102374978D01*
X201576475Y-102605915D01*
X201470186Y-102862518D01*
X201416000Y-103134927D01*
X196921774Y-103134927D01*
X205582901Y-94473800D01*
X209087927Y-94473800D01*
X209087927Y-97073800D01*
X209123245Y-97432390D01*
X209227842Y-97777200D01*
X209397698Y-98094978D01*
X209626286Y-98373513D01*
X209904821Y-98602101D01*
X210222599Y-98771957D01*
X210567409Y-98876554D01*
X210925999Y-98911872D01*
X210926001Y-98911872D01*
X211284591Y-98876554D01*
X211629401Y-98771957D01*
X211947179Y-98602101D01*
X212225714Y-98373513D01*
X212454302Y-98094978D01*
X212624158Y-97777200D01*
X212728755Y-97432390D01*
X212764073Y-97073800D01*
X212764073Y-94473800D01*
X212728755Y-94115210D01*
X212624158Y-93770400D01*
X212454302Y-93452622D01*
X212225714Y-93174087D01*
X211947179Y-92945499D01*
X211629401Y-92775643D01*
X211284591Y-92671046D01*
X210926001Y-92635728D01*
X210925999Y-92635728D01*
X210567409Y-92671046D01*
X210222599Y-92775643D01*
X209904821Y-92945499D01*
X209626286Y-93174087D01*
X209397698Y-93452622D01*
X209227842Y-93770400D01*
X209123245Y-94115210D01*
X209087927Y-94473800D01*
X205582901Y-94473800D01*
X209446103Y-90610599D01*
X209475101Y-90586801D01*
X209570074Y-90471076D01*
X209640646Y-90339047D01*
X209684103Y-90195786D01*
X209695100Y-90084133D01*
X209695100Y-90084124D01*
X209698776Y-90046801D01*
X209695100Y-90009478D01*
X209695100Y-71980125D01*
X209698776Y-71942800D01*
X209695100Y-71905475D01*
X209695100Y-71905467D01*
X209684103Y-71793814D01*
X209640646Y-71650553D01*
X209570074Y-71518524D01*
X209475101Y-71402799D01*
X209446104Y-71379002D01*
X207795204Y-69728103D01*
X207771401Y-69699099D01*
X207655676Y-69604126D01*
X207523647Y-69533554D01*
X207380386Y-69490097D01*
X207268733Y-69479100D01*
X207268722Y-69479100D01*
X207231400Y-69475424D01*
X207194078Y-69479100D01*
X165105722Y-69479100D01*
X165068399Y-69475424D01*
X165031076Y-69479100D01*
X165031067Y-69479100D01*
X164919414Y-69490097D01*
X164776153Y-69533554D01*
X164644124Y-69604126D01*
X164644122Y-69604127D01*
X164644123Y-69604127D01*
X164557396Y-69675301D01*
X164557392Y-69675305D01*
X164528399Y-69699099D01*
X164504605Y-69728092D01*
X162586410Y-71646289D01*
X162586185Y-71646015D01*
X162489494Y-71566663D01*
X162379180Y-71507698D01*
X162259482Y-71471388D01*
X162135000Y-71459128D01*
X161135000Y-71459128D01*
X161010518Y-71471388D01*
X160985000Y-71479129D01*
X160959482Y-71471388D01*
X160835000Y-71459128D01*
X159835000Y-71459128D01*
X159710518Y-71471388D01*
X159590820Y-71507698D01*
X159480506Y-71566663D01*
X159383815Y-71646015D01*
X159383590Y-71646289D01*
X157044704Y-69307403D01*
X157020901Y-69278399D01*
X156905176Y-69183426D01*
X156773147Y-69112854D01*
X156629886Y-69069397D01*
X156518233Y-69058400D01*
X156518222Y-69058400D01*
X156480900Y-69054724D01*
X156443578Y-69058400D01*
X151450451Y-69058400D01*
X151466947Y-69042259D01*
X151596099Y-68853446D01*
X151685934Y-68643065D01*
X151733000Y-68419200D01*
X151733000Y-67894200D01*
X150700000Y-67894200D01*
X150700000Y-67914200D01*
X150446000Y-67914200D01*
X150446000Y-67894200D01*
X149413000Y-67894200D01*
X149413000Y-68419200D01*
X149460066Y-68643065D01*
X149549901Y-68853446D01*
X149679053Y-69042259D01*
X149695549Y-69058400D01*
X147409922Y-69058400D01*
X147372599Y-69054724D01*
X147335276Y-69058400D01*
X147335267Y-69058400D01*
X147223614Y-69069397D01*
X147080353Y-69112854D01*
X146948324Y-69183426D01*
X146832599Y-69278399D01*
X146808801Y-69307397D01*
X146027600Y-70088599D01*
X145962803Y-70023802D01*
X145939001Y-69994799D01*
X145823276Y-69899826D01*
X145691247Y-69829254D01*
X145547986Y-69785797D01*
X145436333Y-69774800D01*
X145436322Y-69774800D01*
X145399000Y-69771124D01*
X145361678Y-69774800D01*
X130266022Y-69774800D01*
X130228699Y-69771124D01*
X130191376Y-69774800D01*
X130191367Y-69774800D01*
X130079714Y-69785797D01*
X129936453Y-69829254D01*
X129804424Y-69899826D01*
X129804422Y-69899827D01*
X129804423Y-69899827D01*
X129717696Y-69971001D01*
X129717692Y-69971005D01*
X129688699Y-69994799D01*
X129664905Y-70023792D01*
X128042410Y-71646289D01*
X128042185Y-71646015D01*
X127945494Y-71566663D01*
X127835180Y-71507698D01*
X127715482Y-71471388D01*
X127591000Y-71459128D01*
X126591000Y-71459128D01*
X126466518Y-71471388D01*
X126441000Y-71479129D01*
X126415482Y-71471388D01*
X126291000Y-71459128D01*
X125291000Y-71459128D01*
X125166518Y-71471388D01*
X125046820Y-71507698D01*
X124936506Y-71566663D01*
X124839815Y-71646015D01*
X124760463Y-71742706D01*
X124701498Y-71853020D01*
X124665188Y-71972718D01*
X124652928Y-72097200D01*
X124652928Y-73597200D01*
X124665188Y-73721682D01*
X124701498Y-73841380D01*
X124760463Y-73951694D01*
X124839815Y-74048385D01*
X124936506Y-74127737D01*
X125031001Y-74178246D01*
X125031000Y-75961154D01*
X124936506Y-76011663D01*
X124839815Y-76091015D01*
X124760463Y-76187706D01*
X124701498Y-76298020D01*
X124665188Y-76417718D01*
X124652928Y-76542200D01*
X124652928Y-78042200D01*
X124665188Y-78166682D01*
X124701498Y-78286380D01*
X124760463Y-78396694D01*
X124839815Y-78493385D01*
X124936506Y-78572737D01*
X125031001Y-78623246D01*
X125031000Y-87399233D01*
X124944482Y-87372988D01*
X124820000Y-87360728D01*
X124330750Y-87363800D01*
X124172000Y-87522550D01*
X124172000Y-88646800D01*
X124192000Y-88646800D01*
X124192000Y-88900800D01*
X124172000Y-88900800D01*
X124172000Y-90025050D01*
X124330750Y-90183800D01*
X124820000Y-90186872D01*
X124944482Y-90174612D01*
X125031000Y-90148367D01*
X125031000Y-92910678D01*
X125027324Y-92948000D01*
X125031000Y-92985322D01*
X125031000Y-92985332D01*
X125041997Y-93096985D01*
X125085454Y-93240246D01*
X125156026Y-93372276D01*
X125195871Y-93420826D01*
X125250999Y-93488001D01*
X125280003Y-93511804D01*
X135164154Y-103395956D01*
X135187953Y-103424955D01*
X135216951Y-103448753D01*
X135303677Y-103519928D01*
X135365028Y-103552721D01*
X135435707Y-103590500D01*
X135578968Y-103633957D01*
X135690621Y-103644954D01*
X135690630Y-103644954D01*
X135727953Y-103648630D01*
X135765276Y-103644954D01*
X136255010Y-103644954D01*
X135984122Y-103915841D01*
X135955119Y-103939644D01*
X135899991Y-104006819D01*
X135860146Y-104055369D01*
X135829918Y-104111921D01*
X135789574Y-104187399D01*
X135746134Y-104330605D01*
X135691183Y-104385556D01*
X135666379Y-104422678D01*
X131964104Y-100720403D01*
X131940301Y-100691399D01*
X131824576Y-100596426D01*
X131692547Y-100525854D01*
X131549286Y-100482397D01*
X131437633Y-100471400D01*
X131437622Y-100471400D01*
X131400300Y-100467724D01*
X131362978Y-100471400D01*
X86734725Y-100471400D01*
X86697400Y-100467724D01*
X86660075Y-100471400D01*
X86660067Y-100471400D01*
X86548414Y-100482397D01*
X86405153Y-100525854D01*
X86273124Y-100596426D01*
X86157399Y-100691399D01*
X86133601Y-100720397D01*
X84957626Y-101896373D01*
X84793873Y-101863800D01*
X84516127Y-101863800D01*
X84243718Y-101917986D01*
X84147600Y-101957800D01*
X84147600Y-94473800D01*
X90916927Y-94473800D01*
X90916927Y-97073800D01*
X90952245Y-97432390D01*
X91056842Y-97777200D01*
X91226698Y-98094978D01*
X91455286Y-98373513D01*
X91733821Y-98602101D01*
X92051599Y-98771957D01*
X92396409Y-98876554D01*
X92754999Y-98911872D01*
X92755001Y-98911872D01*
X93113591Y-98876554D01*
X93458401Y-98771957D01*
X93776179Y-98602101D01*
X94054714Y-98373513D01*
X94283302Y-98094978D01*
X94453158Y-97777200D01*
X94557755Y-97432390D01*
X94593073Y-97073800D01*
X94593073Y-94473800D01*
X119106927Y-94473800D01*
X119106927Y-97073800D01*
X119142245Y-97432390D01*
X119246842Y-97777200D01*
X119416698Y-98094978D01*
X119645286Y-98373513D01*
X119923821Y-98602101D01*
X120241599Y-98771957D01*
X120586409Y-98876554D01*
X120944999Y-98911872D01*
X120945001Y-98911872D01*
X121303591Y-98876554D01*
X121648401Y-98771957D01*
X121966179Y-98602101D01*
X122244714Y-98373513D01*
X122473302Y-98094978D01*
X122643158Y-97777200D01*
X122747755Y-97432390D01*
X122783073Y-97073800D01*
X122783073Y-94473800D01*
X122747755Y-94115210D01*
X122643158Y-93770400D01*
X122473302Y-93452622D01*
X122244714Y-93174087D01*
X121966179Y-92945499D01*
X121648401Y-92775643D01*
X121303591Y-92671046D01*
X120945001Y-92635728D01*
X120944999Y-92635728D01*
X120586409Y-92671046D01*
X120241599Y-92775643D01*
X119923821Y-92945499D01*
X119645286Y-93174087D01*
X119416698Y-93452622D01*
X119246842Y-93770400D01*
X119142245Y-94115210D01*
X119106927Y-94473800D01*
X94593073Y-94473800D01*
X94557755Y-94115210D01*
X94453158Y-93770400D01*
X94283302Y-93452622D01*
X94054714Y-93174087D01*
X93776179Y-92945499D01*
X93458401Y-92775643D01*
X93113591Y-92671046D01*
X92755001Y-92635728D01*
X92754999Y-92635728D01*
X92396409Y-92671046D01*
X92051599Y-92775643D01*
X91733821Y-92945499D01*
X91455286Y-93174087D01*
X91226698Y-93452622D01*
X91056842Y-93770400D01*
X90952245Y-94115210D01*
X90916927Y-94473800D01*
X84147600Y-94473800D01*
X84147600Y-90185192D01*
X84369250Y-90183800D01*
X84528000Y-90025050D01*
X84528000Y-88900800D01*
X84782000Y-88900800D01*
X84782000Y-90025050D01*
X84940750Y-90183800D01*
X85430000Y-90186872D01*
X85554482Y-90174612D01*
X85674180Y-90138302D01*
X85784494Y-90079337D01*
X85881185Y-89999985D01*
X85960537Y-89903294D01*
X86019502Y-89792980D01*
X86055812Y-89673282D01*
X86068072Y-89548800D01*
X86065000Y-89059550D01*
X85906250Y-88900800D01*
X84782000Y-88900800D01*
X84528000Y-88900800D01*
X84508000Y-88900800D01*
X84508000Y-88646800D01*
X84528000Y-88646800D01*
X84528000Y-87522550D01*
X84782000Y-87522550D01*
X84782000Y-88646800D01*
X85906250Y-88646800D01*
X85918123Y-88634927D01*
X88245000Y-88634927D01*
X88245000Y-88912673D01*
X88299186Y-89185082D01*
X88405475Y-89441685D01*
X88559782Y-89672622D01*
X88756178Y-89869018D01*
X88987115Y-90023325D01*
X89243718Y-90129614D01*
X89516127Y-90183800D01*
X89793873Y-90183800D01*
X90066282Y-90129614D01*
X90322885Y-90023325D01*
X90553822Y-89869018D01*
X90750218Y-89672622D01*
X90832953Y-89548800D01*
X122631928Y-89548800D01*
X122644188Y-89673282D01*
X122680498Y-89792980D01*
X122739463Y-89903294D01*
X122818815Y-89999985D01*
X122915506Y-90079337D01*
X123025820Y-90138302D01*
X123145518Y-90174612D01*
X123270000Y-90186872D01*
X123759250Y-90183800D01*
X123918000Y-90025050D01*
X123918000Y-88900800D01*
X122793750Y-88900800D01*
X122635000Y-89059550D01*
X122631928Y-89548800D01*
X90832953Y-89548800D01*
X90904525Y-89441685D01*
X91010814Y-89185082D01*
X91065000Y-88912673D01*
X91065000Y-88634927D01*
X91010814Y-88362518D01*
X90904525Y-88105915D01*
X90832954Y-87998800D01*
X122631928Y-87998800D01*
X122635000Y-88488050D01*
X122793750Y-88646800D01*
X123918000Y-88646800D01*
X123918000Y-87522550D01*
X123759250Y-87363800D01*
X123270000Y-87360728D01*
X123145518Y-87372988D01*
X123025820Y-87409298D01*
X122915506Y-87468263D01*
X122818815Y-87547615D01*
X122739463Y-87644306D01*
X122680498Y-87754620D01*
X122644188Y-87874318D01*
X122631928Y-87998800D01*
X90832954Y-87998800D01*
X90750218Y-87874978D01*
X90553822Y-87678582D01*
X90322885Y-87524275D01*
X90066282Y-87417986D01*
X89793873Y-87363800D01*
X89516127Y-87363800D01*
X89243718Y-87417986D01*
X88987115Y-87524275D01*
X88756178Y-87678582D01*
X88559782Y-87874978D01*
X88405475Y-88105915D01*
X88299186Y-88362518D01*
X88245000Y-88634927D01*
X85918123Y-88634927D01*
X86065000Y-88488050D01*
X86068072Y-87998800D01*
X86055812Y-87874318D01*
X86019502Y-87754620D01*
X85960537Y-87644306D01*
X85881185Y-87547615D01*
X85784494Y-87468263D01*
X85674180Y-87409298D01*
X85554482Y-87372988D01*
X85430000Y-87360728D01*
X84940750Y-87363800D01*
X84782000Y-87522550D01*
X84528000Y-87522550D01*
X84369250Y-87363800D01*
X84147600Y-87362408D01*
X84147600Y-77093572D01*
X84664001Y-77093572D01*
X84837255Y-77076508D01*
X85003851Y-77025972D01*
X85157387Y-76943905D01*
X85291962Y-76833462D01*
X85402405Y-76698887D01*
X85484472Y-76545351D01*
X85535008Y-76378755D01*
X85552072Y-76205501D01*
X85552072Y-75305499D01*
X85535008Y-75132245D01*
X85484472Y-74965649D01*
X85402405Y-74812113D01*
X85291962Y-74677538D01*
X85157387Y-74567095D01*
X85003851Y-74485028D01*
X84837255Y-74434492D01*
X84664001Y-74417428D01*
X84050730Y-74417428D01*
X83276332Y-73643031D01*
X83369820Y-73693002D01*
X83489518Y-73729312D01*
X83614000Y-73741572D01*
X83990750Y-73738500D01*
X84149500Y-73579750D01*
X84149500Y-72580500D01*
X84403500Y-72580500D01*
X84403500Y-73579750D01*
X84562250Y-73738500D01*
X84939000Y-73741572D01*
X85063482Y-73729312D01*
X85183180Y-73693002D01*
X85293494Y-73634037D01*
X85390185Y-73554685D01*
X85469537Y-73457994D01*
X85528502Y-73347680D01*
X85564812Y-73227982D01*
X85577072Y-73103500D01*
X85574000Y-72739250D01*
X85415250Y-72580500D01*
X84403500Y-72580500D01*
X84149500Y-72580500D01*
X84129500Y-72580500D01*
X84129500Y-72326500D01*
X84149500Y-72326500D01*
X84149500Y-71327250D01*
X84403500Y-71327250D01*
X84403500Y-72326500D01*
X85415250Y-72326500D01*
X85574000Y-72167750D01*
X85577072Y-71803500D01*
X85564812Y-71679018D01*
X85528502Y-71559320D01*
X85469537Y-71449006D01*
X85390185Y-71352315D01*
X85293494Y-71272963D01*
X85183180Y-71213998D01*
X85063482Y-71177688D01*
X84939000Y-71165428D01*
X84562250Y-71168500D01*
X84403500Y-71327250D01*
X84149500Y-71327250D01*
X83990750Y-71168500D01*
X83614000Y-71165428D01*
X83489518Y-71177688D01*
X83369820Y-71213998D01*
X83259506Y-71272963D01*
X83227580Y-71299164D01*
X83103850Y-71233028D01*
X82937254Y-71182492D01*
X82764000Y-71165428D01*
X81939000Y-71165428D01*
X81765746Y-71182492D01*
X81599150Y-71233028D01*
X81445614Y-71315095D01*
X81311038Y-71425538D01*
X81200595Y-71560114D01*
X81118528Y-71713650D01*
X81067992Y-71880246D01*
X81050928Y-72053500D01*
X81050928Y-72853500D01*
X81067992Y-73026754D01*
X81118528Y-73193350D01*
X81200595Y-73346886D01*
X81311038Y-73481462D01*
X81445614Y-73591905D01*
X81591500Y-73669883D01*
X81591500Y-73755677D01*
X81587824Y-73793000D01*
X81591500Y-73830322D01*
X81591500Y-73830332D01*
X81602497Y-73941985D01*
X81640821Y-74068324D01*
X81645954Y-74085246D01*
X81716526Y-74217276D01*
X81751339Y-74259695D01*
X81811499Y-74333001D01*
X81840503Y-74356804D01*
X81906764Y-74423065D01*
X81790745Y-74434492D01*
X81624149Y-74485028D01*
X81470613Y-74567095D01*
X81336038Y-74677538D01*
X81225595Y-74812113D01*
X81143528Y-74965649D01*
X81092992Y-75132245D01*
X81075928Y-75305499D01*
X81075928Y-76205501D01*
X81092992Y-76378755D01*
X81143528Y-76545351D01*
X81225595Y-76698887D01*
X81336038Y-76833462D01*
X81470613Y-76943905D01*
X81624149Y-77025972D01*
X81790745Y-77076508D01*
X81963999Y-77093572D01*
X82577270Y-77093572D01*
X82627600Y-77143902D01*
X82627600Y-92987700D01*
X82576179Y-92945499D01*
X82258401Y-92775643D01*
X81913591Y-92671046D01*
X81555001Y-92635728D01*
X81554999Y-92635728D01*
X81196409Y-92671046D01*
X80851599Y-92775643D01*
X80533821Y-92945499D01*
X80255286Y-93174087D01*
X80026698Y-93452622D01*
X79856842Y-93770400D01*
X79752245Y-94115210D01*
X79716927Y-94473800D01*
X76898500Y-94473800D01*
X76898500Y-70146403D01*
X77224061Y-70471964D01*
X77770285Y-70836939D01*
X78377216Y-71088338D01*
X79021531Y-71216500D01*
X79678469Y-71216500D01*
X80322784Y-71088338D01*
X80929715Y-70836939D01*
X81475939Y-70471964D01*
X81940464Y-70007439D01*
X82305439Y-69461215D01*
X82556838Y-68854284D01*
X82685000Y-68209969D01*
X82685000Y-67894200D01*
X140773000Y-67894200D01*
X140773000Y-68419200D01*
X140820066Y-68643065D01*
X140909901Y-68853446D01*
X141039053Y-69042259D01*
X141202559Y-69202247D01*
X141394136Y-69327263D01*
X141627190Y-69411164D01*
X141806000Y-69285363D01*
X141806000Y-67894200D01*
X142060000Y-67894200D01*
X142060000Y-69285363D01*
X142238810Y-69411164D01*
X142471864Y-69327263D01*
X142663441Y-69202247D01*
X142826947Y-69042259D01*
X142956099Y-68853446D01*
X143045934Y-68643065D01*
X143093000Y-68419200D01*
X143093000Y-67894200D01*
X142060000Y-67894200D01*
X141806000Y-67894200D01*
X140773000Y-67894200D01*
X82685000Y-67894200D01*
X82685000Y-67553031D01*
X82597911Y-67115200D01*
X140773000Y-67115200D01*
X140773000Y-67640200D01*
X141806000Y-67640200D01*
X141806000Y-66249037D01*
X142060000Y-66249037D01*
X142060000Y-67640200D01*
X143093000Y-67640200D01*
X143093000Y-67115200D01*
X149413000Y-67115200D01*
X149413000Y-67640200D01*
X150446000Y-67640200D01*
X150446000Y-66249037D01*
X150700000Y-66249037D01*
X150700000Y-67640200D01*
X151733000Y-67640200D01*
X151733000Y-67115200D01*
X151685934Y-66891335D01*
X151596099Y-66680954D01*
X151466947Y-66492141D01*
X151303441Y-66332153D01*
X151111864Y-66207137D01*
X150878810Y-66123236D01*
X150700000Y-66249037D01*
X150446000Y-66249037D01*
X150267190Y-66123236D01*
X150034136Y-66207137D01*
X149842559Y-66332153D01*
X149679053Y-66492141D01*
X149549901Y-66680954D01*
X149460066Y-66891335D01*
X149413000Y-67115200D01*
X143093000Y-67115200D01*
X143045934Y-66891335D01*
X142956099Y-66680954D01*
X142826947Y-66492141D01*
X142663441Y-66332153D01*
X142471864Y-66207137D01*
X142238810Y-66123236D01*
X142060000Y-66249037D01*
X141806000Y-66249037D01*
X141627190Y-66123236D01*
X141394136Y-66207137D01*
X141202559Y-66332153D01*
X141039053Y-66492141D01*
X140909901Y-66680954D01*
X140820066Y-66891335D01*
X140773000Y-67115200D01*
X82597911Y-67115200D01*
X82556838Y-66908716D01*
X82305439Y-66301785D01*
X81940464Y-65755561D01*
X81614903Y-65430000D01*
X210866097Y-65430000D01*
X210540536Y-65755561D01*
%TA.AperFunction,Conductor*%
D27*
G36*
X210540536Y-65755561D02*
G01*
X210175561Y-66301785D01*
X209924162Y-66908716D01*
X209796000Y-67553031D01*
X209796000Y-68209969D01*
X209924162Y-68854284D01*
X210175561Y-69461215D01*
X210540536Y-70007439D01*
X211005061Y-70471964D01*
X211551285Y-70836939D01*
X212158216Y-71088338D01*
X212802531Y-71216500D01*
X213459469Y-71216500D01*
X214103784Y-71088338D01*
X214710715Y-70836939D01*
X215256939Y-70471964D01*
X215582500Y-70146403D01*
X215582501Y-121369098D01*
X215256939Y-121043536D01*
X214710715Y-120678561D01*
X214103784Y-120427162D01*
X213459469Y-120299000D01*
X212802531Y-120299000D01*
X212158216Y-120427162D01*
X211551285Y-120678561D01*
X211005061Y-121043536D01*
X210540536Y-121508061D01*
X210175561Y-122054285D01*
X209924162Y-122661216D01*
X209796000Y-123305531D01*
X209796000Y-123962469D01*
X209924162Y-124606784D01*
X210175561Y-125213715D01*
X210540536Y-125759939D01*
X210898097Y-126117500D01*
X81646903Y-126117500D01*
X81940464Y-125823939D01*
X82305439Y-125277715D01*
X82556838Y-124670784D01*
X82685000Y-124026469D01*
X82685000Y-123369531D01*
X82556838Y-122725216D01*
X82305439Y-122118285D01*
X81940464Y-121572061D01*
X81475939Y-121107536D01*
X80929715Y-120742561D01*
X80322784Y-120491162D01*
X79678469Y-120363000D01*
X79021531Y-120363000D01*
X78377216Y-120491162D01*
X77770285Y-120742561D01*
X77224061Y-121107536D01*
X76898500Y-121433097D01*
X76898500Y-94473800D01*
X79716927Y-94473800D01*
X79716927Y-97073800D01*
X79752245Y-97432390D01*
X79856842Y-97777200D01*
X80026698Y-98094978D01*
X80255286Y-98373513D01*
X80533821Y-98602101D01*
X80851599Y-98771957D01*
X81196409Y-98876554D01*
X81554999Y-98911872D01*
X81555001Y-98911872D01*
X81913591Y-98876554D01*
X82258401Y-98771957D01*
X82576179Y-98602101D01*
X82627601Y-98559900D01*
X82627601Y-110615067D01*
X82623924Y-110652400D01*
X82627601Y-110689733D01*
X82638598Y-110801386D01*
X82639649Y-110804850D01*
X82682054Y-110944646D01*
X82752626Y-111076676D01*
X82823801Y-111163402D01*
X82847600Y-111192401D01*
X82876598Y-111216199D01*
X96935601Y-125275203D01*
X96959399Y-125304201D01*
X96988397Y-125327999D01*
X97075123Y-125399174D01*
X97207153Y-125469746D01*
X97350414Y-125513203D01*
X97462067Y-125524200D01*
X97462077Y-125524200D01*
X97499400Y-125527876D01*
X97536723Y-125524200D01*
X144339278Y-125524200D01*
X144376600Y-125527876D01*
X144413922Y-125524200D01*
X144413933Y-125524200D01*
X144525586Y-125513203D01*
X144668847Y-125469746D01*
X144800876Y-125399174D01*
X144916601Y-125304201D01*
X144940404Y-125275197D01*
X146239601Y-123976000D01*
X162341928Y-123976000D01*
X162354188Y-124100482D01*
X162390498Y-124220180D01*
X162449463Y-124330494D01*
X162528815Y-124427185D01*
X162625506Y-124506537D01*
X162735820Y-124565502D01*
X162855518Y-124601812D01*
X162980000Y-124614072D01*
X163544250Y-124611000D01*
X163703000Y-124452250D01*
X163703000Y-123253000D01*
X162503750Y-123253000D01*
X162345000Y-123411750D01*
X162341928Y-123976000D01*
X146239601Y-123976000D01*
X151765004Y-118450598D01*
X151794001Y-118426801D01*
X151888974Y-118311076D01*
X151959546Y-118179047D01*
X152003003Y-118035786D01*
X152014000Y-117924133D01*
X152014000Y-117924124D01*
X152017676Y-117886801D01*
X152014000Y-117849478D01*
X152014000Y-117050402D01*
X152545201Y-117581603D01*
X152568999Y-117610601D01*
X152655269Y-117681401D01*
X152684724Y-117705574D01*
X152816753Y-117776146D01*
X152960014Y-117819603D01*
X153109000Y-117834277D01*
X153146333Y-117830600D01*
X186222278Y-117830600D01*
X186259600Y-117834276D01*
X186296922Y-117830600D01*
X186296933Y-117830600D01*
X186408586Y-117819603D01*
X186551847Y-117776146D01*
X186683876Y-117705574D01*
X186799601Y-117610601D01*
X186823404Y-117581598D01*
X188950663Y-115454340D01*
X189184148Y-115610350D01*
X187311403Y-117483096D01*
X187282399Y-117506899D01*
X187258601Y-117535897D01*
X186364499Y-118430000D01*
X161056527Y-118430000D01*
X161047472Y-118400149D01*
X160965405Y-118246613D01*
X160854962Y-118112038D01*
X160720387Y-118001595D01*
X160566851Y-117919528D01*
X160400255Y-117868992D01*
X160227001Y-117851928D01*
X159526999Y-117851928D01*
X159353745Y-117868992D01*
X159187149Y-117919528D01*
X159033613Y-118001595D01*
X158899038Y-118112038D01*
X158877000Y-118138891D01*
X158854962Y-118112038D01*
X158720387Y-118001595D01*
X158566851Y-117919528D01*
X158400255Y-117868992D01*
X158227001Y-117851928D01*
X157526999Y-117851928D01*
X157353745Y-117868992D01*
X157187149Y-117919528D01*
X157033613Y-118001595D01*
X156899038Y-118112038D01*
X156788595Y-118246613D01*
X156706528Y-118400149D01*
X156655992Y-118566745D01*
X156638928Y-118739999D01*
X156638928Y-119640001D01*
X156655992Y-119813255D01*
X156706528Y-119979851D01*
X156788595Y-120133387D01*
X156899038Y-120267962D01*
X157033613Y-120378405D01*
X157187149Y-120460472D01*
X157353745Y-120511008D01*
X157526999Y-120528072D01*
X158140270Y-120528072D01*
X160073905Y-122461708D01*
X160097699Y-122490701D01*
X160126692Y-122514495D01*
X160126696Y-122514499D01*
X160190670Y-122567000D01*
X160213424Y-122585674D01*
X160345453Y-122656246D01*
X160488714Y-122699703D01*
X160600367Y-122710700D01*
X160600376Y-122710700D01*
X160637699Y-122714376D01*
X160675022Y-122710700D01*
X162344295Y-122710700D01*
X162345000Y-122840250D01*
X162503750Y-122999000D01*
X163703000Y-122999000D01*
X163703000Y-122979000D01*
X163957000Y-122979000D01*
X163957000Y-122999000D01*
X163977000Y-122999000D01*
X163977000Y-123253000D01*
X163957000Y-123253000D01*
X163957000Y-124452250D01*
X164115750Y-124611000D01*
X164680000Y-124614072D01*
X164804482Y-124601812D01*
X164924180Y-124565502D01*
X165034494Y-124506537D01*
X165131185Y-124427185D01*
X165210537Y-124330494D01*
X165269502Y-124220180D01*
X165291513Y-124147620D01*
X165423368Y-124279475D01*
X165666589Y-124441990D01*
X165936842Y-124553932D01*
X166223740Y-124611000D01*
X166516260Y-124611000D01*
X166803158Y-124553932D01*
X167073411Y-124441990D01*
X167316632Y-124279475D01*
X167523475Y-124072632D01*
X167640000Y-123898240D01*
X167756525Y-124072632D01*
X167963368Y-124279475D01*
X168206589Y-124441990D01*
X168476842Y-124553932D01*
X168763740Y-124611000D01*
X169056260Y-124611000D01*
X169343158Y-124553932D01*
X169613411Y-124441990D01*
X169856632Y-124279475D01*
X170063475Y-124072632D01*
X170180000Y-123898240D01*
X170296525Y-124072632D01*
X170503368Y-124279475D01*
X170746589Y-124441990D01*
X171016842Y-124553932D01*
X171303740Y-124611000D01*
X171596260Y-124611000D01*
X171883158Y-124553932D01*
X172153411Y-124441990D01*
X172396632Y-124279475D01*
X172603475Y-124072632D01*
X172668042Y-123976000D01*
X187200928Y-123976000D01*
X187213188Y-124100482D01*
X187249498Y-124220180D01*
X187308463Y-124330494D01*
X187387815Y-124427185D01*
X187484506Y-124506537D01*
X187594820Y-124565502D01*
X187714518Y-124601812D01*
X187839000Y-124614072D01*
X188403250Y-124611000D01*
X188562000Y-124452250D01*
X188562000Y-123253000D01*
X187362750Y-123253000D01*
X187204000Y-123411750D01*
X187200928Y-123976000D01*
X172668042Y-123976000D01*
X172765990Y-123829411D01*
X172877932Y-123559158D01*
X172935000Y-123272260D01*
X172935000Y-122979740D01*
X172877932Y-122692842D01*
X172765990Y-122422589D01*
X172668043Y-122276000D01*
X187200928Y-122276000D01*
X187204000Y-122840250D01*
X187362750Y-122999000D01*
X188562000Y-122999000D01*
X188562000Y-121799750D01*
X188403250Y-121641000D01*
X187839000Y-121637928D01*
X187714518Y-121650188D01*
X187594820Y-121686498D01*
X187484506Y-121745463D01*
X187387815Y-121824815D01*
X187308463Y-121921506D01*
X187249498Y-122031820D01*
X187213188Y-122151518D01*
X187200928Y-122276000D01*
X172668043Y-122276000D01*
X172603475Y-122179368D01*
X172396632Y-121972525D01*
X172153411Y-121810010D01*
X171883158Y-121698068D01*
X171596260Y-121641000D01*
X171303740Y-121641000D01*
X171016842Y-121698068D01*
X170746589Y-121810010D01*
X170539371Y-121948469D01*
X170030603Y-121439702D01*
X170006801Y-121410699D01*
X169891076Y-121315726D01*
X169759047Y-121245154D01*
X169615786Y-121201697D01*
X169504133Y-121190700D01*
X169504122Y-121190700D01*
X169466800Y-121187024D01*
X169429478Y-121190700D01*
X160952503Y-121190700D01*
X160284237Y-120522435D01*
X160400255Y-120511008D01*
X160566851Y-120460472D01*
X160720387Y-120378405D01*
X160854962Y-120267962D01*
X160965405Y-120133387D01*
X161047472Y-119979851D01*
X161056527Y-119950000D01*
X186641978Y-119950000D01*
X186679300Y-119953676D01*
X186716622Y-119950000D01*
X186716633Y-119950000D01*
X186828286Y-119939003D01*
X186971547Y-119895546D01*
X187103576Y-119824974D01*
X187219301Y-119730001D01*
X187243104Y-119700998D01*
X187822400Y-119121701D01*
X190516669Y-121815970D01*
X190282368Y-121972525D01*
X190150513Y-122104380D01*
X190128502Y-122031820D01*
X190069537Y-121921506D01*
X189990185Y-121824815D01*
X189893494Y-121745463D01*
X189783180Y-121686498D01*
X189663482Y-121650188D01*
X189539000Y-121637928D01*
X188974750Y-121641000D01*
X188816000Y-121799750D01*
X188816000Y-122999000D01*
X188836000Y-122999000D01*
X188836000Y-123253000D01*
X188816000Y-123253000D01*
X188816000Y-124452250D01*
X188974750Y-124611000D01*
X189539000Y-124614072D01*
X189663482Y-124601812D01*
X189783180Y-124565502D01*
X189893494Y-124506537D01*
X189990185Y-124427185D01*
X190069537Y-124330494D01*
X190128502Y-124220180D01*
X190150513Y-124147620D01*
X190282368Y-124279475D01*
X190525589Y-124441990D01*
X190795842Y-124553932D01*
X191082740Y-124611000D01*
X191375260Y-124611000D01*
X191662158Y-124553932D01*
X191932411Y-124441990D01*
X192175632Y-124279475D01*
X192180053Y-124275054D01*
X192724401Y-124819402D01*
X192748199Y-124848401D01*
X192863924Y-124943374D01*
X192995953Y-125013946D01*
X193139214Y-125057403D01*
X193250867Y-125068400D01*
X193250876Y-125068400D01*
X193288199Y-125072076D01*
X193325522Y-125068400D01*
X194219178Y-125068400D01*
X194256500Y-125072076D01*
X194293822Y-125068400D01*
X194293833Y-125068400D01*
X194405486Y-125057403D01*
X194548747Y-125013946D01*
X194680776Y-124943374D01*
X194796501Y-124848401D01*
X194820303Y-124819398D01*
X195361297Y-124278404D01*
X195362368Y-124279475D01*
X195605589Y-124441990D01*
X195875842Y-124553932D01*
X196162740Y-124611000D01*
X196455260Y-124611000D01*
X196742158Y-124553932D01*
X197012411Y-124441990D01*
X197255632Y-124279475D01*
X197462475Y-124072632D01*
X197624990Y-123829411D01*
X197736932Y-123559158D01*
X197794000Y-123272260D01*
X197794000Y-122979740D01*
X197736932Y-122692842D01*
X197624990Y-122422589D01*
X197462475Y-122179368D01*
X197255632Y-121972525D01*
X197012411Y-121810010D01*
X196742158Y-121698068D01*
X196455260Y-121641000D01*
X196162740Y-121641000D01*
X195875842Y-121698068D01*
X195605589Y-121810010D01*
X195362368Y-121972525D01*
X195155525Y-122179368D01*
X195039000Y-122353760D01*
X194922475Y-122179368D01*
X194715632Y-121972525D01*
X194529000Y-121847822D01*
X194529000Y-105527701D01*
X196921774Y-103134927D01*
X201416000Y-103134927D01*
X201416000Y-103412673D01*
X201470186Y-103685082D01*
X201576475Y-103941685D01*
X201730782Y-104172622D01*
X201927178Y-104369018D01*
X202158115Y-104523325D01*
X202414718Y-104629614D01*
X202687127Y-104683800D01*
X202964873Y-104683800D01*
X203237282Y-104629614D01*
X203493885Y-104523325D01*
X203724822Y-104369018D01*
X203845191Y-104248649D01*
X204530756Y-104248649D01*
X204599310Y-104490068D01*
X204850556Y-104608468D01*
X205120071Y-104675578D01*
X205397502Y-104688818D01*
X205672184Y-104647679D01*
X205933562Y-104553743D01*
X206052690Y-104490068D01*
X206121244Y-104248649D01*
X205326000Y-103453405D01*
X204530756Y-104248649D01*
X203845191Y-104248649D01*
X203921218Y-104172622D01*
X204075525Y-103941685D01*
X204076737Y-103938760D01*
X204109732Y-104000490D01*
X204351151Y-104069044D01*
X205146395Y-103273800D01*
X205505605Y-103273800D01*
X206300849Y-104069044D01*
X206542268Y-104000490D01*
X206573437Y-103934350D01*
X206576475Y-103941685D01*
X206730782Y-104172622D01*
X206927178Y-104369018D01*
X207158115Y-104523325D01*
X207414718Y-104629614D01*
X207687127Y-104683800D01*
X207964873Y-104683800D01*
X208237282Y-104629614D01*
X208493885Y-104523325D01*
X208724822Y-104369018D01*
X208921218Y-104172622D01*
X209075525Y-103941685D01*
X209181814Y-103685082D01*
X209236000Y-103412673D01*
X209236000Y-103134927D01*
X209181814Y-102862518D01*
X209075525Y-102605915D01*
X208921218Y-102374978D01*
X208724822Y-102178582D01*
X208493885Y-102024275D01*
X208237282Y-101917986D01*
X207964873Y-101863800D01*
X207687127Y-101863800D01*
X207414718Y-101917986D01*
X207158115Y-102024275D01*
X206927178Y-102178582D01*
X206730782Y-102374978D01*
X206576475Y-102605915D01*
X206575263Y-102608840D01*
X206542268Y-102547110D01*
X206300849Y-102478556D01*
X205505605Y-103273800D01*
X205146395Y-103273800D01*
X204351151Y-102478556D01*
X204109732Y-102547110D01*
X204078563Y-102613250D01*
X204075525Y-102605915D01*
X203921218Y-102374978D01*
X203845191Y-102298951D01*
X204530756Y-102298951D01*
X205326000Y-103094195D01*
X206121244Y-102298951D01*
X206052690Y-102057532D01*
X205801444Y-101939132D01*
X205531929Y-101872022D01*
X205254498Y-101858782D01*
X204979816Y-101899921D01*
X204718438Y-101993857D01*
X204599310Y-102057532D01*
X204530756Y-102298951D01*
X203845191Y-102298951D01*
X203724822Y-102178582D01*
X203493885Y-102024275D01*
X203237282Y-101917986D01*
X202964873Y-101863800D01*
X202687127Y-101863800D01*
X202414718Y-101917986D01*
X202158115Y-102024275D01*
X201927178Y-102178582D01*
X201730782Y-102374978D01*
X201576475Y-102605915D01*
X201470186Y-102862518D01*
X201416000Y-103134927D01*
X196921774Y-103134927D01*
X205582901Y-94473800D01*
X209087927Y-94473800D01*
X209087927Y-97073800D01*
X209123245Y-97432390D01*
X209227842Y-97777200D01*
X209397698Y-98094978D01*
X209626286Y-98373513D01*
X209904821Y-98602101D01*
X210222599Y-98771957D01*
X210567409Y-98876554D01*
X210925999Y-98911872D01*
X210926001Y-98911872D01*
X211284591Y-98876554D01*
X211629401Y-98771957D01*
X211947179Y-98602101D01*
X212225714Y-98373513D01*
X212454302Y-98094978D01*
X212624158Y-97777200D01*
X212728755Y-97432390D01*
X212764073Y-97073800D01*
X212764073Y-94473800D01*
X212728755Y-94115210D01*
X212624158Y-93770400D01*
X212454302Y-93452622D01*
X212225714Y-93174087D01*
X211947179Y-92945499D01*
X211629401Y-92775643D01*
X211284591Y-92671046D01*
X210926001Y-92635728D01*
X210925999Y-92635728D01*
X210567409Y-92671046D01*
X210222599Y-92775643D01*
X209904821Y-92945499D01*
X209626286Y-93174087D01*
X209397698Y-93452622D01*
X209227842Y-93770400D01*
X209123245Y-94115210D01*
X209087927Y-94473800D01*
X205582901Y-94473800D01*
X209446103Y-90610599D01*
X209475101Y-90586801D01*
X209570074Y-90471076D01*
X209640646Y-90339047D01*
X209684103Y-90195786D01*
X209695100Y-90084133D01*
X209695100Y-90084124D01*
X209698776Y-90046801D01*
X209695100Y-90009478D01*
X209695100Y-71980125D01*
X209698776Y-71942800D01*
X209695100Y-71905475D01*
X209695100Y-71905467D01*
X209684103Y-71793814D01*
X209640646Y-71650553D01*
X209570074Y-71518524D01*
X209475101Y-71402799D01*
X209446104Y-71379002D01*
X207795204Y-69728103D01*
X207771401Y-69699099D01*
X207655676Y-69604126D01*
X207523647Y-69533554D01*
X207380386Y-69490097D01*
X207268733Y-69479100D01*
X207268722Y-69479100D01*
X207231400Y-69475424D01*
X207194078Y-69479100D01*
X165105722Y-69479100D01*
X165068399Y-69475424D01*
X165031076Y-69479100D01*
X165031067Y-69479100D01*
X164919414Y-69490097D01*
X164776153Y-69533554D01*
X164644124Y-69604126D01*
X164644122Y-69604127D01*
X164644123Y-69604127D01*
X164557396Y-69675301D01*
X164557392Y-69675305D01*
X164528399Y-69699099D01*
X164504605Y-69728092D01*
X162586410Y-71646289D01*
X162586185Y-71646015D01*
X162489494Y-71566663D01*
X162379180Y-71507698D01*
X162259482Y-71471388D01*
X162135000Y-71459128D01*
X161135000Y-71459128D01*
X161010518Y-71471388D01*
X160985000Y-71479129D01*
X160959482Y-71471388D01*
X160835000Y-71459128D01*
X159835000Y-71459128D01*
X159710518Y-71471388D01*
X159590820Y-71507698D01*
X159480506Y-71566663D01*
X159383815Y-71646015D01*
X159383590Y-71646289D01*
X157044704Y-69307403D01*
X157020901Y-69278399D01*
X156905176Y-69183426D01*
X156773147Y-69112854D01*
X156629886Y-69069397D01*
X156518233Y-69058400D01*
X156518222Y-69058400D01*
X156480900Y-69054724D01*
X156443578Y-69058400D01*
X151450451Y-69058400D01*
X151466947Y-69042259D01*
X151596099Y-68853446D01*
X151685934Y-68643065D01*
X151733000Y-68419200D01*
X151733000Y-67894200D01*
X150700000Y-67894200D01*
X150700000Y-67914200D01*
X150446000Y-67914200D01*
X150446000Y-67894200D01*
X149413000Y-67894200D01*
X149413000Y-68419200D01*
X149460066Y-68643065D01*
X149549901Y-68853446D01*
X149679053Y-69042259D01*
X149695549Y-69058400D01*
X147409922Y-69058400D01*
X147372599Y-69054724D01*
X147335276Y-69058400D01*
X147335267Y-69058400D01*
X147223614Y-69069397D01*
X147080353Y-69112854D01*
X146948324Y-69183426D01*
X146832599Y-69278399D01*
X146808801Y-69307397D01*
X146027600Y-70088599D01*
X145962803Y-70023802D01*
X145939001Y-69994799D01*
X145823276Y-69899826D01*
X145691247Y-69829254D01*
X145547986Y-69785797D01*
X145436333Y-69774800D01*
X145436322Y-69774800D01*
X145399000Y-69771124D01*
X145361678Y-69774800D01*
X130266022Y-69774800D01*
X130228699Y-69771124D01*
X130191376Y-69774800D01*
X130191367Y-69774800D01*
X130079714Y-69785797D01*
X129936453Y-69829254D01*
X129804424Y-69899826D01*
X129804422Y-69899827D01*
X129804423Y-69899827D01*
X129717696Y-69971001D01*
X129717692Y-69971005D01*
X129688699Y-69994799D01*
X129664905Y-70023792D01*
X128042410Y-71646289D01*
X128042185Y-71646015D01*
X127945494Y-71566663D01*
X127835180Y-71507698D01*
X127715482Y-71471388D01*
X127591000Y-71459128D01*
X126591000Y-71459128D01*
X126466518Y-71471388D01*
X126441000Y-71479129D01*
X126415482Y-71471388D01*
X126291000Y-71459128D01*
X125291000Y-71459128D01*
X125166518Y-71471388D01*
X125046820Y-71507698D01*
X124936506Y-71566663D01*
X124839815Y-71646015D01*
X124760463Y-71742706D01*
X124701498Y-71853020D01*
X124665188Y-71972718D01*
X124652928Y-72097200D01*
X124652928Y-73597200D01*
X124665188Y-73721682D01*
X124701498Y-73841380D01*
X124760463Y-73951694D01*
X124839815Y-74048385D01*
X124936506Y-74127737D01*
X125031001Y-74178246D01*
X125031000Y-75961154D01*
X124936506Y-76011663D01*
X124839815Y-76091015D01*
X124760463Y-76187706D01*
X124701498Y-76298020D01*
X124665188Y-76417718D01*
X124652928Y-76542200D01*
X124652928Y-78042200D01*
X124665188Y-78166682D01*
X124701498Y-78286380D01*
X124760463Y-78396694D01*
X124839815Y-78493385D01*
X124936506Y-78572737D01*
X125031001Y-78623246D01*
X125031000Y-87399233D01*
X124944482Y-87372988D01*
X124820000Y-87360728D01*
X124330750Y-87363800D01*
X124172000Y-87522550D01*
X124172000Y-88646800D01*
X124192000Y-88646800D01*
X124192000Y-88900800D01*
X124172000Y-88900800D01*
X124172000Y-90025050D01*
X124330750Y-90183800D01*
X124820000Y-90186872D01*
X124944482Y-90174612D01*
X125031000Y-90148367D01*
X125031000Y-92910678D01*
X125027324Y-92948000D01*
X125031000Y-92985322D01*
X125031000Y-92985332D01*
X125041997Y-93096985D01*
X125085454Y-93240246D01*
X125156026Y-93372276D01*
X125195871Y-93420826D01*
X125250999Y-93488001D01*
X125280003Y-93511804D01*
X135164154Y-103395956D01*
X135187953Y-103424955D01*
X135216951Y-103448753D01*
X135303677Y-103519928D01*
X135365028Y-103552721D01*
X135435707Y-103590500D01*
X135578968Y-103633957D01*
X135690621Y-103644954D01*
X135690630Y-103644954D01*
X135727953Y-103648630D01*
X135765276Y-103644954D01*
X136255010Y-103644954D01*
X135984122Y-103915841D01*
X135955119Y-103939644D01*
X135899991Y-104006819D01*
X135860146Y-104055369D01*
X135829918Y-104111921D01*
X135789574Y-104187399D01*
X135746134Y-104330605D01*
X135691183Y-104385556D01*
X135666379Y-104422678D01*
X131964104Y-100720403D01*
X131940301Y-100691399D01*
X131824576Y-100596426D01*
X131692547Y-100525854D01*
X131549286Y-100482397D01*
X131437633Y-100471400D01*
X131437622Y-100471400D01*
X131400300Y-100467724D01*
X131362978Y-100471400D01*
X86734725Y-100471400D01*
X86697400Y-100467724D01*
X86660075Y-100471400D01*
X86660067Y-100471400D01*
X86548414Y-100482397D01*
X86405153Y-100525854D01*
X86273124Y-100596426D01*
X86157399Y-100691399D01*
X86133601Y-100720397D01*
X84957626Y-101896373D01*
X84793873Y-101863800D01*
X84516127Y-101863800D01*
X84243718Y-101917986D01*
X84147600Y-101957800D01*
X84147600Y-94473800D01*
X90916927Y-94473800D01*
X90916927Y-97073800D01*
X90952245Y-97432390D01*
X91056842Y-97777200D01*
X91226698Y-98094978D01*
X91455286Y-98373513D01*
X91733821Y-98602101D01*
X92051599Y-98771957D01*
X92396409Y-98876554D01*
X92754999Y-98911872D01*
X92755001Y-98911872D01*
X93113591Y-98876554D01*
X93458401Y-98771957D01*
X93776179Y-98602101D01*
X94054714Y-98373513D01*
X94283302Y-98094978D01*
X94453158Y-97777200D01*
X94557755Y-97432390D01*
X94593073Y-97073800D01*
X94593073Y-94473800D01*
X119106927Y-94473800D01*
X119106927Y-97073800D01*
X119142245Y-97432390D01*
X119246842Y-97777200D01*
X119416698Y-98094978D01*
X119645286Y-98373513D01*
X119923821Y-98602101D01*
X120241599Y-98771957D01*
X120586409Y-98876554D01*
X120944999Y-98911872D01*
X120945001Y-98911872D01*
X121303591Y-98876554D01*
X121648401Y-98771957D01*
X121966179Y-98602101D01*
X122244714Y-98373513D01*
X122473302Y-98094978D01*
X122643158Y-97777200D01*
X122747755Y-97432390D01*
X122783073Y-97073800D01*
X122783073Y-94473800D01*
X122747755Y-94115210D01*
X122643158Y-93770400D01*
X122473302Y-93452622D01*
X122244714Y-93174087D01*
X121966179Y-92945499D01*
X121648401Y-92775643D01*
X121303591Y-92671046D01*
X120945001Y-92635728D01*
X120944999Y-92635728D01*
X120586409Y-92671046D01*
X120241599Y-92775643D01*
X119923821Y-92945499D01*
X119645286Y-93174087D01*
X119416698Y-93452622D01*
X119246842Y-93770400D01*
X119142245Y-94115210D01*
X119106927Y-94473800D01*
X94593073Y-94473800D01*
X94557755Y-94115210D01*
X94453158Y-93770400D01*
X94283302Y-93452622D01*
X94054714Y-93174087D01*
X93776179Y-92945499D01*
X93458401Y-92775643D01*
X93113591Y-92671046D01*
X92755001Y-92635728D01*
X92754999Y-92635728D01*
X92396409Y-92671046D01*
X92051599Y-92775643D01*
X91733821Y-92945499D01*
X91455286Y-93174087D01*
X91226698Y-93452622D01*
X91056842Y-93770400D01*
X90952245Y-94115210D01*
X90916927Y-94473800D01*
X84147600Y-94473800D01*
X84147600Y-90185192D01*
X84369250Y-90183800D01*
X84528000Y-90025050D01*
X84528000Y-88900800D01*
X84782000Y-88900800D01*
X84782000Y-90025050D01*
X84940750Y-90183800D01*
X85430000Y-90186872D01*
X85554482Y-90174612D01*
X85674180Y-90138302D01*
X85784494Y-90079337D01*
X85881185Y-89999985D01*
X85960537Y-89903294D01*
X86019502Y-89792980D01*
X86055812Y-89673282D01*
X86068072Y-89548800D01*
X86065000Y-89059550D01*
X85906250Y-88900800D01*
X84782000Y-88900800D01*
X84528000Y-88900800D01*
X84508000Y-88900800D01*
X84508000Y-88646800D01*
X84528000Y-88646800D01*
X84528000Y-87522550D01*
X84782000Y-87522550D01*
X84782000Y-88646800D01*
X85906250Y-88646800D01*
X85918123Y-88634927D01*
X88245000Y-88634927D01*
X88245000Y-88912673D01*
X88299186Y-89185082D01*
X88405475Y-89441685D01*
X88559782Y-89672622D01*
X88756178Y-89869018D01*
X88987115Y-90023325D01*
X89243718Y-90129614D01*
X89516127Y-90183800D01*
X89793873Y-90183800D01*
X90066282Y-90129614D01*
X90322885Y-90023325D01*
X90553822Y-89869018D01*
X90750218Y-89672622D01*
X90832953Y-89548800D01*
X122631928Y-89548800D01*
X122644188Y-89673282D01*
X122680498Y-89792980D01*
X122739463Y-89903294D01*
X122818815Y-89999985D01*
X122915506Y-90079337D01*
X123025820Y-90138302D01*
X123145518Y-90174612D01*
X123270000Y-90186872D01*
X123759250Y-90183800D01*
X123918000Y-90025050D01*
X123918000Y-88900800D01*
X122793750Y-88900800D01*
X122635000Y-89059550D01*
X122631928Y-89548800D01*
X90832953Y-89548800D01*
X90904525Y-89441685D01*
X91010814Y-89185082D01*
X91065000Y-88912673D01*
X91065000Y-88634927D01*
X91010814Y-88362518D01*
X90904525Y-88105915D01*
X90832954Y-87998800D01*
X122631928Y-87998800D01*
X122635000Y-88488050D01*
X122793750Y-88646800D01*
X123918000Y-88646800D01*
X123918000Y-87522550D01*
X123759250Y-87363800D01*
X123270000Y-87360728D01*
X123145518Y-87372988D01*
X123025820Y-87409298D01*
X122915506Y-87468263D01*
X122818815Y-87547615D01*
X122739463Y-87644306D01*
X122680498Y-87754620D01*
X122644188Y-87874318D01*
X122631928Y-87998800D01*
X90832954Y-87998800D01*
X90750218Y-87874978D01*
X90553822Y-87678582D01*
X90322885Y-87524275D01*
X90066282Y-87417986D01*
X89793873Y-87363800D01*
X89516127Y-87363800D01*
X89243718Y-87417986D01*
X88987115Y-87524275D01*
X88756178Y-87678582D01*
X88559782Y-87874978D01*
X88405475Y-88105915D01*
X88299186Y-88362518D01*
X88245000Y-88634927D01*
X85918123Y-88634927D01*
X86065000Y-88488050D01*
X86068072Y-87998800D01*
X86055812Y-87874318D01*
X86019502Y-87754620D01*
X85960537Y-87644306D01*
X85881185Y-87547615D01*
X85784494Y-87468263D01*
X85674180Y-87409298D01*
X85554482Y-87372988D01*
X85430000Y-87360728D01*
X84940750Y-87363800D01*
X84782000Y-87522550D01*
X84528000Y-87522550D01*
X84369250Y-87363800D01*
X84147600Y-87362408D01*
X84147600Y-77093572D01*
X84664001Y-77093572D01*
X84837255Y-77076508D01*
X85003851Y-77025972D01*
X85157387Y-76943905D01*
X85291962Y-76833462D01*
X85402405Y-76698887D01*
X85484472Y-76545351D01*
X85535008Y-76378755D01*
X85552072Y-76205501D01*
X85552072Y-75305499D01*
X85535008Y-75132245D01*
X85484472Y-74965649D01*
X85402405Y-74812113D01*
X85291962Y-74677538D01*
X85157387Y-74567095D01*
X85003851Y-74485028D01*
X84837255Y-74434492D01*
X84664001Y-74417428D01*
X84050730Y-74417428D01*
X83276332Y-73643031D01*
X83369820Y-73693002D01*
X83489518Y-73729312D01*
X83614000Y-73741572D01*
X83990750Y-73738500D01*
X84149500Y-73579750D01*
X84149500Y-72580500D01*
X84403500Y-72580500D01*
X84403500Y-73579750D01*
X84562250Y-73738500D01*
X84939000Y-73741572D01*
X85063482Y-73729312D01*
X85183180Y-73693002D01*
X85293494Y-73634037D01*
X85390185Y-73554685D01*
X85469537Y-73457994D01*
X85528502Y-73347680D01*
X85564812Y-73227982D01*
X85577072Y-73103500D01*
X85574000Y-72739250D01*
X85415250Y-72580500D01*
X84403500Y-72580500D01*
X84149500Y-72580500D01*
X84129500Y-72580500D01*
X84129500Y-72326500D01*
X84149500Y-72326500D01*
X84149500Y-71327250D01*
X84403500Y-71327250D01*
X84403500Y-72326500D01*
X85415250Y-72326500D01*
X85574000Y-72167750D01*
X85577072Y-71803500D01*
X85564812Y-71679018D01*
X85528502Y-71559320D01*
X85469537Y-71449006D01*
X85390185Y-71352315D01*
X85293494Y-71272963D01*
X85183180Y-71213998D01*
X85063482Y-71177688D01*
X84939000Y-71165428D01*
X84562250Y-71168500D01*
X84403500Y-71327250D01*
X84149500Y-71327250D01*
X83990750Y-71168500D01*
X83614000Y-71165428D01*
X83489518Y-71177688D01*
X83369820Y-71213998D01*
X83259506Y-71272963D01*
X83227580Y-71299164D01*
X83103850Y-71233028D01*
X82937254Y-71182492D01*
X82764000Y-71165428D01*
X81939000Y-71165428D01*
X81765746Y-71182492D01*
X81599150Y-71233028D01*
X81445614Y-71315095D01*
X81311038Y-71425538D01*
X81200595Y-71560114D01*
X81118528Y-71713650D01*
X81067992Y-71880246D01*
X81050928Y-72053500D01*
X81050928Y-72853500D01*
X81067992Y-73026754D01*
X81118528Y-73193350D01*
X81200595Y-73346886D01*
X81311038Y-73481462D01*
X81445614Y-73591905D01*
X81591500Y-73669883D01*
X81591500Y-73755677D01*
X81587824Y-73793000D01*
X81591500Y-73830322D01*
X81591500Y-73830332D01*
X81602497Y-73941985D01*
X81640821Y-74068324D01*
X81645954Y-74085246D01*
X81716526Y-74217276D01*
X81751339Y-74259695D01*
X81811499Y-74333001D01*
X81840503Y-74356804D01*
X81906764Y-74423065D01*
X81790745Y-74434492D01*
X81624149Y-74485028D01*
X81470613Y-74567095D01*
X81336038Y-74677538D01*
X81225595Y-74812113D01*
X81143528Y-74965649D01*
X81092992Y-75132245D01*
X81075928Y-75305499D01*
X81075928Y-76205501D01*
X81092992Y-76378755D01*
X81143528Y-76545351D01*
X81225595Y-76698887D01*
X81336038Y-76833462D01*
X81470613Y-76943905D01*
X81624149Y-77025972D01*
X81790745Y-77076508D01*
X81963999Y-77093572D01*
X82577270Y-77093572D01*
X82627600Y-77143902D01*
X82627600Y-92987700D01*
X82576179Y-92945499D01*
X82258401Y-92775643D01*
X81913591Y-92671046D01*
X81555001Y-92635728D01*
X81554999Y-92635728D01*
X81196409Y-92671046D01*
X80851599Y-92775643D01*
X80533821Y-92945499D01*
X80255286Y-93174087D01*
X80026698Y-93452622D01*
X79856842Y-93770400D01*
X79752245Y-94115210D01*
X79716927Y-94473800D01*
X76898500Y-94473800D01*
X76898500Y-70146403D01*
X77224061Y-70471964D01*
X77770285Y-70836939D01*
X78377216Y-71088338D01*
X79021531Y-71216500D01*
X79678469Y-71216500D01*
X80322784Y-71088338D01*
X80929715Y-70836939D01*
X81475939Y-70471964D01*
X81940464Y-70007439D01*
X82305439Y-69461215D01*
X82556838Y-68854284D01*
X82685000Y-68209969D01*
X82685000Y-67894200D01*
X140773000Y-67894200D01*
X140773000Y-68419200D01*
X140820066Y-68643065D01*
X140909901Y-68853446D01*
X141039053Y-69042259D01*
X141202559Y-69202247D01*
X141394136Y-69327263D01*
X141627190Y-69411164D01*
X141806000Y-69285363D01*
X141806000Y-67894200D01*
X142060000Y-67894200D01*
X142060000Y-69285363D01*
X142238810Y-69411164D01*
X142471864Y-69327263D01*
X142663441Y-69202247D01*
X142826947Y-69042259D01*
X142956099Y-68853446D01*
X143045934Y-68643065D01*
X143093000Y-68419200D01*
X143093000Y-67894200D01*
X142060000Y-67894200D01*
X141806000Y-67894200D01*
X140773000Y-67894200D01*
X82685000Y-67894200D01*
X82685000Y-67553031D01*
X82597911Y-67115200D01*
X140773000Y-67115200D01*
X140773000Y-67640200D01*
X141806000Y-67640200D01*
X141806000Y-66249037D01*
X142060000Y-66249037D01*
X142060000Y-67640200D01*
X143093000Y-67640200D01*
X143093000Y-67115200D01*
X149413000Y-67115200D01*
X149413000Y-67640200D01*
X150446000Y-67640200D01*
X150446000Y-66249037D01*
X150700000Y-66249037D01*
X150700000Y-67640200D01*
X151733000Y-67640200D01*
X151733000Y-67115200D01*
X151685934Y-66891335D01*
X151596099Y-66680954D01*
X151466947Y-66492141D01*
X151303441Y-66332153D01*
X151111864Y-66207137D01*
X150878810Y-66123236D01*
X150700000Y-66249037D01*
X150446000Y-66249037D01*
X150267190Y-66123236D01*
X150034136Y-66207137D01*
X149842559Y-66332153D01*
X149679053Y-66492141D01*
X149549901Y-66680954D01*
X149460066Y-66891335D01*
X149413000Y-67115200D01*
X143093000Y-67115200D01*
X143045934Y-66891335D01*
X142956099Y-66680954D01*
X142826947Y-66492141D01*
X142663441Y-66332153D01*
X142471864Y-66207137D01*
X142238810Y-66123236D01*
X142060000Y-66249037D01*
X141806000Y-66249037D01*
X141627190Y-66123236D01*
X141394136Y-66207137D01*
X141202559Y-66332153D01*
X141039053Y-66492141D01*
X140909901Y-66680954D01*
X140820066Y-66891335D01*
X140773000Y-67115200D01*
X82597911Y-67115200D01*
X82556838Y-66908716D01*
X82305439Y-66301785D01*
X81940464Y-65755561D01*
X81614903Y-65430000D01*
X210866097Y-65430000D01*
X210540536Y-65755561D01*
G37*
%TD.AperFunction*%
D26*
X88987115Y-102024275D02*
X88756178Y-102178582D01*
X88559782Y-102374978D01*
X88405475Y-102605915D01*
X88404263Y-102608840D01*
X88371268Y-102547110D01*
X88129849Y-102478556D01*
X87334605Y-103273800D01*
X88129849Y-104069044D01*
X88371268Y-104000490D01*
X88402437Y-103934350D01*
X88405475Y-103941685D01*
X88559782Y-104172622D01*
X88756178Y-104369018D01*
X88987115Y-104523325D01*
X89243718Y-104629614D01*
X89516127Y-104683800D01*
X89793873Y-104683800D01*
X90066282Y-104629614D01*
X90322885Y-104523325D01*
X90553822Y-104369018D01*
X90750218Y-104172622D01*
X90904525Y-103941685D01*
X91010814Y-103685082D01*
X91065000Y-103412673D01*
X91065000Y-103134927D01*
X91032427Y-102971174D01*
X91546402Y-102457200D01*
X122894843Y-102457200D01*
X122795475Y-102605915D01*
X122689186Y-102862518D01*
X122635000Y-103134927D01*
X122635000Y-103412673D01*
X122689186Y-103685082D01*
X122795475Y-103941685D01*
X122949782Y-104172622D01*
X123146178Y-104369018D01*
X123377115Y-104523325D01*
X123633718Y-104629614D01*
X123906127Y-104683800D01*
X124183873Y-104683800D01*
X124456282Y-104629614D01*
X124712885Y-104523325D01*
X124943822Y-104369018D01*
X125064191Y-104248649D01*
X125749756Y-104248649D01*
X125818310Y-104490068D01*
X126069556Y-104608468D01*
X126339071Y-104675578D01*
X126616502Y-104688818D01*
X126891184Y-104647679D01*
X127152562Y-104553743D01*
X127271690Y-104490068D01*
X127340244Y-104248649D01*
X126545000Y-103453405D01*
X125749756Y-104248649D01*
X125064191Y-104248649D01*
X125140218Y-104172622D01*
X125294525Y-103941685D01*
X125295737Y-103938760D01*
X125328732Y-104000490D01*
X125570151Y-104069044D01*
X126365395Y-103273800D01*
X126351253Y-103259658D01*
X126530858Y-103080053D01*
X126545000Y-103094195D01*
X126559143Y-103080053D01*
X126738748Y-103259658D01*
X126724605Y-103273800D01*
X127519849Y-104069044D01*
X127761268Y-104000490D01*
X127792437Y-103934350D01*
X127795475Y-103941685D01*
X127949782Y-104172622D01*
X128146178Y-104369018D01*
X128377115Y-104523325D01*
X128633718Y-104629614D01*
X128906127Y-104683800D01*
X129183873Y-104683800D01*
X129456282Y-104629614D01*
X129712885Y-104523325D01*
X129943822Y-104369018D01*
X130140218Y-104172622D01*
X130294525Y-103941685D01*
X130400814Y-103685082D01*
X130455000Y-103412673D01*
X130455000Y-103134927D01*
X130409781Y-102907600D01*
X130727899Y-102907600D01*
X133676579Y-105856280D01*
X133619820Y-105873498D01*
X133509506Y-105932463D01*
X133412815Y-106011815D01*
X133347342Y-106091594D01*
X133341962Y-106085038D01*
X133207386Y-105974595D01*
X133053850Y-105892528D01*
X132887254Y-105841992D01*
X132714000Y-105824928D01*
X132039000Y-105824928D01*
X131865746Y-105841992D01*
X131699150Y-105892528D01*
X131545614Y-105974595D01*
X131411038Y-106085038D01*
X131300595Y-106219614D01*
X131218528Y-106373150D01*
X131167992Y-106539746D01*
X131150928Y-106713000D01*
X131150928Y-107663000D01*
X131167992Y-107836254D01*
X131218528Y-108002850D01*
X131300595Y-108156386D01*
X131411038Y-108290962D01*
X131545614Y-108401405D01*
X131616501Y-108439295D01*
X131616500Y-110880600D01*
X106147025Y-110880600D01*
X106109700Y-110876924D01*
X106072375Y-110880600D01*
X106072367Y-110880600D01*
X105960714Y-110891597D01*
X105817453Y-110935054D01*
X105685424Y-111005626D01*
X105569699Y-111100599D01*
X105545901Y-111129597D01*
X105015472Y-111660026D01*
X104989537Y-111611506D01*
X104910185Y-111514815D01*
X104813494Y-111435463D01*
X104703180Y-111376498D01*
X104583482Y-111340188D01*
X104459000Y-111327928D01*
X96584000Y-111327928D01*
X96459518Y-111340188D01*
X96339820Y-111376498D01*
X96229506Y-111435463D01*
X96132815Y-111514815D01*
X96053463Y-111611506D01*
X95994498Y-111721820D01*
X95958188Y-111841518D01*
X95945928Y-111966000D01*
X95945928Y-113966000D01*
X95958188Y-114090482D01*
X95994498Y-114210180D01*
X96053463Y-114320494D01*
X96132815Y-114417185D01*
X96229506Y-114496537D01*
X96339820Y-114555502D01*
X96459518Y-114591812D01*
X96584000Y-114604072D01*
X104459000Y-114604072D01*
X104583482Y-114591812D01*
X104703180Y-114555502D01*
X104813494Y-114496537D01*
X104910185Y-114417185D01*
X104989537Y-114320494D01*
X105048502Y-114210180D01*
X105084812Y-114090482D01*
X105097072Y-113966000D01*
X105097072Y-113660575D01*
X105208576Y-113600974D01*
X105324301Y-113506001D01*
X105348104Y-113476997D01*
X106424502Y-112400600D01*
X107820928Y-112400600D01*
X107820928Y-113966000D01*
X107833188Y-114090482D01*
X107869498Y-114210180D01*
X107928463Y-114320494D01*
X108007815Y-114417185D01*
X108104506Y-114496537D01*
X108214820Y-114555502D01*
X108334518Y-114591812D01*
X108459000Y-114604072D01*
X116334000Y-114604072D01*
X116458482Y-114591812D01*
X116578180Y-114555502D01*
X116688494Y-114496537D01*
X116785185Y-114417185D01*
X116864537Y-114320494D01*
X116890472Y-114271974D01*
X117622805Y-115004308D01*
X117646599Y-115033301D01*
X117675592Y-115057095D01*
X117675596Y-115057099D01*
X117736063Y-115106722D01*
X117762324Y-115128274D01*
X117894353Y-115198846D01*
X118037614Y-115242303D01*
X118149267Y-115253300D01*
X118149276Y-115253300D01*
X118186599Y-115256976D01*
X118223922Y-115253300D01*
X129914600Y-115253300D01*
X129914601Y-120171700D01*
X111276622Y-120171700D01*
X111239299Y-120168024D01*
X111201976Y-120171700D01*
X111201967Y-120171700D01*
X111090314Y-120182697D01*
X110947053Y-120226154D01*
X110815024Y-120296726D01*
X110699299Y-120391699D01*
X110675501Y-120420697D01*
X109147690Y-121948509D01*
X108940411Y-121810010D01*
X108670158Y-121698068D01*
X108383260Y-121641000D01*
X108090740Y-121641000D01*
X107803842Y-121698068D01*
X107533589Y-121810010D01*
X107290368Y-121972525D01*
X107083525Y-122179368D01*
X106967000Y-122353760D01*
X106850475Y-122179368D01*
X106643632Y-121972525D01*
X106400411Y-121810010D01*
X106130158Y-121698068D01*
X105843260Y-121641000D01*
X105550740Y-121641000D01*
X105263842Y-121698068D01*
X104993589Y-121810010D01*
X104750368Y-121972525D01*
X104543525Y-122179368D01*
X104427000Y-122353760D01*
X104310475Y-122179368D01*
X104103632Y-121972525D01*
X103860411Y-121810010D01*
X103590158Y-121698068D01*
X103303260Y-121641000D01*
X103010740Y-121641000D01*
X102723842Y-121698068D01*
X102453589Y-121810010D01*
X102210368Y-121972525D01*
X102003525Y-122179368D01*
X101887000Y-122353760D01*
X101770475Y-122179368D01*
X101563632Y-121972525D01*
X101320411Y-121810010D01*
X101050158Y-121698068D01*
X100763260Y-121641000D01*
X100470740Y-121641000D01*
X100183842Y-121698068D01*
X99913589Y-121810010D01*
X99670368Y-121972525D01*
X99538513Y-122104380D01*
X99516502Y-122031820D01*
X99457537Y-121921506D01*
X99378185Y-121824815D01*
X99281494Y-121745463D01*
X99171180Y-121686498D01*
X99051482Y-121650188D01*
X98927000Y-121637928D01*
X98362750Y-121641000D01*
X98204000Y-121799750D01*
X98204000Y-122999000D01*
X98224000Y-122999000D01*
X98224000Y-123253000D01*
X98204000Y-123253000D01*
X98204000Y-123273000D01*
X97950000Y-123273000D01*
X97950000Y-123253000D01*
X97930000Y-123253000D01*
X97930000Y-122999000D01*
X97950000Y-122999000D01*
X97950000Y-121799750D01*
X97791250Y-121641000D01*
X97227000Y-121637928D01*
X97102518Y-121650188D01*
X96982820Y-121686498D01*
X96872506Y-121745463D01*
X96775815Y-121824815D01*
X96696463Y-121921506D01*
X96637498Y-122031820D01*
X96601188Y-122151518D01*
X96588928Y-122276000D01*
X96591681Y-122781679D01*
X84147600Y-110337599D01*
X84147600Y-104589800D01*
X84243718Y-104629614D01*
X84516127Y-104683800D01*
X84793873Y-104683800D01*
X85066282Y-104629614D01*
X85322885Y-104523325D01*
X85553822Y-104369018D01*
X85674191Y-104248649D01*
X86359756Y-104248649D01*
X86428310Y-104490068D01*
X86679556Y-104608468D01*
X86949071Y-104675578D01*
X87226502Y-104688818D01*
X87501184Y-104647679D01*
X87762562Y-104553743D01*
X87881690Y-104490068D01*
X87950244Y-104248649D01*
X87155000Y-103453405D01*
X86359756Y-104248649D01*
X85674191Y-104248649D01*
X85750218Y-104172622D01*
X85904525Y-103941685D01*
X85905737Y-103938760D01*
X85938732Y-104000490D01*
X86180151Y-104069044D01*
X86975395Y-103273800D01*
X86961253Y-103259658D01*
X87140858Y-103080053D01*
X87155000Y-103094195D01*
X87950244Y-102298951D01*
X87881690Y-102057532D01*
X87741357Y-101991400D01*
X89066482Y-101991400D01*
X88987115Y-102024275D01*
%TA.AperFunction,Conductor*%
D27*
G36*
X88987115Y-102024275D02*
G01*
X88756178Y-102178582D01*
X88559782Y-102374978D01*
X88405475Y-102605915D01*
X88404263Y-102608840D01*
X88371268Y-102547110D01*
X88129849Y-102478556D01*
X87334605Y-103273800D01*
X88129849Y-104069044D01*
X88371268Y-104000490D01*
X88402437Y-103934350D01*
X88405475Y-103941685D01*
X88559782Y-104172622D01*
X88756178Y-104369018D01*
X88987115Y-104523325D01*
X89243718Y-104629614D01*
X89516127Y-104683800D01*
X89793873Y-104683800D01*
X90066282Y-104629614D01*
X90322885Y-104523325D01*
X90553822Y-104369018D01*
X90750218Y-104172622D01*
X90904525Y-103941685D01*
X91010814Y-103685082D01*
X91065000Y-103412673D01*
X91065000Y-103134927D01*
X91032427Y-102971174D01*
X91546402Y-102457200D01*
X122894843Y-102457200D01*
X122795475Y-102605915D01*
X122689186Y-102862518D01*
X122635000Y-103134927D01*
X122635000Y-103412673D01*
X122689186Y-103685082D01*
X122795475Y-103941685D01*
X122949782Y-104172622D01*
X123146178Y-104369018D01*
X123377115Y-104523325D01*
X123633718Y-104629614D01*
X123906127Y-104683800D01*
X124183873Y-104683800D01*
X124456282Y-104629614D01*
X124712885Y-104523325D01*
X124943822Y-104369018D01*
X125064191Y-104248649D01*
X125749756Y-104248649D01*
X125818310Y-104490068D01*
X126069556Y-104608468D01*
X126339071Y-104675578D01*
X126616502Y-104688818D01*
X126891184Y-104647679D01*
X127152562Y-104553743D01*
X127271690Y-104490068D01*
X127340244Y-104248649D01*
X126545000Y-103453405D01*
X125749756Y-104248649D01*
X125064191Y-104248649D01*
X125140218Y-104172622D01*
X125294525Y-103941685D01*
X125295737Y-103938760D01*
X125328732Y-104000490D01*
X125570151Y-104069044D01*
X126365395Y-103273800D01*
X126351253Y-103259658D01*
X126530858Y-103080053D01*
X126545000Y-103094195D01*
X126559143Y-103080053D01*
X126738748Y-103259658D01*
X126724605Y-103273800D01*
X127519849Y-104069044D01*
X127761268Y-104000490D01*
X127792437Y-103934350D01*
X127795475Y-103941685D01*
X127949782Y-104172622D01*
X128146178Y-104369018D01*
X128377115Y-104523325D01*
X128633718Y-104629614D01*
X128906127Y-104683800D01*
X129183873Y-104683800D01*
X129456282Y-104629614D01*
X129712885Y-104523325D01*
X129943822Y-104369018D01*
X130140218Y-104172622D01*
X130294525Y-103941685D01*
X130400814Y-103685082D01*
X130455000Y-103412673D01*
X130455000Y-103134927D01*
X130409781Y-102907600D01*
X130727899Y-102907600D01*
X133676579Y-105856280D01*
X133619820Y-105873498D01*
X133509506Y-105932463D01*
X133412815Y-106011815D01*
X133347342Y-106091594D01*
X133341962Y-106085038D01*
X133207386Y-105974595D01*
X133053850Y-105892528D01*
X132887254Y-105841992D01*
X132714000Y-105824928D01*
X132039000Y-105824928D01*
X131865746Y-105841992D01*
X131699150Y-105892528D01*
X131545614Y-105974595D01*
X131411038Y-106085038D01*
X131300595Y-106219614D01*
X131218528Y-106373150D01*
X131167992Y-106539746D01*
X131150928Y-106713000D01*
X131150928Y-107663000D01*
X131167992Y-107836254D01*
X131218528Y-108002850D01*
X131300595Y-108156386D01*
X131411038Y-108290962D01*
X131545614Y-108401405D01*
X131616501Y-108439295D01*
X131616500Y-110880600D01*
X106147025Y-110880600D01*
X106109700Y-110876924D01*
X106072375Y-110880600D01*
X106072367Y-110880600D01*
X105960714Y-110891597D01*
X105817453Y-110935054D01*
X105685424Y-111005626D01*
X105569699Y-111100599D01*
X105545901Y-111129597D01*
X105015472Y-111660026D01*
X104989537Y-111611506D01*
X104910185Y-111514815D01*
X104813494Y-111435463D01*
X104703180Y-111376498D01*
X104583482Y-111340188D01*
X104459000Y-111327928D01*
X96584000Y-111327928D01*
X96459518Y-111340188D01*
X96339820Y-111376498D01*
X96229506Y-111435463D01*
X96132815Y-111514815D01*
X96053463Y-111611506D01*
X95994498Y-111721820D01*
X95958188Y-111841518D01*
X95945928Y-111966000D01*
X95945928Y-113966000D01*
X95958188Y-114090482D01*
X95994498Y-114210180D01*
X96053463Y-114320494D01*
X96132815Y-114417185D01*
X96229506Y-114496537D01*
X96339820Y-114555502D01*
X96459518Y-114591812D01*
X96584000Y-114604072D01*
X104459000Y-114604072D01*
X104583482Y-114591812D01*
X104703180Y-114555502D01*
X104813494Y-114496537D01*
X104910185Y-114417185D01*
X104989537Y-114320494D01*
X105048502Y-114210180D01*
X105084812Y-114090482D01*
X105097072Y-113966000D01*
X105097072Y-113660575D01*
X105208576Y-113600974D01*
X105324301Y-113506001D01*
X105348104Y-113476997D01*
X106424502Y-112400600D01*
X107820928Y-112400600D01*
X107820928Y-113966000D01*
X107833188Y-114090482D01*
X107869498Y-114210180D01*
X107928463Y-114320494D01*
X108007815Y-114417185D01*
X108104506Y-114496537D01*
X108214820Y-114555502D01*
X108334518Y-114591812D01*
X108459000Y-114604072D01*
X116334000Y-114604072D01*
X116458482Y-114591812D01*
X116578180Y-114555502D01*
X116688494Y-114496537D01*
X116785185Y-114417185D01*
X116864537Y-114320494D01*
X116890472Y-114271974D01*
X117622805Y-115004308D01*
X117646599Y-115033301D01*
X117675592Y-115057095D01*
X117675596Y-115057099D01*
X117736063Y-115106722D01*
X117762324Y-115128274D01*
X117894353Y-115198846D01*
X118037614Y-115242303D01*
X118149267Y-115253300D01*
X118149276Y-115253300D01*
X118186599Y-115256976D01*
X118223922Y-115253300D01*
X129914600Y-115253300D01*
X129914601Y-120171700D01*
X111276622Y-120171700D01*
X111239299Y-120168024D01*
X111201976Y-120171700D01*
X111201967Y-120171700D01*
X111090314Y-120182697D01*
X110947053Y-120226154D01*
X110815024Y-120296726D01*
X110699299Y-120391699D01*
X110675501Y-120420697D01*
X109147690Y-121948509D01*
X108940411Y-121810010D01*
X108670158Y-121698068D01*
X108383260Y-121641000D01*
X108090740Y-121641000D01*
X107803842Y-121698068D01*
X107533589Y-121810010D01*
X107290368Y-121972525D01*
X107083525Y-122179368D01*
X106967000Y-122353760D01*
X106850475Y-122179368D01*
X106643632Y-121972525D01*
X106400411Y-121810010D01*
X106130158Y-121698068D01*
X105843260Y-121641000D01*
X105550740Y-121641000D01*
X105263842Y-121698068D01*
X104993589Y-121810010D01*
X104750368Y-121972525D01*
X104543525Y-122179368D01*
X104427000Y-122353760D01*
X104310475Y-122179368D01*
X104103632Y-121972525D01*
X103860411Y-121810010D01*
X103590158Y-121698068D01*
X103303260Y-121641000D01*
X103010740Y-121641000D01*
X102723842Y-121698068D01*
X102453589Y-121810010D01*
X102210368Y-121972525D01*
X102003525Y-122179368D01*
X101887000Y-122353760D01*
X101770475Y-122179368D01*
X101563632Y-121972525D01*
X101320411Y-121810010D01*
X101050158Y-121698068D01*
X100763260Y-121641000D01*
X100470740Y-121641000D01*
X100183842Y-121698068D01*
X99913589Y-121810010D01*
X99670368Y-121972525D01*
X99538513Y-122104380D01*
X99516502Y-122031820D01*
X99457537Y-121921506D01*
X99378185Y-121824815D01*
X99281494Y-121745463D01*
X99171180Y-121686498D01*
X99051482Y-121650188D01*
X98927000Y-121637928D01*
X98362750Y-121641000D01*
X98204000Y-121799750D01*
X98204000Y-122999000D01*
X98224000Y-122999000D01*
X98224000Y-123253000D01*
X98204000Y-123253000D01*
X98204000Y-123273000D01*
X97950000Y-123273000D01*
X97950000Y-123253000D01*
X97930000Y-123253000D01*
X97930000Y-122999000D01*
X97950000Y-122999000D01*
X97950000Y-121799750D01*
X97791250Y-121641000D01*
X97227000Y-121637928D01*
X97102518Y-121650188D01*
X96982820Y-121686498D01*
X96872506Y-121745463D01*
X96775815Y-121824815D01*
X96696463Y-121921506D01*
X96637498Y-122031820D01*
X96601188Y-122151518D01*
X96588928Y-122276000D01*
X96591681Y-122781679D01*
X84147600Y-110337599D01*
X84147600Y-104589800D01*
X84243718Y-104629614D01*
X84516127Y-104683800D01*
X84793873Y-104683800D01*
X85066282Y-104629614D01*
X85322885Y-104523325D01*
X85553822Y-104369018D01*
X85674191Y-104248649D01*
X86359756Y-104248649D01*
X86428310Y-104490068D01*
X86679556Y-104608468D01*
X86949071Y-104675578D01*
X87226502Y-104688818D01*
X87501184Y-104647679D01*
X87762562Y-104553743D01*
X87881690Y-104490068D01*
X87950244Y-104248649D01*
X87155000Y-103453405D01*
X86359756Y-104248649D01*
X85674191Y-104248649D01*
X85750218Y-104172622D01*
X85904525Y-103941685D01*
X85905737Y-103938760D01*
X85938732Y-104000490D01*
X86180151Y-104069044D01*
X86975395Y-103273800D01*
X86961253Y-103259658D01*
X87140858Y-103080053D01*
X87155000Y-103094195D01*
X87950244Y-102298951D01*
X87881690Y-102057532D01*
X87741357Y-101991400D01*
X89066482Y-101991400D01*
X88987115Y-102024275D01*
G37*
%TD.AperFunction*%
D26*
X171209001Y-90385203D02*
X171232799Y-90414201D01*
X171348524Y-90509174D01*
X171480553Y-90579746D01*
X171623814Y-90623203D01*
X171735467Y-90634200D01*
X171735476Y-90634200D01*
X171772799Y-90637876D01*
X171810122Y-90634200D01*
X206688278Y-90634200D01*
X206725600Y-90637876D01*
X206762922Y-90634200D01*
X206762933Y-90634200D01*
X206874586Y-90623203D01*
X207017847Y-90579746D01*
X207149876Y-90509174D01*
X207265601Y-90414201D01*
X207289404Y-90385198D01*
X207523374Y-90151227D01*
X207687127Y-90183800D01*
X207723298Y-90183800D01*
X201564073Y-96343025D01*
X201564073Y-94473800D01*
X201528755Y-94115210D01*
X201424158Y-93770400D01*
X201254302Y-93452622D01*
X201025714Y-93174087D01*
X200747179Y-92945499D01*
X200429401Y-92775643D01*
X200084591Y-92671046D01*
X199726001Y-92635728D01*
X199725999Y-92635728D01*
X199367409Y-92671046D01*
X199022599Y-92775643D01*
X198704821Y-92945499D01*
X198426286Y-93174087D01*
X198197698Y-93452622D01*
X198027842Y-93770400D01*
X197923245Y-94115210D01*
X197887927Y-94473800D01*
X197887927Y-97073800D01*
X197923245Y-97432390D01*
X198027842Y-97777200D01*
X198197698Y-98094978D01*
X198426286Y-98373513D01*
X198704821Y-98602101D01*
X199022599Y-98771957D01*
X199108948Y-98798151D01*
X193258003Y-104649096D01*
X193228999Y-104672899D01*
X193173871Y-104740074D01*
X193134026Y-104788624D01*
X193077875Y-104893674D01*
X193063454Y-104920654D01*
X193019997Y-105063915D01*
X193009000Y-105175568D01*
X193009000Y-105175578D01*
X193005324Y-105212900D01*
X193009000Y-105250222D01*
X193009001Y-121847821D01*
X192822643Y-121972341D01*
X188897201Y-118046900D01*
X191595608Y-115348495D01*
X191624601Y-115324701D01*
X191648395Y-115295708D01*
X191648399Y-115295704D01*
X191719573Y-115208977D01*
X191719574Y-115208976D01*
X191790146Y-115076947D01*
X191833603Y-114933686D01*
X191844600Y-114822033D01*
X191844600Y-114822024D01*
X191848276Y-114784701D01*
X191844600Y-114747378D01*
X191844600Y-113848422D01*
X191848276Y-113811099D01*
X191844600Y-113773776D01*
X191844600Y-113773767D01*
X191833603Y-113662114D01*
X191790146Y-113518853D01*
X191719574Y-113386824D01*
X191624601Y-113271099D01*
X191595604Y-113247302D01*
X190949324Y-112601023D01*
X191173472Y-112531157D01*
X191299371Y-112267117D01*
X191371339Y-111983589D01*
X191386611Y-111691469D01*
X191344599Y-111401981D01*
X191246919Y-111126253D01*
X191173472Y-110988843D01*
X190924397Y-110911208D01*
X190075605Y-111760000D01*
X190089748Y-111774143D01*
X189910143Y-111953748D01*
X189896000Y-111939605D01*
X189881858Y-111953748D01*
X189702253Y-111774143D01*
X189716395Y-111760000D01*
X189702253Y-111745858D01*
X189881858Y-111566253D01*
X189896000Y-111580395D01*
X190744792Y-110731603D01*
X190667157Y-110482528D01*
X190403117Y-110356629D01*
X190119589Y-110284661D01*
X189827469Y-110269389D01*
X189537981Y-110311401D01*
X189262253Y-110409081D01*
X189124843Y-110482528D01*
X189076792Y-110636690D01*
X188486803Y-110046702D01*
X188463001Y-110017699D01*
X188347276Y-109922726D01*
X188215247Y-109852154D01*
X188071986Y-109808697D01*
X187960333Y-109797700D01*
X187960322Y-109797700D01*
X187923000Y-109794024D01*
X187885678Y-109797700D01*
X186055623Y-109797700D01*
X186018300Y-109794024D01*
X185980977Y-109797700D01*
X185980967Y-109797700D01*
X185869314Y-109808697D01*
X185753600Y-109843798D01*
X185726053Y-109852154D01*
X185594023Y-109922726D01*
X185533983Y-109972000D01*
X185478299Y-110017699D01*
X185454501Y-110046697D01*
X185182408Y-110318790D01*
X184962260Y-110275000D01*
X184669740Y-110275000D01*
X184382842Y-110332068D01*
X184112589Y-110444010D01*
X183869368Y-110606525D01*
X183662525Y-110813368D01*
X183537822Y-111000000D01*
X162836322Y-111000000D01*
X162798999Y-110996324D01*
X162761676Y-111000000D01*
X162761667Y-111000000D01*
X162650014Y-111010997D01*
X162519191Y-111050681D01*
X162506753Y-111054454D01*
X162374723Y-111125026D01*
X162292798Y-111192261D01*
X162258999Y-111219999D01*
X162235201Y-111248997D01*
X160639655Y-112844543D01*
X160651503Y-112805486D01*
X160662500Y-112693833D01*
X160666177Y-112656500D01*
X160666169Y-112656422D01*
X160808386Y-112580405D01*
X160942962Y-112469962D01*
X161053405Y-112335386D01*
X161135472Y-112181850D01*
X161186008Y-112015254D01*
X161203072Y-111842000D01*
X161203072Y-111042000D01*
X161186008Y-110868746D01*
X161135472Y-110702150D01*
X161053405Y-110548614D01*
X160942962Y-110414038D01*
X160808386Y-110303595D01*
X160654850Y-110221528D01*
X160488254Y-110170992D01*
X160315000Y-110153928D01*
X159490000Y-110153928D01*
X159316746Y-110170992D01*
X159150150Y-110221528D01*
X159026420Y-110287664D01*
X158994494Y-110261463D01*
X158884180Y-110202498D01*
X158764482Y-110166188D01*
X158640000Y-110153928D01*
X158263250Y-110157000D01*
X158104500Y-110315750D01*
X158104500Y-111315000D01*
X158124500Y-111315000D01*
X158124500Y-111569000D01*
X158104500Y-111569000D01*
X158104500Y-112568250D01*
X158263250Y-112727000D01*
X158640000Y-112730072D01*
X158764482Y-112717812D01*
X158767215Y-112716983D01*
X158140271Y-113343928D01*
X157526999Y-113343928D01*
X157353745Y-113360992D01*
X157187149Y-113411528D01*
X157033613Y-113493595D01*
X156899038Y-113604038D01*
X156788595Y-113738613D01*
X156706528Y-113892149D01*
X156664267Y-114031466D01*
X155716600Y-113083799D01*
X155716600Y-112092000D01*
X156676928Y-112092000D01*
X156689188Y-112216482D01*
X156725498Y-112336180D01*
X156784463Y-112446494D01*
X156863815Y-112543185D01*
X156960506Y-112622537D01*
X157070820Y-112681502D01*
X157190518Y-112717812D01*
X157315000Y-112730072D01*
X157691750Y-112727000D01*
X157850500Y-112568250D01*
X157850500Y-111569000D01*
X156838750Y-111569000D01*
X156680000Y-111727750D01*
X156676928Y-112092000D01*
X155716600Y-112092000D01*
X155716600Y-110792000D01*
X156676928Y-110792000D01*
X156680000Y-111156250D01*
X156838750Y-111315000D01*
X157850500Y-111315000D01*
X157850500Y-110315750D01*
X157691750Y-110157000D01*
X157315000Y-110153928D01*
X157190518Y-110166188D01*
X157070820Y-110202498D01*
X156960506Y-110261463D01*
X156863815Y-110340815D01*
X156784463Y-110437506D01*
X156725498Y-110547820D01*
X156689188Y-110667518D01*
X156676928Y-110792000D01*
X155716600Y-110792000D01*
X155716600Y-110427701D01*
X157593230Y-108551072D01*
X158219000Y-108551072D01*
X158392254Y-108534008D01*
X158558850Y-108483472D01*
X158712386Y-108401405D01*
X158846962Y-108290962D01*
X158852342Y-108284406D01*
X158917815Y-108364185D01*
X159014506Y-108443537D01*
X159124820Y-108502502D01*
X159244518Y-108538812D01*
X159369000Y-108551072D01*
X159670750Y-108548000D01*
X159829500Y-108389250D01*
X159829500Y-107315000D01*
X160083500Y-107315000D01*
X160083500Y-108389250D01*
X160242250Y-108548000D01*
X160544000Y-108551072D01*
X160668482Y-108538812D01*
X160788180Y-108502502D01*
X160898494Y-108443537D01*
X160995185Y-108364185D01*
X161074537Y-108267494D01*
X161133502Y-108157180D01*
X161169812Y-108037482D01*
X161182072Y-107913000D01*
X161179000Y-107473750D01*
X161020250Y-107315000D01*
X160083500Y-107315000D01*
X159829500Y-107315000D01*
X159809500Y-107315000D01*
X159809500Y-107061000D01*
X159829500Y-107061000D01*
X159829500Y-105986750D01*
X160083500Y-105986750D01*
X160083500Y-107061000D01*
X161020250Y-107061000D01*
X161179000Y-106902250D01*
X161182072Y-106463000D01*
X161169812Y-106338518D01*
X161133502Y-106218820D01*
X161074537Y-106108506D01*
X160995185Y-106011815D01*
X160898494Y-105932463D01*
X160788180Y-105873498D01*
X160668482Y-105837188D01*
X160544000Y-105824928D01*
X160242250Y-105828000D01*
X160083500Y-105986750D01*
X159829500Y-105986750D01*
X159670750Y-105828000D01*
X159369000Y-105824928D01*
X159244518Y-105837188D01*
X159124820Y-105873498D01*
X159014506Y-105932463D01*
X158917815Y-106011815D01*
X158852342Y-106091594D01*
X158846962Y-106085038D01*
X158712386Y-105974595D01*
X158558850Y-105892528D01*
X158392254Y-105841992D01*
X158219000Y-105824928D01*
X157544000Y-105824928D01*
X157370746Y-105841992D01*
X157204150Y-105892528D01*
X157050614Y-105974595D01*
X156916038Y-106085038D01*
X156805595Y-106219614D01*
X156723528Y-106373150D01*
X156706890Y-106428000D01*
X155739333Y-106428000D01*
X155702000Y-106424323D01*
X155664667Y-106428000D01*
X155553014Y-106438997D01*
X155409753Y-106482454D01*
X155277724Y-106553026D01*
X155161999Y-106647999D01*
X155138201Y-106676997D01*
X151655654Y-110159545D01*
X151398804Y-110159545D01*
X151385142Y-110148333D01*
X151384665Y-110148078D01*
X151384409Y-110147599D01*
X151305057Y-110050908D01*
X150916148Y-109661999D01*
X150819457Y-109582647D01*
X150818979Y-109582392D01*
X150818724Y-109581914D01*
X150739372Y-109485223D01*
X150350463Y-109096314D01*
X150253772Y-109016962D01*
X150252723Y-109016401D01*
X150179115Y-108929311D01*
X150048893Y-108929311D01*
X150023760Y-108921687D01*
X149899278Y-108909427D01*
X149783484Y-108920831D01*
X149794888Y-108805037D01*
X149782628Y-108680555D01*
X149775003Y-108655419D01*
X149775003Y-108525199D01*
X149687913Y-108451591D01*
X149687353Y-108450543D01*
X149608001Y-108353852D01*
X149219092Y-107964943D01*
X149122401Y-107885591D01*
X149121922Y-107885335D01*
X149121667Y-107884858D01*
X149042315Y-107788167D01*
X148773313Y-107519165D01*
X148787104Y-107473676D01*
X148810003Y-107398186D01*
X148810010Y-107398116D01*
X148810028Y-107398056D01*
X148817091Y-107326217D01*
X148824676Y-107249200D01*
X148824669Y-107249134D01*
X148824676Y-107249067D01*
X148817622Y-107177573D01*
X148810003Y-107100214D01*
X148809982Y-107100145D01*
X148809976Y-107100084D01*
X148789007Y-107030999D01*
X148766546Y-106956954D01*
X148766514Y-106956894D01*
X148766495Y-106956832D01*
X148732997Y-106894189D01*
X148695974Y-106824924D01*
X148695929Y-106824869D01*
X148695900Y-106824815D01*
X148649827Y-106768694D01*
X148601001Y-106709199D01*
X148571951Y-106685358D01*
X148334961Y-106448451D01*
X148311201Y-106419499D01*
X148282147Y-106395655D01*
X148282105Y-106395613D01*
X148255741Y-106373984D01*
X148195476Y-106324526D01*
X148195416Y-106324494D01*
X148195366Y-106324453D01*
X148132746Y-106290996D01*
X148063447Y-106253954D01*
X148063379Y-106253933D01*
X148063324Y-106253904D01*
X147996300Y-106233585D01*
X147920186Y-106210497D01*
X147920116Y-106210490D01*
X147920056Y-106210472D01*
X147850503Y-106203634D01*
X147808533Y-106199500D01*
X147808458Y-106199500D01*
X147771069Y-106195824D01*
X147733810Y-106199500D01*
X147584402Y-106199500D01*
X147561600Y-106176698D01*
X147561600Y-106114561D01*
X147521826Y-105914602D01*
X147443805Y-105726244D01*
X147330537Y-105556726D01*
X147283006Y-105509195D01*
X149657274Y-103134927D01*
X162026000Y-103134927D01*
X162026000Y-103412673D01*
X162080186Y-103685082D01*
X162186475Y-103941685D01*
X162340782Y-104172622D01*
X162537178Y-104369018D01*
X162768115Y-104523325D01*
X163024718Y-104629614D01*
X163297127Y-104683800D01*
X163574873Y-104683800D01*
X163847282Y-104629614D01*
X164103885Y-104523325D01*
X164334822Y-104369018D01*
X164455191Y-104248649D01*
X165140756Y-104248649D01*
X165209310Y-104490068D01*
X165460556Y-104608468D01*
X165730071Y-104675578D01*
X166007502Y-104688818D01*
X166282184Y-104647679D01*
X166543562Y-104553743D01*
X166662690Y-104490068D01*
X166731244Y-104248649D01*
X165936000Y-103453405D01*
X165140756Y-104248649D01*
X164455191Y-104248649D01*
X164531218Y-104172622D01*
X164685525Y-103941685D01*
X164686737Y-103938760D01*
X164719732Y-104000490D01*
X164961151Y-104069044D01*
X165756395Y-103273800D01*
X166115605Y-103273800D01*
X166910849Y-104069044D01*
X167152268Y-104000490D01*
X167183437Y-103934350D01*
X167186475Y-103941685D01*
X167340782Y-104172622D01*
X167537178Y-104369018D01*
X167768115Y-104523325D01*
X168024718Y-104629614D01*
X168297127Y-104683800D01*
X168574873Y-104683800D01*
X168847282Y-104629614D01*
X169103885Y-104523325D01*
X169334822Y-104369018D01*
X169531218Y-104172622D01*
X169685525Y-103941685D01*
X169791814Y-103685082D01*
X169846000Y-103412673D01*
X169846000Y-103134927D01*
X169791814Y-102862518D01*
X169685525Y-102605915D01*
X169531218Y-102374978D01*
X169334822Y-102178582D01*
X169103885Y-102024275D01*
X168847282Y-101917986D01*
X168574873Y-101863800D01*
X168297127Y-101863800D01*
X168024718Y-101917986D01*
X167768115Y-102024275D01*
X167537178Y-102178582D01*
X167340782Y-102374978D01*
X167186475Y-102605915D01*
X167185263Y-102608840D01*
X167152268Y-102547110D01*
X166910849Y-102478556D01*
X166115605Y-103273800D01*
X165756395Y-103273800D01*
X164961151Y-102478556D01*
X164719732Y-102547110D01*
X164688563Y-102613250D01*
X164685525Y-102605915D01*
X164531218Y-102374978D01*
X164455191Y-102298951D01*
X165140756Y-102298951D01*
X165936000Y-103094195D01*
X166731244Y-102298951D01*
X166662690Y-102057532D01*
X166411444Y-101939132D01*
X166141929Y-101872022D01*
X165864498Y-101858782D01*
X165589816Y-101899921D01*
X165328438Y-101993857D01*
X165209310Y-102057532D01*
X165140756Y-102298951D01*
X164455191Y-102298951D01*
X164334822Y-102178582D01*
X164103885Y-102024275D01*
X163847282Y-101917986D01*
X163574873Y-101863800D01*
X163297127Y-101863800D01*
X163024718Y-101917986D01*
X162768115Y-102024275D01*
X162537178Y-102178582D01*
X162340782Y-102374978D01*
X162186475Y-102605915D01*
X162080186Y-102862518D01*
X162026000Y-103134927D01*
X149657274Y-103134927D01*
X158517540Y-94274661D01*
X158497927Y-94473800D01*
X158497927Y-97073800D01*
X158533245Y-97432390D01*
X158637842Y-97777200D01*
X158807698Y-98094978D01*
X159036286Y-98373513D01*
X159314821Y-98602101D01*
X159632599Y-98771957D01*
X159977409Y-98876554D01*
X160335999Y-98911872D01*
X160336001Y-98911872D01*
X160694591Y-98876554D01*
X161039401Y-98771957D01*
X161357179Y-98602101D01*
X161635714Y-98373513D01*
X161864302Y-98094978D01*
X162034158Y-97777200D01*
X162138755Y-97432390D01*
X162174073Y-97073800D01*
X162174073Y-94473800D01*
X169697927Y-94473800D01*
X169697927Y-97073800D01*
X169733245Y-97432390D01*
X169837842Y-97777200D01*
X170007698Y-98094978D01*
X170236286Y-98373513D01*
X170514821Y-98602101D01*
X170832599Y-98771957D01*
X171177409Y-98876554D01*
X171535999Y-98911872D01*
X171536001Y-98911872D01*
X171894591Y-98876554D01*
X172239401Y-98771957D01*
X172557179Y-98602101D01*
X172835714Y-98373513D01*
X173064302Y-98094978D01*
X173234158Y-97777200D01*
X173338755Y-97432390D01*
X173374073Y-97073800D01*
X173374073Y-94473800D01*
X173338755Y-94115210D01*
X173234158Y-93770400D01*
X173064302Y-93452622D01*
X172835714Y-93174087D01*
X172557179Y-92945499D01*
X172239401Y-92775643D01*
X171894591Y-92671046D01*
X171536001Y-92635728D01*
X171535999Y-92635728D01*
X171177409Y-92671046D01*
X170832599Y-92775643D01*
X170514821Y-92945499D01*
X170236286Y-93174087D01*
X170007698Y-93452622D01*
X169837842Y-93770400D01*
X169733245Y-94115210D01*
X169697927Y-94473800D01*
X162174073Y-94473800D01*
X162138755Y-94115210D01*
X162034158Y-93770400D01*
X161864302Y-93452622D01*
X161635714Y-93174087D01*
X161357179Y-92945499D01*
X161234826Y-92880100D01*
X165052378Y-92880100D01*
X165089700Y-92883776D01*
X165127022Y-92880100D01*
X165127033Y-92880100D01*
X165238686Y-92869103D01*
X165381947Y-92825646D01*
X165513976Y-92755074D01*
X165629701Y-92660101D01*
X165653504Y-92631097D01*
X168133374Y-90151227D01*
X168297127Y-90183800D01*
X168574873Y-90183800D01*
X168847282Y-90129614D01*
X169103885Y-90023325D01*
X169334822Y-89869018D01*
X169531218Y-89672622D01*
X169685525Y-89441685D01*
X169791814Y-89185082D01*
X169827828Y-89004029D01*
X171209001Y-90385203D01*
%TA.AperFunction,Conductor*%
D27*
G36*
X171209001Y-90385203D02*
G01*
X171232799Y-90414201D01*
X171348524Y-90509174D01*
X171480553Y-90579746D01*
X171623814Y-90623203D01*
X171735467Y-90634200D01*
X171735476Y-90634200D01*
X171772799Y-90637876D01*
X171810122Y-90634200D01*
X206688278Y-90634200D01*
X206725600Y-90637876D01*
X206762922Y-90634200D01*
X206762933Y-90634200D01*
X206874586Y-90623203D01*
X207017847Y-90579746D01*
X207149876Y-90509174D01*
X207265601Y-90414201D01*
X207289404Y-90385198D01*
X207523374Y-90151227D01*
X207687127Y-90183800D01*
X207723298Y-90183800D01*
X201564073Y-96343025D01*
X201564073Y-94473800D01*
X201528755Y-94115210D01*
X201424158Y-93770400D01*
X201254302Y-93452622D01*
X201025714Y-93174087D01*
X200747179Y-92945499D01*
X200429401Y-92775643D01*
X200084591Y-92671046D01*
X199726001Y-92635728D01*
X199725999Y-92635728D01*
X199367409Y-92671046D01*
X199022599Y-92775643D01*
X198704821Y-92945499D01*
X198426286Y-93174087D01*
X198197698Y-93452622D01*
X198027842Y-93770400D01*
X197923245Y-94115210D01*
X197887927Y-94473800D01*
X197887927Y-97073800D01*
X197923245Y-97432390D01*
X198027842Y-97777200D01*
X198197698Y-98094978D01*
X198426286Y-98373513D01*
X198704821Y-98602101D01*
X199022599Y-98771957D01*
X199108948Y-98798151D01*
X193258003Y-104649096D01*
X193228999Y-104672899D01*
X193173871Y-104740074D01*
X193134026Y-104788624D01*
X193077875Y-104893674D01*
X193063454Y-104920654D01*
X193019997Y-105063915D01*
X193009000Y-105175568D01*
X193009000Y-105175578D01*
X193005324Y-105212900D01*
X193009000Y-105250222D01*
X193009001Y-121847821D01*
X192822643Y-121972341D01*
X188897201Y-118046900D01*
X191595608Y-115348495D01*
X191624601Y-115324701D01*
X191648395Y-115295708D01*
X191648399Y-115295704D01*
X191719573Y-115208977D01*
X191719574Y-115208976D01*
X191790146Y-115076947D01*
X191833603Y-114933686D01*
X191844600Y-114822033D01*
X191844600Y-114822024D01*
X191848276Y-114784701D01*
X191844600Y-114747378D01*
X191844600Y-113848422D01*
X191848276Y-113811099D01*
X191844600Y-113773776D01*
X191844600Y-113773767D01*
X191833603Y-113662114D01*
X191790146Y-113518853D01*
X191719574Y-113386824D01*
X191624601Y-113271099D01*
X191595604Y-113247302D01*
X190949324Y-112601023D01*
X191173472Y-112531157D01*
X191299371Y-112267117D01*
X191371339Y-111983589D01*
X191386611Y-111691469D01*
X191344599Y-111401981D01*
X191246919Y-111126253D01*
X191173472Y-110988843D01*
X190924397Y-110911208D01*
X190075605Y-111760000D01*
X190089748Y-111774143D01*
X189910143Y-111953748D01*
X189896000Y-111939605D01*
X189881858Y-111953748D01*
X189702253Y-111774143D01*
X189716395Y-111760000D01*
X189702253Y-111745858D01*
X189881858Y-111566253D01*
X189896000Y-111580395D01*
X190744792Y-110731603D01*
X190667157Y-110482528D01*
X190403117Y-110356629D01*
X190119589Y-110284661D01*
X189827469Y-110269389D01*
X189537981Y-110311401D01*
X189262253Y-110409081D01*
X189124843Y-110482528D01*
X189076792Y-110636690D01*
X188486803Y-110046702D01*
X188463001Y-110017699D01*
X188347276Y-109922726D01*
X188215247Y-109852154D01*
X188071986Y-109808697D01*
X187960333Y-109797700D01*
X187960322Y-109797700D01*
X187923000Y-109794024D01*
X187885678Y-109797700D01*
X186055623Y-109797700D01*
X186018300Y-109794024D01*
X185980977Y-109797700D01*
X185980967Y-109797700D01*
X185869314Y-109808697D01*
X185753600Y-109843798D01*
X185726053Y-109852154D01*
X185594023Y-109922726D01*
X185533983Y-109972000D01*
X185478299Y-110017699D01*
X185454501Y-110046697D01*
X185182408Y-110318790D01*
X184962260Y-110275000D01*
X184669740Y-110275000D01*
X184382842Y-110332068D01*
X184112589Y-110444010D01*
X183869368Y-110606525D01*
X183662525Y-110813368D01*
X183537822Y-111000000D01*
X162836322Y-111000000D01*
X162798999Y-110996324D01*
X162761676Y-111000000D01*
X162761667Y-111000000D01*
X162650014Y-111010997D01*
X162519191Y-111050681D01*
X162506753Y-111054454D01*
X162374723Y-111125026D01*
X162292798Y-111192261D01*
X162258999Y-111219999D01*
X162235201Y-111248997D01*
X160639655Y-112844543D01*
X160651503Y-112805486D01*
X160662500Y-112693833D01*
X160666177Y-112656500D01*
X160666169Y-112656422D01*
X160808386Y-112580405D01*
X160942962Y-112469962D01*
X161053405Y-112335386D01*
X161135472Y-112181850D01*
X161186008Y-112015254D01*
X161203072Y-111842000D01*
X161203072Y-111042000D01*
X161186008Y-110868746D01*
X161135472Y-110702150D01*
X161053405Y-110548614D01*
X160942962Y-110414038D01*
X160808386Y-110303595D01*
X160654850Y-110221528D01*
X160488254Y-110170992D01*
X160315000Y-110153928D01*
X159490000Y-110153928D01*
X159316746Y-110170992D01*
X159150150Y-110221528D01*
X159026420Y-110287664D01*
X158994494Y-110261463D01*
X158884180Y-110202498D01*
X158764482Y-110166188D01*
X158640000Y-110153928D01*
X158263250Y-110157000D01*
X158104500Y-110315750D01*
X158104500Y-111315000D01*
X158124500Y-111315000D01*
X158124500Y-111569000D01*
X158104500Y-111569000D01*
X158104500Y-112568250D01*
X158263250Y-112727000D01*
X158640000Y-112730072D01*
X158764482Y-112717812D01*
X158767215Y-112716983D01*
X158140271Y-113343928D01*
X157526999Y-113343928D01*
X157353745Y-113360992D01*
X157187149Y-113411528D01*
X157033613Y-113493595D01*
X156899038Y-113604038D01*
X156788595Y-113738613D01*
X156706528Y-113892149D01*
X156664267Y-114031466D01*
X155716600Y-113083799D01*
X155716600Y-112092000D01*
X156676928Y-112092000D01*
X156689188Y-112216482D01*
X156725498Y-112336180D01*
X156784463Y-112446494D01*
X156863815Y-112543185D01*
X156960506Y-112622537D01*
X157070820Y-112681502D01*
X157190518Y-112717812D01*
X157315000Y-112730072D01*
X157691750Y-112727000D01*
X157850500Y-112568250D01*
X157850500Y-111569000D01*
X156838750Y-111569000D01*
X156680000Y-111727750D01*
X156676928Y-112092000D01*
X155716600Y-112092000D01*
X155716600Y-110792000D01*
X156676928Y-110792000D01*
X156680000Y-111156250D01*
X156838750Y-111315000D01*
X157850500Y-111315000D01*
X157850500Y-110315750D01*
X157691750Y-110157000D01*
X157315000Y-110153928D01*
X157190518Y-110166188D01*
X157070820Y-110202498D01*
X156960506Y-110261463D01*
X156863815Y-110340815D01*
X156784463Y-110437506D01*
X156725498Y-110547820D01*
X156689188Y-110667518D01*
X156676928Y-110792000D01*
X155716600Y-110792000D01*
X155716600Y-110427701D01*
X157593230Y-108551072D01*
X158219000Y-108551072D01*
X158392254Y-108534008D01*
X158558850Y-108483472D01*
X158712386Y-108401405D01*
X158846962Y-108290962D01*
X158852342Y-108284406D01*
X158917815Y-108364185D01*
X159014506Y-108443537D01*
X159124820Y-108502502D01*
X159244518Y-108538812D01*
X159369000Y-108551072D01*
X159670750Y-108548000D01*
X159829500Y-108389250D01*
X159829500Y-107315000D01*
X160083500Y-107315000D01*
X160083500Y-108389250D01*
X160242250Y-108548000D01*
X160544000Y-108551072D01*
X160668482Y-108538812D01*
X160788180Y-108502502D01*
X160898494Y-108443537D01*
X160995185Y-108364185D01*
X161074537Y-108267494D01*
X161133502Y-108157180D01*
X161169812Y-108037482D01*
X161182072Y-107913000D01*
X161179000Y-107473750D01*
X161020250Y-107315000D01*
X160083500Y-107315000D01*
X159829500Y-107315000D01*
X159809500Y-107315000D01*
X159809500Y-107061000D01*
X159829500Y-107061000D01*
X159829500Y-105986750D01*
X160083500Y-105986750D01*
X160083500Y-107061000D01*
X161020250Y-107061000D01*
X161179000Y-106902250D01*
X161182072Y-106463000D01*
X161169812Y-106338518D01*
X161133502Y-106218820D01*
X161074537Y-106108506D01*
X160995185Y-106011815D01*
X160898494Y-105932463D01*
X160788180Y-105873498D01*
X160668482Y-105837188D01*
X160544000Y-105824928D01*
X160242250Y-105828000D01*
X160083500Y-105986750D01*
X159829500Y-105986750D01*
X159670750Y-105828000D01*
X159369000Y-105824928D01*
X159244518Y-105837188D01*
X159124820Y-105873498D01*
X159014506Y-105932463D01*
X158917815Y-106011815D01*
X158852342Y-106091594D01*
X158846962Y-106085038D01*
X158712386Y-105974595D01*
X158558850Y-105892528D01*
X158392254Y-105841992D01*
X158219000Y-105824928D01*
X157544000Y-105824928D01*
X157370746Y-105841992D01*
X157204150Y-105892528D01*
X157050614Y-105974595D01*
X156916038Y-106085038D01*
X156805595Y-106219614D01*
X156723528Y-106373150D01*
X156706890Y-106428000D01*
X155739333Y-106428000D01*
X155702000Y-106424323D01*
X155664667Y-106428000D01*
X155553014Y-106438997D01*
X155409753Y-106482454D01*
X155277724Y-106553026D01*
X155161999Y-106647999D01*
X155138201Y-106676997D01*
X151655654Y-110159545D01*
X151398804Y-110159545D01*
X151385142Y-110148333D01*
X151384665Y-110148078D01*
X151384409Y-110147599D01*
X151305057Y-110050908D01*
X150916148Y-109661999D01*
X150819457Y-109582647D01*
X150818979Y-109582392D01*
X150818724Y-109581914D01*
X150739372Y-109485223D01*
X150350463Y-109096314D01*
X150253772Y-109016962D01*
X150252723Y-109016401D01*
X150179115Y-108929311D01*
X150048893Y-108929311D01*
X150023760Y-108921687D01*
X149899278Y-108909427D01*
X149783484Y-108920831D01*
X149794888Y-108805037D01*
X149782628Y-108680555D01*
X149775003Y-108655419D01*
X149775003Y-108525199D01*
X149687913Y-108451591D01*
X149687353Y-108450543D01*
X149608001Y-108353852D01*
X149219092Y-107964943D01*
X149122401Y-107885591D01*
X149121922Y-107885335D01*
X149121667Y-107884858D01*
X149042315Y-107788167D01*
X148773313Y-107519165D01*
X148787104Y-107473676D01*
X148810003Y-107398186D01*
X148810010Y-107398116D01*
X148810028Y-107398056D01*
X148817091Y-107326217D01*
X148824676Y-107249200D01*
X148824669Y-107249134D01*
X148824676Y-107249067D01*
X148817622Y-107177573D01*
X148810003Y-107100214D01*
X148809982Y-107100145D01*
X148809976Y-107100084D01*
X148789007Y-107030999D01*
X148766546Y-106956954D01*
X148766514Y-106956894D01*
X148766495Y-106956832D01*
X148732997Y-106894189D01*
X148695974Y-106824924D01*
X148695929Y-106824869D01*
X148695900Y-106824815D01*
X148649827Y-106768694D01*
X148601001Y-106709199D01*
X148571951Y-106685358D01*
X148334961Y-106448451D01*
X148311201Y-106419499D01*
X148282147Y-106395655D01*
X148282105Y-106395613D01*
X148255741Y-106373984D01*
X148195476Y-106324526D01*
X148195416Y-106324494D01*
X148195366Y-106324453D01*
X148132746Y-106290996D01*
X148063447Y-106253954D01*
X148063379Y-106253933D01*
X148063324Y-106253904D01*
X147996300Y-106233585D01*
X147920186Y-106210497D01*
X147920116Y-106210490D01*
X147920056Y-106210472D01*
X147850503Y-106203634D01*
X147808533Y-106199500D01*
X147808458Y-106199500D01*
X147771069Y-106195824D01*
X147733810Y-106199500D01*
X147584402Y-106199500D01*
X147561600Y-106176698D01*
X147561600Y-106114561D01*
X147521826Y-105914602D01*
X147443805Y-105726244D01*
X147330537Y-105556726D01*
X147283006Y-105509195D01*
X149657274Y-103134927D01*
X162026000Y-103134927D01*
X162026000Y-103412673D01*
X162080186Y-103685082D01*
X162186475Y-103941685D01*
X162340782Y-104172622D01*
X162537178Y-104369018D01*
X162768115Y-104523325D01*
X163024718Y-104629614D01*
X163297127Y-104683800D01*
X163574873Y-104683800D01*
X163847282Y-104629614D01*
X164103885Y-104523325D01*
X164334822Y-104369018D01*
X164455191Y-104248649D01*
X165140756Y-104248649D01*
X165209310Y-104490068D01*
X165460556Y-104608468D01*
X165730071Y-104675578D01*
X166007502Y-104688818D01*
X166282184Y-104647679D01*
X166543562Y-104553743D01*
X166662690Y-104490068D01*
X166731244Y-104248649D01*
X165936000Y-103453405D01*
X165140756Y-104248649D01*
X164455191Y-104248649D01*
X164531218Y-104172622D01*
X164685525Y-103941685D01*
X164686737Y-103938760D01*
X164719732Y-104000490D01*
X164961151Y-104069044D01*
X165756395Y-103273800D01*
X166115605Y-103273800D01*
X166910849Y-104069044D01*
X167152268Y-104000490D01*
X167183437Y-103934350D01*
X167186475Y-103941685D01*
X167340782Y-104172622D01*
X167537178Y-104369018D01*
X167768115Y-104523325D01*
X168024718Y-104629614D01*
X168297127Y-104683800D01*
X168574873Y-104683800D01*
X168847282Y-104629614D01*
X169103885Y-104523325D01*
X169334822Y-104369018D01*
X169531218Y-104172622D01*
X169685525Y-103941685D01*
X169791814Y-103685082D01*
X169846000Y-103412673D01*
X169846000Y-103134927D01*
X169791814Y-102862518D01*
X169685525Y-102605915D01*
X169531218Y-102374978D01*
X169334822Y-102178582D01*
X169103885Y-102024275D01*
X168847282Y-101917986D01*
X168574873Y-101863800D01*
X168297127Y-101863800D01*
X168024718Y-101917986D01*
X167768115Y-102024275D01*
X167537178Y-102178582D01*
X167340782Y-102374978D01*
X167186475Y-102605915D01*
X167185263Y-102608840D01*
X167152268Y-102547110D01*
X166910849Y-102478556D01*
X166115605Y-103273800D01*
X165756395Y-103273800D01*
X164961151Y-102478556D01*
X164719732Y-102547110D01*
X164688563Y-102613250D01*
X164685525Y-102605915D01*
X164531218Y-102374978D01*
X164455191Y-102298951D01*
X165140756Y-102298951D01*
X165936000Y-103094195D01*
X166731244Y-102298951D01*
X166662690Y-102057532D01*
X166411444Y-101939132D01*
X166141929Y-101872022D01*
X165864498Y-101858782D01*
X165589816Y-101899921D01*
X165328438Y-101993857D01*
X165209310Y-102057532D01*
X165140756Y-102298951D01*
X164455191Y-102298951D01*
X164334822Y-102178582D01*
X164103885Y-102024275D01*
X163847282Y-101917986D01*
X163574873Y-101863800D01*
X163297127Y-101863800D01*
X163024718Y-101917986D01*
X162768115Y-102024275D01*
X162537178Y-102178582D01*
X162340782Y-102374978D01*
X162186475Y-102605915D01*
X162080186Y-102862518D01*
X162026000Y-103134927D01*
X149657274Y-103134927D01*
X158517540Y-94274661D01*
X158497927Y-94473800D01*
X158497927Y-97073800D01*
X158533245Y-97432390D01*
X158637842Y-97777200D01*
X158807698Y-98094978D01*
X159036286Y-98373513D01*
X159314821Y-98602101D01*
X159632599Y-98771957D01*
X159977409Y-98876554D01*
X160335999Y-98911872D01*
X160336001Y-98911872D01*
X160694591Y-98876554D01*
X161039401Y-98771957D01*
X161357179Y-98602101D01*
X161635714Y-98373513D01*
X161864302Y-98094978D01*
X162034158Y-97777200D01*
X162138755Y-97432390D01*
X162174073Y-97073800D01*
X162174073Y-94473800D01*
X169697927Y-94473800D01*
X169697927Y-97073800D01*
X169733245Y-97432390D01*
X169837842Y-97777200D01*
X170007698Y-98094978D01*
X170236286Y-98373513D01*
X170514821Y-98602101D01*
X170832599Y-98771957D01*
X171177409Y-98876554D01*
X171535999Y-98911872D01*
X171536001Y-98911872D01*
X171894591Y-98876554D01*
X172239401Y-98771957D01*
X172557179Y-98602101D01*
X172835714Y-98373513D01*
X173064302Y-98094978D01*
X173234158Y-97777200D01*
X173338755Y-97432390D01*
X173374073Y-97073800D01*
X173374073Y-94473800D01*
X173338755Y-94115210D01*
X173234158Y-93770400D01*
X173064302Y-93452622D01*
X172835714Y-93174087D01*
X172557179Y-92945499D01*
X172239401Y-92775643D01*
X171894591Y-92671046D01*
X171536001Y-92635728D01*
X171535999Y-92635728D01*
X171177409Y-92671046D01*
X170832599Y-92775643D01*
X170514821Y-92945499D01*
X170236286Y-93174087D01*
X170007698Y-93452622D01*
X169837842Y-93770400D01*
X169733245Y-94115210D01*
X169697927Y-94473800D01*
X162174073Y-94473800D01*
X162138755Y-94115210D01*
X162034158Y-93770400D01*
X161864302Y-93452622D01*
X161635714Y-93174087D01*
X161357179Y-92945499D01*
X161234826Y-92880100D01*
X165052378Y-92880100D01*
X165089700Y-92883776D01*
X165127022Y-92880100D01*
X165127033Y-92880100D01*
X165238686Y-92869103D01*
X165381947Y-92825646D01*
X165513976Y-92755074D01*
X165629701Y-92660101D01*
X165653504Y-92631097D01*
X168133374Y-90151227D01*
X168297127Y-90183800D01*
X168574873Y-90183800D01*
X168847282Y-90129614D01*
X169103885Y-90023325D01*
X169334822Y-89869018D01*
X169531218Y-89672622D01*
X169685525Y-89441685D01*
X169791814Y-89185082D01*
X169827828Y-89004029D01*
X171209001Y-90385203D01*
G37*
%TD.AperFunction*%
D26*
X142685112Y-117254963D02*
X142697372Y-117379445D01*
X142704997Y-117404581D01*
X142704997Y-117534801D01*
X142792087Y-117608409D01*
X142792647Y-117609457D01*
X142871999Y-117706148D01*
X143094724Y-117928873D01*
X141107599Y-119916000D01*
X135796670Y-119916000D01*
X135803072Y-119851000D01*
X135800000Y-119411750D01*
X135641250Y-119253000D01*
X134704500Y-119253000D01*
X134704500Y-119273000D01*
X134450500Y-119273000D01*
X134450500Y-119253000D01*
X134430500Y-119253000D01*
X134430500Y-118999000D01*
X134450500Y-118999000D01*
X134450500Y-118979000D01*
X134704500Y-118979000D01*
X134704500Y-118999000D01*
X135641250Y-118999000D01*
X135800000Y-118840250D01*
X135803072Y-118401000D01*
X135790812Y-118276518D01*
X135754502Y-118156820D01*
X135695537Y-118046506D01*
X135616185Y-117949815D01*
X135519494Y-117870463D01*
X135409180Y-117811498D01*
X135289482Y-117775188D01*
X135165000Y-117762928D01*
X134938064Y-117765238D01*
X134982402Y-117720900D01*
X141706178Y-117720900D01*
X141743500Y-117724576D01*
X141780822Y-117720900D01*
X141780833Y-117720900D01*
X141892486Y-117709903D01*
X142035747Y-117666446D01*
X142167776Y-117595874D01*
X142283501Y-117500901D01*
X142307304Y-117471897D01*
X142633862Y-117145339D01*
X142696516Y-117139169D01*
X142685112Y-117254963D01*
%TA.AperFunction,Conductor*%
D27*
G36*
X142685112Y-117254963D02*
G01*
X142697372Y-117379445D01*
X142704997Y-117404581D01*
X142704997Y-117534801D01*
X142792087Y-117608409D01*
X142792647Y-117609457D01*
X142871999Y-117706148D01*
X143094724Y-117928873D01*
X141107599Y-119916000D01*
X135796670Y-119916000D01*
X135803072Y-119851000D01*
X135800000Y-119411750D01*
X135641250Y-119253000D01*
X134704500Y-119253000D01*
X134704500Y-119273000D01*
X134450500Y-119273000D01*
X134450500Y-119253000D01*
X134430500Y-119253000D01*
X134430500Y-118999000D01*
X134450500Y-118999000D01*
X134450500Y-118979000D01*
X134704500Y-118979000D01*
X134704500Y-118999000D01*
X135641250Y-118999000D01*
X135800000Y-118840250D01*
X135803072Y-118401000D01*
X135790812Y-118276518D01*
X135754502Y-118156820D01*
X135695537Y-118046506D01*
X135616185Y-117949815D01*
X135519494Y-117870463D01*
X135409180Y-117811498D01*
X135289482Y-117775188D01*
X135165000Y-117762928D01*
X134938064Y-117765238D01*
X134982402Y-117720900D01*
X141706178Y-117720900D01*
X141743500Y-117724576D01*
X141780822Y-117720900D01*
X141780833Y-117720900D01*
X141892486Y-117709903D01*
X142035747Y-117666446D01*
X142167776Y-117595874D01*
X142283501Y-117500901D01*
X142307304Y-117471897D01*
X142633862Y-117145339D01*
X142696516Y-117139169D01*
X142685112Y-117254963D01*
G37*
%TD.AperFunction*%
D26*
X134578500Y-107061000D02*
X134598500Y-107061000D01*
X134598500Y-107315000D01*
X134578500Y-107315000D01*
X134578500Y-108389250D01*
X134737250Y-108548000D01*
X134850616Y-108549154D01*
X134824010Y-108570989D01*
X134800212Y-108599987D01*
X134800211Y-108599988D01*
X134729036Y-108686714D01*
X134658464Y-108818744D01*
X134642660Y-108870846D01*
X134615008Y-108962004D01*
X134608575Y-109027315D01*
X134600334Y-109110990D01*
X134604011Y-109148322D01*
X134604011Y-111677239D01*
X134578500Y-111702750D01*
X134578500Y-112777000D01*
X134598500Y-112777000D01*
X134598500Y-113031000D01*
X134578500Y-113031000D01*
X134578500Y-114105250D01*
X134604010Y-114130760D01*
X134604010Y-114219898D01*
X134052900Y-114771008D01*
X134052900Y-114265149D01*
X134165750Y-114264000D01*
X134324500Y-114105250D01*
X134324500Y-113031000D01*
X134304500Y-113031000D01*
X134304500Y-112777000D01*
X134324500Y-112777000D01*
X134324500Y-111702750D01*
X134165750Y-111544000D01*
X133864000Y-111540928D01*
X133739518Y-111553188D01*
X133731287Y-111555685D01*
X133305203Y-111129602D01*
X133281401Y-111100599D01*
X133165676Y-111005626D01*
X133136500Y-110990031D01*
X133136500Y-108439294D01*
X133207386Y-108401405D01*
X133341962Y-108290962D01*
X133347342Y-108284406D01*
X133412815Y-108364185D01*
X133509506Y-108443537D01*
X133619820Y-108502502D01*
X133739518Y-108538812D01*
X133864000Y-108551072D01*
X134165750Y-108548000D01*
X134324500Y-108389250D01*
X134324500Y-107315000D01*
X134304500Y-107315000D01*
X134304500Y-107061000D01*
X134324500Y-107061000D01*
X134324500Y-107041000D01*
X134578500Y-107041000D01*
X134578500Y-107061000D01*
%TA.AperFunction,Conductor*%
D27*
G36*
X134578500Y-107061000D02*
G01*
X134598500Y-107061000D01*
X134598500Y-107315000D01*
X134578500Y-107315000D01*
X134578500Y-108389250D01*
X134737250Y-108548000D01*
X134850616Y-108549154D01*
X134824010Y-108570989D01*
X134800212Y-108599987D01*
X134800211Y-108599988D01*
X134729036Y-108686714D01*
X134658464Y-108818744D01*
X134642660Y-108870846D01*
X134615008Y-108962004D01*
X134608575Y-109027315D01*
X134600334Y-109110990D01*
X134604011Y-109148322D01*
X134604011Y-111677239D01*
X134578500Y-111702750D01*
X134578500Y-112777000D01*
X134598500Y-112777000D01*
X134598500Y-113031000D01*
X134578500Y-113031000D01*
X134578500Y-114105250D01*
X134604010Y-114130760D01*
X134604010Y-114219898D01*
X134052900Y-114771008D01*
X134052900Y-114265149D01*
X134165750Y-114264000D01*
X134324500Y-114105250D01*
X134324500Y-113031000D01*
X134304500Y-113031000D01*
X134304500Y-112777000D01*
X134324500Y-112777000D01*
X134324500Y-111702750D01*
X134165750Y-111544000D01*
X133864000Y-111540928D01*
X133739518Y-111553188D01*
X133731287Y-111555685D01*
X133305203Y-111129602D01*
X133281401Y-111100599D01*
X133165676Y-111005626D01*
X133136500Y-110990031D01*
X133136500Y-108439294D01*
X133207386Y-108401405D01*
X133341962Y-108290962D01*
X133347342Y-108284406D01*
X133412815Y-108364185D01*
X133509506Y-108443537D01*
X133619820Y-108502502D01*
X133739518Y-108538812D01*
X133864000Y-108551072D01*
X134165750Y-108548000D01*
X134324500Y-108389250D01*
X134324500Y-107315000D01*
X134304500Y-107315000D01*
X134304500Y-107061000D01*
X134324500Y-107061000D01*
X134324500Y-107041000D01*
X134578500Y-107041000D01*
X134578500Y-107061000D01*
G37*
%TD.AperFunction*%
D26*
X201228699Y-71024499D02*
X201204901Y-71053497D01*
X191127399Y-81131000D01*
X190927261Y-81131000D01*
X190727302Y-81170774D01*
X190538944Y-81248795D01*
X190369426Y-81362063D01*
X190225263Y-81506226D01*
X190111995Y-81675744D01*
X190033974Y-81864102D01*
X189994200Y-82064061D01*
X189994200Y-82267939D01*
X190033974Y-82467898D01*
X190111995Y-82656256D01*
X190225263Y-82825774D01*
X190369426Y-82969937D01*
X190538944Y-83083205D01*
X190727302Y-83161226D01*
X190927261Y-83201000D01*
X191131139Y-83201000D01*
X191331098Y-83161226D01*
X191519456Y-83083205D01*
X191688974Y-82969937D01*
X191833137Y-82825774D01*
X191946405Y-82656256D01*
X192024426Y-82467898D01*
X192045363Y-82362638D01*
X201537528Y-72870474D01*
X201563463Y-72918994D01*
X201642815Y-73015685D01*
X201739506Y-73095037D01*
X201849820Y-73154002D01*
X201969518Y-73190312D01*
X202094000Y-73202572D01*
X202894000Y-73202572D01*
X203018482Y-73190312D01*
X203138180Y-73154002D01*
X203248494Y-73095037D01*
X203345185Y-73015685D01*
X203424537Y-72918994D01*
X203483502Y-72808680D01*
X203519812Y-72688982D01*
X203532072Y-72564500D01*
X205655928Y-72564500D01*
X205668188Y-72688982D01*
X205704498Y-72808680D01*
X205763463Y-72918994D01*
X205842815Y-73015685D01*
X205939506Y-73095037D01*
X206049820Y-73154002D01*
X206169518Y-73190312D01*
X206294000Y-73202572D01*
X206408250Y-73199500D01*
X206567000Y-73040750D01*
X206567000Y-71691500D01*
X205817750Y-71691500D01*
X205659000Y-71850250D01*
X205655928Y-72564500D01*
X203532072Y-72564500D01*
X203532072Y-70999100D01*
X205657797Y-70999100D01*
X205659000Y-71278750D01*
X205817750Y-71437500D01*
X206567000Y-71437500D01*
X206567000Y-71417500D01*
X206821000Y-71417500D01*
X206821000Y-71437500D01*
X206841000Y-71437500D01*
X206841000Y-71691500D01*
X206821000Y-71691500D01*
X206821000Y-73040750D01*
X206979750Y-73199500D01*
X207094000Y-73202572D01*
X207218482Y-73190312D01*
X207338180Y-73154002D01*
X207448494Y-73095037D01*
X207545185Y-73015685D01*
X207624537Y-72918994D01*
X207683502Y-72808680D01*
X207719812Y-72688982D01*
X207732072Y-72564500D01*
X207729000Y-71850250D01*
X207570252Y-71691502D01*
X207609001Y-71691502D01*
X208175100Y-72257602D01*
X208175101Y-87405617D01*
X207964873Y-87363800D01*
X207687127Y-87363800D01*
X207414718Y-87417986D01*
X207158115Y-87524275D01*
X206927178Y-87678582D01*
X206730782Y-87874978D01*
X206576475Y-88105915D01*
X206470186Y-88362518D01*
X206416000Y-88634927D01*
X206416000Y-88912673D01*
X206448573Y-89076426D01*
X206410799Y-89114200D01*
X204236343Y-89114200D01*
X204236000Y-89059550D01*
X204077250Y-88900800D01*
X202953000Y-88900800D01*
X202953000Y-88920800D01*
X202699000Y-88920800D01*
X202699000Y-88900800D01*
X201574750Y-88900800D01*
X201416000Y-89059550D01*
X201415657Y-89114200D01*
X172087602Y-89114200D01*
X170972202Y-87998800D01*
X201412928Y-87998800D01*
X201416000Y-88488050D01*
X201574750Y-88646800D01*
X202699000Y-88646800D01*
X202699000Y-87522550D01*
X202953000Y-87522550D01*
X202953000Y-88646800D01*
X204077250Y-88646800D01*
X204236000Y-88488050D01*
X204239072Y-87998800D01*
X204226812Y-87874318D01*
X204190502Y-87754620D01*
X204131537Y-87644306D01*
X204052185Y-87547615D01*
X203955494Y-87468263D01*
X203845180Y-87409298D01*
X203725482Y-87372988D01*
X203601000Y-87360728D01*
X203111750Y-87363800D01*
X202953000Y-87522550D01*
X202699000Y-87522550D01*
X202540250Y-87363800D01*
X202051000Y-87360728D01*
X201926518Y-87372988D01*
X201806820Y-87409298D01*
X201696506Y-87468263D01*
X201599815Y-87547615D01*
X201520463Y-87644306D01*
X201461498Y-87754620D01*
X201425188Y-87874318D01*
X201412928Y-87998800D01*
X170972202Y-87998800D01*
X169677504Y-86704103D01*
X169653701Y-86675099D01*
X169537976Y-86580126D01*
X169405947Y-86509554D01*
X169262686Y-86466097D01*
X169151033Y-86455100D01*
X169151022Y-86455100D01*
X169113700Y-86451424D01*
X169076378Y-86455100D01*
X162984422Y-86455100D01*
X162947099Y-86451424D01*
X162909776Y-86455100D01*
X162909767Y-86455100D01*
X162798114Y-86466097D01*
X162654853Y-86509554D01*
X162522824Y-86580126D01*
X162407099Y-86675099D01*
X162383301Y-86704097D01*
X143832300Y-105255099D01*
X143832300Y-90782401D01*
X155796003Y-78818699D01*
X155825001Y-78794901D01*
X155851332Y-78762817D01*
X155919974Y-78679177D01*
X155929127Y-78662053D01*
X156029180Y-78631702D01*
X156139494Y-78572737D01*
X156236185Y-78493385D01*
X156315537Y-78396694D01*
X156374502Y-78286380D01*
X156410812Y-78166682D01*
X156423072Y-78042200D01*
X156423072Y-76542200D01*
X156410812Y-76417718D01*
X156374502Y-76298020D01*
X156315537Y-76187706D01*
X156236185Y-76091015D01*
X156139494Y-76011663D01*
X156045000Y-75961154D01*
X156045000Y-75790239D01*
X156062498Y-75804599D01*
X159136401Y-78878503D01*
X159160199Y-78907501D01*
X159189197Y-78931299D01*
X159275924Y-79002474D01*
X159407953Y-79073046D01*
X159551214Y-79116503D01*
X159700200Y-79131177D01*
X159737533Y-79127500D01*
X161597667Y-79127500D01*
X161635000Y-79131177D01*
X161783986Y-79116503D01*
X161927247Y-79073046D01*
X162059276Y-79002474D01*
X162175001Y-78907501D01*
X162269974Y-78791776D01*
X162340546Y-78659747D01*
X162346000Y-78641767D01*
X162379180Y-78631702D01*
X162489494Y-78572737D01*
X162586185Y-78493385D01*
X162665537Y-78396694D01*
X162724502Y-78286380D01*
X162760812Y-78166682D01*
X162773072Y-78042200D01*
X162773072Y-76542200D01*
X162760812Y-76417718D01*
X162724502Y-76298020D01*
X162665537Y-76187706D01*
X162586185Y-76091015D01*
X162489494Y-76011663D01*
X162395000Y-75961154D01*
X162395000Y-74178246D01*
X162489494Y-74127737D01*
X162586185Y-74048385D01*
X162665537Y-73951694D01*
X162724502Y-73841380D01*
X162760812Y-73721682D01*
X162773072Y-73597200D01*
X162773072Y-73541775D01*
X162884576Y-73482174D01*
X163000301Y-73387201D01*
X163024104Y-73358197D01*
X165383203Y-70999100D01*
X201259648Y-70999100D01*
X201228699Y-71024499D01*
%TA.AperFunction,Conductor*%
D27*
G36*
X201228699Y-71024499D02*
G01*
X201204901Y-71053497D01*
X191127399Y-81131000D01*
X190927261Y-81131000D01*
X190727302Y-81170774D01*
X190538944Y-81248795D01*
X190369426Y-81362063D01*
X190225263Y-81506226D01*
X190111995Y-81675744D01*
X190033974Y-81864102D01*
X189994200Y-82064061D01*
X189994200Y-82267939D01*
X190033974Y-82467898D01*
X190111995Y-82656256D01*
X190225263Y-82825774D01*
X190369426Y-82969937D01*
X190538944Y-83083205D01*
X190727302Y-83161226D01*
X190927261Y-83201000D01*
X191131139Y-83201000D01*
X191331098Y-83161226D01*
X191519456Y-83083205D01*
X191688974Y-82969937D01*
X191833137Y-82825774D01*
X191946405Y-82656256D01*
X192024426Y-82467898D01*
X192045363Y-82362638D01*
X201537528Y-72870474D01*
X201563463Y-72918994D01*
X201642815Y-73015685D01*
X201739506Y-73095037D01*
X201849820Y-73154002D01*
X201969518Y-73190312D01*
X202094000Y-73202572D01*
X202894000Y-73202572D01*
X203018482Y-73190312D01*
X203138180Y-73154002D01*
X203248494Y-73095037D01*
X203345185Y-73015685D01*
X203424537Y-72918994D01*
X203483502Y-72808680D01*
X203519812Y-72688982D01*
X203532072Y-72564500D01*
X205655928Y-72564500D01*
X205668188Y-72688982D01*
X205704498Y-72808680D01*
X205763463Y-72918994D01*
X205842815Y-73015685D01*
X205939506Y-73095037D01*
X206049820Y-73154002D01*
X206169518Y-73190312D01*
X206294000Y-73202572D01*
X206408250Y-73199500D01*
X206567000Y-73040750D01*
X206567000Y-71691500D01*
X205817750Y-71691500D01*
X205659000Y-71850250D01*
X205655928Y-72564500D01*
X203532072Y-72564500D01*
X203532072Y-70999100D01*
X205657797Y-70999100D01*
X205659000Y-71278750D01*
X205817750Y-71437500D01*
X206567000Y-71437500D01*
X206567000Y-71417500D01*
X206821000Y-71417500D01*
X206821000Y-71437500D01*
X206841000Y-71437500D01*
X206841000Y-71691500D01*
X206821000Y-71691500D01*
X206821000Y-73040750D01*
X206979750Y-73199500D01*
X207094000Y-73202572D01*
X207218482Y-73190312D01*
X207338180Y-73154002D01*
X207448494Y-73095037D01*
X207545185Y-73015685D01*
X207624537Y-72918994D01*
X207683502Y-72808680D01*
X207719812Y-72688982D01*
X207732072Y-72564500D01*
X207729000Y-71850250D01*
X207570252Y-71691502D01*
X207609001Y-71691502D01*
X208175100Y-72257602D01*
X208175101Y-87405617D01*
X207964873Y-87363800D01*
X207687127Y-87363800D01*
X207414718Y-87417986D01*
X207158115Y-87524275D01*
X206927178Y-87678582D01*
X206730782Y-87874978D01*
X206576475Y-88105915D01*
X206470186Y-88362518D01*
X206416000Y-88634927D01*
X206416000Y-88912673D01*
X206448573Y-89076426D01*
X206410799Y-89114200D01*
X204236343Y-89114200D01*
X204236000Y-89059550D01*
X204077250Y-88900800D01*
X202953000Y-88900800D01*
X202953000Y-88920800D01*
X202699000Y-88920800D01*
X202699000Y-88900800D01*
X201574750Y-88900800D01*
X201416000Y-89059550D01*
X201415657Y-89114200D01*
X172087602Y-89114200D01*
X170972202Y-87998800D01*
X201412928Y-87998800D01*
X201416000Y-88488050D01*
X201574750Y-88646800D01*
X202699000Y-88646800D01*
X202699000Y-87522550D01*
X202953000Y-87522550D01*
X202953000Y-88646800D01*
X204077250Y-88646800D01*
X204236000Y-88488050D01*
X204239072Y-87998800D01*
X204226812Y-87874318D01*
X204190502Y-87754620D01*
X204131537Y-87644306D01*
X204052185Y-87547615D01*
X203955494Y-87468263D01*
X203845180Y-87409298D01*
X203725482Y-87372988D01*
X203601000Y-87360728D01*
X203111750Y-87363800D01*
X202953000Y-87522550D01*
X202699000Y-87522550D01*
X202540250Y-87363800D01*
X202051000Y-87360728D01*
X201926518Y-87372988D01*
X201806820Y-87409298D01*
X201696506Y-87468263D01*
X201599815Y-87547615D01*
X201520463Y-87644306D01*
X201461498Y-87754620D01*
X201425188Y-87874318D01*
X201412928Y-87998800D01*
X170972202Y-87998800D01*
X169677504Y-86704103D01*
X169653701Y-86675099D01*
X169537976Y-86580126D01*
X169405947Y-86509554D01*
X169262686Y-86466097D01*
X169151033Y-86455100D01*
X169151022Y-86455100D01*
X169113700Y-86451424D01*
X169076378Y-86455100D01*
X162984422Y-86455100D01*
X162947099Y-86451424D01*
X162909776Y-86455100D01*
X162909767Y-86455100D01*
X162798114Y-86466097D01*
X162654853Y-86509554D01*
X162522824Y-86580126D01*
X162407099Y-86675099D01*
X162383301Y-86704097D01*
X143832300Y-105255099D01*
X143832300Y-90782401D01*
X155796003Y-78818699D01*
X155825001Y-78794901D01*
X155851332Y-78762817D01*
X155919974Y-78679177D01*
X155929127Y-78662053D01*
X156029180Y-78631702D01*
X156139494Y-78572737D01*
X156236185Y-78493385D01*
X156315537Y-78396694D01*
X156374502Y-78286380D01*
X156410812Y-78166682D01*
X156423072Y-78042200D01*
X156423072Y-76542200D01*
X156410812Y-76417718D01*
X156374502Y-76298020D01*
X156315537Y-76187706D01*
X156236185Y-76091015D01*
X156139494Y-76011663D01*
X156045000Y-75961154D01*
X156045000Y-75790239D01*
X156062498Y-75804599D01*
X159136401Y-78878503D01*
X159160199Y-78907501D01*
X159189197Y-78931299D01*
X159275924Y-79002474D01*
X159407953Y-79073046D01*
X159551214Y-79116503D01*
X159700200Y-79131177D01*
X159737533Y-79127500D01*
X161597667Y-79127500D01*
X161635000Y-79131177D01*
X161783986Y-79116503D01*
X161927247Y-79073046D01*
X162059276Y-79002474D01*
X162175001Y-78907501D01*
X162269974Y-78791776D01*
X162340546Y-78659747D01*
X162346000Y-78641767D01*
X162379180Y-78631702D01*
X162489494Y-78572737D01*
X162586185Y-78493385D01*
X162665537Y-78396694D01*
X162724502Y-78286380D01*
X162760812Y-78166682D01*
X162773072Y-78042200D01*
X162773072Y-76542200D01*
X162760812Y-76417718D01*
X162724502Y-76298020D01*
X162665537Y-76187706D01*
X162586185Y-76091015D01*
X162489494Y-76011663D01*
X162395000Y-75961154D01*
X162395000Y-74178246D01*
X162489494Y-74127737D01*
X162586185Y-74048385D01*
X162665537Y-73951694D01*
X162724502Y-73841380D01*
X162760812Y-73721682D01*
X162773072Y-73597200D01*
X162773072Y-73541775D01*
X162884576Y-73482174D01*
X163000301Y-73387201D01*
X163024104Y-73358197D01*
X165383203Y-70999100D01*
X201259648Y-70999100D01*
X201228699Y-71024499D01*
G37*
%TD.AperFunction*%
D26*
X167186475Y-88105915D02*
X167080186Y-88362518D01*
X167026000Y-88634927D01*
X167026000Y-88912673D01*
X167058573Y-89076426D01*
X164774899Y-91360100D01*
X159876902Y-91360100D01*
X162025043Y-89211959D01*
X162022928Y-89548800D01*
X162035188Y-89673282D01*
X162071498Y-89792980D01*
X162130463Y-89903294D01*
X162209815Y-89999985D01*
X162306506Y-90079337D01*
X162416820Y-90138302D01*
X162536518Y-90174612D01*
X162661000Y-90186872D01*
X163150250Y-90183800D01*
X163309000Y-90025050D01*
X163309000Y-88900800D01*
X163563000Y-88900800D01*
X163563000Y-90025050D01*
X163721750Y-90183800D01*
X164211000Y-90186872D01*
X164335482Y-90174612D01*
X164455180Y-90138302D01*
X164565494Y-90079337D01*
X164662185Y-89999985D01*
X164741537Y-89903294D01*
X164800502Y-89792980D01*
X164836812Y-89673282D01*
X164849072Y-89548800D01*
X164846000Y-89059550D01*
X164687250Y-88900800D01*
X163563000Y-88900800D01*
X163309000Y-88900800D01*
X163289000Y-88900800D01*
X163289000Y-88646800D01*
X163309000Y-88646800D01*
X163309000Y-88626800D01*
X163563000Y-88626800D01*
X163563000Y-88646800D01*
X164687250Y-88646800D01*
X164846000Y-88488050D01*
X164849072Y-87998800D01*
X164846738Y-87975100D01*
X167273883Y-87975100D01*
X167186475Y-88105915D01*
%TA.AperFunction,Conductor*%
D27*
G36*
X167186475Y-88105915D02*
G01*
X167080186Y-88362518D01*
X167026000Y-88634927D01*
X167026000Y-88912673D01*
X167058573Y-89076426D01*
X164774899Y-91360100D01*
X159876902Y-91360100D01*
X162025043Y-89211959D01*
X162022928Y-89548800D01*
X162035188Y-89673282D01*
X162071498Y-89792980D01*
X162130463Y-89903294D01*
X162209815Y-89999985D01*
X162306506Y-90079337D01*
X162416820Y-90138302D01*
X162536518Y-90174612D01*
X162661000Y-90186872D01*
X163150250Y-90183800D01*
X163309000Y-90025050D01*
X163309000Y-88900800D01*
X163563000Y-88900800D01*
X163563000Y-90025050D01*
X163721750Y-90183800D01*
X164211000Y-90186872D01*
X164335482Y-90174612D01*
X164455180Y-90138302D01*
X164565494Y-90079337D01*
X164662185Y-89999985D01*
X164741537Y-89903294D01*
X164800502Y-89792980D01*
X164836812Y-89673282D01*
X164849072Y-89548800D01*
X164846000Y-89059550D01*
X164687250Y-88900800D01*
X163563000Y-88900800D01*
X163309000Y-88900800D01*
X163289000Y-88900800D01*
X163289000Y-88646800D01*
X163309000Y-88646800D01*
X163309000Y-88626800D01*
X163563000Y-88626800D01*
X163563000Y-88646800D01*
X164687250Y-88646800D01*
X164846000Y-88488050D01*
X164849072Y-87998800D01*
X164846738Y-87975100D01*
X167273883Y-87975100D01*
X167186475Y-88105915D01*
G37*
%TD.AperFunction*%
D26*
X140773000Y-71295200D02*
X140773000Y-71820200D01*
X141806000Y-71820200D01*
X141806000Y-71800200D01*
X142060000Y-71800200D01*
X142060000Y-71820200D01*
X142080000Y-71820200D01*
X142080000Y-72003448D01*
X142077188Y-72012718D01*
X142071133Y-72074200D01*
X142060000Y-72074200D01*
X142060000Y-72094200D01*
X141806000Y-72094200D01*
X141806000Y-72074200D01*
X140773000Y-72074200D01*
X140773000Y-72250094D01*
X140704756Y-72204495D01*
X140516398Y-72126474D01*
X140316439Y-72086700D01*
X140112561Y-72086700D01*
X139912602Y-72126474D01*
X139742199Y-72197058D01*
X139659072Y-72152625D01*
X139659072Y-72097200D01*
X139646812Y-71972718D01*
X139610502Y-71853020D01*
X139551537Y-71742706D01*
X139472185Y-71646015D01*
X139375494Y-71566663D01*
X139265180Y-71507698D01*
X139145482Y-71471388D01*
X139021000Y-71459128D01*
X138021000Y-71459128D01*
X137896518Y-71471388D01*
X137871000Y-71479129D01*
X137845482Y-71471388D01*
X137721000Y-71459128D01*
X136721000Y-71459128D01*
X136596518Y-71471388D01*
X136476820Y-71507698D01*
X136366506Y-71566663D01*
X136269815Y-71646015D01*
X136190463Y-71742706D01*
X136131498Y-71853020D01*
X136095188Y-71972718D01*
X136082928Y-72097200D01*
X136082928Y-73597200D01*
X136088690Y-73655700D01*
X135499602Y-73655700D01*
X134180104Y-72336203D01*
X134156301Y-72307199D01*
X134040576Y-72212226D01*
X133929072Y-72152625D01*
X133929072Y-72097200D01*
X133916812Y-71972718D01*
X133880502Y-71853020D01*
X133821537Y-71742706D01*
X133742185Y-71646015D01*
X133645494Y-71566663D01*
X133535180Y-71507698D01*
X133415482Y-71471388D01*
X133291000Y-71459128D01*
X132291000Y-71459128D01*
X132166518Y-71471388D01*
X132141000Y-71479129D01*
X132115482Y-71471388D01*
X131991000Y-71459128D01*
X130991000Y-71459128D01*
X130866518Y-71471388D01*
X130746820Y-71507698D01*
X130636506Y-71566663D01*
X130539815Y-71646015D01*
X130460463Y-71742706D01*
X130401498Y-71853020D01*
X130365188Y-71972718D01*
X130352928Y-72097200D01*
X130352928Y-73597200D01*
X130365188Y-73721682D01*
X130401498Y-73841380D01*
X130460463Y-73951694D01*
X130539815Y-74048385D01*
X130636506Y-74127737D01*
X130746001Y-74186264D01*
X130746000Y-75961154D01*
X130651506Y-76011663D01*
X130554815Y-76091015D01*
X130475463Y-76187706D01*
X130416498Y-76298020D01*
X130380188Y-76417718D01*
X130367928Y-76542200D01*
X130367928Y-78042200D01*
X130380188Y-78166682D01*
X130416498Y-78286380D01*
X130475463Y-78396694D01*
X130554815Y-78493385D01*
X130651506Y-78572737D01*
X130666000Y-78580484D01*
X130666000Y-78645500D01*
X130344402Y-78645500D01*
X128480104Y-76781203D01*
X128456301Y-76752199D01*
X128340576Y-76657226D01*
X128229072Y-76597625D01*
X128229072Y-76542200D01*
X128216812Y-76417718D01*
X128180502Y-76298020D01*
X128121537Y-76187706D01*
X128042185Y-76091015D01*
X127945494Y-76011663D01*
X127835180Y-75952698D01*
X127715482Y-75916388D01*
X127591000Y-75904128D01*
X126591000Y-75904128D01*
X126551000Y-75908068D01*
X126551000Y-74231332D01*
X126591000Y-74235272D01*
X127591000Y-74235272D01*
X127715482Y-74223012D01*
X127835180Y-74186702D01*
X127945494Y-74127737D01*
X128042185Y-74048385D01*
X128121537Y-73951694D01*
X128180502Y-73841380D01*
X128216812Y-73721682D01*
X128229072Y-73597200D01*
X128229072Y-73541775D01*
X128340576Y-73482174D01*
X128456301Y-73387201D01*
X128480104Y-73358198D01*
X130543503Y-71294800D01*
X140773084Y-71294800D01*
X140773000Y-71295200D01*
%TA.AperFunction,Conductor*%
D27*
G36*
X140773000Y-71295200D02*
G01*
X140773000Y-71820200D01*
X141806000Y-71820200D01*
X141806000Y-71800200D01*
X142060000Y-71800200D01*
X142060000Y-71820200D01*
X142080000Y-71820200D01*
X142080000Y-72003448D01*
X142077188Y-72012718D01*
X142071133Y-72074200D01*
X142060000Y-72074200D01*
X142060000Y-72094200D01*
X141806000Y-72094200D01*
X141806000Y-72074200D01*
X140773000Y-72074200D01*
X140773000Y-72250094D01*
X140704756Y-72204495D01*
X140516398Y-72126474D01*
X140316439Y-72086700D01*
X140112561Y-72086700D01*
X139912602Y-72126474D01*
X139742199Y-72197058D01*
X139659072Y-72152625D01*
X139659072Y-72097200D01*
X139646812Y-71972718D01*
X139610502Y-71853020D01*
X139551537Y-71742706D01*
X139472185Y-71646015D01*
X139375494Y-71566663D01*
X139265180Y-71507698D01*
X139145482Y-71471388D01*
X139021000Y-71459128D01*
X138021000Y-71459128D01*
X137896518Y-71471388D01*
X137871000Y-71479129D01*
X137845482Y-71471388D01*
X137721000Y-71459128D01*
X136721000Y-71459128D01*
X136596518Y-71471388D01*
X136476820Y-71507698D01*
X136366506Y-71566663D01*
X136269815Y-71646015D01*
X136190463Y-71742706D01*
X136131498Y-71853020D01*
X136095188Y-71972718D01*
X136082928Y-72097200D01*
X136082928Y-73597200D01*
X136088690Y-73655700D01*
X135499602Y-73655700D01*
X134180104Y-72336203D01*
X134156301Y-72307199D01*
X134040576Y-72212226D01*
X133929072Y-72152625D01*
X133929072Y-72097200D01*
X133916812Y-71972718D01*
X133880502Y-71853020D01*
X133821537Y-71742706D01*
X133742185Y-71646015D01*
X133645494Y-71566663D01*
X133535180Y-71507698D01*
X133415482Y-71471388D01*
X133291000Y-71459128D01*
X132291000Y-71459128D01*
X132166518Y-71471388D01*
X132141000Y-71479129D01*
X132115482Y-71471388D01*
X131991000Y-71459128D01*
X130991000Y-71459128D01*
X130866518Y-71471388D01*
X130746820Y-71507698D01*
X130636506Y-71566663D01*
X130539815Y-71646015D01*
X130460463Y-71742706D01*
X130401498Y-71853020D01*
X130365188Y-71972718D01*
X130352928Y-72097200D01*
X130352928Y-73597200D01*
X130365188Y-73721682D01*
X130401498Y-73841380D01*
X130460463Y-73951694D01*
X130539815Y-74048385D01*
X130636506Y-74127737D01*
X130746001Y-74186264D01*
X130746000Y-75961154D01*
X130651506Y-76011663D01*
X130554815Y-76091015D01*
X130475463Y-76187706D01*
X130416498Y-76298020D01*
X130380188Y-76417718D01*
X130367928Y-76542200D01*
X130367928Y-78042200D01*
X130380188Y-78166682D01*
X130416498Y-78286380D01*
X130475463Y-78396694D01*
X130554815Y-78493385D01*
X130651506Y-78572737D01*
X130666000Y-78580484D01*
X130666000Y-78645500D01*
X130344402Y-78645500D01*
X128480104Y-76781203D01*
X128456301Y-76752199D01*
X128340576Y-76657226D01*
X128229072Y-76597625D01*
X128229072Y-76542200D01*
X128216812Y-76417718D01*
X128180502Y-76298020D01*
X128121537Y-76187706D01*
X128042185Y-76091015D01*
X127945494Y-76011663D01*
X127835180Y-75952698D01*
X127715482Y-75916388D01*
X127591000Y-75904128D01*
X126591000Y-75904128D01*
X126551000Y-75908068D01*
X126551000Y-74231332D01*
X126591000Y-74235272D01*
X127591000Y-74235272D01*
X127715482Y-74223012D01*
X127835180Y-74186702D01*
X127945494Y-74127737D01*
X128042185Y-74048385D01*
X128121537Y-73951694D01*
X128180502Y-73841380D01*
X128216812Y-73721682D01*
X128229072Y-73597200D01*
X128229072Y-73541775D01*
X128340576Y-73482174D01*
X128456301Y-73387201D01*
X128480104Y-73358198D01*
X130543503Y-71294800D01*
X140773084Y-71294800D01*
X140773000Y-71295200D01*
G37*
%TD.AperFunction*%
D26*
X150700000Y-71820200D02*
X150720000Y-71820200D01*
X150720000Y-72074200D01*
X150700000Y-72074200D01*
X150700000Y-72094200D01*
X150446000Y-72094200D01*
X150446000Y-72074200D01*
X150434867Y-72074200D01*
X150428812Y-72012718D01*
X150426000Y-72003448D01*
X150426000Y-71820200D01*
X150446000Y-71820200D01*
X150446000Y-71800200D01*
X150700000Y-71800200D01*
X150700000Y-71820200D01*
%TA.AperFunction,Conductor*%
D27*
G36*
X150700000Y-71820200D02*
G01*
X150720000Y-71820200D01*
X150720000Y-72074200D01*
X150700000Y-72074200D01*
X150700000Y-72094200D01*
X150446000Y-72094200D01*
X150446000Y-72074200D01*
X150434867Y-72074200D01*
X150428812Y-72012718D01*
X150426000Y-72003448D01*
X150426000Y-71820200D01*
X150446000Y-71820200D01*
X150446000Y-71800200D01*
X150700000Y-71800200D01*
X150700000Y-71820200D01*
G37*
%TD.AperFunction*%
%TD*%
M02*
