M48
; DRILL file {KiCad (5.1.10)-1} date 08/23/21 16:24:57
; FORMAT={-:-/ absolute / inch / decimal}
; #@! TF.CreationDate,2021-08-23T16:24:57+02:00
; #@! TF.GenerationSoftware,Kicad,Pcbnew,(5.1.10)-1
; #@! TF.FileFunction,Plated,1,2,PTH
FMAT,2
INCH
T1C0.0157
T2C0.0256
T3C0.0394
T4C0.0591
T5C0.1063
%
G90
G05
T1
X5.1851Y-3.0976
X5.3738Y-4.1356
X5.475Y-4.15
X5.5093Y-3.043
X5.5203Y-2.8788
X5.6635Y-4.2291
X5.6657Y-4.425
X5.6764Y-2.9597
X5.6855Y-4.461
X5.7176Y-2.9392
X5.7203Y-2.8146
X5.7315Y-4.7991
X5.7332Y-4.3447
X5.7659Y-4.4806
X5.7688Y-4.1818
X5.8322Y-4.5163
X5.8555Y-2.9212
X5.9263Y-4.6107
X5.9357Y-3.0478
X6.0582Y-2.8132
X7.5208Y-3.2349
T3
X3.3329Y-3.495
X3.3329Y-4.0659
X3.4313Y-4.0659
X3.5297Y-3.495
X3.5297Y-4.0659
X3.8613Y-4.8475
X3.9613Y-4.8475
X4.0613Y-4.8475
X4.1613Y-4.8475
X4.2613Y-4.8475
X4.3613Y-4.8475
X4.4613Y-4.8475
X4.5613Y-4.8475
X4.6613Y-4.8475
X4.7613Y-4.8475
X4.8613Y-4.8475
X4.8837Y-3.495
X4.8837Y-4.0659
X4.9613Y-4.8475
X4.9821Y-4.0659
X5.0613Y-4.8475
X5.0805Y-3.495
X5.0805Y-4.0659
X6.4345Y-3.495
X6.4345Y-4.0659
X6.45Y-4.8475
X6.5329Y-4.0659
X6.55Y-4.8475
X6.6313Y-3.495
X6.6313Y-4.0659
X6.65Y-4.8475
X6.75Y-4.8475
X7.2762Y-4.4
X7.2762Y-4.5
X7.3762Y-4.4
X7.3762Y-4.5
X7.4287Y-4.8475
X7.4762Y-4.4
X7.4762Y-4.5
X7.5287Y-4.8475
X7.6287Y-4.8475
X7.7287Y-4.8475
X7.9853Y-3.495
X7.9853Y-4.0659
X8.0837Y-4.0659
X8.1821Y-3.495
X8.1821Y-4.0659
T5
X3.124Y-2.6725
X3.124Y-4.87
X8.391Y-2.6725
X8.391Y-4.8675
T2
G00X5.5879Y-2.6798
M15
G01X5.5879Y-2.6562
M16
G05
G00X5.5879Y-2.8542
M15
G01X5.5879Y-2.8109
M16
G05
G00X5.9281Y-2.6798
M15
G01X5.9281Y-2.6562
M16
G05
G00X5.9281Y-2.8542
M15
G01X5.9281Y-2.8109
M16
G05
T4
G00X3.2108Y-3.745
M15
G01X3.2108Y-3.7962
M16
G05
G00X3.6518Y-3.745
M15
G01X3.6518Y-3.7962
M16
G05
G00X4.7616Y-3.745
M15
G01X4.7616Y-3.7962
M16
G05
G00X5.2026Y-3.745
M15
G01X5.2026Y-3.7962
M16
G05
G00X6.3124Y-3.745
M15
G01X6.3124Y-3.7962
M16
G05
G00X6.7534Y-3.745
M15
G01X6.7534Y-3.7962
M16
G05
G00X7.8632Y-3.745
M15
G01X7.8632Y-3.7962
M16
G05
G00X8.3042Y-3.745
M15
G01X8.3042Y-3.7962
M16
G05
T0
M30
