%TF.GenerationSoftware,KiCad,Pcbnew,(5.1.10)-1*%
%TF.CreationDate,2021-08-25T15:30:51+02:00*%
%TF.ProjectId,Console,436f6e73-6f6c-4652-9e6b-696361645f70,v01*%
%TF.SameCoordinates,Original*%
%TF.FileFunction,Legend,Bot*%
%TF.FilePolarity,Positive*%
%FSLAX46Y46*%
G04 Gerber Fmt 4.6, Leading zero omitted, Abs format (unit mm)*
G04 Created by KiCad (PCBNEW (5.1.10)-1) date 2021-08-25 15:30:51*
%MOMM*%
%LPD*%
G01*
G04 APERTURE LIST*
%ADD10C,0.150000*%
%ADD11C,5.400000*%
%ADD12C,1.700000*%
%ADD13R,1.700000X1.700000*%
%ADD14O,1.700000X1.700000*%
%ADD15R,1.550000X1.550000*%
%ADD16C,1.550000*%
%ADD17O,1.050000X2.100000*%
%ADD18C,0.700000*%
G04 APERTURE END LIST*
D10*
X190150238Y-67238619D02*
X190102619Y-67191000D01*
X190007380Y-67143380D01*
X189769285Y-67143380D01*
X189674047Y-67191000D01*
X189626428Y-67238619D01*
X189578809Y-67333857D01*
X189578809Y-67429095D01*
X189626428Y-67571952D01*
X190197857Y-68143380D01*
X189578809Y-68143380D01*
X188959761Y-67143380D02*
X188864523Y-67143380D01*
X188769285Y-67191000D01*
X188721666Y-67238619D01*
X188674047Y-67333857D01*
X188626428Y-67524333D01*
X188626428Y-67762428D01*
X188674047Y-67952904D01*
X188721666Y-68048142D01*
X188769285Y-68095761D01*
X188864523Y-68143380D01*
X188959761Y-68143380D01*
X189055000Y-68095761D01*
X189102619Y-68048142D01*
X189150238Y-67952904D01*
X189197857Y-67762428D01*
X189197857Y-67524333D01*
X189150238Y-67333857D01*
X189102619Y-67238619D01*
X189055000Y-67191000D01*
X188959761Y-67143380D01*
X188197857Y-68048142D02*
X188150238Y-68095761D01*
X188197857Y-68143380D01*
X188245476Y-68095761D01*
X188197857Y-68048142D01*
X188197857Y-68143380D01*
X187531190Y-67143380D02*
X187435952Y-67143380D01*
X187340714Y-67191000D01*
X187293095Y-67238619D01*
X187245476Y-67333857D01*
X187197857Y-67524333D01*
X187197857Y-67762428D01*
X187245476Y-67952904D01*
X187293095Y-68048142D01*
X187340714Y-68095761D01*
X187435952Y-68143380D01*
X187531190Y-68143380D01*
X187626428Y-68095761D01*
X187674047Y-68048142D01*
X187721666Y-67952904D01*
X187769285Y-67762428D01*
X187769285Y-67524333D01*
X187721666Y-67333857D01*
X187674047Y-67238619D01*
X187626428Y-67191000D01*
X187531190Y-67143380D01*
X186626428Y-67571952D02*
X186721666Y-67524333D01*
X186769285Y-67476714D01*
X186816904Y-67381476D01*
X186816904Y-67333857D01*
X186769285Y-67238619D01*
X186721666Y-67191000D01*
X186626428Y-67143380D01*
X186435952Y-67143380D01*
X186340714Y-67191000D01*
X186293095Y-67238619D01*
X186245476Y-67333857D01*
X186245476Y-67381476D01*
X186293095Y-67476714D01*
X186340714Y-67524333D01*
X186435952Y-67571952D01*
X186626428Y-67571952D01*
X186721666Y-67619571D01*
X186769285Y-67667190D01*
X186816904Y-67762428D01*
X186816904Y-67952904D01*
X186769285Y-68048142D01*
X186721666Y-68095761D01*
X186626428Y-68143380D01*
X186435952Y-68143380D01*
X186340714Y-68095761D01*
X186293095Y-68048142D01*
X186245476Y-67952904D01*
X186245476Y-67762428D01*
X186293095Y-67667190D01*
X186340714Y-67619571D01*
X186435952Y-67571952D01*
X185816904Y-68048142D02*
X185769285Y-68095761D01*
X185816904Y-68143380D01*
X185864523Y-68095761D01*
X185816904Y-68048142D01*
X185816904Y-68143380D01*
X185388333Y-67238619D02*
X185340714Y-67191000D01*
X185245476Y-67143380D01*
X185007380Y-67143380D01*
X184912142Y-67191000D01*
X184864523Y-67238619D01*
X184816904Y-67333857D01*
X184816904Y-67429095D01*
X184864523Y-67571952D01*
X185435952Y-68143380D01*
X184816904Y-68143380D01*
X184197857Y-67143380D02*
X184102619Y-67143380D01*
X184007380Y-67191000D01*
X183959761Y-67238619D01*
X183912142Y-67333857D01*
X183864523Y-67524333D01*
X183864523Y-67762428D01*
X183912142Y-67952904D01*
X183959761Y-68048142D01*
X184007380Y-68095761D01*
X184102619Y-68143380D01*
X184197857Y-68143380D01*
X184293095Y-68095761D01*
X184340714Y-68048142D01*
X184388333Y-67952904D01*
X184435952Y-67762428D01*
X184435952Y-67524333D01*
X184388333Y-67333857D01*
X184340714Y-67238619D01*
X184293095Y-67191000D01*
X184197857Y-67143380D01*
X183483571Y-67238619D02*
X183435952Y-67191000D01*
X183340714Y-67143380D01*
X183102619Y-67143380D01*
X183007380Y-67191000D01*
X182959761Y-67238619D01*
X182912142Y-67333857D01*
X182912142Y-67429095D01*
X182959761Y-67571952D01*
X183531190Y-68143380D01*
X182912142Y-68143380D01*
X181959761Y-68143380D02*
X182531190Y-68143380D01*
X182245476Y-68143380D02*
X182245476Y-67143380D01*
X182340714Y-67286238D01*
X182435952Y-67381476D01*
X182531190Y-67429095D01*
X190117952Y-66555880D02*
X190117952Y-65555880D01*
X189879857Y-65555880D01*
X189737000Y-65603500D01*
X189641761Y-65698738D01*
X189594142Y-65793976D01*
X189546523Y-65984452D01*
X189546523Y-66127309D01*
X189594142Y-66317785D01*
X189641761Y-66413023D01*
X189737000Y-66508261D01*
X189879857Y-66555880D01*
X190117952Y-66555880D01*
X188737000Y-66508261D02*
X188832238Y-66555880D01*
X189022714Y-66555880D01*
X189117952Y-66508261D01*
X189165571Y-66413023D01*
X189165571Y-66032071D01*
X189117952Y-65936833D01*
X189022714Y-65889214D01*
X188832238Y-65889214D01*
X188737000Y-65936833D01*
X188689380Y-66032071D01*
X188689380Y-66127309D01*
X189165571Y-66222547D01*
X188308428Y-66508261D02*
X188213190Y-66555880D01*
X188022714Y-66555880D01*
X187927476Y-66508261D01*
X187879857Y-66413023D01*
X187879857Y-66365404D01*
X187927476Y-66270166D01*
X188022714Y-66222547D01*
X188165571Y-66222547D01*
X188260809Y-66174928D01*
X188308428Y-66079690D01*
X188308428Y-66032071D01*
X188260809Y-65936833D01*
X188165571Y-65889214D01*
X188022714Y-65889214D01*
X187927476Y-65936833D01*
X187451285Y-66555880D02*
X187451285Y-65889214D01*
X187451285Y-65555880D02*
X187498904Y-65603500D01*
X187451285Y-65651119D01*
X187403666Y-65603500D01*
X187451285Y-65555880D01*
X187451285Y-65651119D01*
X186546523Y-65889214D02*
X186546523Y-66698738D01*
X186594142Y-66793976D01*
X186641761Y-66841595D01*
X186737000Y-66889214D01*
X186879857Y-66889214D01*
X186975095Y-66841595D01*
X186546523Y-66508261D02*
X186641761Y-66555880D01*
X186832238Y-66555880D01*
X186927476Y-66508261D01*
X186975095Y-66460642D01*
X187022714Y-66365404D01*
X187022714Y-66079690D01*
X186975095Y-65984452D01*
X186927476Y-65936833D01*
X186832238Y-65889214D01*
X186641761Y-65889214D01*
X186546523Y-65936833D01*
X186070333Y-65889214D02*
X186070333Y-66555880D01*
X186070333Y-65984452D02*
X186022714Y-65936833D01*
X185927476Y-65889214D01*
X185784619Y-65889214D01*
X185689380Y-65936833D01*
X185641761Y-66032071D01*
X185641761Y-66555880D01*
X184784619Y-66508261D02*
X184879857Y-66555880D01*
X185070333Y-66555880D01*
X185165571Y-66508261D01*
X185213190Y-66413023D01*
X185213190Y-66032071D01*
X185165571Y-65936833D01*
X185070333Y-65889214D01*
X184879857Y-65889214D01*
X184784619Y-65936833D01*
X184737000Y-66032071D01*
X184737000Y-66127309D01*
X185213190Y-66222547D01*
X183879857Y-66555880D02*
X183879857Y-65555880D01*
X183879857Y-66508261D02*
X183975095Y-66555880D01*
X184165571Y-66555880D01*
X184260809Y-66508261D01*
X184308428Y-66460642D01*
X184356047Y-66365404D01*
X184356047Y-66079690D01*
X184308428Y-65984452D01*
X184260809Y-65936833D01*
X184165571Y-65889214D01*
X183975095Y-65889214D01*
X183879857Y-65936833D01*
X182641761Y-66555880D02*
X182641761Y-65555880D01*
X182641761Y-65936833D02*
X182546523Y-65889214D01*
X182356047Y-65889214D01*
X182260809Y-65936833D01*
X182213190Y-65984452D01*
X182165571Y-66079690D01*
X182165571Y-66365404D01*
X182213190Y-66460642D01*
X182260809Y-66508261D01*
X182356047Y-66555880D01*
X182546523Y-66555880D01*
X182641761Y-66508261D01*
X181832238Y-65889214D02*
X181594142Y-66555880D01*
X181356047Y-65889214D02*
X181594142Y-66555880D01*
X181689380Y-66793976D01*
X181737000Y-66841595D01*
X181832238Y-66889214D01*
X180975095Y-66460642D02*
X180927476Y-66508261D01*
X180975095Y-66555880D01*
X181022714Y-66508261D01*
X180975095Y-66460642D01*
X180975095Y-66555880D01*
X180975095Y-65936833D02*
X180927476Y-65984452D01*
X180975095Y-66032071D01*
X181022714Y-65984452D01*
X180975095Y-65936833D01*
X180975095Y-66032071D01*
X179213190Y-65603500D02*
X179308428Y-65555880D01*
X179451285Y-65555880D01*
X179594142Y-65603500D01*
X179689380Y-65698738D01*
X179737000Y-65793976D01*
X179784619Y-65984452D01*
X179784619Y-66127309D01*
X179737000Y-66317785D01*
X179689380Y-66413023D01*
X179594142Y-66508261D01*
X179451285Y-66555880D01*
X179356047Y-66555880D01*
X179213190Y-66508261D01*
X179165571Y-66460642D01*
X179165571Y-66127309D01*
X179356047Y-66127309D01*
X178737000Y-66555880D02*
X178737000Y-65555880D01*
X178737000Y-66032071D02*
X178165571Y-66032071D01*
X178165571Y-66555880D02*
X178165571Y-65555880D01*
X177498904Y-65555880D02*
X177308428Y-65555880D01*
X177213190Y-65603500D01*
X177117952Y-65698738D01*
X177070333Y-65889214D01*
X177070333Y-66222547D01*
X177117952Y-66413023D01*
X177213190Y-66508261D01*
X177308428Y-66555880D01*
X177498904Y-66555880D01*
X177594142Y-66508261D01*
X177689380Y-66413023D01*
X177737000Y-66222547D01*
X177737000Y-65889214D01*
X177689380Y-65698738D01*
X177594142Y-65603500D01*
X177498904Y-65555880D01*
X176689380Y-66508261D02*
X176546523Y-66555880D01*
X176308428Y-66555880D01*
X176213190Y-66508261D01*
X176165571Y-66460642D01*
X176117952Y-66365404D01*
X176117952Y-66270166D01*
X176165571Y-66174928D01*
X176213190Y-66127309D01*
X176308428Y-66079690D01*
X176498904Y-66032071D01*
X176594142Y-65984452D01*
X176641761Y-65936833D01*
X176689380Y-65841595D01*
X176689380Y-65746357D01*
X176641761Y-65651119D01*
X176594142Y-65603500D01*
X176498904Y-65555880D01*
X176260809Y-65555880D01*
X176117952Y-65603500D01*
X175117952Y-66460642D02*
X175165571Y-66508261D01*
X175308428Y-66555880D01*
X175403666Y-66555880D01*
X175546523Y-66508261D01*
X175641761Y-66413023D01*
X175689380Y-66317785D01*
X175737000Y-66127309D01*
X175737000Y-65984452D01*
X175689380Y-65793976D01*
X175641761Y-65698738D01*
X175546523Y-65603500D01*
X175403666Y-65555880D01*
X175308428Y-65555880D01*
X175165571Y-65603500D01*
X175117952Y-65651119D01*
X174689380Y-66555880D02*
X174689380Y-65555880D01*
X174689380Y-66032071D02*
X174117952Y-66032071D01*
X174117952Y-66555880D02*
X174117952Y-65555880D01*
X173784619Y-65555880D02*
X173213190Y-65555880D01*
X173498904Y-66555880D02*
X173498904Y-65555880D01*
X190166476Y-68810214D02*
X189928380Y-69476880D01*
X189690285Y-68810214D01*
X189118857Y-68476880D02*
X189023619Y-68476880D01*
X188928380Y-68524500D01*
X188880761Y-68572119D01*
X188833142Y-68667357D01*
X188785523Y-68857833D01*
X188785523Y-69095928D01*
X188833142Y-69286404D01*
X188880761Y-69381642D01*
X188928380Y-69429261D01*
X189023619Y-69476880D01*
X189118857Y-69476880D01*
X189214095Y-69429261D01*
X189261714Y-69381642D01*
X189309333Y-69286404D01*
X189356952Y-69095928D01*
X189356952Y-68857833D01*
X189309333Y-68667357D01*
X189261714Y-68572119D01*
X189214095Y-68524500D01*
X189118857Y-68476880D01*
X187833142Y-69476880D02*
X188404571Y-69476880D01*
X188118857Y-69476880D02*
X188118857Y-68476880D01*
X188214095Y-68619738D01*
X188309333Y-68714976D01*
X188404571Y-68762595D01*
%LPC*%
D11*
%TO.C,PAD4*%
X194131000Y-123634000D03*
%TD*%
%TO.C,PAD3*%
X98350000Y-123698000D03*
%TD*%
%TO.C,PAD2*%
X194131000Y-67881500D03*
%TD*%
%TO.C,PAD1*%
X98350000Y-67881500D03*
%TD*%
D12*
%TO.C,J1*%
X179896000Y-111760000D03*
X179896000Y-114300000D03*
D13*
X174816000Y-114300000D03*
D12*
X174816000Y-111760000D03*
X177356000Y-114300000D03*
X177356000Y-111760000D03*
%TD*%
D14*
%TO.C,J4*%
X161450000Y-123126000D03*
X158910000Y-123126000D03*
X156370000Y-123126000D03*
D13*
X153830000Y-123126000D03*
%TD*%
D14*
%TO.C,J3*%
X138557000Y-123126000D03*
X136017000Y-123126000D03*
X133477000Y-123126000D03*
X130937000Y-123126000D03*
X128397000Y-123126000D03*
X125857000Y-123126000D03*
X123317000Y-123126000D03*
X120777000Y-123126000D03*
X118237000Y-123126000D03*
X115697000Y-123126000D03*
X113157000Y-123126000D03*
X110617000Y-123126000D03*
D13*
X108077000Y-123126000D03*
%TD*%
D14*
%TO.C,J5*%
X186309000Y-123126000D03*
X183769000Y-123126000D03*
X181229000Y-123126000D03*
D13*
X178689000Y-123126000D03*
%TD*%
D15*
%TO.C,SW1*%
X100624000Y-88773800D03*
D16*
X105624000Y-88773800D03*
X100624000Y-103273800D03*
X103124000Y-103273800D03*
X105624000Y-103273800D03*
G36*
G01*
X96324000Y-97073800D02*
X96324000Y-94473800D01*
G75*
G02*
X97524000Y-93273800I1200000J0D01*
G01*
X97524000Y-93273800D01*
G75*
G02*
X98724000Y-94473800I0J-1200000D01*
G01*
X98724000Y-97073800D01*
G75*
G02*
X97524000Y-98273800I-1200000J0D01*
G01*
X97524000Y-98273800D01*
G75*
G02*
X96324000Y-97073800I0J1200000D01*
G01*
G37*
G36*
G01*
X107524000Y-97073800D02*
X107524000Y-94473800D01*
G75*
G02*
X108724000Y-93273800I1200000J0D01*
G01*
X108724000Y-93273800D01*
G75*
G02*
X109924000Y-94473800I0J-1200000D01*
G01*
X109924000Y-97073800D01*
G75*
G02*
X108724000Y-98273800I-1200000J0D01*
G01*
X108724000Y-98273800D01*
G75*
G02*
X107524000Y-97073800I0J1200000D01*
G01*
G37*
%TD*%
D17*
%TO.C,J2*%
X150573000Y-71947200D03*
X141933000Y-71947200D03*
X150573000Y-67767200D03*
X141933000Y-67767200D03*
D18*
X149143000Y-71417200D03*
X143363000Y-71417200D03*
%TD*%
%TO.C,SW2*%
G36*
G01*
X136268000Y-97073800D02*
X136268000Y-94473800D01*
G75*
G02*
X137468000Y-93273800I1200000J0D01*
G01*
X137468000Y-93273800D01*
G75*
G02*
X138668000Y-94473800I0J-1200000D01*
G01*
X138668000Y-97073800D01*
G75*
G02*
X137468000Y-98273800I-1200000J0D01*
G01*
X137468000Y-98273800D01*
G75*
G02*
X136268000Y-97073800I0J1200000D01*
G01*
G37*
G36*
G01*
X125068000Y-97073800D02*
X125068000Y-94473800D01*
G75*
G02*
X126268000Y-93273800I1200000J0D01*
G01*
X126268000Y-93273800D01*
G75*
G02*
X127468000Y-94473800I0J-1200000D01*
G01*
X127468000Y-97073800D01*
G75*
G02*
X126268000Y-98273800I-1200000J0D01*
G01*
X126268000Y-98273800D01*
G75*
G02*
X125068000Y-97073800I0J1200000D01*
G01*
G37*
D16*
X134368000Y-103273800D03*
X131868000Y-103273800D03*
X129368000Y-103273800D03*
X134368000Y-88773800D03*
D15*
X129368000Y-88773800D03*
%TD*%
%TO.C,SW3*%
X158113000Y-88773800D03*
D16*
X163113000Y-88773800D03*
X158113000Y-103273800D03*
X160613000Y-103273800D03*
X163113000Y-103273800D03*
G36*
G01*
X153813000Y-97073800D02*
X153813000Y-94473800D01*
G75*
G02*
X155013000Y-93273800I1200000J0D01*
G01*
X155013000Y-93273800D01*
G75*
G02*
X156213000Y-94473800I0J-1200000D01*
G01*
X156213000Y-97073800D01*
G75*
G02*
X155013000Y-98273800I-1200000J0D01*
G01*
X155013000Y-98273800D01*
G75*
G02*
X153813000Y-97073800I0J1200000D01*
G01*
G37*
G36*
G01*
X165013000Y-97073800D02*
X165013000Y-94473800D01*
G75*
G02*
X166213000Y-93273800I1200000J0D01*
G01*
X166213000Y-93273800D01*
G75*
G02*
X167413000Y-94473800I0J-1200000D01*
G01*
X167413000Y-97073800D01*
G75*
G02*
X166213000Y-98273800I-1200000J0D01*
G01*
X166213000Y-98273800D01*
G75*
G02*
X165013000Y-97073800I0J1200000D01*
G01*
G37*
%TD*%
%TO.C,SW4*%
G36*
G01*
X193757000Y-97073800D02*
X193757000Y-94473800D01*
G75*
G02*
X194957000Y-93273800I1200000J0D01*
G01*
X194957000Y-93273800D01*
G75*
G02*
X196157000Y-94473800I0J-1200000D01*
G01*
X196157000Y-97073800D01*
G75*
G02*
X194957000Y-98273800I-1200000J0D01*
G01*
X194957000Y-98273800D01*
G75*
G02*
X193757000Y-97073800I0J1200000D01*
G01*
G37*
G36*
G01*
X182557000Y-97073800D02*
X182557000Y-94473800D01*
G75*
G02*
X183757000Y-93273800I1200000J0D01*
G01*
X183757000Y-93273800D01*
G75*
G02*
X184957000Y-94473800I0J-1200000D01*
G01*
X184957000Y-97073800D01*
G75*
G02*
X183757000Y-98273800I-1200000J0D01*
G01*
X183757000Y-98273800D01*
G75*
G02*
X182557000Y-97073800I0J1200000D01*
G01*
G37*
X191857000Y-103273800D03*
X189357000Y-103273800D03*
X186857000Y-103273800D03*
X191857000Y-88773800D03*
D15*
X186857000Y-88773800D03*
%TD*%
M02*
