M48
; DRILL file {KiCad (5.1.10)-1} date 08/25/21 15:30:55
; FORMAT={-:-/ absolute / metric / decimal}
; #@! TF.CreationDate,2021-08-25T15:30:55+02:00
; #@! TF.GenerationSoftware,Kicad,Pcbnew,(5.1.10)-1
; #@! TF.FileFunction,Plated,1,2,PTH
FMAT,2
METRIC
T1C0.400
T2C0.650
T3C1.000
T4C1.500
T5C2.700
%
G90
G05
T1
X125.756Y-108.741
X126.492Y-104.902
X129.413Y-100.076
X130.005Y-78.278
X137.109Y-89.333
X139.7Y-117.983
X140.081Y-87.376
X140.243Y-77.739
X141.333Y-116.346
X142.926Y-78.302
X144.088Y-119.101
X144.594Y-124.321
X144.8Y-110.52
X145.034Y-83.693
X145.064Y-112.97
X145.962Y-109.406
X146.238Y-107.814
X146.869Y-106.717
X146.954Y-71.411
X147.25Y-111.107
X147.278Y-113.71
X147.32Y-80.264
X148.01Y-71.499
X148.241Y-78.35
X150.067Y-113.228
X151.292Y-73.912
X152.053Y-78.35
X154.985Y-78.643
X160.453Y-92.314
X171.13Y-117.438
T3
X100.624Y-88.774
X100.624Y-103.274
X103.124Y-103.274
X105.624Y-88.774
X105.624Y-103.274
X108.077Y-123.126
X110.617Y-123.126
X113.157Y-123.126
X115.697Y-123.126
X118.237Y-123.126
X120.777Y-123.126
X123.317Y-123.126
X125.857Y-123.126
X128.397Y-123.126
X129.368Y-88.774
X129.368Y-103.274
X130.937Y-123.126
X131.868Y-103.274
X133.477Y-123.126
X134.368Y-88.774
X134.368Y-103.274
X136.017Y-123.126
X138.557Y-123.126
X153.83Y-123.126
X156.37Y-123.126
X158.113Y-88.774
X158.113Y-103.274
X158.91Y-123.126
X160.613Y-103.274
X161.45Y-123.126
X163.113Y-88.774
X163.113Y-103.274
X174.816Y-111.76
X174.816Y-114.3
X177.356Y-111.76
X177.356Y-114.3
X178.689Y-123.126
X179.896Y-111.76
X179.896Y-114.3
X181.229Y-123.126
X183.769Y-123.126
X186.309Y-123.126
X186.857Y-88.774
X186.857Y-103.274
X189.357Y-103.274
X191.857Y-88.774
X191.857Y-103.274
T5
X98.35Y-67.882
X98.35Y-123.698
X194.131Y-67.882
X194.131Y-123.634
T2
X141.933Y-68.067G85X141.933Y-67.467
G05
X141.933Y-72.497G85X141.933Y-71.397
G05
X150.573Y-68.067G85X150.573Y-67.467
G05
X150.573Y-72.497G85X150.573Y-71.397
G05
T4
X97.524Y-95.124G85X97.524Y-96.424
G05
X108.724Y-95.124G85X108.724Y-96.424
G05
X126.268Y-95.124G85X126.268Y-96.424
G05
X137.468Y-95.124G85X137.468Y-96.424
G05
X155.013Y-95.124G85X155.013Y-96.424
G05
X166.213Y-95.124G85X166.213Y-96.424
G05
X183.757Y-95.124G85X183.757Y-96.424
G05
X194.957Y-95.124G85X194.957Y-96.424
G05
T0
M30
