%TF.GenerationSoftware,KiCad,Pcbnew,(5.1.10)-1*%
%TF.CreationDate,2021-08-23T16:24:53+02:00*%
%TF.ProjectId,Console,436f6e73-6f6c-4652-9e6b-696361645f70,v01*%
%TF.SameCoordinates,Original*%
%TF.FileFunction,Legend,Top*%
%TF.FilePolarity,Positive*%
%FSLAX46Y46*%
G04 Gerber Fmt 4.6, Leading zero omitted, Abs format (unit mm)*
G04 Created by KiCad (PCBNEW (5.1.10)-1) date 2021-08-23 16:24:53*
%MOMM*%
%LPD*%
G01*
G04 APERTURE LIST*
%ADD10C,0.150000*%
%ADD11C,0.120000*%
%ADD12C,0.127000*%
%ADD13C,0.200000*%
%ADD14C,0.100000*%
%ADD15C,0.250000*%
%ADD16C,0.254000*%
G04 APERTURE END LIST*
D10*
X99315642Y-120832571D02*
X99648976Y-120832571D01*
X99791833Y-121356380D02*
X99315642Y-121356380D01*
X99315642Y-120356380D01*
X99791833Y-120356380D01*
X100220404Y-120689714D02*
X100220404Y-121356380D01*
X100220404Y-120784952D02*
X100268023Y-120737333D01*
X100363261Y-120689714D01*
X100506119Y-120689714D01*
X100601357Y-120737333D01*
X100648976Y-120832571D01*
X100648976Y-121356380D01*
X101553738Y-121308761D02*
X101458500Y-121356380D01*
X101268023Y-121356380D01*
X101172785Y-121308761D01*
X101125166Y-121261142D01*
X101077547Y-121165904D01*
X101077547Y-120880190D01*
X101125166Y-120784952D01*
X101172785Y-120737333D01*
X101268023Y-120689714D01*
X101458500Y-120689714D01*
X101553738Y-120737333D01*
X102125166Y-121356380D02*
X102029928Y-121308761D01*
X101982309Y-121261142D01*
X101934690Y-121165904D01*
X101934690Y-120880190D01*
X101982309Y-120784952D01*
X102029928Y-120737333D01*
X102125166Y-120689714D01*
X102268023Y-120689714D01*
X102363261Y-120737333D01*
X102410880Y-120784952D01*
X102458499Y-120880190D01*
X102458499Y-121165904D01*
X102410880Y-121261142D01*
X102363261Y-121308761D01*
X102268023Y-121356380D01*
X102125166Y-121356380D01*
X103315642Y-121356380D02*
X103315642Y-120356380D01*
X103315642Y-121308761D02*
X103220404Y-121356380D01*
X103029928Y-121356380D01*
X102934690Y-121308761D01*
X102887071Y-121261142D01*
X102839452Y-121165904D01*
X102839452Y-120880190D01*
X102887071Y-120784952D01*
X102934690Y-120737333D01*
X103029928Y-120689714D01*
X103220404Y-120689714D01*
X103315642Y-120737333D01*
X104172785Y-121308761D02*
X104077547Y-121356380D01*
X103887071Y-121356380D01*
X103791833Y-121308761D01*
X103744214Y-121213523D01*
X103744214Y-120832571D01*
X103791833Y-120737333D01*
X103887071Y-120689714D01*
X104077547Y-120689714D01*
X104172785Y-120737333D01*
X104220404Y-120832571D01*
X104220404Y-120927809D01*
X103744214Y-121023047D01*
X104648976Y-121356380D02*
X104648976Y-120689714D01*
X104648976Y-120880190D02*
X104696595Y-120784952D01*
X104744214Y-120737333D01*
X104839452Y-120689714D01*
X104934690Y-120689714D01*
X105220404Y-121308761D02*
X105315642Y-121356380D01*
X105506119Y-121356380D01*
X105601357Y-121308761D01*
X105648976Y-121213523D01*
X105648976Y-121165904D01*
X105601357Y-121070666D01*
X105506119Y-121023047D01*
X105363261Y-121023047D01*
X105268023Y-120975428D01*
X105220404Y-120880190D01*
X105220404Y-120832571D01*
X105268023Y-120737333D01*
X105363261Y-120689714D01*
X105506119Y-120689714D01*
X105601357Y-120737333D01*
X165694261Y-120419880D02*
X165694261Y-121229404D01*
X165741880Y-121324642D01*
X165789500Y-121372261D01*
X165884738Y-121419880D01*
X166075214Y-121419880D01*
X166170452Y-121372261D01*
X166218071Y-121324642D01*
X166265690Y-121229404D01*
X166265690Y-120419880D01*
X166694261Y-121134166D02*
X167170452Y-121134166D01*
X166599023Y-121419880D02*
X166932357Y-120419880D01*
X167265690Y-121419880D01*
X168170452Y-121419880D02*
X167837119Y-120943690D01*
X167599023Y-121419880D02*
X167599023Y-120419880D01*
X167979976Y-120419880D01*
X168075214Y-120467500D01*
X168122833Y-120515119D01*
X168170452Y-120610357D01*
X168170452Y-120753214D01*
X168122833Y-120848452D01*
X168075214Y-120896071D01*
X167979976Y-120943690D01*
X167599023Y-120943690D01*
X168456166Y-120419880D02*
X169027595Y-120419880D01*
X168741880Y-121419880D02*
X168741880Y-120419880D01*
X189967047Y-121483380D02*
X189967047Y-120483380D01*
X190395619Y-120245285D02*
X190490857Y-120197666D01*
X190633714Y-120197666D01*
X190728952Y-120245285D01*
X190776571Y-120340523D01*
X190776571Y-120435761D01*
X190728952Y-120531000D01*
X190395619Y-120864333D01*
X190776571Y-120864333D01*
X191776571Y-121388142D02*
X191728952Y-121435761D01*
X191586095Y-121483380D01*
X191490857Y-121483380D01*
X191348000Y-121435761D01*
X191252761Y-121340523D01*
X191205142Y-121245285D01*
X191157523Y-121054809D01*
X191157523Y-120911952D01*
X191205142Y-120721476D01*
X191252761Y-120626238D01*
X191348000Y-120531000D01*
X191490857Y-120483380D01*
X191586095Y-120483380D01*
X191728952Y-120531000D01*
X191776571Y-120578619D01*
X137069580Y-71013580D02*
X136736247Y-70537390D01*
X136498152Y-71013580D02*
X136498152Y-70013580D01*
X136879104Y-70013580D01*
X136974342Y-70061200D01*
X137021961Y-70108819D01*
X137069580Y-70204057D01*
X137069580Y-70346914D01*
X137021961Y-70442152D01*
X136974342Y-70489771D01*
X136879104Y-70537390D01*
X136498152Y-70537390D01*
X137450533Y-70965961D02*
X137593390Y-71013580D01*
X137831485Y-71013580D01*
X137926723Y-70965961D01*
X137974342Y-70918342D01*
X138021961Y-70823104D01*
X138021961Y-70727866D01*
X137974342Y-70632628D01*
X137926723Y-70585009D01*
X137831485Y-70537390D01*
X137641009Y-70489771D01*
X137545771Y-70442152D01*
X137498152Y-70394533D01*
X137450533Y-70299295D01*
X137450533Y-70204057D01*
X137498152Y-70108819D01*
X137545771Y-70061200D01*
X137641009Y-70013580D01*
X137879104Y-70013580D01*
X138021961Y-70061200D01*
X138307676Y-70013580D02*
X138879104Y-70013580D01*
X138593390Y-71013580D02*
X138593390Y-70013580D01*
X130505295Y-70013580D02*
X131076723Y-70013580D01*
X130791009Y-71013580D02*
X130791009Y-70013580D01*
X131314819Y-70013580D02*
X131981485Y-71013580D01*
X131981485Y-70013580D02*
X131314819Y-71013580D01*
X125639533Y-71013580D02*
X125306200Y-70537390D01*
X125068104Y-71013580D02*
X125068104Y-70013580D01*
X125449057Y-70013580D01*
X125544295Y-70061200D01*
X125591914Y-70108819D01*
X125639533Y-70204057D01*
X125639533Y-70346914D01*
X125591914Y-70442152D01*
X125544295Y-70489771D01*
X125449057Y-70537390D01*
X125068104Y-70537390D01*
X125972866Y-70013580D02*
X126639533Y-71013580D01*
X126639533Y-70013580D02*
X125972866Y-71013580D01*
X159667723Y-70965961D02*
X159810580Y-71013580D01*
X160048676Y-71013580D01*
X160143914Y-70965961D01*
X160191533Y-70918342D01*
X160239152Y-70823104D01*
X160239152Y-70727866D01*
X160191533Y-70632628D01*
X160143914Y-70585009D01*
X160048676Y-70537390D01*
X159858200Y-70489771D01*
X159762961Y-70442152D01*
X159715342Y-70394533D01*
X159667723Y-70299295D01*
X159667723Y-70204057D01*
X159715342Y-70108819D01*
X159762961Y-70061200D01*
X159858200Y-70013580D01*
X160096295Y-70013580D01*
X160239152Y-70061200D01*
X161239152Y-70918342D02*
X161191533Y-70965961D01*
X161048676Y-71013580D01*
X160953438Y-71013580D01*
X160810580Y-70965961D01*
X160715342Y-70870723D01*
X160667723Y-70775485D01*
X160620104Y-70585009D01*
X160620104Y-70442152D01*
X160667723Y-70251676D01*
X160715342Y-70156438D01*
X160810580Y-70061200D01*
X160953438Y-70013580D01*
X161048676Y-70013580D01*
X161191533Y-70061200D01*
X161239152Y-70108819D01*
X162143914Y-71013580D02*
X161667723Y-71013580D01*
X161667723Y-70013580D01*
X153293914Y-70965961D02*
X153436771Y-71013580D01*
X153674866Y-71013580D01*
X153770104Y-70965961D01*
X153817723Y-70918342D01*
X153865342Y-70823104D01*
X153865342Y-70727866D01*
X153817723Y-70632628D01*
X153770104Y-70585009D01*
X153674866Y-70537390D01*
X153484390Y-70489771D01*
X153389152Y-70442152D01*
X153341533Y-70394533D01*
X153293914Y-70299295D01*
X153293914Y-70204057D01*
X153341533Y-70108819D01*
X153389152Y-70061200D01*
X153484390Y-70013580D01*
X153722485Y-70013580D01*
X153865342Y-70061200D01*
X154293914Y-71013580D02*
X154293914Y-70013580D01*
X154532009Y-70013580D01*
X154674866Y-70061200D01*
X154770104Y-70156438D01*
X154817723Y-70251676D01*
X154865342Y-70442152D01*
X154865342Y-70585009D01*
X154817723Y-70775485D01*
X154770104Y-70870723D01*
X154674866Y-70965961D01*
X154532009Y-71013580D01*
X154293914Y-71013580D01*
X155246295Y-70727866D02*
X155722485Y-70727866D01*
X155151057Y-71013580D02*
X155484390Y-70013580D01*
X155817723Y-71013580D01*
D11*
%TO.C,C1*%
X133152748Y-107923000D02*
X133675252Y-107923000D01*
X133152748Y-106453000D02*
X133675252Y-106453000D01*
%TO.C,JP8*%
X159585000Y-76292200D02*
X162385000Y-76292200D01*
X162385000Y-76292200D02*
X162385000Y-78292200D01*
X162385000Y-78292200D02*
X159585000Y-78292200D01*
X159585000Y-78292200D02*
X159585000Y-76292200D01*
D12*
%TO.C,J1*%
X183546000Y-110490000D02*
X191166000Y-110490000D01*
X191166000Y-110490000D02*
X191166000Y-115570000D01*
X191166000Y-115570000D02*
X183546000Y-115570000D01*
X183546000Y-115570000D02*
X183546000Y-110490000D01*
D13*
X183392000Y-115824000D02*
G75*
G03*
X183392000Y-115824000I-100000J0D01*
G01*
D11*
%TO.C,C2*%
X133152748Y-112169000D02*
X133675252Y-112169000D01*
X133152748Y-113639000D02*
X133675252Y-113639000D01*
D14*
%TO.C,SW5*%
X202644000Y-70114500D02*
X206544000Y-70114500D01*
X202644000Y-73014500D02*
X206544000Y-73014500D01*
D11*
%TO.C,R2*%
X158649936Y-115417000D02*
X159104064Y-115417000D01*
X158649936Y-113947000D02*
X159104064Y-113947000D01*
%TO.C,J4*%
X172780000Y-124456000D02*
X172780000Y-121796000D01*
X165100000Y-124456000D02*
X172780000Y-124456000D01*
X165100000Y-121796000D02*
X172780000Y-121796000D01*
X165100000Y-124456000D02*
X165100000Y-121796000D01*
X163830000Y-124456000D02*
X162500000Y-124456000D01*
X162500000Y-124456000D02*
X162500000Y-123126000D01*
%TO.C,JP1*%
X156035000Y-71847200D02*
X156035000Y-73847200D01*
X153235000Y-71847200D02*
X156035000Y-71847200D01*
X153235000Y-73847200D02*
X153235000Y-71847200D01*
X156035000Y-73847200D02*
X153235000Y-73847200D01*
%TO.C,JP3*%
X162385000Y-73847200D02*
X159585000Y-73847200D01*
X159585000Y-73847200D02*
X159585000Y-71847200D01*
X159585000Y-71847200D02*
X162385000Y-71847200D01*
X162385000Y-71847200D02*
X162385000Y-73847200D01*
%TO.C,JP10*%
X153235000Y-76292200D02*
X156035000Y-76292200D01*
X156035000Y-76292200D02*
X156035000Y-78292200D01*
X156035000Y-78292200D02*
X153235000Y-78292200D01*
X153235000Y-78292200D02*
X153235000Y-76292200D01*
%TO.C,JP2*%
X130756000Y-78292200D02*
X130756000Y-76292200D01*
X133556000Y-78292200D02*
X130756000Y-78292200D01*
X133556000Y-76292200D02*
X133556000Y-78292200D01*
X130756000Y-76292200D02*
X133556000Y-76292200D01*
%TO.C,JP9*%
X133541000Y-71847200D02*
X133541000Y-73847200D01*
X130741000Y-71847200D02*
X133541000Y-71847200D01*
X130741000Y-73847200D02*
X130741000Y-71847200D01*
X133541000Y-73847200D02*
X130741000Y-73847200D01*
%TO.C,D1*%
X157055000Y-112352000D02*
X159940000Y-112352000D01*
X157055000Y-110532000D02*
X157055000Y-112352000D01*
X159940000Y-110532000D02*
X157055000Y-110532000D01*
%TO.C,J3*%
X129887000Y-124456000D02*
X129887000Y-121796000D01*
X99347000Y-124456000D02*
X129887000Y-124456000D01*
X99347000Y-121796000D02*
X129887000Y-121796000D01*
X99347000Y-124456000D02*
X99347000Y-121796000D01*
X98077000Y-124456000D02*
X96747000Y-124456000D01*
X96747000Y-124456000D02*
X96747000Y-123126000D01*
%TO.C,J5*%
X197639000Y-124456000D02*
X197639000Y-121796000D01*
X189959000Y-124456000D02*
X197639000Y-124456000D01*
X189959000Y-121796000D02*
X197639000Y-121796000D01*
X189959000Y-124456000D02*
X189959000Y-121796000D01*
X188689000Y-124456000D02*
X187359000Y-124456000D01*
X187359000Y-124456000D02*
X187359000Y-123126000D01*
D10*
%TO.C,SW1*%
X80655000Y-88823800D02*
X83505000Y-88823800D01*
X85805000Y-88823800D02*
X88505000Y-88823800D01*
X90805000Y-88823800D02*
X93655000Y-88823800D01*
X93655000Y-102723800D02*
X93655000Y-98648800D01*
X93655000Y-92898800D02*
X93655000Y-88823800D01*
X80655000Y-102723800D02*
X83505000Y-102723800D01*
X85805000Y-102723800D02*
X86005000Y-102723800D01*
X88305000Y-102723800D02*
X88505000Y-102723800D01*
X90805000Y-102723800D02*
X93655000Y-102723800D01*
X80655000Y-102723800D02*
X80655000Y-98648800D01*
X80655000Y-92898800D02*
X80655000Y-88823800D01*
D15*
X84780000Y-87448800D02*
G75*
G03*
X84780000Y-87448800I-125000J0D01*
G01*
D11*
%TO.C,Y1*%
X112359000Y-110416000D02*
X96384000Y-110416000D01*
X96384000Y-110416000D02*
X96384000Y-115516000D01*
X96384000Y-115516000D02*
X112359000Y-115516000D01*
D12*
%TO.C,J2*%
X150723000Y-70577200D02*
X150723000Y-69137200D01*
X141783000Y-70577200D02*
X141783000Y-69137200D01*
X141783000Y-66397200D02*
X141783000Y-65167200D01*
X141783000Y-65167200D02*
X150723000Y-65167200D01*
X150723000Y-65167200D02*
X150723000Y-66397200D01*
D13*
X149753000Y-74167200D02*
G75*
G03*
X149753000Y-74167200I-100000J0D01*
G01*
D11*
%TO.C,C3*%
X133278748Y-119861000D02*
X133801252Y-119861000D01*
X133278748Y-118391000D02*
X133801252Y-118391000D01*
%TO.C,JP4*%
X125041000Y-71847200D02*
X127841000Y-71847200D01*
X127841000Y-71847200D02*
X127841000Y-73847200D01*
X127841000Y-73847200D02*
X125041000Y-73847200D01*
X125041000Y-73847200D02*
X125041000Y-71847200D01*
%TO.C,R1*%
X158649936Y-119925000D02*
X159104064Y-119925000D01*
X158649936Y-118455000D02*
X159104064Y-118455000D01*
%TO.C,JP5*%
X139271000Y-71847200D02*
X139271000Y-73847200D01*
X136471000Y-71847200D02*
X139271000Y-71847200D01*
X136471000Y-73847200D02*
X136471000Y-71847200D01*
X139271000Y-73847200D02*
X136471000Y-73847200D01*
%TO.C,JP6*%
X136471000Y-76292200D02*
X139271000Y-76292200D01*
X139271000Y-76292200D02*
X139271000Y-78292200D01*
X139271000Y-78292200D02*
X136471000Y-78292200D01*
X136471000Y-78292200D02*
X136471000Y-76292200D01*
%TO.C,JP7*%
X127841000Y-78292200D02*
X125041000Y-78292200D01*
X125041000Y-78292200D02*
X125041000Y-76292200D01*
X125041000Y-76292200D02*
X127841000Y-76292200D01*
X127841000Y-76292200D02*
X127841000Y-78292200D01*
D10*
%TO.C,U1*%
X141113476Y-113030000D02*
X141272575Y-113189099D01*
X146240000Y-107903476D02*
X146469810Y-108133286D01*
X151366524Y-113030000D02*
X151136714Y-112800190D01*
X146240000Y-118156524D02*
X146010190Y-117926714D01*
X141113476Y-113030000D02*
X141343286Y-112800190D01*
X146240000Y-118156524D02*
X146469810Y-117926714D01*
X151366524Y-113030000D02*
X151136714Y-113259810D01*
X146240000Y-107903476D02*
X146010190Y-108133286D01*
X141272575Y-113189099D02*
X140264948Y-114196726D01*
D15*
%TO.C,SW2*%
X124170000Y-87448800D02*
G75*
G03*
X124170000Y-87448800I-125000J0D01*
G01*
D10*
X120045000Y-92898800D02*
X120045000Y-88823800D01*
X120045000Y-102723800D02*
X120045000Y-98648800D01*
X130195000Y-102723800D02*
X133045000Y-102723800D01*
X127695000Y-102723800D02*
X127895000Y-102723800D01*
X125195000Y-102723800D02*
X125395000Y-102723800D01*
X120045000Y-102723800D02*
X122895000Y-102723800D01*
X133045000Y-92898800D02*
X133045000Y-88823800D01*
X133045000Y-102723800D02*
X133045000Y-98648800D01*
X130195000Y-88823800D02*
X133045000Y-88823800D01*
X125195000Y-88823800D02*
X127895000Y-88823800D01*
X120045000Y-88823800D02*
X122895000Y-88823800D01*
D11*
%TO.C,D2*%
X82314000Y-73363500D02*
X85199000Y-73363500D01*
X85199000Y-73363500D02*
X85199000Y-71543500D01*
X85199000Y-71543500D02*
X82314000Y-71543500D01*
%TO.C,R3*%
X83541064Y-76490500D02*
X83086936Y-76490500D01*
X83541064Y-75020500D02*
X83086936Y-75020500D01*
D10*
%TO.C,SW3*%
X159436000Y-88823800D02*
X162286000Y-88823800D01*
X164586000Y-88823800D02*
X167286000Y-88823800D01*
X169586000Y-88823800D02*
X172436000Y-88823800D01*
X172436000Y-102723800D02*
X172436000Y-98648800D01*
X172436000Y-92898800D02*
X172436000Y-88823800D01*
X159436000Y-102723800D02*
X162286000Y-102723800D01*
X164586000Y-102723800D02*
X164786000Y-102723800D01*
X167086000Y-102723800D02*
X167286000Y-102723800D01*
X169586000Y-102723800D02*
X172436000Y-102723800D01*
X159436000Y-102723800D02*
X159436000Y-98648800D01*
X159436000Y-92898800D02*
X159436000Y-88823800D01*
D15*
X163561000Y-87448800D02*
G75*
G03*
X163561000Y-87448800I-125000J0D01*
G01*
%TO.C,SW4*%
X202951000Y-87448800D02*
G75*
G03*
X202951000Y-87448800I-125000J0D01*
G01*
D10*
X198826000Y-92898800D02*
X198826000Y-88823800D01*
X198826000Y-102723800D02*
X198826000Y-98648800D01*
X208976000Y-102723800D02*
X211826000Y-102723800D01*
X206476000Y-102723800D02*
X206676000Y-102723800D01*
X203976000Y-102723800D02*
X204176000Y-102723800D01*
X198826000Y-102723800D02*
X201676000Y-102723800D01*
X211826000Y-92898800D02*
X211826000Y-88823800D01*
X211826000Y-102723800D02*
X211826000Y-98648800D01*
X208976000Y-88823800D02*
X211826000Y-88823800D01*
X203976000Y-88823800D02*
X206676000Y-88823800D01*
X198826000Y-88823800D02*
X201676000Y-88823800D01*
D11*
%TO.C,C4*%
X158657748Y-106453000D02*
X159180252Y-106453000D01*
X158657748Y-107923000D02*
X159180252Y-107923000D01*
%TO.C,C1*%
D10*
X133247333Y-105865142D02*
X133199714Y-105912761D01*
X133056857Y-105960380D01*
X132961619Y-105960380D01*
X132818761Y-105912761D01*
X132723523Y-105817523D01*
X132675904Y-105722285D01*
X132628285Y-105531809D01*
X132628285Y-105388952D01*
X132675904Y-105198476D01*
X132723523Y-105103238D01*
X132818761Y-105008000D01*
X132961619Y-104960380D01*
X133056857Y-104960380D01*
X133199714Y-105008000D01*
X133247333Y-105055619D01*
X134199714Y-105960380D02*
X133628285Y-105960380D01*
X133914000Y-105960380D02*
X133914000Y-104960380D01*
X133818761Y-105103238D01*
X133723523Y-105198476D01*
X133628285Y-105246095D01*
%TO.C,JP8*%
X160151666Y-78649580D02*
X160151666Y-79363866D01*
X160104047Y-79506723D01*
X160008809Y-79601961D01*
X159865952Y-79649580D01*
X159770714Y-79649580D01*
X160627857Y-79649580D02*
X160627857Y-78649580D01*
X161008809Y-78649580D01*
X161104047Y-78697200D01*
X161151666Y-78744819D01*
X161199285Y-78840057D01*
X161199285Y-78982914D01*
X161151666Y-79078152D01*
X161104047Y-79125771D01*
X161008809Y-79173390D01*
X160627857Y-79173390D01*
X161770714Y-79078152D02*
X161675476Y-79030533D01*
X161627857Y-78982914D01*
X161580238Y-78887676D01*
X161580238Y-78840057D01*
X161627857Y-78744819D01*
X161675476Y-78697200D01*
X161770714Y-78649580D01*
X161961190Y-78649580D01*
X162056428Y-78697200D01*
X162104047Y-78744819D01*
X162151666Y-78840057D01*
X162151666Y-78887676D01*
X162104047Y-78982914D01*
X162056428Y-79030533D01*
X161961190Y-79078152D01*
X161770714Y-79078152D01*
X161675476Y-79125771D01*
X161627857Y-79173390D01*
X161580238Y-79268628D01*
X161580238Y-79459104D01*
X161627857Y-79554342D01*
X161675476Y-79601961D01*
X161770714Y-79649580D01*
X161961190Y-79649580D01*
X162056428Y-79601961D01*
X162104047Y-79554342D01*
X162151666Y-79459104D01*
X162151666Y-79268628D01*
X162104047Y-79173390D01*
X162056428Y-79125771D01*
X161961190Y-79078152D01*
%TO.C,J1*%
X187093532Y-112598803D02*
X187093532Y-113161233D01*
X187056037Y-113273719D01*
X186981046Y-113348710D01*
X186868560Y-113386205D01*
X186793570Y-113386205D01*
X187880934Y-113386205D02*
X187430990Y-113386205D01*
X187655962Y-113386205D02*
X187655962Y-112598803D01*
X187580972Y-112711289D01*
X187505981Y-112786280D01*
X187430990Y-112823775D01*
X185879809Y-110180380D02*
X185879809Y-109180380D01*
X186927428Y-110085142D02*
X186879809Y-110132761D01*
X186736952Y-110180380D01*
X186641714Y-110180380D01*
X186498857Y-110132761D01*
X186403619Y-110037523D01*
X186356000Y-109942285D01*
X186308380Y-109751809D01*
X186308380Y-109608952D01*
X186356000Y-109418476D01*
X186403619Y-109323238D01*
X186498857Y-109228000D01*
X186641714Y-109180380D01*
X186736952Y-109180380D01*
X186879809Y-109228000D01*
X186927428Y-109275619D01*
X187308380Y-110132761D02*
X187451238Y-110180380D01*
X187689333Y-110180380D01*
X187784571Y-110132761D01*
X187832190Y-110085142D01*
X187879809Y-109989904D01*
X187879809Y-109894666D01*
X187832190Y-109799428D01*
X187784571Y-109751809D01*
X187689333Y-109704190D01*
X187498857Y-109656571D01*
X187403619Y-109608952D01*
X187356000Y-109561333D01*
X187308380Y-109466095D01*
X187308380Y-109370857D01*
X187356000Y-109275619D01*
X187403619Y-109228000D01*
X187498857Y-109180380D01*
X187736952Y-109180380D01*
X187879809Y-109228000D01*
X188308380Y-110180380D02*
X188308380Y-109180380D01*
X188689333Y-109180380D01*
X188784571Y-109228000D01*
X188832190Y-109275619D01*
X188879809Y-109370857D01*
X188879809Y-109513714D01*
X188832190Y-109608952D01*
X188784571Y-109656571D01*
X188689333Y-109704190D01*
X188308380Y-109704190D01*
%TO.C,C2*%
X133247333Y-111581142D02*
X133199714Y-111628761D01*
X133056857Y-111676380D01*
X132961619Y-111676380D01*
X132818761Y-111628761D01*
X132723523Y-111533523D01*
X132675904Y-111438285D01*
X132628285Y-111247809D01*
X132628285Y-111104952D01*
X132675904Y-110914476D01*
X132723523Y-110819238D01*
X132818761Y-110724000D01*
X132961619Y-110676380D01*
X133056857Y-110676380D01*
X133199714Y-110724000D01*
X133247333Y-110771619D01*
X133628285Y-110771619D02*
X133675904Y-110724000D01*
X133771142Y-110676380D01*
X134009238Y-110676380D01*
X134104476Y-110724000D01*
X134152095Y-110771619D01*
X134199714Y-110866857D01*
X134199714Y-110962095D01*
X134152095Y-111104952D01*
X133580666Y-111676380D01*
X134199714Y-111676380D01*
%TO.C,SW5*%
D16*
X202900666Y-72078547D02*
X203082095Y-72139023D01*
X203384476Y-72139023D01*
X203505428Y-72078547D01*
X203565904Y-72018071D01*
X203626380Y-71897119D01*
X203626380Y-71776166D01*
X203565904Y-71655214D01*
X203505428Y-71594738D01*
X203384476Y-71534261D01*
X203142571Y-71473785D01*
X203021619Y-71413309D01*
X202961142Y-71352833D01*
X202900666Y-71231880D01*
X202900666Y-71110928D01*
X202961142Y-70989976D01*
X203021619Y-70929500D01*
X203142571Y-70869023D01*
X203444952Y-70869023D01*
X203626380Y-70929500D01*
X204049714Y-70869023D02*
X204352095Y-72139023D01*
X204594000Y-71231880D01*
X204835904Y-72139023D01*
X205138285Y-70869023D01*
X206226857Y-70869023D02*
X205622095Y-70869023D01*
X205561619Y-71473785D01*
X205622095Y-71413309D01*
X205743047Y-71352833D01*
X206045428Y-71352833D01*
X206166380Y-71413309D01*
X206226857Y-71473785D01*
X206287333Y-71594738D01*
X206287333Y-71897119D01*
X206226857Y-72018071D01*
X206166380Y-72078547D01*
X206045428Y-72139023D01*
X205743047Y-72139023D01*
X205622095Y-72078547D01*
X205561619Y-72018071D01*
%TO.C,R2*%
D10*
X158710333Y-113484380D02*
X158377000Y-113008190D01*
X158138904Y-113484380D02*
X158138904Y-112484380D01*
X158519857Y-112484380D01*
X158615095Y-112532000D01*
X158662714Y-112579619D01*
X158710333Y-112674857D01*
X158710333Y-112817714D01*
X158662714Y-112912952D01*
X158615095Y-112960571D01*
X158519857Y-113008190D01*
X158138904Y-113008190D01*
X159091285Y-112579619D02*
X159138904Y-112532000D01*
X159234142Y-112484380D01*
X159472238Y-112484380D01*
X159567476Y-112532000D01*
X159615095Y-112579619D01*
X159662714Y-112674857D01*
X159662714Y-112770095D01*
X159615095Y-112912952D01*
X159043666Y-113484380D01*
X159662714Y-113484380D01*
%TO.C,J4*%
X160952380Y-123459333D02*
X161666666Y-123459333D01*
X161809523Y-123506952D01*
X161904761Y-123602190D01*
X161952380Y-123745047D01*
X161952380Y-123840285D01*
X161285714Y-122554571D02*
X161952380Y-122554571D01*
X160904761Y-122792666D02*
X161619047Y-123030761D01*
X161619047Y-122411714D01*
%TO.C,JP1*%
X153801666Y-74204580D02*
X153801666Y-74918866D01*
X153754047Y-75061723D01*
X153658809Y-75156961D01*
X153515952Y-75204580D01*
X153420714Y-75204580D01*
X154277857Y-75204580D02*
X154277857Y-74204580D01*
X154658809Y-74204580D01*
X154754047Y-74252200D01*
X154801666Y-74299819D01*
X154849285Y-74395057D01*
X154849285Y-74537914D01*
X154801666Y-74633152D01*
X154754047Y-74680771D01*
X154658809Y-74728390D01*
X154277857Y-74728390D01*
X155801666Y-75204580D02*
X155230238Y-75204580D01*
X155515952Y-75204580D02*
X155515952Y-74204580D01*
X155420714Y-74347438D01*
X155325476Y-74442676D01*
X155230238Y-74490295D01*
%TO.C,JP3*%
X160151666Y-74204580D02*
X160151666Y-74918866D01*
X160104047Y-75061723D01*
X160008809Y-75156961D01*
X159865952Y-75204580D01*
X159770714Y-75204580D01*
X160627857Y-75204580D02*
X160627857Y-74204580D01*
X161008809Y-74204580D01*
X161104047Y-74252200D01*
X161151666Y-74299819D01*
X161199285Y-74395057D01*
X161199285Y-74537914D01*
X161151666Y-74633152D01*
X161104047Y-74680771D01*
X161008809Y-74728390D01*
X160627857Y-74728390D01*
X161532619Y-74204580D02*
X162151666Y-74204580D01*
X161818333Y-74585533D01*
X161961190Y-74585533D01*
X162056428Y-74633152D01*
X162104047Y-74680771D01*
X162151666Y-74776009D01*
X162151666Y-75014104D01*
X162104047Y-75109342D01*
X162056428Y-75156961D01*
X161961190Y-75204580D01*
X161675476Y-75204580D01*
X161580238Y-75156961D01*
X161532619Y-75109342D01*
%TO.C,JP10*%
X153325476Y-78649580D02*
X153325476Y-79363866D01*
X153277857Y-79506723D01*
X153182619Y-79601961D01*
X153039761Y-79649580D01*
X152944523Y-79649580D01*
X153801666Y-79649580D02*
X153801666Y-78649580D01*
X154182619Y-78649580D01*
X154277857Y-78697200D01*
X154325476Y-78744819D01*
X154373095Y-78840057D01*
X154373095Y-78982914D01*
X154325476Y-79078152D01*
X154277857Y-79125771D01*
X154182619Y-79173390D01*
X153801666Y-79173390D01*
X155325476Y-79649580D02*
X154754047Y-79649580D01*
X155039761Y-79649580D02*
X155039761Y-78649580D01*
X154944523Y-78792438D01*
X154849285Y-78887676D01*
X154754047Y-78935295D01*
X155944523Y-78649580D02*
X156039761Y-78649580D01*
X156135000Y-78697200D01*
X156182619Y-78744819D01*
X156230238Y-78840057D01*
X156277857Y-79030533D01*
X156277857Y-79268628D01*
X156230238Y-79459104D01*
X156182619Y-79554342D01*
X156135000Y-79601961D01*
X156039761Y-79649580D01*
X155944523Y-79649580D01*
X155849285Y-79601961D01*
X155801666Y-79554342D01*
X155754047Y-79459104D01*
X155706428Y-79268628D01*
X155706428Y-79030533D01*
X155754047Y-78840057D01*
X155801666Y-78744819D01*
X155849285Y-78697200D01*
X155944523Y-78649580D01*
%TO.C,JP2*%
X131322666Y-78649580D02*
X131322666Y-79363866D01*
X131275047Y-79506723D01*
X131179809Y-79601961D01*
X131036952Y-79649580D01*
X130941714Y-79649580D01*
X131798857Y-79649580D02*
X131798857Y-78649580D01*
X132179809Y-78649580D01*
X132275047Y-78697200D01*
X132322666Y-78744819D01*
X132370285Y-78840057D01*
X132370285Y-78982914D01*
X132322666Y-79078152D01*
X132275047Y-79125771D01*
X132179809Y-79173390D01*
X131798857Y-79173390D01*
X132751238Y-78744819D02*
X132798857Y-78697200D01*
X132894095Y-78649580D01*
X133132190Y-78649580D01*
X133227428Y-78697200D01*
X133275047Y-78744819D01*
X133322666Y-78840057D01*
X133322666Y-78935295D01*
X133275047Y-79078152D01*
X132703619Y-79649580D01*
X133322666Y-79649580D01*
%TO.C,JP9*%
X131307666Y-74204580D02*
X131307666Y-74918866D01*
X131260047Y-75061723D01*
X131164809Y-75156961D01*
X131021952Y-75204580D01*
X130926714Y-75204580D01*
X131783857Y-75204580D02*
X131783857Y-74204580D01*
X132164809Y-74204580D01*
X132260047Y-74252200D01*
X132307666Y-74299819D01*
X132355285Y-74395057D01*
X132355285Y-74537914D01*
X132307666Y-74633152D01*
X132260047Y-74680771D01*
X132164809Y-74728390D01*
X131783857Y-74728390D01*
X132831476Y-75204580D02*
X133021952Y-75204580D01*
X133117190Y-75156961D01*
X133164809Y-75109342D01*
X133260047Y-74966485D01*
X133307666Y-74776009D01*
X133307666Y-74395057D01*
X133260047Y-74299819D01*
X133212428Y-74252200D01*
X133117190Y-74204580D01*
X132926714Y-74204580D01*
X132831476Y-74252200D01*
X132783857Y-74299819D01*
X132736238Y-74395057D01*
X132736238Y-74633152D01*
X132783857Y-74728390D01*
X132831476Y-74776009D01*
X132926714Y-74823628D01*
X133117190Y-74823628D01*
X133212428Y-74776009D01*
X133260047Y-74728390D01*
X133307666Y-74633152D01*
%TO.C,D1*%
X158201904Y-110294380D02*
X158201904Y-109294380D01*
X158440000Y-109294380D01*
X158582857Y-109342000D01*
X158678095Y-109437238D01*
X158725714Y-109532476D01*
X158773333Y-109722952D01*
X158773333Y-109865809D01*
X158725714Y-110056285D01*
X158678095Y-110151523D01*
X158582857Y-110246761D01*
X158440000Y-110294380D01*
X158201904Y-110294380D01*
X159725714Y-110294380D02*
X159154285Y-110294380D01*
X159440000Y-110294380D02*
X159440000Y-109294380D01*
X159344761Y-109437238D01*
X159249523Y-109532476D01*
X159154285Y-109580095D01*
%TO.C,J3*%
X95199380Y-123459333D02*
X95913666Y-123459333D01*
X96056523Y-123506952D01*
X96151761Y-123602190D01*
X96199380Y-123745047D01*
X96199380Y-123840285D01*
X95199380Y-123078380D02*
X95199380Y-122459333D01*
X95580333Y-122792666D01*
X95580333Y-122649809D01*
X95627952Y-122554571D01*
X95675571Y-122506952D01*
X95770809Y-122459333D01*
X96008904Y-122459333D01*
X96104142Y-122506952D01*
X96151761Y-122554571D01*
X96199380Y-122649809D01*
X96199380Y-122935523D01*
X96151761Y-123030761D01*
X96104142Y-123078380D01*
%TO.C,J5*%
X185811380Y-123459333D02*
X186525666Y-123459333D01*
X186668523Y-123506952D01*
X186763761Y-123602190D01*
X186811380Y-123745047D01*
X186811380Y-123840285D01*
X185811380Y-122506952D02*
X185811380Y-122983142D01*
X186287571Y-123030761D01*
X186239952Y-122983142D01*
X186192333Y-122887904D01*
X186192333Y-122649809D01*
X186239952Y-122554571D01*
X186287571Y-122506952D01*
X186382809Y-122459333D01*
X186620904Y-122459333D01*
X186716142Y-122506952D01*
X186763761Y-122554571D01*
X186811380Y-122649809D01*
X186811380Y-122887904D01*
X186763761Y-122983142D01*
X186716142Y-123030761D01*
%TO.C,SW1*%
X80942976Y-87528561D02*
X81085833Y-87576180D01*
X81323928Y-87576180D01*
X81419166Y-87528561D01*
X81466785Y-87480942D01*
X81514404Y-87385704D01*
X81514404Y-87290466D01*
X81466785Y-87195228D01*
X81419166Y-87147609D01*
X81323928Y-87099990D01*
X81133452Y-87052371D01*
X81038214Y-87004752D01*
X80990595Y-86957133D01*
X80942976Y-86861895D01*
X80942976Y-86766657D01*
X80990595Y-86671419D01*
X81038214Y-86623800D01*
X81133452Y-86576180D01*
X81371547Y-86576180D01*
X81514404Y-86623800D01*
X81847738Y-86576180D02*
X82085833Y-87576180D01*
X82276309Y-86861895D01*
X82466785Y-87576180D01*
X82704880Y-86576180D01*
X83609642Y-87576180D02*
X83038214Y-87576180D01*
X83323928Y-87576180D02*
X83323928Y-86576180D01*
X83228690Y-86719038D01*
X83133452Y-86814276D01*
X83038214Y-86861895D01*
%TO.C,Y1*%
X105982809Y-109392190D02*
X105982809Y-109868380D01*
X105649476Y-108868380D02*
X105982809Y-109392190D01*
X106316142Y-108868380D01*
X107173285Y-109868380D02*
X106601857Y-109868380D01*
X106887571Y-109868380D02*
X106887571Y-108868380D01*
X106792333Y-109011238D01*
X106697095Y-109106476D01*
X106601857Y-109154095D01*
%TO.C,J2*%
X147744666Y-74654580D02*
X147744666Y-75368866D01*
X147697047Y-75511723D01*
X147601809Y-75606961D01*
X147458952Y-75654580D01*
X147363714Y-75654580D01*
X148173238Y-74749819D02*
X148220857Y-74702200D01*
X148316095Y-74654580D01*
X148554190Y-74654580D01*
X148649428Y-74702200D01*
X148697047Y-74749819D01*
X148744666Y-74845057D01*
X148744666Y-74940295D01*
X148697047Y-75083152D01*
X148125619Y-75654580D01*
X148744666Y-75654580D01*
%TO.C,C3*%
X133373333Y-117803142D02*
X133325714Y-117850761D01*
X133182857Y-117898380D01*
X133087619Y-117898380D01*
X132944761Y-117850761D01*
X132849523Y-117755523D01*
X132801904Y-117660285D01*
X132754285Y-117469809D01*
X132754285Y-117326952D01*
X132801904Y-117136476D01*
X132849523Y-117041238D01*
X132944761Y-116946000D01*
X133087619Y-116898380D01*
X133182857Y-116898380D01*
X133325714Y-116946000D01*
X133373333Y-116993619D01*
X133706666Y-116898380D02*
X134325714Y-116898380D01*
X133992380Y-117279333D01*
X134135238Y-117279333D01*
X134230476Y-117326952D01*
X134278095Y-117374571D01*
X134325714Y-117469809D01*
X134325714Y-117707904D01*
X134278095Y-117803142D01*
X134230476Y-117850761D01*
X134135238Y-117898380D01*
X133849523Y-117898380D01*
X133754285Y-117850761D01*
X133706666Y-117803142D01*
%TO.C,JP4*%
X125607666Y-74204580D02*
X125607666Y-74918866D01*
X125560047Y-75061723D01*
X125464809Y-75156961D01*
X125321952Y-75204580D01*
X125226714Y-75204580D01*
X126083857Y-75204580D02*
X126083857Y-74204580D01*
X126464809Y-74204580D01*
X126560047Y-74252200D01*
X126607666Y-74299819D01*
X126655285Y-74395057D01*
X126655285Y-74537914D01*
X126607666Y-74633152D01*
X126560047Y-74680771D01*
X126464809Y-74728390D01*
X126083857Y-74728390D01*
X127512428Y-74537914D02*
X127512428Y-75204580D01*
X127274333Y-74156961D02*
X127036238Y-74871247D01*
X127655285Y-74871247D01*
%TO.C,R1*%
X158710333Y-117992380D02*
X158377000Y-117516190D01*
X158138904Y-117992380D02*
X158138904Y-116992380D01*
X158519857Y-116992380D01*
X158615095Y-117040000D01*
X158662714Y-117087619D01*
X158710333Y-117182857D01*
X158710333Y-117325714D01*
X158662714Y-117420952D01*
X158615095Y-117468571D01*
X158519857Y-117516190D01*
X158138904Y-117516190D01*
X159662714Y-117992380D02*
X159091285Y-117992380D01*
X159377000Y-117992380D02*
X159377000Y-116992380D01*
X159281761Y-117135238D01*
X159186523Y-117230476D01*
X159091285Y-117278095D01*
%TO.C,JP5*%
X137037666Y-74204580D02*
X137037666Y-74918866D01*
X136990047Y-75061723D01*
X136894809Y-75156961D01*
X136751952Y-75204580D01*
X136656714Y-75204580D01*
X137513857Y-75204580D02*
X137513857Y-74204580D01*
X137894809Y-74204580D01*
X137990047Y-74252200D01*
X138037666Y-74299819D01*
X138085285Y-74395057D01*
X138085285Y-74537914D01*
X138037666Y-74633152D01*
X137990047Y-74680771D01*
X137894809Y-74728390D01*
X137513857Y-74728390D01*
X138990047Y-74204580D02*
X138513857Y-74204580D01*
X138466238Y-74680771D01*
X138513857Y-74633152D01*
X138609095Y-74585533D01*
X138847190Y-74585533D01*
X138942428Y-74633152D01*
X138990047Y-74680771D01*
X139037666Y-74776009D01*
X139037666Y-75014104D01*
X138990047Y-75109342D01*
X138942428Y-75156961D01*
X138847190Y-75204580D01*
X138609095Y-75204580D01*
X138513857Y-75156961D01*
X138466238Y-75109342D01*
%TO.C,JP6*%
X137037666Y-78649580D02*
X137037666Y-79363866D01*
X136990047Y-79506723D01*
X136894809Y-79601961D01*
X136751952Y-79649580D01*
X136656714Y-79649580D01*
X137513857Y-79649580D02*
X137513857Y-78649580D01*
X137894809Y-78649580D01*
X137990047Y-78697200D01*
X138037666Y-78744819D01*
X138085285Y-78840057D01*
X138085285Y-78982914D01*
X138037666Y-79078152D01*
X137990047Y-79125771D01*
X137894809Y-79173390D01*
X137513857Y-79173390D01*
X138942428Y-78649580D02*
X138751952Y-78649580D01*
X138656714Y-78697200D01*
X138609095Y-78744819D01*
X138513857Y-78887676D01*
X138466238Y-79078152D01*
X138466238Y-79459104D01*
X138513857Y-79554342D01*
X138561476Y-79601961D01*
X138656714Y-79649580D01*
X138847190Y-79649580D01*
X138942428Y-79601961D01*
X138990047Y-79554342D01*
X139037666Y-79459104D01*
X139037666Y-79221009D01*
X138990047Y-79125771D01*
X138942428Y-79078152D01*
X138847190Y-79030533D01*
X138656714Y-79030533D01*
X138561476Y-79078152D01*
X138513857Y-79125771D01*
X138466238Y-79221009D01*
%TO.C,JP7*%
X125607666Y-78649580D02*
X125607666Y-79363866D01*
X125560047Y-79506723D01*
X125464809Y-79601961D01*
X125321952Y-79649580D01*
X125226714Y-79649580D01*
X126083857Y-79649580D02*
X126083857Y-78649580D01*
X126464809Y-78649580D01*
X126560047Y-78697200D01*
X126607666Y-78744819D01*
X126655285Y-78840057D01*
X126655285Y-78982914D01*
X126607666Y-79078152D01*
X126560047Y-79125771D01*
X126464809Y-79173390D01*
X126083857Y-79173390D01*
X126988619Y-78649580D02*
X127655285Y-78649580D01*
X127226714Y-79649580D01*
%TO.C,U1*%
X145478095Y-104354380D02*
X145478095Y-105163904D01*
X145525714Y-105259142D01*
X145573333Y-105306761D01*
X145668571Y-105354380D01*
X145859047Y-105354380D01*
X145954285Y-105306761D01*
X146001904Y-105259142D01*
X146049523Y-105163904D01*
X146049523Y-104354380D01*
X147049523Y-105354380D02*
X146478095Y-105354380D01*
X146763809Y-105354380D02*
X146763809Y-104354380D01*
X146668571Y-104497238D01*
X146573333Y-104592476D01*
X146478095Y-104640095D01*
%TO.C,SW2*%
X120332976Y-87528561D02*
X120475833Y-87576180D01*
X120713928Y-87576180D01*
X120809166Y-87528561D01*
X120856785Y-87480942D01*
X120904404Y-87385704D01*
X120904404Y-87290466D01*
X120856785Y-87195228D01*
X120809166Y-87147609D01*
X120713928Y-87099990D01*
X120523452Y-87052371D01*
X120428214Y-87004752D01*
X120380595Y-86957133D01*
X120332976Y-86861895D01*
X120332976Y-86766657D01*
X120380595Y-86671419D01*
X120428214Y-86623800D01*
X120523452Y-86576180D01*
X120761547Y-86576180D01*
X120904404Y-86623800D01*
X121237738Y-86576180D02*
X121475833Y-87576180D01*
X121666309Y-86861895D01*
X121856785Y-87576180D01*
X122094880Y-86576180D01*
X122428214Y-86671419D02*
X122475833Y-86623800D01*
X122571071Y-86576180D01*
X122809166Y-86576180D01*
X122904404Y-86623800D01*
X122952023Y-86671419D01*
X122999642Y-86766657D01*
X122999642Y-86861895D01*
X122952023Y-87004752D01*
X122380595Y-87576180D01*
X122999642Y-87576180D01*
%TO.C,D2*%
X82575904Y-71254880D02*
X82575904Y-70254880D01*
X82814000Y-70254880D01*
X82956857Y-70302500D01*
X83052095Y-70397738D01*
X83099714Y-70492976D01*
X83147333Y-70683452D01*
X83147333Y-70826309D01*
X83099714Y-71016785D01*
X83052095Y-71112023D01*
X82956857Y-71207261D01*
X82814000Y-71254880D01*
X82575904Y-71254880D01*
X83528285Y-70350119D02*
X83575904Y-70302500D01*
X83671142Y-70254880D01*
X83909238Y-70254880D01*
X84004476Y-70302500D01*
X84052095Y-70350119D01*
X84099714Y-70445357D01*
X84099714Y-70540595D01*
X84052095Y-70683452D01*
X83480666Y-71254880D01*
X84099714Y-71254880D01*
%TO.C,R3*%
X83147333Y-74556880D02*
X82814000Y-74080690D01*
X82575904Y-74556880D02*
X82575904Y-73556880D01*
X82956857Y-73556880D01*
X83052095Y-73604500D01*
X83099714Y-73652119D01*
X83147333Y-73747357D01*
X83147333Y-73890214D01*
X83099714Y-73985452D01*
X83052095Y-74033071D01*
X82956857Y-74080690D01*
X82575904Y-74080690D01*
X83480666Y-73556880D02*
X84099714Y-73556880D01*
X83766380Y-73937833D01*
X83909238Y-73937833D01*
X84004476Y-73985452D01*
X84052095Y-74033071D01*
X84099714Y-74128309D01*
X84099714Y-74366404D01*
X84052095Y-74461642D01*
X84004476Y-74509261D01*
X83909238Y-74556880D01*
X83623523Y-74556880D01*
X83528285Y-74509261D01*
X83480666Y-74461642D01*
%TO.C,SW3*%
X159723976Y-87528561D02*
X159866833Y-87576180D01*
X160104928Y-87576180D01*
X160200166Y-87528561D01*
X160247785Y-87480942D01*
X160295404Y-87385704D01*
X160295404Y-87290466D01*
X160247785Y-87195228D01*
X160200166Y-87147609D01*
X160104928Y-87099990D01*
X159914452Y-87052371D01*
X159819214Y-87004752D01*
X159771595Y-86957133D01*
X159723976Y-86861895D01*
X159723976Y-86766657D01*
X159771595Y-86671419D01*
X159819214Y-86623800D01*
X159914452Y-86576180D01*
X160152547Y-86576180D01*
X160295404Y-86623800D01*
X160628738Y-86576180D02*
X160866833Y-87576180D01*
X161057309Y-86861895D01*
X161247785Y-87576180D01*
X161485880Y-86576180D01*
X161771595Y-86576180D02*
X162390642Y-86576180D01*
X162057309Y-86957133D01*
X162200166Y-86957133D01*
X162295404Y-87004752D01*
X162343023Y-87052371D01*
X162390642Y-87147609D01*
X162390642Y-87385704D01*
X162343023Y-87480942D01*
X162295404Y-87528561D01*
X162200166Y-87576180D01*
X161914452Y-87576180D01*
X161819214Y-87528561D01*
X161771595Y-87480942D01*
%TO.C,SW4*%
X199113976Y-87528561D02*
X199256833Y-87576180D01*
X199494928Y-87576180D01*
X199590166Y-87528561D01*
X199637785Y-87480942D01*
X199685404Y-87385704D01*
X199685404Y-87290466D01*
X199637785Y-87195228D01*
X199590166Y-87147609D01*
X199494928Y-87099990D01*
X199304452Y-87052371D01*
X199209214Y-87004752D01*
X199161595Y-86957133D01*
X199113976Y-86861895D01*
X199113976Y-86766657D01*
X199161595Y-86671419D01*
X199209214Y-86623800D01*
X199304452Y-86576180D01*
X199542547Y-86576180D01*
X199685404Y-86623800D01*
X200018738Y-86576180D02*
X200256833Y-87576180D01*
X200447309Y-86861895D01*
X200637785Y-87576180D01*
X200875880Y-86576180D01*
X201685404Y-86909514D02*
X201685404Y-87576180D01*
X201447309Y-86528561D02*
X201209214Y-87242847D01*
X201828261Y-87242847D01*
%TO.C,C4*%
X158752333Y-105865142D02*
X158704714Y-105912761D01*
X158561857Y-105960380D01*
X158466619Y-105960380D01*
X158323761Y-105912761D01*
X158228523Y-105817523D01*
X158180904Y-105722285D01*
X158133285Y-105531809D01*
X158133285Y-105388952D01*
X158180904Y-105198476D01*
X158228523Y-105103238D01*
X158323761Y-105008000D01*
X158466619Y-104960380D01*
X158561857Y-104960380D01*
X158704714Y-105008000D01*
X158752333Y-105055619D01*
X159609476Y-105293714D02*
X159609476Y-105960380D01*
X159371380Y-104912761D02*
X159133285Y-105627047D01*
X159752333Y-105627047D01*
%TD*%
M02*
