%TF.GenerationSoftware,KiCad,Pcbnew,(5.1.10)-1*%
%TF.CreationDate,2021-08-25T15:29:53+02:00*%
%TF.ProjectId,Module,4d6f6475-6c65-42e6-9b69-6361645f7063,v01*%
%TF.SameCoordinates,Original*%
%TF.FileFunction,Copper,L2,Bot*%
%TF.FilePolarity,Positive*%
%FSLAX46Y46*%
G04 Gerber Fmt 4.6, Leading zero omitted, Abs format (unit mm)*
G04 Created by KiCad (PCBNEW (5.1.10)-1) date 2021-08-25 15:29:53*
%MOMM*%
%LPD*%
G01*
G04 APERTURE LIST*
%TA.AperFunction,ComponentPad*%
%ADD10R,1.950000X1.950000*%
%TD*%
%TA.AperFunction,ComponentPad*%
%ADD11C,1.950000*%
%TD*%
%TA.AperFunction,ViaPad*%
%ADD12C,0.800000*%
%TD*%
%TA.AperFunction,Conductor*%
%ADD13C,0.250000*%
%TD*%
%TA.AperFunction,Conductor*%
%ADD14C,0.300000*%
%TD*%
%TA.AperFunction,Conductor*%
%ADD15C,0.254000*%
%TD*%
%TA.AperFunction,Conductor*%
%ADD16C,0.100000*%
%TD*%
G04 APERTURE END LIST*
D10*
%TO.P,J1,1*%
%TO.N,SIG1*%
X142494000Y-94742000D03*
D11*
%TO.P,J1,2*%
%TO.N,SIG2*%
X147574000Y-94742000D03*
%TO.P,J1,3*%
%TO.N,GND*%
X152654000Y-94742000D03*
%TD*%
D10*
%TO.P,J2,1*%
%TO.N,VCC*%
X155194000Y-57404000D03*
D11*
%TO.P,J2,2*%
%TO.N,LED1N*%
X150114000Y-57404000D03*
%TO.P,J2,3*%
%TO.N,VCC*%
X145034000Y-57404000D03*
%TO.P,J2,4*%
%TO.N,LED2N*%
X139954000Y-57404000D03*
%TD*%
D10*
%TO.P,J3,1*%
%TO.N,GND*%
X150114000Y-84074000D03*
D11*
%TO.P,J3,2*%
%TO.N,VCC*%
X145034000Y-84074000D03*
%TD*%
D12*
%TO.N,GND*%
X145986500Y-52387500D03*
X146240500Y-69532500D03*
%TO.N,LED1N*%
X149098000Y-54991000D03*
%TO.N,LED2N*%
X143065500Y-53594000D03*
%TD*%
D13*
%TO.N,GND*%
X146386499Y-69386501D02*
X146240500Y-69532500D01*
D14*
X146386499Y-52787499D02*
X146386499Y-69386501D01*
X145986500Y-52387500D02*
X146386499Y-52787499D01*
D13*
%TO.N,LED1N*%
X150114000Y-56007000D02*
X150114000Y-57404000D01*
X149098000Y-54991000D02*
X150114000Y-56007000D01*
%TO.N,LED2N*%
X139954000Y-56705500D02*
X139954000Y-57404000D01*
X143065500Y-53594000D02*
X139954000Y-56705500D01*
%TD*%
D15*
%TO.N,GND*%
X157992001Y-101076000D02*
X137312000Y-101076000D01*
X137312000Y-93767000D01*
X140880928Y-93767000D01*
X140880928Y-95717000D01*
X140893188Y-95841482D01*
X140929498Y-95961180D01*
X140988463Y-96071494D01*
X141067815Y-96168185D01*
X141164506Y-96247537D01*
X141274820Y-96306502D01*
X141394518Y-96342812D01*
X141519000Y-96355072D01*
X143469000Y-96355072D01*
X143593482Y-96342812D01*
X143713180Y-96306502D01*
X143823494Y-96247537D01*
X143920185Y-96168185D01*
X143999537Y-96071494D01*
X144058502Y-95961180D01*
X144094812Y-95841482D01*
X144107072Y-95717000D01*
X144107072Y-94583429D01*
X145964000Y-94583429D01*
X145964000Y-94900571D01*
X146025871Y-95211620D01*
X146147237Y-95504621D01*
X146323431Y-95768315D01*
X146547685Y-95992569D01*
X146811379Y-96168763D01*
X147104380Y-96290129D01*
X147415429Y-96352000D01*
X147732571Y-96352000D01*
X148043620Y-96290129D01*
X148336621Y-96168763D01*
X148600315Y-95992569D01*
X148733300Y-95859584D01*
X151716021Y-95859584D01*
X151808766Y-96121429D01*
X152094120Y-96259820D01*
X152400990Y-96339883D01*
X152717584Y-96358540D01*
X153031733Y-96315074D01*
X153331367Y-96211156D01*
X153499234Y-96121429D01*
X153591979Y-95859584D01*
X152654000Y-94921605D01*
X151716021Y-95859584D01*
X148733300Y-95859584D01*
X148824569Y-95768315D01*
X149000763Y-95504621D01*
X149122129Y-95211620D01*
X149184000Y-94900571D01*
X149184000Y-94805584D01*
X151037460Y-94805584D01*
X151080926Y-95119733D01*
X151184844Y-95419367D01*
X151274571Y-95587234D01*
X151536416Y-95679979D01*
X152474395Y-94742000D01*
X152833605Y-94742000D01*
X153771584Y-95679979D01*
X154033429Y-95587234D01*
X154171820Y-95301880D01*
X154251883Y-94995010D01*
X154270540Y-94678416D01*
X154227074Y-94364267D01*
X154123156Y-94064633D01*
X154033429Y-93896766D01*
X153771584Y-93804021D01*
X152833605Y-94742000D01*
X152474395Y-94742000D01*
X151536416Y-93804021D01*
X151274571Y-93896766D01*
X151136180Y-94182120D01*
X151056117Y-94488990D01*
X151037460Y-94805584D01*
X149184000Y-94805584D01*
X149184000Y-94583429D01*
X149122129Y-94272380D01*
X149000763Y-93979379D01*
X148824569Y-93715685D01*
X148733300Y-93624416D01*
X151716021Y-93624416D01*
X152654000Y-94562395D01*
X153591979Y-93624416D01*
X153499234Y-93362571D01*
X153213880Y-93224180D01*
X152907010Y-93144117D01*
X152590416Y-93125460D01*
X152276267Y-93168926D01*
X151976633Y-93272844D01*
X151808766Y-93362571D01*
X151716021Y-93624416D01*
X148733300Y-93624416D01*
X148600315Y-93491431D01*
X148336621Y-93315237D01*
X148043620Y-93193871D01*
X147732571Y-93132000D01*
X147415429Y-93132000D01*
X147104380Y-93193871D01*
X146811379Y-93315237D01*
X146547685Y-93491431D01*
X146323431Y-93715685D01*
X146147237Y-93979379D01*
X146025871Y-94272380D01*
X145964000Y-94583429D01*
X144107072Y-94583429D01*
X144107072Y-93767000D01*
X144094812Y-93642518D01*
X144058502Y-93522820D01*
X143999537Y-93412506D01*
X143920185Y-93315815D01*
X143823494Y-93236463D01*
X143713180Y-93177498D01*
X143593482Y-93141188D01*
X143469000Y-93128928D01*
X141519000Y-93128928D01*
X141394518Y-93141188D01*
X141274820Y-93177498D01*
X141164506Y-93236463D01*
X141067815Y-93315815D01*
X140988463Y-93412506D01*
X140929498Y-93522820D01*
X140893188Y-93642518D01*
X140880928Y-93767000D01*
X137312000Y-93767000D01*
X137312000Y-83915429D01*
X143424000Y-83915429D01*
X143424000Y-84232571D01*
X143485871Y-84543620D01*
X143607237Y-84836621D01*
X143783431Y-85100315D01*
X144007685Y-85324569D01*
X144271379Y-85500763D01*
X144564380Y-85622129D01*
X144875429Y-85684000D01*
X145192571Y-85684000D01*
X145503620Y-85622129D01*
X145796621Y-85500763D01*
X146060315Y-85324569D01*
X146284569Y-85100315D01*
X146318856Y-85049000D01*
X148500928Y-85049000D01*
X148513188Y-85173482D01*
X148549498Y-85293180D01*
X148608463Y-85403494D01*
X148687815Y-85500185D01*
X148784506Y-85579537D01*
X148894820Y-85638502D01*
X149014518Y-85674812D01*
X149139000Y-85687072D01*
X149828250Y-85684000D01*
X149987000Y-85525250D01*
X149987000Y-84201000D01*
X150241000Y-84201000D01*
X150241000Y-85525250D01*
X150399750Y-85684000D01*
X151089000Y-85687072D01*
X151213482Y-85674812D01*
X151333180Y-85638502D01*
X151443494Y-85579537D01*
X151540185Y-85500185D01*
X151619537Y-85403494D01*
X151678502Y-85293180D01*
X151714812Y-85173482D01*
X151727072Y-85049000D01*
X151724000Y-84359750D01*
X151565250Y-84201000D01*
X150241000Y-84201000D01*
X149987000Y-84201000D01*
X148662750Y-84201000D01*
X148504000Y-84359750D01*
X148500928Y-85049000D01*
X146318856Y-85049000D01*
X146460763Y-84836621D01*
X146582129Y-84543620D01*
X146644000Y-84232571D01*
X146644000Y-83915429D01*
X146582129Y-83604380D01*
X146460763Y-83311379D01*
X146318857Y-83099000D01*
X148500928Y-83099000D01*
X148504000Y-83788250D01*
X148662750Y-83947000D01*
X149987000Y-83947000D01*
X149987000Y-82622750D01*
X150241000Y-82622750D01*
X150241000Y-83947000D01*
X151565250Y-83947000D01*
X151724000Y-83788250D01*
X151727072Y-83099000D01*
X151714812Y-82974518D01*
X151678502Y-82854820D01*
X151619537Y-82744506D01*
X151540185Y-82647815D01*
X151443494Y-82568463D01*
X151333180Y-82509498D01*
X151213482Y-82473188D01*
X151089000Y-82460928D01*
X150399750Y-82464000D01*
X150241000Y-82622750D01*
X149987000Y-82622750D01*
X149828250Y-82464000D01*
X149139000Y-82460928D01*
X149014518Y-82473188D01*
X148894820Y-82509498D01*
X148784506Y-82568463D01*
X148687815Y-82647815D01*
X148608463Y-82744506D01*
X148549498Y-82854820D01*
X148513188Y-82974518D01*
X148500928Y-83099000D01*
X146318857Y-83099000D01*
X146284569Y-83047685D01*
X146060315Y-82823431D01*
X145796621Y-82647237D01*
X145503620Y-82525871D01*
X145192571Y-82464000D01*
X144875429Y-82464000D01*
X144564380Y-82525871D01*
X144271379Y-82647237D01*
X144007685Y-82823431D01*
X143783431Y-83047685D01*
X143607237Y-83311379D01*
X143485871Y-83604380D01*
X143424000Y-83915429D01*
X137312000Y-83915429D01*
X137312000Y-57245429D01*
X138344000Y-57245429D01*
X138344000Y-57562571D01*
X138405871Y-57873620D01*
X138527237Y-58166621D01*
X138703431Y-58430315D01*
X138927685Y-58654569D01*
X139191379Y-58830763D01*
X139484380Y-58952129D01*
X139795429Y-59014000D01*
X140112571Y-59014000D01*
X140423620Y-58952129D01*
X140716621Y-58830763D01*
X140980315Y-58654569D01*
X141204569Y-58430315D01*
X141380763Y-58166621D01*
X141502129Y-57873620D01*
X141564000Y-57562571D01*
X141564000Y-57245429D01*
X143424000Y-57245429D01*
X143424000Y-57562571D01*
X143485871Y-57873620D01*
X143607237Y-58166621D01*
X143783431Y-58430315D01*
X144007685Y-58654569D01*
X144271379Y-58830763D01*
X144564380Y-58952129D01*
X144875429Y-59014000D01*
X145192571Y-59014000D01*
X145503620Y-58952129D01*
X145796621Y-58830763D01*
X146060315Y-58654569D01*
X146284569Y-58430315D01*
X146460763Y-58166621D01*
X146582129Y-57873620D01*
X146644000Y-57562571D01*
X146644000Y-57245429D01*
X146582129Y-56934380D01*
X146460763Y-56641379D01*
X146284569Y-56377685D01*
X146060315Y-56153431D01*
X145796621Y-55977237D01*
X145503620Y-55855871D01*
X145192571Y-55794000D01*
X144875429Y-55794000D01*
X144564380Y-55855871D01*
X144271379Y-55977237D01*
X144007685Y-56153431D01*
X143783431Y-56377685D01*
X143607237Y-56641379D01*
X143485871Y-56934380D01*
X143424000Y-57245429D01*
X141564000Y-57245429D01*
X141502129Y-56934380D01*
X141380763Y-56641379D01*
X141265471Y-56468831D01*
X142845241Y-54889061D01*
X148063000Y-54889061D01*
X148063000Y-55092939D01*
X148102774Y-55292898D01*
X148180795Y-55481256D01*
X148294063Y-55650774D01*
X148438226Y-55794937D01*
X148607744Y-55908205D01*
X148796102Y-55986226D01*
X148996061Y-56026000D01*
X149058199Y-56026000D01*
X149146398Y-56114200D01*
X149087685Y-56153431D01*
X148863431Y-56377685D01*
X148687237Y-56641379D01*
X148565871Y-56934380D01*
X148504000Y-57245429D01*
X148504000Y-57562571D01*
X148565871Y-57873620D01*
X148687237Y-58166621D01*
X148863431Y-58430315D01*
X149087685Y-58654569D01*
X149351379Y-58830763D01*
X149644380Y-58952129D01*
X149955429Y-59014000D01*
X150272571Y-59014000D01*
X150583620Y-58952129D01*
X150876621Y-58830763D01*
X151140315Y-58654569D01*
X151364569Y-58430315D01*
X151540763Y-58166621D01*
X151662129Y-57873620D01*
X151724000Y-57562571D01*
X151724000Y-57245429D01*
X151662129Y-56934380D01*
X151540763Y-56641379D01*
X151398857Y-56429000D01*
X153580928Y-56429000D01*
X153580928Y-58379000D01*
X153593188Y-58503482D01*
X153629498Y-58623180D01*
X153688463Y-58733494D01*
X153767815Y-58830185D01*
X153864506Y-58909537D01*
X153974820Y-58968502D01*
X154094518Y-59004812D01*
X154219000Y-59017072D01*
X156169000Y-59017072D01*
X156293482Y-59004812D01*
X156413180Y-58968502D01*
X156523494Y-58909537D01*
X156620185Y-58830185D01*
X156699537Y-58733494D01*
X156758502Y-58623180D01*
X156794812Y-58503482D01*
X156807072Y-58379000D01*
X156807072Y-56429000D01*
X156794812Y-56304518D01*
X156758502Y-56184820D01*
X156699537Y-56074506D01*
X156620185Y-55977815D01*
X156523494Y-55898463D01*
X156413180Y-55839498D01*
X156293482Y-55803188D01*
X156169000Y-55790928D01*
X154219000Y-55790928D01*
X154094518Y-55803188D01*
X153974820Y-55839498D01*
X153864506Y-55898463D01*
X153767815Y-55977815D01*
X153688463Y-56074506D01*
X153629498Y-56184820D01*
X153593188Y-56304518D01*
X153580928Y-56429000D01*
X151398857Y-56429000D01*
X151364569Y-56377685D01*
X151140315Y-56153431D01*
X150876621Y-55977237D01*
X150874665Y-55976427D01*
X150874000Y-55969677D01*
X150874000Y-55969667D01*
X150863003Y-55858014D01*
X150819546Y-55714753D01*
X150748975Y-55582725D01*
X150748974Y-55582723D01*
X150677799Y-55495997D01*
X150654001Y-55466999D01*
X150625004Y-55443202D01*
X150133000Y-54951199D01*
X150133000Y-54889061D01*
X150093226Y-54689102D01*
X150015205Y-54500744D01*
X149901937Y-54331226D01*
X149757774Y-54187063D01*
X149588256Y-54073795D01*
X149399898Y-53995774D01*
X149199939Y-53956000D01*
X148996061Y-53956000D01*
X148796102Y-53995774D01*
X148607744Y-54073795D01*
X148438226Y-54187063D01*
X148294063Y-54331226D01*
X148180795Y-54500744D01*
X148102774Y-54689102D01*
X148063000Y-54889061D01*
X142845241Y-54889061D01*
X143105303Y-54629000D01*
X143167439Y-54629000D01*
X143367398Y-54589226D01*
X143555756Y-54511205D01*
X143725274Y-54397937D01*
X143869437Y-54253774D01*
X143982705Y-54084256D01*
X144060726Y-53895898D01*
X144100500Y-53695939D01*
X144100500Y-53492061D01*
X144060726Y-53292102D01*
X143982705Y-53103744D01*
X143869437Y-52934226D01*
X143725274Y-52790063D01*
X143555756Y-52676795D01*
X143367398Y-52598774D01*
X143167439Y-52559000D01*
X142963561Y-52559000D01*
X142763602Y-52598774D01*
X142575244Y-52676795D01*
X142405726Y-52790063D01*
X142261563Y-52934226D01*
X142148295Y-53103744D01*
X142070274Y-53292102D01*
X142030500Y-53492061D01*
X142030500Y-53554197D01*
X139789524Y-55795175D01*
X139484380Y-55855871D01*
X139191379Y-55977237D01*
X138927685Y-56153431D01*
X138703431Y-56377685D01*
X138527237Y-56641379D01*
X138405871Y-56934380D01*
X138344000Y-57245429D01*
X137312000Y-57245429D01*
X137312000Y-47396000D01*
X157992000Y-47396000D01*
X157992001Y-101076000D01*
%TA.AperFunction,Conductor*%
D16*
G36*
X157992001Y-101076000D02*
G01*
X137312000Y-101076000D01*
X137312000Y-93767000D01*
X140880928Y-93767000D01*
X140880928Y-95717000D01*
X140893188Y-95841482D01*
X140929498Y-95961180D01*
X140988463Y-96071494D01*
X141067815Y-96168185D01*
X141164506Y-96247537D01*
X141274820Y-96306502D01*
X141394518Y-96342812D01*
X141519000Y-96355072D01*
X143469000Y-96355072D01*
X143593482Y-96342812D01*
X143713180Y-96306502D01*
X143823494Y-96247537D01*
X143920185Y-96168185D01*
X143999537Y-96071494D01*
X144058502Y-95961180D01*
X144094812Y-95841482D01*
X144107072Y-95717000D01*
X144107072Y-94583429D01*
X145964000Y-94583429D01*
X145964000Y-94900571D01*
X146025871Y-95211620D01*
X146147237Y-95504621D01*
X146323431Y-95768315D01*
X146547685Y-95992569D01*
X146811379Y-96168763D01*
X147104380Y-96290129D01*
X147415429Y-96352000D01*
X147732571Y-96352000D01*
X148043620Y-96290129D01*
X148336621Y-96168763D01*
X148600315Y-95992569D01*
X148733300Y-95859584D01*
X151716021Y-95859584D01*
X151808766Y-96121429D01*
X152094120Y-96259820D01*
X152400990Y-96339883D01*
X152717584Y-96358540D01*
X153031733Y-96315074D01*
X153331367Y-96211156D01*
X153499234Y-96121429D01*
X153591979Y-95859584D01*
X152654000Y-94921605D01*
X151716021Y-95859584D01*
X148733300Y-95859584D01*
X148824569Y-95768315D01*
X149000763Y-95504621D01*
X149122129Y-95211620D01*
X149184000Y-94900571D01*
X149184000Y-94805584D01*
X151037460Y-94805584D01*
X151080926Y-95119733D01*
X151184844Y-95419367D01*
X151274571Y-95587234D01*
X151536416Y-95679979D01*
X152474395Y-94742000D01*
X152833605Y-94742000D01*
X153771584Y-95679979D01*
X154033429Y-95587234D01*
X154171820Y-95301880D01*
X154251883Y-94995010D01*
X154270540Y-94678416D01*
X154227074Y-94364267D01*
X154123156Y-94064633D01*
X154033429Y-93896766D01*
X153771584Y-93804021D01*
X152833605Y-94742000D01*
X152474395Y-94742000D01*
X151536416Y-93804021D01*
X151274571Y-93896766D01*
X151136180Y-94182120D01*
X151056117Y-94488990D01*
X151037460Y-94805584D01*
X149184000Y-94805584D01*
X149184000Y-94583429D01*
X149122129Y-94272380D01*
X149000763Y-93979379D01*
X148824569Y-93715685D01*
X148733300Y-93624416D01*
X151716021Y-93624416D01*
X152654000Y-94562395D01*
X153591979Y-93624416D01*
X153499234Y-93362571D01*
X153213880Y-93224180D01*
X152907010Y-93144117D01*
X152590416Y-93125460D01*
X152276267Y-93168926D01*
X151976633Y-93272844D01*
X151808766Y-93362571D01*
X151716021Y-93624416D01*
X148733300Y-93624416D01*
X148600315Y-93491431D01*
X148336621Y-93315237D01*
X148043620Y-93193871D01*
X147732571Y-93132000D01*
X147415429Y-93132000D01*
X147104380Y-93193871D01*
X146811379Y-93315237D01*
X146547685Y-93491431D01*
X146323431Y-93715685D01*
X146147237Y-93979379D01*
X146025871Y-94272380D01*
X145964000Y-94583429D01*
X144107072Y-94583429D01*
X144107072Y-93767000D01*
X144094812Y-93642518D01*
X144058502Y-93522820D01*
X143999537Y-93412506D01*
X143920185Y-93315815D01*
X143823494Y-93236463D01*
X143713180Y-93177498D01*
X143593482Y-93141188D01*
X143469000Y-93128928D01*
X141519000Y-93128928D01*
X141394518Y-93141188D01*
X141274820Y-93177498D01*
X141164506Y-93236463D01*
X141067815Y-93315815D01*
X140988463Y-93412506D01*
X140929498Y-93522820D01*
X140893188Y-93642518D01*
X140880928Y-93767000D01*
X137312000Y-93767000D01*
X137312000Y-83915429D01*
X143424000Y-83915429D01*
X143424000Y-84232571D01*
X143485871Y-84543620D01*
X143607237Y-84836621D01*
X143783431Y-85100315D01*
X144007685Y-85324569D01*
X144271379Y-85500763D01*
X144564380Y-85622129D01*
X144875429Y-85684000D01*
X145192571Y-85684000D01*
X145503620Y-85622129D01*
X145796621Y-85500763D01*
X146060315Y-85324569D01*
X146284569Y-85100315D01*
X146318856Y-85049000D01*
X148500928Y-85049000D01*
X148513188Y-85173482D01*
X148549498Y-85293180D01*
X148608463Y-85403494D01*
X148687815Y-85500185D01*
X148784506Y-85579537D01*
X148894820Y-85638502D01*
X149014518Y-85674812D01*
X149139000Y-85687072D01*
X149828250Y-85684000D01*
X149987000Y-85525250D01*
X149987000Y-84201000D01*
X150241000Y-84201000D01*
X150241000Y-85525250D01*
X150399750Y-85684000D01*
X151089000Y-85687072D01*
X151213482Y-85674812D01*
X151333180Y-85638502D01*
X151443494Y-85579537D01*
X151540185Y-85500185D01*
X151619537Y-85403494D01*
X151678502Y-85293180D01*
X151714812Y-85173482D01*
X151727072Y-85049000D01*
X151724000Y-84359750D01*
X151565250Y-84201000D01*
X150241000Y-84201000D01*
X149987000Y-84201000D01*
X148662750Y-84201000D01*
X148504000Y-84359750D01*
X148500928Y-85049000D01*
X146318856Y-85049000D01*
X146460763Y-84836621D01*
X146582129Y-84543620D01*
X146644000Y-84232571D01*
X146644000Y-83915429D01*
X146582129Y-83604380D01*
X146460763Y-83311379D01*
X146318857Y-83099000D01*
X148500928Y-83099000D01*
X148504000Y-83788250D01*
X148662750Y-83947000D01*
X149987000Y-83947000D01*
X149987000Y-82622750D01*
X150241000Y-82622750D01*
X150241000Y-83947000D01*
X151565250Y-83947000D01*
X151724000Y-83788250D01*
X151727072Y-83099000D01*
X151714812Y-82974518D01*
X151678502Y-82854820D01*
X151619537Y-82744506D01*
X151540185Y-82647815D01*
X151443494Y-82568463D01*
X151333180Y-82509498D01*
X151213482Y-82473188D01*
X151089000Y-82460928D01*
X150399750Y-82464000D01*
X150241000Y-82622750D01*
X149987000Y-82622750D01*
X149828250Y-82464000D01*
X149139000Y-82460928D01*
X149014518Y-82473188D01*
X148894820Y-82509498D01*
X148784506Y-82568463D01*
X148687815Y-82647815D01*
X148608463Y-82744506D01*
X148549498Y-82854820D01*
X148513188Y-82974518D01*
X148500928Y-83099000D01*
X146318857Y-83099000D01*
X146284569Y-83047685D01*
X146060315Y-82823431D01*
X145796621Y-82647237D01*
X145503620Y-82525871D01*
X145192571Y-82464000D01*
X144875429Y-82464000D01*
X144564380Y-82525871D01*
X144271379Y-82647237D01*
X144007685Y-82823431D01*
X143783431Y-83047685D01*
X143607237Y-83311379D01*
X143485871Y-83604380D01*
X143424000Y-83915429D01*
X137312000Y-83915429D01*
X137312000Y-57245429D01*
X138344000Y-57245429D01*
X138344000Y-57562571D01*
X138405871Y-57873620D01*
X138527237Y-58166621D01*
X138703431Y-58430315D01*
X138927685Y-58654569D01*
X139191379Y-58830763D01*
X139484380Y-58952129D01*
X139795429Y-59014000D01*
X140112571Y-59014000D01*
X140423620Y-58952129D01*
X140716621Y-58830763D01*
X140980315Y-58654569D01*
X141204569Y-58430315D01*
X141380763Y-58166621D01*
X141502129Y-57873620D01*
X141564000Y-57562571D01*
X141564000Y-57245429D01*
X143424000Y-57245429D01*
X143424000Y-57562571D01*
X143485871Y-57873620D01*
X143607237Y-58166621D01*
X143783431Y-58430315D01*
X144007685Y-58654569D01*
X144271379Y-58830763D01*
X144564380Y-58952129D01*
X144875429Y-59014000D01*
X145192571Y-59014000D01*
X145503620Y-58952129D01*
X145796621Y-58830763D01*
X146060315Y-58654569D01*
X146284569Y-58430315D01*
X146460763Y-58166621D01*
X146582129Y-57873620D01*
X146644000Y-57562571D01*
X146644000Y-57245429D01*
X146582129Y-56934380D01*
X146460763Y-56641379D01*
X146284569Y-56377685D01*
X146060315Y-56153431D01*
X145796621Y-55977237D01*
X145503620Y-55855871D01*
X145192571Y-55794000D01*
X144875429Y-55794000D01*
X144564380Y-55855871D01*
X144271379Y-55977237D01*
X144007685Y-56153431D01*
X143783431Y-56377685D01*
X143607237Y-56641379D01*
X143485871Y-56934380D01*
X143424000Y-57245429D01*
X141564000Y-57245429D01*
X141502129Y-56934380D01*
X141380763Y-56641379D01*
X141265471Y-56468831D01*
X142845241Y-54889061D01*
X148063000Y-54889061D01*
X148063000Y-55092939D01*
X148102774Y-55292898D01*
X148180795Y-55481256D01*
X148294063Y-55650774D01*
X148438226Y-55794937D01*
X148607744Y-55908205D01*
X148796102Y-55986226D01*
X148996061Y-56026000D01*
X149058199Y-56026000D01*
X149146398Y-56114200D01*
X149087685Y-56153431D01*
X148863431Y-56377685D01*
X148687237Y-56641379D01*
X148565871Y-56934380D01*
X148504000Y-57245429D01*
X148504000Y-57562571D01*
X148565871Y-57873620D01*
X148687237Y-58166621D01*
X148863431Y-58430315D01*
X149087685Y-58654569D01*
X149351379Y-58830763D01*
X149644380Y-58952129D01*
X149955429Y-59014000D01*
X150272571Y-59014000D01*
X150583620Y-58952129D01*
X150876621Y-58830763D01*
X151140315Y-58654569D01*
X151364569Y-58430315D01*
X151540763Y-58166621D01*
X151662129Y-57873620D01*
X151724000Y-57562571D01*
X151724000Y-57245429D01*
X151662129Y-56934380D01*
X151540763Y-56641379D01*
X151398857Y-56429000D01*
X153580928Y-56429000D01*
X153580928Y-58379000D01*
X153593188Y-58503482D01*
X153629498Y-58623180D01*
X153688463Y-58733494D01*
X153767815Y-58830185D01*
X153864506Y-58909537D01*
X153974820Y-58968502D01*
X154094518Y-59004812D01*
X154219000Y-59017072D01*
X156169000Y-59017072D01*
X156293482Y-59004812D01*
X156413180Y-58968502D01*
X156523494Y-58909537D01*
X156620185Y-58830185D01*
X156699537Y-58733494D01*
X156758502Y-58623180D01*
X156794812Y-58503482D01*
X156807072Y-58379000D01*
X156807072Y-56429000D01*
X156794812Y-56304518D01*
X156758502Y-56184820D01*
X156699537Y-56074506D01*
X156620185Y-55977815D01*
X156523494Y-55898463D01*
X156413180Y-55839498D01*
X156293482Y-55803188D01*
X156169000Y-55790928D01*
X154219000Y-55790928D01*
X154094518Y-55803188D01*
X153974820Y-55839498D01*
X153864506Y-55898463D01*
X153767815Y-55977815D01*
X153688463Y-56074506D01*
X153629498Y-56184820D01*
X153593188Y-56304518D01*
X153580928Y-56429000D01*
X151398857Y-56429000D01*
X151364569Y-56377685D01*
X151140315Y-56153431D01*
X150876621Y-55977237D01*
X150874665Y-55976427D01*
X150874000Y-55969677D01*
X150874000Y-55969667D01*
X150863003Y-55858014D01*
X150819546Y-55714753D01*
X150748975Y-55582725D01*
X150748974Y-55582723D01*
X150677799Y-55495997D01*
X150654001Y-55466999D01*
X150625004Y-55443202D01*
X150133000Y-54951199D01*
X150133000Y-54889061D01*
X150093226Y-54689102D01*
X150015205Y-54500744D01*
X149901937Y-54331226D01*
X149757774Y-54187063D01*
X149588256Y-54073795D01*
X149399898Y-53995774D01*
X149199939Y-53956000D01*
X148996061Y-53956000D01*
X148796102Y-53995774D01*
X148607744Y-54073795D01*
X148438226Y-54187063D01*
X148294063Y-54331226D01*
X148180795Y-54500744D01*
X148102774Y-54689102D01*
X148063000Y-54889061D01*
X142845241Y-54889061D01*
X143105303Y-54629000D01*
X143167439Y-54629000D01*
X143367398Y-54589226D01*
X143555756Y-54511205D01*
X143725274Y-54397937D01*
X143869437Y-54253774D01*
X143982705Y-54084256D01*
X144060726Y-53895898D01*
X144100500Y-53695939D01*
X144100500Y-53492061D01*
X144060726Y-53292102D01*
X143982705Y-53103744D01*
X143869437Y-52934226D01*
X143725274Y-52790063D01*
X143555756Y-52676795D01*
X143367398Y-52598774D01*
X143167439Y-52559000D01*
X142963561Y-52559000D01*
X142763602Y-52598774D01*
X142575244Y-52676795D01*
X142405726Y-52790063D01*
X142261563Y-52934226D01*
X142148295Y-53103744D01*
X142070274Y-53292102D01*
X142030500Y-53492061D01*
X142030500Y-53554197D01*
X139789524Y-55795175D01*
X139484380Y-55855871D01*
X139191379Y-55977237D01*
X138927685Y-56153431D01*
X138703431Y-56377685D01*
X138527237Y-56641379D01*
X138405871Y-56934380D01*
X138344000Y-57245429D01*
X137312000Y-57245429D01*
X137312000Y-47396000D01*
X157992000Y-47396000D01*
X157992001Y-101076000D01*
G37*
%TD.AperFunction*%
%TD*%
M02*
