%TF.GenerationSoftware,KiCad,Pcbnew,(5.1.10)-1*%
%TF.CreationDate,2021-08-25T15:29:53+02:00*%
%TF.ProjectId,Module,4d6f6475-6c65-42e6-9b69-6361645f7063,v01*%
%TF.SameCoordinates,Original*%
%TF.FileFunction,Copper,L1,Top*%
%TF.FilePolarity,Positive*%
%FSLAX46Y46*%
G04 Gerber Fmt 4.6, Leading zero omitted, Abs format (unit mm)*
G04 Created by KiCad (PCBNEW (5.1.10)-1) date 2021-08-25 15:29:53*
%MOMM*%
%LPD*%
G01*
G04 APERTURE LIST*
%TA.AperFunction,ComponentPad*%
%ADD10R,1.950000X1.950000*%
%TD*%
%TA.AperFunction,ComponentPad*%
%ADD11C,1.950000*%
%TD*%
%TA.AperFunction,SMDPad,CuDef*%
%ADD12R,0.800000X1.900000*%
%TD*%
%TA.AperFunction,SMDPad,CuDef*%
%ADD13R,1.000000X1.500000*%
%TD*%
%TA.AperFunction,ViaPad*%
%ADD14C,0.800000*%
%TD*%
%TA.AperFunction,Conductor*%
%ADD15C,0.300000*%
%TD*%
%TA.AperFunction,Conductor*%
%ADD16C,0.250000*%
%TD*%
%TA.AperFunction,Conductor*%
%ADD17C,0.254000*%
%TD*%
%TA.AperFunction,Conductor*%
%ADD18C,0.100000*%
%TD*%
G04 APERTURE END LIST*
D10*
%TO.P,J1,1*%
%TO.N,SIG1*%
X142494000Y-94742000D03*
D11*
%TO.P,J1,2*%
%TO.N,SIG2*%
X147574000Y-94742000D03*
%TO.P,J1,3*%
%TO.N,GND*%
X152654000Y-94742000D03*
%TD*%
D10*
%TO.P,J2,1*%
%TO.N,VCC*%
X155194000Y-57404000D03*
D11*
%TO.P,J2,2*%
%TO.N,LED1N*%
X150114000Y-57404000D03*
%TO.P,J2,3*%
%TO.N,VCC*%
X145034000Y-57404000D03*
%TO.P,J2,4*%
%TO.N,LED2N*%
X139954000Y-57404000D03*
%TD*%
D12*
%TO.P,Q1,1*%
%TO.N,Net-(Q1-Pad1)*%
X152080000Y-66318000D03*
%TO.P,Q1,2*%
%TO.N,LED1N*%
X150180000Y-66318000D03*
%TO.P,Q1,3*%
%TO.N,GND*%
X151130000Y-69318000D03*
%TD*%
%TO.P,Q2,3*%
%TO.N,GND*%
X140970000Y-69318000D03*
%TO.P,Q2,2*%
%TO.N,LED2N*%
X140020000Y-66318000D03*
%TO.P,Q2,1*%
%TO.N,Net-(Q2-Pad1)*%
X141920000Y-66318000D03*
%TD*%
D10*
%TO.P,J3,1*%
%TO.N,GND*%
X150114000Y-84074000D03*
D11*
%TO.P,J3,2*%
%TO.N,VCC*%
X145034000Y-84074000D03*
%TD*%
%TO.P,R1,1*%
%TO.N,Net-(Q1-Pad1)*%
%TA.AperFunction,SMDPad,CuDef*%
G36*
G01*
X150679999Y-72806000D02*
X151580001Y-72806000D01*
G75*
G02*
X151830000Y-73055999I0J-249999D01*
G01*
X151830000Y-73756001D01*
G75*
G02*
X151580001Y-74006000I-249999J0D01*
G01*
X150679999Y-74006000D01*
G75*
G02*
X150430000Y-73756001I0J249999D01*
G01*
X150430000Y-73055999D01*
G75*
G02*
X150679999Y-72806000I249999J0D01*
G01*
G37*
%TD.AperFunction*%
%TO.P,R1,2*%
%TO.N,SIG1*%
%TA.AperFunction,SMDPad,CuDef*%
G36*
G01*
X150679999Y-74806000D02*
X151580001Y-74806000D01*
G75*
G02*
X151830000Y-75055999I0J-249999D01*
G01*
X151830000Y-75756001D01*
G75*
G02*
X151580001Y-76006000I-249999J0D01*
G01*
X150679999Y-76006000D01*
G75*
G02*
X150430000Y-75756001I0J249999D01*
G01*
X150430000Y-75055999D01*
G75*
G02*
X150679999Y-74806000I249999J0D01*
G01*
G37*
%TD.AperFunction*%
%TD*%
%TO.P,R2,2*%
%TO.N,SIG2*%
%TA.AperFunction,SMDPad,CuDef*%
G36*
G01*
X140519999Y-74822000D02*
X141420001Y-74822000D01*
G75*
G02*
X141670000Y-75071999I0J-249999D01*
G01*
X141670000Y-75772001D01*
G75*
G02*
X141420001Y-76022000I-249999J0D01*
G01*
X140519999Y-76022000D01*
G75*
G02*
X140270000Y-75772001I0J249999D01*
G01*
X140270000Y-75071999D01*
G75*
G02*
X140519999Y-74822000I249999J0D01*
G01*
G37*
%TD.AperFunction*%
%TO.P,R2,1*%
%TO.N,Net-(Q2-Pad1)*%
%TA.AperFunction,SMDPad,CuDef*%
G36*
G01*
X140519999Y-72822000D02*
X141420001Y-72822000D01*
G75*
G02*
X141670000Y-73071999I0J-249999D01*
G01*
X141670000Y-73772001D01*
G75*
G02*
X141420001Y-74022000I-249999J0D01*
G01*
X140519999Y-74022000D01*
G75*
G02*
X140270000Y-73772001I0J249999D01*
G01*
X140270000Y-73071999D01*
G75*
G02*
X140519999Y-72822000I249999J0D01*
G01*
G37*
%TD.AperFunction*%
%TD*%
D13*
%TO.P,JP1,2*%
%TO.N,Net-(JP1-Pad2)*%
X139461000Y-49593500D03*
%TO.P,JP1,1*%
%TO.N,LED1N*%
X138161000Y-49593500D03*
%TD*%
%TO.P,JP2,1*%
%TO.N,LED2N*%
X156987000Y-49593500D03*
%TO.P,JP2,2*%
%TO.N,Net-(JP2-Pad2)*%
X155687000Y-49593500D03*
%TD*%
%TO.P,R3,1*%
%TO.N,Net-(JP1-Pad2)*%
%TA.AperFunction,SMDPad,CuDef*%
G36*
G01*
X141719500Y-49789501D02*
X141719500Y-48889499D01*
G75*
G02*
X141969499Y-48639500I249999J0D01*
G01*
X142669501Y-48639500D01*
G75*
G02*
X142919500Y-48889499I0J-249999D01*
G01*
X142919500Y-49789501D01*
G75*
G02*
X142669501Y-50039500I-249999J0D01*
G01*
X141969499Y-50039500D01*
G75*
G02*
X141719500Y-49789501I0J249999D01*
G01*
G37*
%TD.AperFunction*%
%TO.P,R3,2*%
%TO.N,GND*%
%TA.AperFunction,SMDPad,CuDef*%
G36*
G01*
X143719500Y-49789501D02*
X143719500Y-48889499D01*
G75*
G02*
X143969499Y-48639500I249999J0D01*
G01*
X144669501Y-48639500D01*
G75*
G02*
X144919500Y-48889499I0J-249999D01*
G01*
X144919500Y-49789501D01*
G75*
G02*
X144669501Y-50039500I-249999J0D01*
G01*
X143969499Y-50039500D01*
G75*
G02*
X143719500Y-49789501I0J249999D01*
G01*
G37*
%TD.AperFunction*%
%TD*%
%TO.P,R4,2*%
%TO.N,Net-(JP2-Pad2)*%
%TA.AperFunction,SMDPad,CuDef*%
G36*
G01*
X152228500Y-49789501D02*
X152228500Y-48889499D01*
G75*
G02*
X152478499Y-48639500I249999J0D01*
G01*
X153178501Y-48639500D01*
G75*
G02*
X153428500Y-48889499I0J-249999D01*
G01*
X153428500Y-49789501D01*
G75*
G02*
X153178501Y-50039500I-249999J0D01*
G01*
X152478499Y-50039500D01*
G75*
G02*
X152228500Y-49789501I0J249999D01*
G01*
G37*
%TD.AperFunction*%
%TO.P,R4,1*%
%TO.N,GND*%
%TA.AperFunction,SMDPad,CuDef*%
G36*
G01*
X150228500Y-49789501D02*
X150228500Y-48889499D01*
G75*
G02*
X150478499Y-48639500I249999J0D01*
G01*
X151178501Y-48639500D01*
G75*
G02*
X151428500Y-48889499I0J-249999D01*
G01*
X151428500Y-49789501D01*
G75*
G02*
X151178501Y-50039500I-249999J0D01*
G01*
X150478499Y-50039500D01*
G75*
G02*
X150228500Y-49789501I0J249999D01*
G01*
G37*
%TD.AperFunction*%
%TD*%
D14*
%TO.N,GND*%
X145986500Y-52387500D03*
X146240500Y-69532500D03*
%TO.N,LED1N*%
X149098000Y-54991000D03*
%TO.N,LED2N*%
X143065500Y-53594000D03*
%TD*%
D15*
%TO.N,Net-(Q1-Pad1)*%
X152080000Y-72456000D02*
X151130000Y-73406000D01*
X152080000Y-66318000D02*
X152080000Y-72456000D01*
%TO.N,Net-(Q2-Pad1)*%
X141920000Y-72472000D02*
X140970000Y-73422000D01*
X141920000Y-66318000D02*
X141920000Y-72472000D01*
%TO.N,SIG1*%
X151439001Y-75715001D02*
X151130000Y-75406000D01*
X151439001Y-92838001D02*
X151439001Y-75715001D01*
X143819001Y-96067001D02*
X148210001Y-96067001D01*
X148210001Y-96067001D02*
X151439001Y-92838001D01*
X142494000Y-94742000D02*
X143819001Y-96067001D01*
%TO.N,SIG2*%
X147574000Y-88575002D02*
X147574000Y-94742000D01*
X140970000Y-81971002D02*
X147574000Y-88575002D01*
X140970000Y-75422000D02*
X140970000Y-81971002D01*
%TO.N,GND*%
X144319500Y-49339500D02*
X150828500Y-49339500D01*
X149034500Y-49339500D02*
X145986500Y-52387500D01*
D16*
X150828500Y-49339500D02*
X149034500Y-49339500D01*
D15*
X146240500Y-80200500D02*
X150114000Y-84074000D01*
X146240500Y-69532500D02*
X146240500Y-80200500D01*
%TO.N,VCC*%
X145034000Y-84074000D02*
X145034000Y-57404000D01*
X146359001Y-56078999D02*
X145034000Y-57404000D01*
X153868999Y-56078999D02*
X146359001Y-56078999D01*
X155194000Y-57404000D02*
X153868999Y-56078999D01*
%TO.N,LED1N*%
X150114000Y-66252000D02*
X150180000Y-66318000D01*
X150114000Y-57404000D02*
X150114000Y-66252000D01*
X142508500Y-54991000D02*
X138161000Y-50643500D01*
X138161000Y-50643500D02*
X138161000Y-49593500D01*
X149098000Y-54991000D02*
X142508500Y-54991000D01*
%TO.N,LED2N*%
X139954000Y-66252000D02*
X140020000Y-66318000D01*
X139954000Y-57404000D02*
X139954000Y-66252000D01*
D16*
X143129000Y-53657500D02*
X143065500Y-53594000D01*
D15*
X156987000Y-50643500D02*
X156987000Y-49593500D01*
X154036500Y-53594000D02*
X156987000Y-50643500D01*
X143065500Y-53594000D02*
X154036500Y-53594000D01*
%TO.N,Net-(JP1-Pad2)*%
X142065500Y-49593500D02*
X142319500Y-49339500D01*
X139461000Y-49593500D02*
X142065500Y-49593500D01*
D16*
%TO.N,Net-(JP2-Pad2)*%
X153082500Y-49593500D02*
X152828500Y-49339500D01*
D15*
X155433000Y-49339500D02*
X155687000Y-49593500D01*
X152828500Y-49339500D02*
X155433000Y-49339500D01*
%TD*%
D17*
%TO.N,GND*%
X157992001Y-101076000D02*
X137312000Y-101076000D01*
X137312000Y-70268000D01*
X139931928Y-70268000D01*
X139944188Y-70392482D01*
X139980498Y-70512180D01*
X140039463Y-70622494D01*
X140118815Y-70719185D01*
X140215506Y-70798537D01*
X140325820Y-70857502D01*
X140445518Y-70893812D01*
X140570000Y-70906072D01*
X140684250Y-70903000D01*
X140843000Y-70744250D01*
X140843000Y-69445000D01*
X140093750Y-69445000D01*
X139935000Y-69603750D01*
X139931928Y-70268000D01*
X137312000Y-70268000D01*
X137312000Y-50876974D01*
X137416820Y-50933002D01*
X137429681Y-50936903D01*
X137432246Y-50945359D01*
X137505138Y-51081732D01*
X137603236Y-51201264D01*
X137633190Y-51225847D01*
X141926158Y-55518816D01*
X141950736Y-55548764D01*
X141980684Y-55573342D01*
X141980687Y-55573345D01*
X142010059Y-55597450D01*
X142070267Y-55646862D01*
X142206640Y-55719754D01*
X142320172Y-55754194D01*
X142354612Y-55764641D01*
X142368990Y-55766057D01*
X142469939Y-55776000D01*
X142469946Y-55776000D01*
X142508499Y-55779797D01*
X142547052Y-55776000D01*
X145551842Y-55776000D01*
X145477222Y-55850620D01*
X145192571Y-55794000D01*
X144875429Y-55794000D01*
X144564380Y-55855871D01*
X144271379Y-55977237D01*
X144007685Y-56153431D01*
X143783431Y-56377685D01*
X143607237Y-56641379D01*
X143485871Y-56934380D01*
X143424000Y-57245429D01*
X143424000Y-57562571D01*
X143485871Y-57873620D01*
X143607237Y-58166621D01*
X143783431Y-58430315D01*
X144007685Y-58654569D01*
X144249001Y-58815811D01*
X144249000Y-82662190D01*
X144007685Y-82823431D01*
X143783431Y-83047685D01*
X143607237Y-83311379D01*
X143552553Y-83443397D01*
X141755000Y-81645845D01*
X141755000Y-76593944D01*
X141759851Y-76592472D01*
X141913387Y-76510405D01*
X142047962Y-76399962D01*
X142158405Y-76265387D01*
X142240472Y-76111851D01*
X142291008Y-75945255D01*
X142308072Y-75772001D01*
X142308072Y-75071999D01*
X142291008Y-74898745D01*
X142240472Y-74732149D01*
X142158405Y-74578613D01*
X142047962Y-74444038D01*
X142021109Y-74422000D01*
X142047962Y-74399962D01*
X142158405Y-74265387D01*
X142240472Y-74111851D01*
X142291008Y-73945255D01*
X142308072Y-73772001D01*
X142308072Y-73194085D01*
X142447810Y-73054347D01*
X142477764Y-73029764D01*
X142575862Y-72910233D01*
X142648754Y-72773860D01*
X142661407Y-72732149D01*
X142693642Y-72625887D01*
X142701020Y-72550974D01*
X142705000Y-72510561D01*
X142705000Y-72510556D01*
X142708797Y-72472000D01*
X142705000Y-72433444D01*
X142705000Y-67773501D01*
X142771185Y-67719185D01*
X142850537Y-67622494D01*
X142909502Y-67512180D01*
X142945812Y-67392482D01*
X142958072Y-67268000D01*
X142958072Y-65368000D01*
X142945812Y-65243518D01*
X142909502Y-65123820D01*
X142850537Y-65013506D01*
X142771185Y-64916815D01*
X142674494Y-64837463D01*
X142564180Y-64778498D01*
X142444482Y-64742188D01*
X142320000Y-64729928D01*
X141520000Y-64729928D01*
X141395518Y-64742188D01*
X141275820Y-64778498D01*
X141165506Y-64837463D01*
X141068815Y-64916815D01*
X140989463Y-65013506D01*
X140970000Y-65049918D01*
X140950537Y-65013506D01*
X140871185Y-64916815D01*
X140774494Y-64837463D01*
X140739000Y-64818491D01*
X140739000Y-58815810D01*
X140980315Y-58654569D01*
X141204569Y-58430315D01*
X141380763Y-58166621D01*
X141502129Y-57873620D01*
X141564000Y-57562571D01*
X141564000Y-57245429D01*
X141502129Y-56934380D01*
X141380763Y-56641379D01*
X141204569Y-56377685D01*
X140980315Y-56153431D01*
X140716621Y-55977237D01*
X140423620Y-55855871D01*
X140112571Y-55794000D01*
X139795429Y-55794000D01*
X139484380Y-55855871D01*
X139191379Y-55977237D01*
X138927685Y-56153431D01*
X138703431Y-56377685D01*
X138527237Y-56641379D01*
X138405871Y-56934380D01*
X138344000Y-57245429D01*
X138344000Y-57562571D01*
X138405871Y-57873620D01*
X138527237Y-58166621D01*
X138703431Y-58430315D01*
X138927685Y-58654569D01*
X139169000Y-58815810D01*
X139169001Y-64916662D01*
X139168815Y-64916815D01*
X139089463Y-65013506D01*
X139030498Y-65123820D01*
X138994188Y-65243518D01*
X138981928Y-65368000D01*
X138981928Y-67268000D01*
X138994188Y-67392482D01*
X139030498Y-67512180D01*
X139089463Y-67622494D01*
X139168815Y-67719185D01*
X139265506Y-67798537D01*
X139375820Y-67857502D01*
X139495518Y-67893812D01*
X139620000Y-67906072D01*
X140131905Y-67906072D01*
X140118815Y-67916815D01*
X140039463Y-68013506D01*
X139980498Y-68123820D01*
X139944188Y-68243518D01*
X139931928Y-68368000D01*
X139935000Y-69032250D01*
X140093750Y-69191000D01*
X140843000Y-69191000D01*
X140843000Y-67891750D01*
X140758393Y-67807143D01*
X140774494Y-67798537D01*
X140871185Y-67719185D01*
X140950537Y-67622494D01*
X140970000Y-67586082D01*
X140989463Y-67622494D01*
X141068815Y-67719185D01*
X141135000Y-67773502D01*
X141135000Y-67853750D01*
X141097000Y-67891750D01*
X141097000Y-69191000D01*
X141117000Y-69191000D01*
X141117000Y-69445000D01*
X141097000Y-69445000D01*
X141097000Y-70744250D01*
X141135001Y-70782251D01*
X141135001Y-72146842D01*
X141097915Y-72183928D01*
X140519999Y-72183928D01*
X140346745Y-72200992D01*
X140180149Y-72251528D01*
X140026613Y-72333595D01*
X139892038Y-72444038D01*
X139781595Y-72578613D01*
X139699528Y-72732149D01*
X139648992Y-72898745D01*
X139631928Y-73071999D01*
X139631928Y-73772001D01*
X139648992Y-73945255D01*
X139699528Y-74111851D01*
X139781595Y-74265387D01*
X139892038Y-74399962D01*
X139918891Y-74422000D01*
X139892038Y-74444038D01*
X139781595Y-74578613D01*
X139699528Y-74732149D01*
X139648992Y-74898745D01*
X139631928Y-75071999D01*
X139631928Y-75772001D01*
X139648992Y-75945255D01*
X139699528Y-76111851D01*
X139781595Y-76265387D01*
X139892038Y-76399962D01*
X140026613Y-76510405D01*
X140180149Y-76592472D01*
X140185000Y-76593944D01*
X140185001Y-81932439D01*
X140181203Y-81971002D01*
X140196359Y-82124888D01*
X140241246Y-82272861D01*
X140241247Y-82272862D01*
X140314139Y-82409235D01*
X140354690Y-82458646D01*
X140387655Y-82498814D01*
X140387659Y-82498818D01*
X140412237Y-82528766D01*
X140442185Y-82553344D01*
X146789000Y-88900160D01*
X146789001Y-93330190D01*
X146547685Y-93491431D01*
X146323431Y-93715685D01*
X146147237Y-93979379D01*
X146025871Y-94272380D01*
X145964000Y-94583429D01*
X145964000Y-94900571D01*
X146025871Y-95211620D01*
X146055024Y-95282001D01*
X144144159Y-95282001D01*
X144107072Y-95244914D01*
X144107072Y-93767000D01*
X144094812Y-93642518D01*
X144058502Y-93522820D01*
X143999537Y-93412506D01*
X143920185Y-93315815D01*
X143823494Y-93236463D01*
X143713180Y-93177498D01*
X143593482Y-93141188D01*
X143469000Y-93128928D01*
X141519000Y-93128928D01*
X141394518Y-93141188D01*
X141274820Y-93177498D01*
X141164506Y-93236463D01*
X141067815Y-93315815D01*
X140988463Y-93412506D01*
X140929498Y-93522820D01*
X140893188Y-93642518D01*
X140880928Y-93767000D01*
X140880928Y-95717000D01*
X140893188Y-95841482D01*
X140929498Y-95961180D01*
X140988463Y-96071494D01*
X141067815Y-96168185D01*
X141164506Y-96247537D01*
X141274820Y-96306502D01*
X141394518Y-96342812D01*
X141519000Y-96355072D01*
X142996914Y-96355072D01*
X143236659Y-96594817D01*
X143261237Y-96624765D01*
X143291185Y-96649343D01*
X143291188Y-96649346D01*
X143320560Y-96673451D01*
X143380768Y-96722863D01*
X143517141Y-96795755D01*
X143630673Y-96830195D01*
X143665113Y-96840642D01*
X143679491Y-96842058D01*
X143780440Y-96852001D01*
X143780447Y-96852001D01*
X143819000Y-96855798D01*
X143857553Y-96852001D01*
X148171448Y-96852001D01*
X148210001Y-96855798D01*
X148248554Y-96852001D01*
X148248562Y-96852001D01*
X148363888Y-96840642D01*
X148511861Y-96795755D01*
X148648234Y-96722863D01*
X148767765Y-96624765D01*
X148792348Y-96594811D01*
X149527575Y-95859584D01*
X151716021Y-95859584D01*
X151808766Y-96121429D01*
X152094120Y-96259820D01*
X152400990Y-96339883D01*
X152717584Y-96358540D01*
X153031733Y-96315074D01*
X153331367Y-96211156D01*
X153499234Y-96121429D01*
X153591979Y-95859584D01*
X152654000Y-94921605D01*
X151716021Y-95859584D01*
X149527575Y-95859584D01*
X151111873Y-94275286D01*
X151056117Y-94488990D01*
X151037460Y-94805584D01*
X151080926Y-95119733D01*
X151184844Y-95419367D01*
X151274571Y-95587234D01*
X151536416Y-95679979D01*
X152474395Y-94742000D01*
X152833605Y-94742000D01*
X153771584Y-95679979D01*
X154033429Y-95587234D01*
X154171820Y-95301880D01*
X154251883Y-94995010D01*
X154270540Y-94678416D01*
X154227074Y-94364267D01*
X154123156Y-94064633D01*
X154033429Y-93896766D01*
X153771584Y-93804021D01*
X152833605Y-94742000D01*
X152474395Y-94742000D01*
X152460253Y-94727858D01*
X152639858Y-94548253D01*
X152654000Y-94562395D01*
X153591979Y-93624416D01*
X153499234Y-93362571D01*
X153213880Y-93224180D01*
X152907010Y-93144117D01*
X152590416Y-93125460D01*
X152276267Y-93168926D01*
X152123992Y-93221738D01*
X152167755Y-93139861D01*
X152170140Y-93132000D01*
X152212643Y-92991888D01*
X152220021Y-92916975D01*
X152224001Y-92876562D01*
X152224001Y-92876557D01*
X152227798Y-92838001D01*
X152224001Y-92799445D01*
X152224001Y-76364418D01*
X152318405Y-76249387D01*
X152400472Y-76095851D01*
X152451008Y-75929255D01*
X152468072Y-75756001D01*
X152468072Y-75055999D01*
X152451008Y-74882745D01*
X152400472Y-74716149D01*
X152318405Y-74562613D01*
X152207962Y-74428038D01*
X152181109Y-74406000D01*
X152207962Y-74383962D01*
X152318405Y-74249387D01*
X152400472Y-74095851D01*
X152451008Y-73929255D01*
X152468072Y-73756001D01*
X152468072Y-73178085D01*
X152607810Y-73038347D01*
X152637764Y-73013764D01*
X152735862Y-72894233D01*
X152808754Y-72757860D01*
X152821407Y-72716149D01*
X152853642Y-72609887D01*
X152863424Y-72510561D01*
X152865000Y-72494561D01*
X152865000Y-72494556D01*
X152868797Y-72456000D01*
X152865000Y-72417444D01*
X152865000Y-67773501D01*
X152931185Y-67719185D01*
X153010537Y-67622494D01*
X153069502Y-67512180D01*
X153105812Y-67392482D01*
X153118072Y-67268000D01*
X153118072Y-65368000D01*
X153105812Y-65243518D01*
X153069502Y-65123820D01*
X153010537Y-65013506D01*
X152931185Y-64916815D01*
X152834494Y-64837463D01*
X152724180Y-64778498D01*
X152604482Y-64742188D01*
X152480000Y-64729928D01*
X151680000Y-64729928D01*
X151555518Y-64742188D01*
X151435820Y-64778498D01*
X151325506Y-64837463D01*
X151228815Y-64916815D01*
X151149463Y-65013506D01*
X151130000Y-65049918D01*
X151110537Y-65013506D01*
X151031185Y-64916815D01*
X150934494Y-64837463D01*
X150899000Y-64818491D01*
X150899000Y-58815810D01*
X151140315Y-58654569D01*
X151364569Y-58430315D01*
X151540763Y-58166621D01*
X151662129Y-57873620D01*
X151724000Y-57562571D01*
X151724000Y-57245429D01*
X151662129Y-56934380D01*
X151632976Y-56863999D01*
X153543842Y-56863999D01*
X153580928Y-56901085D01*
X153580928Y-58379000D01*
X153593188Y-58503482D01*
X153629498Y-58623180D01*
X153688463Y-58733494D01*
X153767815Y-58830185D01*
X153864506Y-58909537D01*
X153974820Y-58968502D01*
X154094518Y-59004812D01*
X154219000Y-59017072D01*
X156169000Y-59017072D01*
X156293482Y-59004812D01*
X156413180Y-58968502D01*
X156523494Y-58909537D01*
X156620185Y-58830185D01*
X156699537Y-58733494D01*
X156758502Y-58623180D01*
X156794812Y-58503482D01*
X156807072Y-58379000D01*
X156807072Y-56429000D01*
X156794812Y-56304518D01*
X156758502Y-56184820D01*
X156699537Y-56074506D01*
X156620185Y-55977815D01*
X156523494Y-55898463D01*
X156413180Y-55839498D01*
X156293482Y-55803188D01*
X156169000Y-55790928D01*
X154691085Y-55790928D01*
X154451346Y-55551189D01*
X154426763Y-55521235D01*
X154307232Y-55423137D01*
X154170859Y-55350245D01*
X154022886Y-55305358D01*
X153907560Y-55293999D01*
X153907552Y-55293999D01*
X153868999Y-55290202D01*
X153830446Y-55293999D01*
X150092770Y-55293999D01*
X150093226Y-55292898D01*
X150133000Y-55092939D01*
X150133000Y-54889061D01*
X150093226Y-54689102D01*
X150015205Y-54500744D01*
X149933858Y-54379000D01*
X153997947Y-54379000D01*
X154036500Y-54382797D01*
X154075053Y-54379000D01*
X154075061Y-54379000D01*
X154190387Y-54367641D01*
X154338360Y-54322754D01*
X154474733Y-54249862D01*
X154594264Y-54151764D01*
X154618847Y-54121810D01*
X157514817Y-51225841D01*
X157544764Y-51201264D01*
X157569346Y-51171312D01*
X157593450Y-51141941D01*
X157642862Y-51081733D01*
X157715754Y-50945360D01*
X157718319Y-50936903D01*
X157731180Y-50933002D01*
X157841494Y-50874037D01*
X157938185Y-50794685D01*
X157992000Y-50729111D01*
X157992001Y-101076000D01*
%TA.AperFunction,Conductor*%
D18*
G36*
X157992001Y-101076000D02*
G01*
X137312000Y-101076000D01*
X137312000Y-70268000D01*
X139931928Y-70268000D01*
X139944188Y-70392482D01*
X139980498Y-70512180D01*
X140039463Y-70622494D01*
X140118815Y-70719185D01*
X140215506Y-70798537D01*
X140325820Y-70857502D01*
X140445518Y-70893812D01*
X140570000Y-70906072D01*
X140684250Y-70903000D01*
X140843000Y-70744250D01*
X140843000Y-69445000D01*
X140093750Y-69445000D01*
X139935000Y-69603750D01*
X139931928Y-70268000D01*
X137312000Y-70268000D01*
X137312000Y-50876974D01*
X137416820Y-50933002D01*
X137429681Y-50936903D01*
X137432246Y-50945359D01*
X137505138Y-51081732D01*
X137603236Y-51201264D01*
X137633190Y-51225847D01*
X141926158Y-55518816D01*
X141950736Y-55548764D01*
X141980684Y-55573342D01*
X141980687Y-55573345D01*
X142010059Y-55597450D01*
X142070267Y-55646862D01*
X142206640Y-55719754D01*
X142320172Y-55754194D01*
X142354612Y-55764641D01*
X142368990Y-55766057D01*
X142469939Y-55776000D01*
X142469946Y-55776000D01*
X142508499Y-55779797D01*
X142547052Y-55776000D01*
X145551842Y-55776000D01*
X145477222Y-55850620D01*
X145192571Y-55794000D01*
X144875429Y-55794000D01*
X144564380Y-55855871D01*
X144271379Y-55977237D01*
X144007685Y-56153431D01*
X143783431Y-56377685D01*
X143607237Y-56641379D01*
X143485871Y-56934380D01*
X143424000Y-57245429D01*
X143424000Y-57562571D01*
X143485871Y-57873620D01*
X143607237Y-58166621D01*
X143783431Y-58430315D01*
X144007685Y-58654569D01*
X144249001Y-58815811D01*
X144249000Y-82662190D01*
X144007685Y-82823431D01*
X143783431Y-83047685D01*
X143607237Y-83311379D01*
X143552553Y-83443397D01*
X141755000Y-81645845D01*
X141755000Y-76593944D01*
X141759851Y-76592472D01*
X141913387Y-76510405D01*
X142047962Y-76399962D01*
X142158405Y-76265387D01*
X142240472Y-76111851D01*
X142291008Y-75945255D01*
X142308072Y-75772001D01*
X142308072Y-75071999D01*
X142291008Y-74898745D01*
X142240472Y-74732149D01*
X142158405Y-74578613D01*
X142047962Y-74444038D01*
X142021109Y-74422000D01*
X142047962Y-74399962D01*
X142158405Y-74265387D01*
X142240472Y-74111851D01*
X142291008Y-73945255D01*
X142308072Y-73772001D01*
X142308072Y-73194085D01*
X142447810Y-73054347D01*
X142477764Y-73029764D01*
X142575862Y-72910233D01*
X142648754Y-72773860D01*
X142661407Y-72732149D01*
X142693642Y-72625887D01*
X142701020Y-72550974D01*
X142705000Y-72510561D01*
X142705000Y-72510556D01*
X142708797Y-72472000D01*
X142705000Y-72433444D01*
X142705000Y-67773501D01*
X142771185Y-67719185D01*
X142850537Y-67622494D01*
X142909502Y-67512180D01*
X142945812Y-67392482D01*
X142958072Y-67268000D01*
X142958072Y-65368000D01*
X142945812Y-65243518D01*
X142909502Y-65123820D01*
X142850537Y-65013506D01*
X142771185Y-64916815D01*
X142674494Y-64837463D01*
X142564180Y-64778498D01*
X142444482Y-64742188D01*
X142320000Y-64729928D01*
X141520000Y-64729928D01*
X141395518Y-64742188D01*
X141275820Y-64778498D01*
X141165506Y-64837463D01*
X141068815Y-64916815D01*
X140989463Y-65013506D01*
X140970000Y-65049918D01*
X140950537Y-65013506D01*
X140871185Y-64916815D01*
X140774494Y-64837463D01*
X140739000Y-64818491D01*
X140739000Y-58815810D01*
X140980315Y-58654569D01*
X141204569Y-58430315D01*
X141380763Y-58166621D01*
X141502129Y-57873620D01*
X141564000Y-57562571D01*
X141564000Y-57245429D01*
X141502129Y-56934380D01*
X141380763Y-56641379D01*
X141204569Y-56377685D01*
X140980315Y-56153431D01*
X140716621Y-55977237D01*
X140423620Y-55855871D01*
X140112571Y-55794000D01*
X139795429Y-55794000D01*
X139484380Y-55855871D01*
X139191379Y-55977237D01*
X138927685Y-56153431D01*
X138703431Y-56377685D01*
X138527237Y-56641379D01*
X138405871Y-56934380D01*
X138344000Y-57245429D01*
X138344000Y-57562571D01*
X138405871Y-57873620D01*
X138527237Y-58166621D01*
X138703431Y-58430315D01*
X138927685Y-58654569D01*
X139169000Y-58815810D01*
X139169001Y-64916662D01*
X139168815Y-64916815D01*
X139089463Y-65013506D01*
X139030498Y-65123820D01*
X138994188Y-65243518D01*
X138981928Y-65368000D01*
X138981928Y-67268000D01*
X138994188Y-67392482D01*
X139030498Y-67512180D01*
X139089463Y-67622494D01*
X139168815Y-67719185D01*
X139265506Y-67798537D01*
X139375820Y-67857502D01*
X139495518Y-67893812D01*
X139620000Y-67906072D01*
X140131905Y-67906072D01*
X140118815Y-67916815D01*
X140039463Y-68013506D01*
X139980498Y-68123820D01*
X139944188Y-68243518D01*
X139931928Y-68368000D01*
X139935000Y-69032250D01*
X140093750Y-69191000D01*
X140843000Y-69191000D01*
X140843000Y-67891750D01*
X140758393Y-67807143D01*
X140774494Y-67798537D01*
X140871185Y-67719185D01*
X140950537Y-67622494D01*
X140970000Y-67586082D01*
X140989463Y-67622494D01*
X141068815Y-67719185D01*
X141135000Y-67773502D01*
X141135000Y-67853750D01*
X141097000Y-67891750D01*
X141097000Y-69191000D01*
X141117000Y-69191000D01*
X141117000Y-69445000D01*
X141097000Y-69445000D01*
X141097000Y-70744250D01*
X141135001Y-70782251D01*
X141135001Y-72146842D01*
X141097915Y-72183928D01*
X140519999Y-72183928D01*
X140346745Y-72200992D01*
X140180149Y-72251528D01*
X140026613Y-72333595D01*
X139892038Y-72444038D01*
X139781595Y-72578613D01*
X139699528Y-72732149D01*
X139648992Y-72898745D01*
X139631928Y-73071999D01*
X139631928Y-73772001D01*
X139648992Y-73945255D01*
X139699528Y-74111851D01*
X139781595Y-74265387D01*
X139892038Y-74399962D01*
X139918891Y-74422000D01*
X139892038Y-74444038D01*
X139781595Y-74578613D01*
X139699528Y-74732149D01*
X139648992Y-74898745D01*
X139631928Y-75071999D01*
X139631928Y-75772001D01*
X139648992Y-75945255D01*
X139699528Y-76111851D01*
X139781595Y-76265387D01*
X139892038Y-76399962D01*
X140026613Y-76510405D01*
X140180149Y-76592472D01*
X140185000Y-76593944D01*
X140185001Y-81932439D01*
X140181203Y-81971002D01*
X140196359Y-82124888D01*
X140241246Y-82272861D01*
X140241247Y-82272862D01*
X140314139Y-82409235D01*
X140354690Y-82458646D01*
X140387655Y-82498814D01*
X140387659Y-82498818D01*
X140412237Y-82528766D01*
X140442185Y-82553344D01*
X146789000Y-88900160D01*
X146789001Y-93330190D01*
X146547685Y-93491431D01*
X146323431Y-93715685D01*
X146147237Y-93979379D01*
X146025871Y-94272380D01*
X145964000Y-94583429D01*
X145964000Y-94900571D01*
X146025871Y-95211620D01*
X146055024Y-95282001D01*
X144144159Y-95282001D01*
X144107072Y-95244914D01*
X144107072Y-93767000D01*
X144094812Y-93642518D01*
X144058502Y-93522820D01*
X143999537Y-93412506D01*
X143920185Y-93315815D01*
X143823494Y-93236463D01*
X143713180Y-93177498D01*
X143593482Y-93141188D01*
X143469000Y-93128928D01*
X141519000Y-93128928D01*
X141394518Y-93141188D01*
X141274820Y-93177498D01*
X141164506Y-93236463D01*
X141067815Y-93315815D01*
X140988463Y-93412506D01*
X140929498Y-93522820D01*
X140893188Y-93642518D01*
X140880928Y-93767000D01*
X140880928Y-95717000D01*
X140893188Y-95841482D01*
X140929498Y-95961180D01*
X140988463Y-96071494D01*
X141067815Y-96168185D01*
X141164506Y-96247537D01*
X141274820Y-96306502D01*
X141394518Y-96342812D01*
X141519000Y-96355072D01*
X142996914Y-96355072D01*
X143236659Y-96594817D01*
X143261237Y-96624765D01*
X143291185Y-96649343D01*
X143291188Y-96649346D01*
X143320560Y-96673451D01*
X143380768Y-96722863D01*
X143517141Y-96795755D01*
X143630673Y-96830195D01*
X143665113Y-96840642D01*
X143679491Y-96842058D01*
X143780440Y-96852001D01*
X143780447Y-96852001D01*
X143819000Y-96855798D01*
X143857553Y-96852001D01*
X148171448Y-96852001D01*
X148210001Y-96855798D01*
X148248554Y-96852001D01*
X148248562Y-96852001D01*
X148363888Y-96840642D01*
X148511861Y-96795755D01*
X148648234Y-96722863D01*
X148767765Y-96624765D01*
X148792348Y-96594811D01*
X149527575Y-95859584D01*
X151716021Y-95859584D01*
X151808766Y-96121429D01*
X152094120Y-96259820D01*
X152400990Y-96339883D01*
X152717584Y-96358540D01*
X153031733Y-96315074D01*
X153331367Y-96211156D01*
X153499234Y-96121429D01*
X153591979Y-95859584D01*
X152654000Y-94921605D01*
X151716021Y-95859584D01*
X149527575Y-95859584D01*
X151111873Y-94275286D01*
X151056117Y-94488990D01*
X151037460Y-94805584D01*
X151080926Y-95119733D01*
X151184844Y-95419367D01*
X151274571Y-95587234D01*
X151536416Y-95679979D01*
X152474395Y-94742000D01*
X152833605Y-94742000D01*
X153771584Y-95679979D01*
X154033429Y-95587234D01*
X154171820Y-95301880D01*
X154251883Y-94995010D01*
X154270540Y-94678416D01*
X154227074Y-94364267D01*
X154123156Y-94064633D01*
X154033429Y-93896766D01*
X153771584Y-93804021D01*
X152833605Y-94742000D01*
X152474395Y-94742000D01*
X152460253Y-94727858D01*
X152639858Y-94548253D01*
X152654000Y-94562395D01*
X153591979Y-93624416D01*
X153499234Y-93362571D01*
X153213880Y-93224180D01*
X152907010Y-93144117D01*
X152590416Y-93125460D01*
X152276267Y-93168926D01*
X152123992Y-93221738D01*
X152167755Y-93139861D01*
X152170140Y-93132000D01*
X152212643Y-92991888D01*
X152220021Y-92916975D01*
X152224001Y-92876562D01*
X152224001Y-92876557D01*
X152227798Y-92838001D01*
X152224001Y-92799445D01*
X152224001Y-76364418D01*
X152318405Y-76249387D01*
X152400472Y-76095851D01*
X152451008Y-75929255D01*
X152468072Y-75756001D01*
X152468072Y-75055999D01*
X152451008Y-74882745D01*
X152400472Y-74716149D01*
X152318405Y-74562613D01*
X152207962Y-74428038D01*
X152181109Y-74406000D01*
X152207962Y-74383962D01*
X152318405Y-74249387D01*
X152400472Y-74095851D01*
X152451008Y-73929255D01*
X152468072Y-73756001D01*
X152468072Y-73178085D01*
X152607810Y-73038347D01*
X152637764Y-73013764D01*
X152735862Y-72894233D01*
X152808754Y-72757860D01*
X152821407Y-72716149D01*
X152853642Y-72609887D01*
X152863424Y-72510561D01*
X152865000Y-72494561D01*
X152865000Y-72494556D01*
X152868797Y-72456000D01*
X152865000Y-72417444D01*
X152865000Y-67773501D01*
X152931185Y-67719185D01*
X153010537Y-67622494D01*
X153069502Y-67512180D01*
X153105812Y-67392482D01*
X153118072Y-67268000D01*
X153118072Y-65368000D01*
X153105812Y-65243518D01*
X153069502Y-65123820D01*
X153010537Y-65013506D01*
X152931185Y-64916815D01*
X152834494Y-64837463D01*
X152724180Y-64778498D01*
X152604482Y-64742188D01*
X152480000Y-64729928D01*
X151680000Y-64729928D01*
X151555518Y-64742188D01*
X151435820Y-64778498D01*
X151325506Y-64837463D01*
X151228815Y-64916815D01*
X151149463Y-65013506D01*
X151130000Y-65049918D01*
X151110537Y-65013506D01*
X151031185Y-64916815D01*
X150934494Y-64837463D01*
X150899000Y-64818491D01*
X150899000Y-58815810D01*
X151140315Y-58654569D01*
X151364569Y-58430315D01*
X151540763Y-58166621D01*
X151662129Y-57873620D01*
X151724000Y-57562571D01*
X151724000Y-57245429D01*
X151662129Y-56934380D01*
X151632976Y-56863999D01*
X153543842Y-56863999D01*
X153580928Y-56901085D01*
X153580928Y-58379000D01*
X153593188Y-58503482D01*
X153629498Y-58623180D01*
X153688463Y-58733494D01*
X153767815Y-58830185D01*
X153864506Y-58909537D01*
X153974820Y-58968502D01*
X154094518Y-59004812D01*
X154219000Y-59017072D01*
X156169000Y-59017072D01*
X156293482Y-59004812D01*
X156413180Y-58968502D01*
X156523494Y-58909537D01*
X156620185Y-58830185D01*
X156699537Y-58733494D01*
X156758502Y-58623180D01*
X156794812Y-58503482D01*
X156807072Y-58379000D01*
X156807072Y-56429000D01*
X156794812Y-56304518D01*
X156758502Y-56184820D01*
X156699537Y-56074506D01*
X156620185Y-55977815D01*
X156523494Y-55898463D01*
X156413180Y-55839498D01*
X156293482Y-55803188D01*
X156169000Y-55790928D01*
X154691085Y-55790928D01*
X154451346Y-55551189D01*
X154426763Y-55521235D01*
X154307232Y-55423137D01*
X154170859Y-55350245D01*
X154022886Y-55305358D01*
X153907560Y-55293999D01*
X153907552Y-55293999D01*
X153868999Y-55290202D01*
X153830446Y-55293999D01*
X150092770Y-55293999D01*
X150093226Y-55292898D01*
X150133000Y-55092939D01*
X150133000Y-54889061D01*
X150093226Y-54689102D01*
X150015205Y-54500744D01*
X149933858Y-54379000D01*
X153997947Y-54379000D01*
X154036500Y-54382797D01*
X154075053Y-54379000D01*
X154075061Y-54379000D01*
X154190387Y-54367641D01*
X154338360Y-54322754D01*
X154474733Y-54249862D01*
X154594264Y-54151764D01*
X154618847Y-54121810D01*
X157514817Y-51225841D01*
X157544764Y-51201264D01*
X157569346Y-51171312D01*
X157593450Y-51141941D01*
X157642862Y-51081733D01*
X157715754Y-50945360D01*
X157718319Y-50936903D01*
X157731180Y-50933002D01*
X157841494Y-50874037D01*
X157938185Y-50794685D01*
X157992000Y-50729111D01*
X157992001Y-101076000D01*
G37*
%TD.AperFunction*%
D17*
X148565871Y-56934380D02*
X148504000Y-57245429D01*
X148504000Y-57562571D01*
X148565871Y-57873620D01*
X148687237Y-58166621D01*
X148863431Y-58430315D01*
X149087685Y-58654569D01*
X149329000Y-58815810D01*
X149329001Y-64916662D01*
X149328815Y-64916815D01*
X149249463Y-65013506D01*
X149190498Y-65123820D01*
X149154188Y-65243518D01*
X149141928Y-65368000D01*
X149141928Y-67268000D01*
X149154188Y-67392482D01*
X149190498Y-67512180D01*
X149249463Y-67622494D01*
X149328815Y-67719185D01*
X149425506Y-67798537D01*
X149535820Y-67857502D01*
X149655518Y-67893812D01*
X149780000Y-67906072D01*
X150291905Y-67906072D01*
X150278815Y-67916815D01*
X150199463Y-68013506D01*
X150140498Y-68123820D01*
X150104188Y-68243518D01*
X150091928Y-68368000D01*
X150095000Y-69032250D01*
X150253750Y-69191000D01*
X151003000Y-69191000D01*
X151003000Y-67891750D01*
X150918393Y-67807143D01*
X150934494Y-67798537D01*
X151031185Y-67719185D01*
X151110537Y-67622494D01*
X151130000Y-67586082D01*
X151149463Y-67622494D01*
X151228815Y-67719185D01*
X151295000Y-67773502D01*
X151295000Y-67853750D01*
X151257000Y-67891750D01*
X151257000Y-69191000D01*
X151277000Y-69191000D01*
X151277000Y-69445000D01*
X151257000Y-69445000D01*
X151257000Y-70744250D01*
X151295001Y-70782251D01*
X151295001Y-72130842D01*
X151257915Y-72167928D01*
X150679999Y-72167928D01*
X150506745Y-72184992D01*
X150340149Y-72235528D01*
X150186613Y-72317595D01*
X150052038Y-72428038D01*
X149941595Y-72562613D01*
X149859528Y-72716149D01*
X149808992Y-72882745D01*
X149791928Y-73055999D01*
X149791928Y-73756001D01*
X149808992Y-73929255D01*
X149859528Y-74095851D01*
X149941595Y-74249387D01*
X150052038Y-74383962D01*
X150078891Y-74406000D01*
X150052038Y-74428038D01*
X149941595Y-74562613D01*
X149859528Y-74716149D01*
X149808992Y-74882745D01*
X149791928Y-75055999D01*
X149791928Y-75756001D01*
X149808992Y-75929255D01*
X149859528Y-76095851D01*
X149941595Y-76249387D01*
X150052038Y-76383962D01*
X150186613Y-76494405D01*
X150340149Y-76576472D01*
X150506745Y-76627008D01*
X150654002Y-76641512D01*
X150654002Y-82462867D01*
X150399750Y-82464000D01*
X150241000Y-82622750D01*
X150241000Y-83947000D01*
X150261000Y-83947000D01*
X150261000Y-84201000D01*
X150241000Y-84201000D01*
X150241000Y-85525250D01*
X150399750Y-85684000D01*
X150654001Y-85685133D01*
X150654001Y-92512844D01*
X149055447Y-94111398D01*
X149000763Y-93979379D01*
X148824569Y-93715685D01*
X148600315Y-93491431D01*
X148359000Y-93330190D01*
X148359000Y-88613554D01*
X148362797Y-88575001D01*
X148359000Y-88536448D01*
X148359000Y-88536441D01*
X148347641Y-88421115D01*
X148302754Y-88273142D01*
X148229862Y-88136769D01*
X148131764Y-88017238D01*
X148101817Y-87992661D01*
X145664603Y-85555447D01*
X145796621Y-85500763D01*
X146060315Y-85324569D01*
X146284569Y-85100315D01*
X146318856Y-85049000D01*
X148500928Y-85049000D01*
X148513188Y-85173482D01*
X148549498Y-85293180D01*
X148608463Y-85403494D01*
X148687815Y-85500185D01*
X148784506Y-85579537D01*
X148894820Y-85638502D01*
X149014518Y-85674812D01*
X149139000Y-85687072D01*
X149828250Y-85684000D01*
X149987000Y-85525250D01*
X149987000Y-84201000D01*
X148662750Y-84201000D01*
X148504000Y-84359750D01*
X148500928Y-85049000D01*
X146318856Y-85049000D01*
X146460763Y-84836621D01*
X146582129Y-84543620D01*
X146644000Y-84232571D01*
X146644000Y-83915429D01*
X146582129Y-83604380D01*
X146460763Y-83311379D01*
X146318857Y-83099000D01*
X148500928Y-83099000D01*
X148504000Y-83788250D01*
X148662750Y-83947000D01*
X149987000Y-83947000D01*
X149987000Y-82622750D01*
X149828250Y-82464000D01*
X149139000Y-82460928D01*
X149014518Y-82473188D01*
X148894820Y-82509498D01*
X148784506Y-82568463D01*
X148687815Y-82647815D01*
X148608463Y-82744506D01*
X148549498Y-82854820D01*
X148513188Y-82974518D01*
X148500928Y-83099000D01*
X146318857Y-83099000D01*
X146284569Y-83047685D01*
X146060315Y-82823431D01*
X145819000Y-82662190D01*
X145819000Y-70268000D01*
X150091928Y-70268000D01*
X150104188Y-70392482D01*
X150140498Y-70512180D01*
X150199463Y-70622494D01*
X150278815Y-70719185D01*
X150375506Y-70798537D01*
X150485820Y-70857502D01*
X150605518Y-70893812D01*
X150730000Y-70906072D01*
X150844250Y-70903000D01*
X151003000Y-70744250D01*
X151003000Y-69445000D01*
X150253750Y-69445000D01*
X150095000Y-69603750D01*
X150091928Y-70268000D01*
X145819000Y-70268000D01*
X145819000Y-58815810D01*
X146060315Y-58654569D01*
X146284569Y-58430315D01*
X146460763Y-58166621D01*
X146582129Y-57873620D01*
X146644000Y-57562571D01*
X146644000Y-57245429D01*
X146587380Y-56960778D01*
X146684159Y-56863999D01*
X148595024Y-56863999D01*
X148565871Y-56934380D01*
%TA.AperFunction,Conductor*%
D18*
G36*
X148565871Y-56934380D02*
G01*
X148504000Y-57245429D01*
X148504000Y-57562571D01*
X148565871Y-57873620D01*
X148687237Y-58166621D01*
X148863431Y-58430315D01*
X149087685Y-58654569D01*
X149329000Y-58815810D01*
X149329001Y-64916662D01*
X149328815Y-64916815D01*
X149249463Y-65013506D01*
X149190498Y-65123820D01*
X149154188Y-65243518D01*
X149141928Y-65368000D01*
X149141928Y-67268000D01*
X149154188Y-67392482D01*
X149190498Y-67512180D01*
X149249463Y-67622494D01*
X149328815Y-67719185D01*
X149425506Y-67798537D01*
X149535820Y-67857502D01*
X149655518Y-67893812D01*
X149780000Y-67906072D01*
X150291905Y-67906072D01*
X150278815Y-67916815D01*
X150199463Y-68013506D01*
X150140498Y-68123820D01*
X150104188Y-68243518D01*
X150091928Y-68368000D01*
X150095000Y-69032250D01*
X150253750Y-69191000D01*
X151003000Y-69191000D01*
X151003000Y-67891750D01*
X150918393Y-67807143D01*
X150934494Y-67798537D01*
X151031185Y-67719185D01*
X151110537Y-67622494D01*
X151130000Y-67586082D01*
X151149463Y-67622494D01*
X151228815Y-67719185D01*
X151295000Y-67773502D01*
X151295000Y-67853750D01*
X151257000Y-67891750D01*
X151257000Y-69191000D01*
X151277000Y-69191000D01*
X151277000Y-69445000D01*
X151257000Y-69445000D01*
X151257000Y-70744250D01*
X151295001Y-70782251D01*
X151295001Y-72130842D01*
X151257915Y-72167928D01*
X150679999Y-72167928D01*
X150506745Y-72184992D01*
X150340149Y-72235528D01*
X150186613Y-72317595D01*
X150052038Y-72428038D01*
X149941595Y-72562613D01*
X149859528Y-72716149D01*
X149808992Y-72882745D01*
X149791928Y-73055999D01*
X149791928Y-73756001D01*
X149808992Y-73929255D01*
X149859528Y-74095851D01*
X149941595Y-74249387D01*
X150052038Y-74383962D01*
X150078891Y-74406000D01*
X150052038Y-74428038D01*
X149941595Y-74562613D01*
X149859528Y-74716149D01*
X149808992Y-74882745D01*
X149791928Y-75055999D01*
X149791928Y-75756001D01*
X149808992Y-75929255D01*
X149859528Y-76095851D01*
X149941595Y-76249387D01*
X150052038Y-76383962D01*
X150186613Y-76494405D01*
X150340149Y-76576472D01*
X150506745Y-76627008D01*
X150654002Y-76641512D01*
X150654002Y-82462867D01*
X150399750Y-82464000D01*
X150241000Y-82622750D01*
X150241000Y-83947000D01*
X150261000Y-83947000D01*
X150261000Y-84201000D01*
X150241000Y-84201000D01*
X150241000Y-85525250D01*
X150399750Y-85684000D01*
X150654001Y-85685133D01*
X150654001Y-92512844D01*
X149055447Y-94111398D01*
X149000763Y-93979379D01*
X148824569Y-93715685D01*
X148600315Y-93491431D01*
X148359000Y-93330190D01*
X148359000Y-88613554D01*
X148362797Y-88575001D01*
X148359000Y-88536448D01*
X148359000Y-88536441D01*
X148347641Y-88421115D01*
X148302754Y-88273142D01*
X148229862Y-88136769D01*
X148131764Y-88017238D01*
X148101817Y-87992661D01*
X145664603Y-85555447D01*
X145796621Y-85500763D01*
X146060315Y-85324569D01*
X146284569Y-85100315D01*
X146318856Y-85049000D01*
X148500928Y-85049000D01*
X148513188Y-85173482D01*
X148549498Y-85293180D01*
X148608463Y-85403494D01*
X148687815Y-85500185D01*
X148784506Y-85579537D01*
X148894820Y-85638502D01*
X149014518Y-85674812D01*
X149139000Y-85687072D01*
X149828250Y-85684000D01*
X149987000Y-85525250D01*
X149987000Y-84201000D01*
X148662750Y-84201000D01*
X148504000Y-84359750D01*
X148500928Y-85049000D01*
X146318856Y-85049000D01*
X146460763Y-84836621D01*
X146582129Y-84543620D01*
X146644000Y-84232571D01*
X146644000Y-83915429D01*
X146582129Y-83604380D01*
X146460763Y-83311379D01*
X146318857Y-83099000D01*
X148500928Y-83099000D01*
X148504000Y-83788250D01*
X148662750Y-83947000D01*
X149987000Y-83947000D01*
X149987000Y-82622750D01*
X149828250Y-82464000D01*
X149139000Y-82460928D01*
X149014518Y-82473188D01*
X148894820Y-82509498D01*
X148784506Y-82568463D01*
X148687815Y-82647815D01*
X148608463Y-82744506D01*
X148549498Y-82854820D01*
X148513188Y-82974518D01*
X148500928Y-83099000D01*
X146318857Y-83099000D01*
X146284569Y-83047685D01*
X146060315Y-82823431D01*
X145819000Y-82662190D01*
X145819000Y-70268000D01*
X150091928Y-70268000D01*
X150104188Y-70392482D01*
X150140498Y-70512180D01*
X150199463Y-70622494D01*
X150278815Y-70719185D01*
X150375506Y-70798537D01*
X150485820Y-70857502D01*
X150605518Y-70893812D01*
X150730000Y-70906072D01*
X150844250Y-70903000D01*
X151003000Y-70744250D01*
X151003000Y-69445000D01*
X150253750Y-69445000D01*
X150095000Y-69603750D01*
X150091928Y-70268000D01*
X145819000Y-70268000D01*
X145819000Y-58815810D01*
X146060315Y-58654569D01*
X146284569Y-58430315D01*
X146460763Y-58166621D01*
X146582129Y-57873620D01*
X146644000Y-57562571D01*
X146644000Y-57245429D01*
X146587380Y-56960778D01*
X146684159Y-56863999D01*
X148595024Y-56863999D01*
X148565871Y-56934380D01*
G37*
%TD.AperFunction*%
D17*
X157992000Y-48457889D02*
X157938185Y-48392315D01*
X157841494Y-48312963D01*
X157731180Y-48253998D01*
X157611482Y-48217688D01*
X157487000Y-48205428D01*
X156487000Y-48205428D01*
X156362518Y-48217688D01*
X156337000Y-48225429D01*
X156311482Y-48217688D01*
X156187000Y-48205428D01*
X155187000Y-48205428D01*
X155062518Y-48217688D01*
X154942820Y-48253998D01*
X154832506Y-48312963D01*
X154735815Y-48392315D01*
X154656463Y-48489006D01*
X154621455Y-48554500D01*
X154000444Y-48554500D01*
X153998972Y-48549649D01*
X153916905Y-48396113D01*
X153806462Y-48261538D01*
X153671887Y-48151095D01*
X153518351Y-48069028D01*
X153351755Y-48018492D01*
X153178501Y-48001428D01*
X152478499Y-48001428D01*
X152305245Y-48018492D01*
X152138649Y-48069028D01*
X151985113Y-48151095D01*
X151903863Y-48217776D01*
X151879685Y-48188315D01*
X151782994Y-48108963D01*
X151672680Y-48049998D01*
X151552982Y-48013688D01*
X151428500Y-48001428D01*
X151114250Y-48004500D01*
X150955500Y-48163250D01*
X150955500Y-49212500D01*
X150975500Y-49212500D01*
X150975500Y-49466500D01*
X150955500Y-49466500D01*
X150955500Y-50515750D01*
X151114250Y-50674500D01*
X151428500Y-50677572D01*
X151552982Y-50665312D01*
X151672680Y-50629002D01*
X151782994Y-50570037D01*
X151879685Y-50490685D01*
X151903863Y-50461224D01*
X151985113Y-50527905D01*
X152138649Y-50609972D01*
X152305245Y-50660508D01*
X152478499Y-50677572D01*
X153178501Y-50677572D01*
X153351755Y-50660508D01*
X153518351Y-50609972D01*
X153671887Y-50527905D01*
X153806462Y-50417462D01*
X153916905Y-50282887D01*
X153998972Y-50129351D01*
X154000444Y-50124500D01*
X154548928Y-50124500D01*
X154548928Y-50343500D01*
X154561188Y-50467982D01*
X154597498Y-50587680D01*
X154656463Y-50697994D01*
X154735815Y-50794685D01*
X154832506Y-50874037D01*
X154942820Y-50933002D01*
X155062518Y-50969312D01*
X155187000Y-50981572D01*
X155538770Y-50981572D01*
X153711343Y-52809000D01*
X143744211Y-52809000D01*
X143725274Y-52790063D01*
X143555756Y-52676795D01*
X143367398Y-52598774D01*
X143167439Y-52559000D01*
X142963561Y-52559000D01*
X142763602Y-52598774D01*
X142575244Y-52676795D01*
X142405726Y-52790063D01*
X142261563Y-52934226D01*
X142148295Y-53103744D01*
X142070274Y-53292102D01*
X142045302Y-53417644D01*
X139609229Y-50981572D01*
X139961000Y-50981572D01*
X140085482Y-50969312D01*
X140205180Y-50933002D01*
X140315494Y-50874037D01*
X140412185Y-50794685D01*
X140491537Y-50697994D01*
X140550502Y-50587680D01*
X140586812Y-50467982D01*
X140595625Y-50378500D01*
X141309563Y-50378500D01*
X141341538Y-50417462D01*
X141476113Y-50527905D01*
X141629649Y-50609972D01*
X141796245Y-50660508D01*
X141969499Y-50677572D01*
X142669501Y-50677572D01*
X142842755Y-50660508D01*
X143009351Y-50609972D01*
X143162887Y-50527905D01*
X143244137Y-50461224D01*
X143268315Y-50490685D01*
X143365006Y-50570037D01*
X143475320Y-50629002D01*
X143595018Y-50665312D01*
X143719500Y-50677572D01*
X144033750Y-50674500D01*
X144192500Y-50515750D01*
X144192500Y-49466500D01*
X144446500Y-49466500D01*
X144446500Y-50515750D01*
X144605250Y-50674500D01*
X144919500Y-50677572D01*
X145043982Y-50665312D01*
X145163680Y-50629002D01*
X145273994Y-50570037D01*
X145370685Y-50490685D01*
X145450037Y-50393994D01*
X145509002Y-50283680D01*
X145545312Y-50163982D01*
X145557572Y-50039500D01*
X149590428Y-50039500D01*
X149602688Y-50163982D01*
X149638998Y-50283680D01*
X149697963Y-50393994D01*
X149777315Y-50490685D01*
X149874006Y-50570037D01*
X149984320Y-50629002D01*
X150104018Y-50665312D01*
X150228500Y-50677572D01*
X150542750Y-50674500D01*
X150701500Y-50515750D01*
X150701500Y-49466500D01*
X149752250Y-49466500D01*
X149593500Y-49625250D01*
X149590428Y-50039500D01*
X145557572Y-50039500D01*
X145554500Y-49625250D01*
X145395750Y-49466500D01*
X144446500Y-49466500D01*
X144192500Y-49466500D01*
X144172500Y-49466500D01*
X144172500Y-49212500D01*
X144192500Y-49212500D01*
X144192500Y-48163250D01*
X144446500Y-48163250D01*
X144446500Y-49212500D01*
X145395750Y-49212500D01*
X145554500Y-49053750D01*
X145557572Y-48639500D01*
X149590428Y-48639500D01*
X149593500Y-49053750D01*
X149752250Y-49212500D01*
X150701500Y-49212500D01*
X150701500Y-48163250D01*
X150542750Y-48004500D01*
X150228500Y-48001428D01*
X150104018Y-48013688D01*
X149984320Y-48049998D01*
X149874006Y-48108963D01*
X149777315Y-48188315D01*
X149697963Y-48285006D01*
X149638998Y-48395320D01*
X149602688Y-48515018D01*
X149590428Y-48639500D01*
X145557572Y-48639500D01*
X145545312Y-48515018D01*
X145509002Y-48395320D01*
X145450037Y-48285006D01*
X145370685Y-48188315D01*
X145273994Y-48108963D01*
X145163680Y-48049998D01*
X145043982Y-48013688D01*
X144919500Y-48001428D01*
X144605250Y-48004500D01*
X144446500Y-48163250D01*
X144192500Y-48163250D01*
X144033750Y-48004500D01*
X143719500Y-48001428D01*
X143595018Y-48013688D01*
X143475320Y-48049998D01*
X143365006Y-48108963D01*
X143268315Y-48188315D01*
X143244137Y-48217776D01*
X143162887Y-48151095D01*
X143009351Y-48069028D01*
X142842755Y-48018492D01*
X142669501Y-48001428D01*
X141969499Y-48001428D01*
X141796245Y-48018492D01*
X141629649Y-48069028D01*
X141476113Y-48151095D01*
X141341538Y-48261538D01*
X141231095Y-48396113D01*
X141149028Y-48549649D01*
X141098492Y-48716245D01*
X141089406Y-48808500D01*
X140595625Y-48808500D01*
X140586812Y-48719018D01*
X140550502Y-48599320D01*
X140491537Y-48489006D01*
X140412185Y-48392315D01*
X140315494Y-48312963D01*
X140205180Y-48253998D01*
X140085482Y-48217688D01*
X139961000Y-48205428D01*
X138961000Y-48205428D01*
X138836518Y-48217688D01*
X138811000Y-48225429D01*
X138785482Y-48217688D01*
X138661000Y-48205428D01*
X137661000Y-48205428D01*
X137536518Y-48217688D01*
X137416820Y-48253998D01*
X137312000Y-48310026D01*
X137312000Y-47396000D01*
X157992000Y-47396000D01*
X157992000Y-48457889D01*
%TA.AperFunction,Conductor*%
D18*
G36*
X157992000Y-48457889D02*
G01*
X157938185Y-48392315D01*
X157841494Y-48312963D01*
X157731180Y-48253998D01*
X157611482Y-48217688D01*
X157487000Y-48205428D01*
X156487000Y-48205428D01*
X156362518Y-48217688D01*
X156337000Y-48225429D01*
X156311482Y-48217688D01*
X156187000Y-48205428D01*
X155187000Y-48205428D01*
X155062518Y-48217688D01*
X154942820Y-48253998D01*
X154832506Y-48312963D01*
X154735815Y-48392315D01*
X154656463Y-48489006D01*
X154621455Y-48554500D01*
X154000444Y-48554500D01*
X153998972Y-48549649D01*
X153916905Y-48396113D01*
X153806462Y-48261538D01*
X153671887Y-48151095D01*
X153518351Y-48069028D01*
X153351755Y-48018492D01*
X153178501Y-48001428D01*
X152478499Y-48001428D01*
X152305245Y-48018492D01*
X152138649Y-48069028D01*
X151985113Y-48151095D01*
X151903863Y-48217776D01*
X151879685Y-48188315D01*
X151782994Y-48108963D01*
X151672680Y-48049998D01*
X151552982Y-48013688D01*
X151428500Y-48001428D01*
X151114250Y-48004500D01*
X150955500Y-48163250D01*
X150955500Y-49212500D01*
X150975500Y-49212500D01*
X150975500Y-49466500D01*
X150955500Y-49466500D01*
X150955500Y-50515750D01*
X151114250Y-50674500D01*
X151428500Y-50677572D01*
X151552982Y-50665312D01*
X151672680Y-50629002D01*
X151782994Y-50570037D01*
X151879685Y-50490685D01*
X151903863Y-50461224D01*
X151985113Y-50527905D01*
X152138649Y-50609972D01*
X152305245Y-50660508D01*
X152478499Y-50677572D01*
X153178501Y-50677572D01*
X153351755Y-50660508D01*
X153518351Y-50609972D01*
X153671887Y-50527905D01*
X153806462Y-50417462D01*
X153916905Y-50282887D01*
X153998972Y-50129351D01*
X154000444Y-50124500D01*
X154548928Y-50124500D01*
X154548928Y-50343500D01*
X154561188Y-50467982D01*
X154597498Y-50587680D01*
X154656463Y-50697994D01*
X154735815Y-50794685D01*
X154832506Y-50874037D01*
X154942820Y-50933002D01*
X155062518Y-50969312D01*
X155187000Y-50981572D01*
X155538770Y-50981572D01*
X153711343Y-52809000D01*
X143744211Y-52809000D01*
X143725274Y-52790063D01*
X143555756Y-52676795D01*
X143367398Y-52598774D01*
X143167439Y-52559000D01*
X142963561Y-52559000D01*
X142763602Y-52598774D01*
X142575244Y-52676795D01*
X142405726Y-52790063D01*
X142261563Y-52934226D01*
X142148295Y-53103744D01*
X142070274Y-53292102D01*
X142045302Y-53417644D01*
X139609229Y-50981572D01*
X139961000Y-50981572D01*
X140085482Y-50969312D01*
X140205180Y-50933002D01*
X140315494Y-50874037D01*
X140412185Y-50794685D01*
X140491537Y-50697994D01*
X140550502Y-50587680D01*
X140586812Y-50467982D01*
X140595625Y-50378500D01*
X141309563Y-50378500D01*
X141341538Y-50417462D01*
X141476113Y-50527905D01*
X141629649Y-50609972D01*
X141796245Y-50660508D01*
X141969499Y-50677572D01*
X142669501Y-50677572D01*
X142842755Y-50660508D01*
X143009351Y-50609972D01*
X143162887Y-50527905D01*
X143244137Y-50461224D01*
X143268315Y-50490685D01*
X143365006Y-50570037D01*
X143475320Y-50629002D01*
X143595018Y-50665312D01*
X143719500Y-50677572D01*
X144033750Y-50674500D01*
X144192500Y-50515750D01*
X144192500Y-49466500D01*
X144446500Y-49466500D01*
X144446500Y-50515750D01*
X144605250Y-50674500D01*
X144919500Y-50677572D01*
X145043982Y-50665312D01*
X145163680Y-50629002D01*
X145273994Y-50570037D01*
X145370685Y-50490685D01*
X145450037Y-50393994D01*
X145509002Y-50283680D01*
X145545312Y-50163982D01*
X145557572Y-50039500D01*
X149590428Y-50039500D01*
X149602688Y-50163982D01*
X149638998Y-50283680D01*
X149697963Y-50393994D01*
X149777315Y-50490685D01*
X149874006Y-50570037D01*
X149984320Y-50629002D01*
X150104018Y-50665312D01*
X150228500Y-50677572D01*
X150542750Y-50674500D01*
X150701500Y-50515750D01*
X150701500Y-49466500D01*
X149752250Y-49466500D01*
X149593500Y-49625250D01*
X149590428Y-50039500D01*
X145557572Y-50039500D01*
X145554500Y-49625250D01*
X145395750Y-49466500D01*
X144446500Y-49466500D01*
X144192500Y-49466500D01*
X144172500Y-49466500D01*
X144172500Y-49212500D01*
X144192500Y-49212500D01*
X144192500Y-48163250D01*
X144446500Y-48163250D01*
X144446500Y-49212500D01*
X145395750Y-49212500D01*
X145554500Y-49053750D01*
X145557572Y-48639500D01*
X149590428Y-48639500D01*
X149593500Y-49053750D01*
X149752250Y-49212500D01*
X150701500Y-49212500D01*
X150701500Y-48163250D01*
X150542750Y-48004500D01*
X150228500Y-48001428D01*
X150104018Y-48013688D01*
X149984320Y-48049998D01*
X149874006Y-48108963D01*
X149777315Y-48188315D01*
X149697963Y-48285006D01*
X149638998Y-48395320D01*
X149602688Y-48515018D01*
X149590428Y-48639500D01*
X145557572Y-48639500D01*
X145545312Y-48515018D01*
X145509002Y-48395320D01*
X145450037Y-48285006D01*
X145370685Y-48188315D01*
X145273994Y-48108963D01*
X145163680Y-48049998D01*
X145043982Y-48013688D01*
X144919500Y-48001428D01*
X144605250Y-48004500D01*
X144446500Y-48163250D01*
X144192500Y-48163250D01*
X144033750Y-48004500D01*
X143719500Y-48001428D01*
X143595018Y-48013688D01*
X143475320Y-48049998D01*
X143365006Y-48108963D01*
X143268315Y-48188315D01*
X143244137Y-48217776D01*
X143162887Y-48151095D01*
X143009351Y-48069028D01*
X142842755Y-48018492D01*
X142669501Y-48001428D01*
X141969499Y-48001428D01*
X141796245Y-48018492D01*
X141629649Y-48069028D01*
X141476113Y-48151095D01*
X141341538Y-48261538D01*
X141231095Y-48396113D01*
X141149028Y-48549649D01*
X141098492Y-48716245D01*
X141089406Y-48808500D01*
X140595625Y-48808500D01*
X140586812Y-48719018D01*
X140550502Y-48599320D01*
X140491537Y-48489006D01*
X140412185Y-48392315D01*
X140315494Y-48312963D01*
X140205180Y-48253998D01*
X140085482Y-48217688D01*
X139961000Y-48205428D01*
X138961000Y-48205428D01*
X138836518Y-48217688D01*
X138811000Y-48225429D01*
X138785482Y-48217688D01*
X138661000Y-48205428D01*
X137661000Y-48205428D01*
X137536518Y-48217688D01*
X137416820Y-48253998D01*
X137312000Y-48310026D01*
X137312000Y-47396000D01*
X157992000Y-47396000D01*
X157992000Y-48457889D01*
G37*
%TD.AperFunction*%
%TD*%
M02*
