%TF.GenerationSoftware,KiCad,Pcbnew,(5.1.10)-1*%
%TF.CreationDate,2021-08-25T15:29:53+02:00*%
%TF.ProjectId,Module,4d6f6475-6c65-42e6-9b69-6361645f7063,v01*%
%TF.SameCoordinates,Original*%
%TF.FileFunction,Legend,Bot*%
%TF.FilePolarity,Positive*%
%FSLAX46Y46*%
G04 Gerber Fmt 4.6, Leading zero omitted, Abs format (unit mm)*
G04 Created by KiCad (PCBNEW (5.1.10)-1) date 2021-08-25 15:29:53*
%MOMM*%
%LPD*%
G01*
G04 APERTURE LIST*
%ADD10C,0.150000*%
%ADD11R,1.950000X1.950000*%
%ADD12C,1.950000*%
G04 APERTURE END LIST*
D10*
X157082380Y-99576000D02*
X157177619Y-99528380D01*
X157320476Y-99528380D01*
X157463333Y-99576000D01*
X157558571Y-99671238D01*
X157606190Y-99766476D01*
X157653809Y-99956952D01*
X157653809Y-100099809D01*
X157606190Y-100290285D01*
X157558571Y-100385523D01*
X157463333Y-100480761D01*
X157320476Y-100528380D01*
X157225238Y-100528380D01*
X157082380Y-100480761D01*
X157034761Y-100433142D01*
X157034761Y-100099809D01*
X157225238Y-100099809D01*
X156606190Y-100528380D02*
X156606190Y-99528380D01*
X156606190Y-100004571D02*
X156034761Y-100004571D01*
X156034761Y-100528380D02*
X156034761Y-99528380D01*
X155368095Y-99528380D02*
X155177619Y-99528380D01*
X155082380Y-99576000D01*
X154987142Y-99671238D01*
X154939523Y-99861714D01*
X154939523Y-100195047D01*
X154987142Y-100385523D01*
X155082380Y-100480761D01*
X155177619Y-100528380D01*
X155368095Y-100528380D01*
X155463333Y-100480761D01*
X155558571Y-100385523D01*
X155606190Y-100195047D01*
X155606190Y-99861714D01*
X155558571Y-99671238D01*
X155463333Y-99576000D01*
X155368095Y-99528380D01*
X154558571Y-100480761D02*
X154415714Y-100528380D01*
X154177619Y-100528380D01*
X154082380Y-100480761D01*
X154034761Y-100433142D01*
X153987142Y-100337904D01*
X153987142Y-100242666D01*
X154034761Y-100147428D01*
X154082380Y-100099809D01*
X154177619Y-100052190D01*
X154368095Y-100004571D01*
X154463333Y-99956952D01*
X154510952Y-99909333D01*
X154558571Y-99814095D01*
X154558571Y-99718857D01*
X154510952Y-99623619D01*
X154463333Y-99576000D01*
X154368095Y-99528380D01*
X154130000Y-99528380D01*
X153987142Y-99576000D01*
X152987142Y-100433142D02*
X153034761Y-100480761D01*
X153177619Y-100528380D01*
X153272857Y-100528380D01*
X153415714Y-100480761D01*
X153510952Y-100385523D01*
X153558571Y-100290285D01*
X153606190Y-100099809D01*
X153606190Y-99956952D01*
X153558571Y-99766476D01*
X153510952Y-99671238D01*
X153415714Y-99576000D01*
X153272857Y-99528380D01*
X153177619Y-99528380D01*
X153034761Y-99576000D01*
X152987142Y-99623619D01*
X152558571Y-100528380D02*
X152558571Y-99528380D01*
X152558571Y-100004571D02*
X151987142Y-100004571D01*
X151987142Y-100528380D02*
X151987142Y-99528380D01*
X151653809Y-99528380D02*
X151082380Y-99528380D01*
X151368095Y-100528380D02*
X151368095Y-99528380D01*
X149987142Y-100147428D02*
X149225238Y-100147428D01*
X148034761Y-99623619D02*
X147987142Y-99576000D01*
X147891904Y-99528380D01*
X147653809Y-99528380D01*
X147558571Y-99576000D01*
X147510952Y-99623619D01*
X147463333Y-99718857D01*
X147463333Y-99814095D01*
X147510952Y-99956952D01*
X148082380Y-100528380D01*
X147463333Y-100528380D01*
X146844285Y-99528380D02*
X146749047Y-99528380D01*
X146653809Y-99576000D01*
X146606190Y-99623619D01*
X146558571Y-99718857D01*
X146510952Y-99909333D01*
X146510952Y-100147428D01*
X146558571Y-100337904D01*
X146606190Y-100433142D01*
X146653809Y-100480761D01*
X146749047Y-100528380D01*
X146844285Y-100528380D01*
X146939523Y-100480761D01*
X146987142Y-100433142D01*
X147034761Y-100337904D01*
X147082380Y-100147428D01*
X147082380Y-99909333D01*
X147034761Y-99718857D01*
X146987142Y-99623619D01*
X146939523Y-99576000D01*
X146844285Y-99528380D01*
X146130000Y-99623619D02*
X146082380Y-99576000D01*
X145987142Y-99528380D01*
X145749047Y-99528380D01*
X145653809Y-99576000D01*
X145606190Y-99623619D01*
X145558571Y-99718857D01*
X145558571Y-99814095D01*
X145606190Y-99956952D01*
X146177619Y-100528380D01*
X145558571Y-100528380D01*
X144606190Y-100528380D02*
X145177619Y-100528380D01*
X144891904Y-100528380D02*
X144891904Y-99528380D01*
X144987142Y-99671238D01*
X145082380Y-99766476D01*
X145177619Y-99814095D01*
X157400476Y-98337714D02*
X157162380Y-99004380D01*
X156924285Y-98337714D01*
X156352857Y-98004380D02*
X156257619Y-98004380D01*
X156162380Y-98052000D01*
X156114761Y-98099619D01*
X156067142Y-98194857D01*
X156019523Y-98385333D01*
X156019523Y-98623428D01*
X156067142Y-98813904D01*
X156114761Y-98909142D01*
X156162380Y-98956761D01*
X156257619Y-99004380D01*
X156352857Y-99004380D01*
X156448095Y-98956761D01*
X156495714Y-98909142D01*
X156543333Y-98813904D01*
X156590952Y-98623428D01*
X156590952Y-98385333D01*
X156543333Y-98194857D01*
X156495714Y-98099619D01*
X156448095Y-98052000D01*
X156352857Y-98004380D01*
X155067142Y-99004380D02*
X155638571Y-99004380D01*
X155352857Y-99004380D02*
X155352857Y-98004380D01*
X155448095Y-98147238D01*
X155543333Y-98242476D01*
X155638571Y-98290095D01*
%LPC*%
D11*
%TO.C,J1*%
X142494000Y-94742000D03*
D12*
X147574000Y-94742000D03*
X152654000Y-94742000D03*
%TD*%
D11*
%TO.C,J2*%
X155194000Y-57404000D03*
D12*
X150114000Y-57404000D03*
X145034000Y-57404000D03*
X139954000Y-57404000D03*
%TD*%
D11*
%TO.C,J3*%
X150114000Y-84074000D03*
D12*
X145034000Y-84074000D03*
%TD*%
M02*
